<?xml version="1.0" encoding="utf-8"?>
<!-- Generator: Adobe Illustrator 22.0.1, SVG Export Plug-In . SVG Version: 6.00 Build 0)  -->
<svg version="1.1" id="Layer_2" xmlns="http://www.w3.org/2000/svg" xmlns:xlink="http://www.w3.org/1999/xlink" x="0px" y="0px"
	 viewBox="0 0 643.9 389.1" style="enable-background:new 0 0 643.9 389.1;" xml:space="preserve">
<style type="text/css">
	.Arched_x0020_Green{fill:url(#SVGID_1_);stroke:#FFFFFF;stroke-width:0.25;stroke-miterlimit:1;}
	.st0{fill:#FFCE7B;stroke:#000000;stroke-miterlimit:20;}
	.st1{fill:#603E1D;stroke:#000000;stroke-width:2;stroke-linecap:round;stroke-miterlimit:20;}
	.st2{fill:#6E4825;stroke:#000000;stroke-width:2;stroke-linecap:round;stroke-miterlimit:20;}
	.st3{fill:#7C512C;stroke:#000000;stroke-width:2;stroke-linecap:round;stroke-miterlimit:20;}
	.st4{fill:#96171A;stroke:#000000;stroke-width:2;stroke-linecap:round;stroke-miterlimit:20;}
	.st5{fill:#3C2415;}
	.st6{fill:#FFFFFF;}
	.st7{fill:#603E1D;}
	.st8{fill:#A76D40;}
	.st9{fill:#FFCE7B;stroke:#000000;stroke-width:2;stroke-linejoin:round;stroke-miterlimit:20;}
	.st10{fill:none;stroke:#000000;stroke-width:2;stroke-linecap:round;}
	.st11{fill:none;stroke:#000000;stroke-width:2;stroke-linecap:round;stroke-miterlimit:20;}
	.st12{fill:#FFCE7B;stroke:#000000;stroke-linejoin:round;stroke-miterlimit:20;}
	.st13{fill:#43525A;stroke:#000000;stroke-width:2;stroke-linecap:round;stroke-miterlimit:20;}
	.st14{fill:#748A96;}
</style>
<linearGradient id="SVGID_1_" gradientUnits="userSpaceOnUse" x1="-96.2396" y1="473.0972" x2="-95.5325" y2="472.3901">
	<stop  offset="0" style="stop-color:#20AC4B"/>
	<stop  offset="0.9831" style="stop-color:#19361A"/>
</linearGradient>
<polygon class="st0" points="614.4,140.1 620.6,134.9 621,144.6 "/>
<g>
	<path class="st1" d="M216.9,234c0,0,4.1,32.9,0,48.4c-4.1,15.5-38.9,48.4-38.9,48.4s1.5,2.5,2.6,4.3c1.1,1.8,2.2,4.3,2.2,4.3
		s16.4,1.9,28,6.5c13.8,5.4,14.6,17.7,14.6,17.7c1,6.1-8.8,6-13,6.4c-6.9,0.6-13.7,1.1-20.6,1.7c-12.4,1-25.7,0.2-37.9-1.9
		c0,0-13.8,1.2-21.6,1c-7.8-0.2-12.8-4-12.8-4s-5.9-4.2-6.6-14.2c-0.4-6,4.1-16,4.1-16s-3.8-29.4,1.4-48.4
		c5.2-19,13.1-31.8,13.1-31.8s-7.1-23.2-8.5-33.7"/>
</g>
<g>
	<path class="st2" d="M453.8,169.4c0,0-1,10.8-6.4,19.9c-12.7,21.3-19,23.6-19,23.6s1.4,27.9-3.5,43.7
		c-4.8,15.9-10.1,24.5-10.1,24.5s0.7,2.5,0,18c-0.7,15.5-6,28.5-6,28.5s0.3,2.1,1.1,6.3c0.7,4.2,0.4,8.3,0.4,8.3s17.1,3.1,26,4.5
		c16.2,2.6,18.7,17.4,18.7,17.4c0.7,4.1-5.2,5.5-8.4,6.2c-6.5,1.5-15.2,2.5-21.8,3.1c-3.9,0.3-14.5,1.9-17-2.4c0,0-2,0.6-5.2,0.5
		c-10.2-0.3-20.4-0.3-30.5-0.3c-8.6,0-11.5-2.3-11.5-2.3s-5.4-2.8-7-10.2c-1.7-7.9,1.8-15.1,1.8-15.1s-18.9-42.4-22.9-76.6
		c-7.9-66.9,11.5-119.4,11.5-119.4"/>
</g>
<path class="st1" d="M526.3,41.4c-0.2-7.6,5.6-11.4,12.7-11c15.1,0.9,19.2,16.9,17.7,28.9"/>
<path class="st3" d="M429.3,29.4c0,0,11.5-2.4,32.2,0c20.6,2.4,34.3,8.1,34.3,8.1s12.6-4.1,35,3c22.4,7.1,35,19.2,35,19.2
	s31.7,13,31.3,17.5c-1.6,19.6,36.2,30.7,36.2,30.7s8.7-0.8,9.7,4.4c1.8,9.5-10.6,14.7-10.6,14.7s3.1,4.8,0.7,8.3
	c-2.4,3.5-18.8,4.6-18.8,4.6s11.7,6,9.1,9.9c-6.3,9.5-35.5,4.6-35.5,4.6s-4.4,8.5-18.3,10.4c-24.1,3.3-39.8-1.9-39.8-1.9
	s-5.9,9.6-27.2,14.6c-21.3,5-43.3,4.3-43.3,4.3s-11.4,27.2-35.7,39.5c-42.1,21.3-82.2,1.6-82.2,1.6s-10.4,4.7-23.3,4.3
	c-12.8-0.4-17.7-6.6-17.7-6.6s-16.9,22.1-61.4,30.2c-57,10.4-99.9-9.7-99.9-9.7s-43.7-5-68.2-22.9c-24.5-17.8-42.9-51.9-42.9-51.9
	s-12.8-6.2-13.6-23.3c-1.1-22.5,11.2-29.5,11.2-29.5s12.4-61.2,84.3-88c78-29.1,142.4-3.9,142.4-3.9s5.2-1.2,17.7-1.2
	c12.4,0,18.5,1.6,18.5,1.6s34.5-23.6,70.6-20.9C394.9,3.9,429.3,29.4,429.3,29.4z"/>
<path class="st4" d="M614.1,140c0,0-12.1,0.3-18.9-1.7c-5.8-1.7-11.6-4.2-11.6-4.2s12.1,9.6,19.8,12.3c3.1,1.1,6.2,2,9.3,2.9
	c2.5,0.7,5.7,2.1,8.4,1.7c2.8-0.5,2.9-3.2,1.3-5.1C620.2,143.4,616.9,141.6,614.1,140z"/>
<g>
	<path class="st5" d="M641.6,111.9c0.7,2.1,0.3,5.5-0.9,7.4c-1,1.6-2.7,3.4-4.3,4.5c-0.2,0.2-3.8,2.3-3.8,2.3
		c-2.4-3.4-6-6.1-6.1-10.3c-0.1-2.7,2.8-5.6,5.2-6.5c2.6-1,6.4-0.7,8.6,1.2C641,111.1,641.3,111,641.6,111.9z"/>
</g>
<path class="st6" d="M636.3,116c1.8-0.2,4-3.8,1.5-4.6c-1.4-0.4-3.1,0.1-3.7,1.5C633.5,114.4,634.6,116.2,636.3,116z"/>
<g>
	<path class="st3" d="M416.9,180.4c0,0-0.6,9.7-6,18.7c-12.7,21.3-25,26-25,26s-3,26-7.8,41.8c-4.8,15.9-10.1,24.5-10.1,24.5
		s0.7,2.5,0,18c-0.7,15.5-6,28.5-6,28.5s0.3,2.1,1.1,6.3c0.7,4.2,0.4,8.3,0.4,8.3s17.1,3.1,26,4.5c4.1,0.7,7.8,2.2,11,4.8
		c3.2,2.6,8.8,9.2,7.7,13.7c-1.2,4.6-9,5.1-12.8,5.3c-4.6,0.3-9,1-13.6,1.3c-5.8,0.4-11.8,0.9-17.6,0.7c-6.5-0.2-7.3-3-7.3-3
		s-24.2,1.6-31.6,1.6c-8.6,0-11.5-2.3-11.5-2.3s-5.4-2.8-7-10.2c-1.7-7.9,1.8-15.1,1.8-15.1s-18.9-42.4-22.9-76.6
		c-7.9-66.9,11.5-119.4,11.5-119.4"/>
</g>
<path class="st3" d="M149.6,156.1c0,0,7.6,10.3,9.5,35.3c1.9,25-1.1,45.6-1.1,45.6s5.7,14-0.8,30.9c-6.5,16.9-25.1,29.8-25.1,29.8
	s-13,16.6-31.6,27.2c-18.7,10.7-22.7,10.3-22.7,10.3s-8.3,1.4-9.9,2.5c-2.6,1.8-2.8,4.5-2.8,4.5s1.4,0.8,2.6,3.7
	c1.2,2.9,3.3,8.6,3.3,8.6s9.1,1.5,13.2,7.3c2.1,3,4.7,8,2,11.5c-3.1,4-12.4,3.3-17.1,3.7c-17.3,1.6-40,2.9-49.8-14.3
	c-5.2-9.2-6.3-17.7-6.3-17.7s-6.7-10.5-9.1-17.2C1.4,321.2,1,317.2,1,317.2s-0.4-4.7,3.4-9c3.8-4.3,14.7-9.2,14.7-9.2
	s0-3.1,5.9-13.3c5.8-10.1,16.6-20.2,16.6-20.2s-12.1-25.4-15.4-58.4c-3.2-32.9-0.9-82.5-0.9-82.5"/>
<path class="st7" d="M412.9,107c0.2-8.7-4.4-18.8-10.7-24.8c0,0,10.4-1.7,14.3,6.7C420.3,97.3,412.9,107,412.9,107z"/>
<path class="st7" d="M124.8,96.8c-2.3-6.2-17.4-19.5-36.6-13.3c0,0,7.3-14.1,24-8.7C129,80.2,124.8,96.8,124.8,96.8z"/>
<g>
	<path class="st7" d="M588.5,105.2c-3,1-5,0.9-7.9-0.1c-1-0.4-6.7-3.6-7.6-2.6c1.8-1.9,3.4-3.8,4.9-5.9c1.4-2,3.1-3.8,5.4-4.9
		c2.2-1,5.2-1.6,7.5-0.7c2.4,0.9,3,3.1,3.4,5.3c0.5,2.8,2,4.2,4,6.4C595.2,102.4,591.4,104.2,588.5,105.2z"/>
	<g>
		<g>
			<path class="st7" d="M511.6,58.8c0,0-3.7-7.4-7.7-4.3c-4,3.1-0.4,10.8-0.4,10.8l1.5,4.1c0,0,1-3,4.2-4.7c1.8-0.9,4.5-2,4.5-2
				L511.6,58.8z"/>
		</g>
		<g>
			<path class="st7" d="M579.8,152.1c0,0,5.8-1.1,8.6-2.6c3.3-1.7,5.1-2.5,5.1-2.5s5.1,2.3,9.5,3.6c4.4,1.3,12.8,2.9,12.8,2.9
				s-9.3,2.4-16.7,1.8C592.2,154.8,579.8,152.1,579.8,152.1z"/>
		</g>
		<g>
			<path class="st7" d="M570.1,69.9c0,0,2.5,0.9,6.7,3.3c6.5,3.8,8.4,6.6,8.4,6.6s-17.9,5-19.4,17.6c-1.2,10.5,8.9,13.4,8.9,13.4
				s1.7,0.4,5.7,2.9c4.1,2.5,5.6,5.9,5.6,5.9s-0.7-3.6,3.6-8.5c4.4-4.9,12.3-8.9,12.3-8.9s2.2,2,6.5,4.4c4.4,2.3,10.3,4,10.3,4
				s-6.7,7.2-3.3,10.4c3.8,3.5,9.4-2.9,9.4-2.9s2.4,4.2,4.6,7.3c2.2,3.1,5,5.9,2.7,9.2c-3.4,5.1-20.7,5.3-27,4.8
				c-6.3-0.5-52.3-13.4-55.5-35.7C546.7,81.2,570.1,69.9,570.1,69.9z"/>
		</g>
		<g>
			<path class="st7" d="M386.1,232.1c0,0,4.3,0.2,11.4-1.1c8-1.5,18.6-5.1,18.6-5.1s2.5,21.7-11.4,40.7
				c-13.9,19-21.7,24.6-21.7,24.6s2.3,14.1-2.3,27.8c-4.5,13.7-16.2,29.5-16.2,29.5s0-2.2-0.4-4.5c-0.4-2.4-1.4-5.4-1.4-5.4
				s4.8-14.1,5.9-23.9c1.1-9.8,0.2-23,0.2-23s8.5-14.3,12.6-33.5C385.7,239.1,386.1,232.1,386.1,232.1z"/>
		</g>
		<g>
			<path class="st7" d="M309.6,353.8c0,0-15.7-36.2-20-59.2c-4.4-23.9-4.5-47.1-4.5-47.1s1.5-38,17-31.1c19,8.4,11.4,37,15.4,70.3
				c6.5,54.8,12.8,72.7,12.8,72.7s6.6,0.8,21.3,5.8c22,7.4,25.1,16.5,25.1,16.5c-0.2-0.5-12,0.4-13.1,0.3c-4.1-0.2-6-3.4-6-3.4
				s-23.2,2.6-33.1,2.4c-9.8-0.2-13.2-3.1-15.5-8.4C304.8,363.1,309.6,353.8,309.6,353.8z"/>
		</g>
		<g>
			<path class="st7" d="M130.7,293.4c0,0-5.6,11.2-26.4,24.3c-19.3,12.1-41.4,15.1-41.4,15.1s0.5,2.7-1.8,4.9
				c-2.3,2.2-3.2,2.3-3.2,2.3s2.5,2.8,4.9,6.2c3.2,4.5,4.6,8.7,4.6,8.7s-5.8-0.6-17.9,1.8c-19.1,3.8-20.6,14.5-20.6,14.5
				s-8.2-4.1-11.2-12.8c-3-8.8-4.1-14.4-4.1-14.4S0,322.8,1.9,315.4c2.8-10.4,17.2-15,17.2-15s3-12.3,13.6-23.9
				c3.9-4.3,9.1-9.4,9.1-9.4s-5.5,19.6,12.2,23.2c17.7,3.6,32.6-11.3,52.3-10.5C127.2,280.8,130.7,293.4,130.7,293.4z"/>
		</g>
		<g>
			<path class="st7" d="M324.8,166.7c0,0,31.2,8.3,52.5,4.1c36.6-7.3,48.7-28.4,48.7-28.4s-4.6,39.8-46.9,43
				C339.1,188.5,324.8,166.7,324.8,166.7z"/>
		</g>
		<g>
			<path class="st7" d="M323.1,66.3c0,0-17.4,4.7-28.7,23c-9.7,15.7-5.5,28.4-5.5,28.4s-13.3-15.8-6.7-33.4
				C291,60.7,323.1,66.3,323.1,66.3z"/>
		</g>
	</g>
</g>
<g>
	<g>
		<path class="st8" d="M220,353.7c-0.4-1.1-2.3-2.7-3.5-3.4c-1.6-1-3.3-2-5-2.9c-3.7-1.8-7.9-3-11.9-3.9c-8.8-2.1-9.3-2.5-17.4-3.3
			c0,0,4,2.4-10.5,5.6c-5.2,1.2-23.9,1.7-23.9,1.7c5.8,1.2,11.5,2.7,17.2,4.4c4.2,1.3,8.3,2.8,12.3,4.5c2.6,1.1,5.2,2.3,7.9,1.6
			c2.1-0.5,5.4-1,9.8,1.2c-1.4-2.6,4.6-2.6,6.9-1.5c-0.1-1.3-0.6-2.7,1.3-3c2.8-0.5,5.7,0.8,5.7,0.8c0-0.9-0.3-1.8,1.4-2.1
			c3.1-0.5,5.4,0.1,6.6,0.5C215.9,352.2,220,353.7,220,353.7z"/>
	</g>
	<g>
		<path class="st8" d="M362.2,353.2c0,0,0.1,3.2-7.5,4.2c-7.6,1-20.4,0.7-20.4,0.7c5.7,1.5,11.4,3.2,17,4.9c2.8,0.8,5.3,1.7,8,2.9
			c1.8,0.8,6.1,2.7,7.3,5c-0.2-3.5,5.7-1.9,8-0.9c-2.5-2.7,4.8-2.6,7.8-0.8c-2.9-3,5.8-3.1,7.8-1.1c-1.8-3.9,6.2-2.3,7.8-1
			c-0.5-3.4,2.8-2.9,4.6-2c-2.3-4.1-11.7-7.4-17.5-8.2c-6.2-0.8-12.4-2.2-18.6-3.2C365.1,353.6,363.6,353.2,362.2,353.2z"/>
	</g>
	<g>
		<path class="st8" d="M409.4,343.1c0,0,1,3.3-6.6,4.3c-7.6,1-21.3,0.7-21.3,0.7c0.5-0.3,3.2,0.8,3.8,1c1.3,0.4,2.6,0.7,3.9,1.1
			c2.7,0.8,5.4,1.5,8.1,2.3c2.6,0.8,5.2,1.4,7.7,2.3c3.2,1,5.6,3,7.8,5.4c2-1.9,4.8-1.6,9.1-0.2c-0.3-1.6,2-2.6,7.2-1.5
			c-0.6-1.6,3-2.7,7.3-1.4c-0.5-1.5,1.2-2.4,7.1-1c0.3,0.1-0.2-1.8,1.5-2c2.6-0.3,3.5,0.8,4.4,1c0,0-1.3-2.2-2.4-2.8
			c-1-0.5-1.9-1.3-2.8-1.8c-2-1-4.2-1.8-6.4-2.4c-2.4-0.7-4.9-1-7.4-1.5c-4.9-0.9-9.9-1.7-14.9-2.5
			C413.5,343.8,411.5,343.4,409.4,343.1z"/>
	</g>
	<g>
		<path class="st8" d="M33.1,366.6c1.2,1.5,4.2,2,5.6,1.9c2.2-0.2,1.7-0.9,3.3-1.8c2.2-1.2,8.6-1.1,10.7,0.5c-0.5-2.8,4-3,9.1-1.1
			c-0.9-1.4-0.9-2.2,1.6-2.5c3.6-0.4,6.4,1.6,6.4,1.6s-1.1-2.2,2-2.5c2.9-0.2,5.3,0.5,6.5,1.2c-1.1-1.5,0.5-2.2,2.4-1.8
			c0,0-1.4-1.7-4.5-2.9c-3.1-1.2-8.4-2.9-8.4-2.9c-5-0.4-10.4,0.2-17.9,1.7C39.8,359.8,33.1,366.5,33.1,366.6z"/>
	</g>
	<g>
		<path class="st8" d="M87.3,37.2c0,0,34.1-19.6,77.4-23.4c51.9-4.6,87.2,8.7,87.2,8.7s-24.1-5.6-89.4,0.9
			C116.9,27.9,87.3,37.2,87.3,37.2z"/>
	</g>
	<g>
		<path class="st8" d="M293.3,20.5c0,0,27.3-18.7,61-18.5C390.2,2.3,428,29.6,428,29.6S394.2,13,354.5,12.9
			C314.8,12.7,293.3,20.5,293.3,20.5z"/>
	</g>
	<g>
		<path class="st8" d="M495.9,38.4c0,0,12.6-4.9,42.7,6c11,4,25.8,16.1,25.8,16.1s14,6.7,20.1,9.3c6.1,2.6,10.1,5.3,10.9,7.3
			c2.4,6-2.6,10.2-2.6,10.2s-5.8-2.2-13.7,2.3c-5.9,3.4-9,9.7-9,9.7s-2.4-5.8,5-12c6.9-5.7,13.3-7,13.3-7s-2-4.7-11.3-9.7
			c-8.9-4.7-17.8-3.5-17.8-3.5s-8.9-9.8-19.7-15.8C521.5,41.3,511.3,39.8,495.9,38.4z"/>
	</g>
	<g>
		<path class="st8" d="M571.8,104.4c0,0,5,3.3,10.2,3.8c5.4,0.5,9-1.6,9-1.6s-3.1,6.1-9.3,5.1C572.7,110.3,571.8,104.4,571.8,104.4z
			"/>
	</g>
	<g>
		<path class="st8" d="M602.1,92.8c0,0,6,5.3,12.3,8.6c6,3.1,15.4,6.7,15.4,6.7s-11.4,0.7-18.9-3.5C603.4,100.3,602,92.4,602.1,92.8
			z"/>
	</g>
	<path class="st8" d="M93.7,124.3c0,0,35.6,12.1,49.9,36.4c15.2,25.8,8,67.5,8,67.5s-25.2-13-29.3-47.6
		C117.8,142.9,93.7,124.3,93.7,124.3z"/>
	<path class="st8" d="M320.6,268.8c0,0,10.1,0.7,24.3-5.6c17-7.5,19.7-24.6,19.7-24.6s-0.4,31.7-20.1,39.6
		C333.4,282.6,320.6,268.8,320.6,268.8z"/>
</g>
<g>
	<path class="st9" d="M591,97.9c0.2,5.8-7.7,3.6-11.3,3.4c1.6-2.5,2.8-5,5.8-6.1C587.9,94.2,590.9,94.7,591,97.9z"/>
	<path d="M584.8,97.2c2.4-4,7.1-2,5,2.4C587.9,103.6,582.6,101,584.8,97.2z"/>
	<path class="st6" d="M587.9,96.7c0.8-1.3,2.5-0.7,1.7,0.8C589,98.9,587.1,98,587.9,96.7z"/>
</g>
<path class="st7" d="M24.3,115.8l-1,45.8c0,0-8.6-5.5-8.1-23.4C15.6,122.3,24.3,115.8,24.3,115.8z"/>
<path class="st10" d="M632.6,108c-14.1,6-3.3,14.2-0.5,19.2"/>
<path class="st11" d="M494.4,75.7c-3.1-5.7-5.5-17.7-3-23.7c2.5-5.9,9.8-12.1,16.6-9.6c6.3,2.3,10.6,6.3,12,13.3"/>
<path class="st11" d="M503.2,67.4c-1.7-2.9-2.9-9.6-1.6-11.8c3.6-5.6,9-2.1,11.4,4.3"/>
<path class="st11" d="M289.1,117.4c-2.5-24.9,15.8-43.1,33.4-49.6"/>
<path class="st11" d="M87.2,255.7c0.1,7.7,8,11.3,14.9,11.7"/>
<path class="st7" d="M101.4,268.2c-7-0.4-14.9-4-14.9-11.7c0,0-6.1,6.5-0.4,10.8S101.4,268.2,101.4,268.2z"/>
<path class="st11" d="M326.7,277.8c4,5,14.7,5.4,20.1,2.7"/>
<path class="st11" d="M304.3,192.1c7-0.6,12.2,6.1,15.4,11.3"/>
<path class="st7" d="M320.6,202.1c-3.2-5.2-8.4-11.9-15.4-11.3c0,0,6.7-6,12.8-1C324.2,194.8,320.6,202.1,320.6,202.1z"/>
<path class="st11" d="M400.9,82.9c6.3,6,11,16.1,10.7,24.8"/>
<path class="st11" d="M400.9,82.9c6.3,6,11,16.1,10.7,24.8"/>
<path class="st11" d="M87.7,84.7c19.2-6.2,34.4,7.1,36.6,13.3"/>
<path class="st11" d="M28.4,323.4c2.6,5.3,5.8,8.5,12.1,9"/>
<path class="st11" d="M137.1,345c5.5,0,10.5-0.2,15.4-3.2"/>
<polygon class="st12" points="605,146.9 612.6,141 611.3,148.5 "/>
<path class="st12" d="M618.2,147.6c-2.6,1.4-6.9,0.9-6.9,0.9l1.1-4.5c0,0,3.6,1.4,4.9,0.9c2.4-1,3.5-4.6,3.5-4.6l0.1,4.8
	C620.9,144.9,620.9,146.1,618.2,147.6z"/>
<path class="st12" d="M600.3,145c-3.6-1.9-5.3-3.3-5.3-3.3s6,1.8,7.5,2.2c2.9,0.7,5.4,0.7,5.4,0.7l-3,2
	C604.8,146.8,602.7,146.3,600.3,145z"/>
<g>
	<path class="st7" d="M285.1,180.1l-2.9-7.3l-8.6,14.9l-3-6.3l-6,12.2l-3.2-8l-8.6,11.4l-2.5-7.6l-11.8,10.4l0.4-8.7l-8.6,10.1
		l-2.5-8l-7.9,9.4l-2.2-9.4l-9.7,8l-0.7-8l-9.3,6.9l-2.2-9.4l-7.1,6.5l0.7-8.9l-8.5,5.7l-1.6-9.5l-8.4,5.2l0.1-9l-8.2,5.2l-7.9-22.5
		c-1-1.5-1.4-2.4-1.4-2.4s7.1,19.4,7,38.2c0,5.7,0.2,12.3-0.2,19.8c-0.6,9.6-1.3,18-1.3,18s0.7,2.2,1.6,6.1c0.5,2.4,0.6,4.8,0.6,4.8
		s15.1,3.5,35.7,4.7c9.8,0.6,17.9-0.1,27.4-0.6c32.1-1.6,58.8-18.2,58.8-18.2s2-28.8,3.4-38.7c1.4-9.8,7.4-33.2,7.4-33.2
		s-0.2,0.2-0.5,0.5L285.1,180.1z"/>
</g>
<g>
	<path class="st7" d="M574.3,131.5c0,0-20.9,7.1-45.5-2.1c-14.2-5.3-29.2-28.4-29.2-28.4l2.2,8.4l-2.4,2.7l3.6,2.4l-2.2,3.4l4.1,1.8
		l-2.8,3.5l5.8,2l-4,3.2c0,0,0,0.1,0.1,0.1l7,3.1l-3,2l7.6,2l-2.4,3.3l8,0.5l-2.8,3l7.6-0.8l-1.8,3.2l9-0.6l-2.5,3.2l6.3-1.1
		l-1.4,2.3l7.1-0.4l2.1,2.3c23.5,2.1,45.9-5.2,45.9-5.2C583,141.7,574.3,131.5,574.3,131.5z"/>
</g>
<g>
	<path class="st7" d="M516.2,160.3l-13.8,5.2l3.9-6.9l-11.9,4.9l4.2-7.7l-12.6,3.7l4.6-9.6l-10.6,4.7l4.9-9.9l-9.7,3.3l5.9-10.8
		l-8.8,3l5.8-11.2l-6.2,2.5l5.4-8.2c0,0-4.4,0-5.1,0.2c-0.7,0.2,3.9-7.2,5.3-9.3c-2.1-27.8,16.1-38.2,16.1-38.2s-2.5-3.1-3.6-11.3
		c-1.5-10.3,1.1-14.1,1.1-14.1s-13.9,4.3-24.1,24.8c-10.1,20.5-9.5,33.6-9.5,33.6s6.8,13.9,0.9,31.9l0.3,1.7l0.9,11.8l-3.9-3.8
		l-1,11.9l-3.3-4.2l-4.3,13.5l-3-5.1l-4.3,16.1l-3-8.3l-4.3,15.5l-2.7-8.7l-6.2,13.3l-2.1-7.9l-4.5,7.9l0.3-8.3c0,0-1.5,9.4-10.4,21
		c-9.3,12.3-19.9,18.4-19.9,18.4l-0.6,4.5c0,0,19,0.1,40-12.2c21.8-12.7,32.1-37.2,32.1-37.2s18.6-0.5,32.2-2.1
		c29.6-3.4,38.5-16.9,38.5-16.9S523.6,161.9,516.2,160.3z"/>
</g>
<g>
	<path class="st7" d="M74.1,215.4l-5.8,1.7l2-7.1l-9.1,2.8l6-9.5l-9,3.7l6.1-12.3l-9.4,3.6l6.3-12.5l-9.2,2.4l6.7-12.2l-7.3,1.2
		l5.4-11.6l-8.5,1.5l7.3-11.3l-9.5,3.2l7.2-10.7L46,150l6.4-10.2l-6.7-0.2l7.7-12.3l-7.7,2.2l6.9-13H46l8.6-11.2l-4.8-0.9
		c0,0,6.7-11,7.6-12c3.4-25.4,9.9-41.6,9.9-41.6s-34.6,28.5-41.1,63.1c0,0-0.1,21.8-0.5,33c-3.1,89.2,17.2,118.2,17.2,118.2
		s7.6-8.5,19.3-16.5c11.7-8,23.8-8,23.8-8S80.5,231.4,74.1,215.4z"/>
</g>
<polygon class="st7" points="23.4,116.5 26.3,114.1 26.8,123.6 23.8,123.5 "/>
<path class="st13" d="M446.4,355.7c0,0,2.2-2,7.4,1.3c5.6,3.6,4.8,10.4,4.8,10.4s-3.6-3.7-6.7-4.4c-3-0.8-4.1,1.1-4.1,1.1
	s-2.2-0.1-2.6-3.1C444.7,356.7,446.4,355.7,446.4,355.7z"/>
<path class="st13" d="M439.8,357.7c0,0,3.3-1.8,10.3,2.6c7.5,4.7,5.6,11.9,5.6,11.9s-4.7-4.5-8.9-5.8c-4.2-1.3-6,0.4-6,0.4
	s-3.1-0.5-3.3-3.7C437.2,358.4,439.8,357.7,439.8,357.7z"/>
<path class="st13" d="M433.6,359.4c0,0,3.9-1.3,11,4.1c7.7,5.8,4.6,12.6,4.6,12.6s-4.6-5.2-9.1-7.1c-4.5-1.9-6.7-0.5-6.7-0.5
	s-3.4-1-3.1-4.2C430.7,359.7,433.6,359.4,433.6,359.4z"/>
<path class="st13" d="M425.8,360.3c0,0,3.3-1.5,9.5,3.6c6.7,5.4,4.1,12.4,4.1,12.4s-4.1-5-7.9-6.7c-3.9-1.7-5.8-0.1-5.8-0.1
	s-2.9-0.8-2.8-4C423.2,360.9,425.8,360.3,425.8,360.3z"/>
<path class="st13" d="M419.7,362.6c0,0,2.7-1.2,7.7,3.1c5.5,4.6,3.5,10.4,3.5,10.4s-3.3-4.2-6.5-5.7c-3.1-1.5-4.6-0.2-4.6-0.2
	s-2.4-0.7-2.3-3.4C417.6,363.1,419.7,362.6,419.7,362.6z"/>
<path class="st13" d="M401.1,367.3c0,0,2.5-1.8,8.2,1.5c6.2,3.6,5,9.9,5,9.9s-4-3.6-7.3-4.4c-3.4-0.8-4.7,0.8-4.7,0.8
	s-2.5-0.2-2.8-3C399,368.1,401.1,367.3,401.1,367.3z"/>
<path class="st13" d="M393.7,368.9c0,0,3.3-1.9,10.4,2.2c7.7,4.5,5.9,11.7,5.9,11.7s-4.9-4.4-9.1-5.5c-4.3-1.2-6,0.7-6,0.7
	s-3.1-0.4-3.4-3.6C391.1,369.8,393.7,368.9,393.7,368.9z"/>
<path class="st13" d="M386.2,370.7c0,0,3.7-1.7,11.4,2.8c8.4,4.9,6,12,6,12s-5.2-4.6-9.9-6c-4.7-1.4-6.7,0.3-6.7,0.3
	s-3.5-0.5-3.6-3.8C383.3,371.5,386.2,370.7,386.2,370.7z"/>
<path class="st13" d="M377.9,371.9c0,0,3.1-1.8,9.7,2.4c7.1,4.6,5.3,11.8,5.3,11.8s-4.5-4.5-8.4-5.7c-4-1.2-5.6,0.5-5.6,0.5
	s-2.9-0.4-3.1-3.7C375.5,372.7,377.9,371.9,377.9,371.9z"/>
<path class="st13" d="M370.1,371.6c0,0,3-1.6,8.9,3.2c6.4,5.2,4.3,12.2,4.3,12.2s-3.9-4.8-7.5-6.4c-3.6-1.6-5.3,0.1-5.3,0.1
	s-2.7-0.7-2.7-3.9C367.8,372.2,370.1,371.6,370.1,371.6z"/>
<path class="st13" d="M219.7,355.3c0,0,2.7-2.1,9.5,0.9c7.3,3.3,6.4,10.1,6.4,10.1s-4.8-3.5-8.7-4.1c-3.9-0.6-5.3,1.2-5.3,1.2
	s-2.8,0-3.4-2.9C217.4,356.3,219.7,355.3,219.7,355.3z"/>
<path class="st13" d="M213.7,357c0,0,3.3-1.8,10.7,1.8c8,3.9,6.3,10.5,6.3,10.5s-5.1-3.9-9.4-4.9c-4.4-1-6.1,0.7-6.1,0.7
	s-3.2-0.3-3.6-3.2C211.1,357.8,213.7,357,213.7,357z"/>
<path class="st13" d="M207,359.2c0,0,3.7-1.8,11.5,2.5c8.5,4.6,6.3,11.8,6.3,11.8s-5.3-4.5-10-5.7c-4.7-1.3-6.7,0.5-6.7,0.5
	s-3.5-0.5-3.7-3.7C204.1,360,207,359.2,207,359.2z"/>
<path class="st13" d="M199.1,360.6c0,0,3.5-1.6,10.5,3c7.6,5,5.2,12,5.2,12s-4.6-4.7-8.9-6.2c-4.3-1.5-6.2,0.2-6.2,0.2
	s-3.2-0.6-3.2-3.8C196.3,361.2,199.1,360.6,199.1,360.6z"/>
<path class="st13" d="M190.6,361.6c0,0,2.9-1.3,8.2,3c5.7,4.6,3.4,10.5,3.4,10.5s-3.4-4.2-6.7-5.6c-3.3-1.4-4.9-0.1-4.9-0.1
	s-2.5-0.6-2.3-3.4C188.4,362,190.6,361.6,190.6,361.6z"/>
<path class="st13" d="M81.1,363.7c0,0,2.7-2.1,8.7,1.7c6.5,4.1,5.1,11.4,5.1,11.4s-4.1-4.1-7.7-5.1c-3.6-1-5,0.9-5,0.9
	s-2.6-0.2-2.9-3.5C78.9,364.7,81.1,363.7,81.1,363.7z"/>
<path class="st13" d="M72.5,365.3c0,0,3.6-1.9,11.6,2.3c8.6,4.5,6.5,11.7,6.5,11.7s-5.4-4.4-10.1-5.6c-4.7-1.2-6.7,0.6-6.7,0.6
	s-3.5-0.4-3.8-3.6C69.7,366.1,72.5,365.3,72.5,365.3z"/>
<path class="st13" d="M64.8,367.2c0,0,3.6-2,11.6,2c8.7,4.3,6.8,11.5,6.8,11.5s-5.5-4.3-10.3-5.3c-4.8-1.1-6.7,0.8-6.7,0.8
	s-3.5-0.3-3.9-3.5C62,368.2,64.8,367.2,64.8,367.2z"/>
<path class="st13" d="M57.3,367.8c0,0,3.1-1.7,10,2c7.4,4,5.7,10.5,5.7,10.5s-4.7-3.9-8.8-5c-4.1-1-5.8,0.6-5.8,0.6s-3-0.3-3.3-3.3
	C54.8,368.6,57.3,367.8,57.3,367.8z"/>
<path class="st13" d="M48.3,368.1c0,0,2.8-1.7,8.7,1.8c6.4,3.8,4.6,9.9,4.6,9.9s-4-3.7-7.5-4.6c-3.6-1-5.1,0.6-5.1,0.6
	s-2.6-0.3-2.8-3.1C46.1,368.9,48.3,368.1,48.3,368.1z"/>
<path class="st14" d="M369.7,375.8c0,0,0.1-4.8,5.7-1.5c5.5,3.2,6.2,8,6.2,8s-2.2-3.5-6.2-5.9C372.4,374.7,369.7,375.8,369.7,375.8z
	"/>
<path class="st14" d="M418.5,366c0,0,0-3.8,5.3-1.2c5.1,2.5,5.7,6.3,5.7,6.3s-2.1-2.8-5.8-4.6C421,365.1,418.5,366,418.5,366z"/>
<path class="st14" d="M383.9,373.9c-2.7-1.3-4.3-1.3-5.4-1c1.2,0.6,2.5,1.1,3.2,2.2c1,0.2,1.3,0.5,2.1,0.9c4.9,2.4,7.7,5.9,7.7,5.9
	S390.8,377.1,383.9,373.9z"/>
<path class="st14" d="M393.5,373.2c-3.1-1.4-5.1-1.5-6.3-1.2c1.4,0.6,3.1,1.3,3.9,2.4c0.9,0.2,1.9,0.8,2.9,1.2c5.8,2.6,8.3,6,8.3,6
	S401.5,376.8,393.5,373.2z"/>
<path class="st14" d="M400.5,371.3c-2.9-1.3-4.6-1.3-5.8-1c1.3,0.6,2.9,1.2,3.6,2.2c0.8,0.1,1.8,0.7,2.6,1.1
	c5.3,2.4,7.7,5.6,7.7,5.6S407.8,374.5,400.5,371.3z"/>
<path class="st14" d="M406.8,369c-2.2-1.1-3.6-1.2-4.5-0.8c1,0.5,2.2,1,2.8,1.9c0.6,0.1,1.4,0.6,2.1,0.9c4.1,2.1,6,4.9,6,4.9
	S412.5,371.7,406.8,369z"/>
<path class="st14" d="M431.5,363c-2.4-1.5-4-1.7-5-1.4c1.1,0.7,2.4,1.4,3,2.5c0.7,0.2,1.5,0.8,2.2,1.3c4.5,2.8,6.3,6.2,6.3,6.2
	S437.7,366.7,431.5,363z"/>
<path class="st14" d="M189.5,364.2c0,0,0.6-4.1,6.4-0.6c5.7,3.4,5.8,7.5,5.8,7.5s-2-3.2-6.1-5.7
	C192.6,363.6,189.5,364.2,189.5,364.2z"/>
<path class="st14" d="M205.7,362.8c-2.9-1.4-4.7-1.6-5.8-1.3c1.3,0.6,2.9,1.3,3.6,2.4c0.8,0.2,1.8,0.8,2.6,1.2c5.3,2.6,7.5,6,7.5,6
	S213,366.4,205.7,362.8z"/>
<path class="st14" d="M47.5,370.9c0,0,0.3-4.1,6.7-1.3c6.3,2.8,6.8,6.9,6.8,6.9s-2.4-3-6.9-5C50.8,370,47.5,370.9,47.5,370.9z"/>
<path class="st14" d="M64.1,369.5c-2.7-1.1-4.5-1.2-5.5-0.9c1.3,0.5,2.7,1.1,3.5,2c0.8,0.1,1.7,0.6,2.5,1c5.1,2.1,7.4,5.1,7.4,5.1
	S71.1,372.4,64.1,369.5z"/>
<path class="st14" d="M72.9,368.9c-3.2-1.3-5.2-1.3-6.4-1c1.4,0.6,3.2,1.2,4,2.2c0.9,0.1,2,0.7,2.9,1.1c5.9,2.4,8.5,5.6,8.5,5.6
	S81,372.1,72.9,368.9z"/>
<path class="st14" d="M80.3,367.3c-3.2-1.3-5.1-1.3-6.4-1c1.4,0.6,3.1,1.2,4,2.2c0.9,0.1,1.9,0.7,2.9,1.1c5.8,2.4,8.5,5.6,8.5,5.6
	S88.4,370.5,80.3,367.3z"/>
<path class="st14" d="M87,365.4c-2.4-1.3-3.9-1.3-4.8-1c1.1,0.6,2.4,1.2,3,2.2c0.7,0.1,1.5,0.7,2.2,1.1c4.4,2.4,6.4,5.6,6.4,5.6
	S93.2,368.7,87,365.4z"/>
<path class="st14" d="M214.2,361.1c-3.2-1.3-5.2-1.3-6.4-1c1.4,0.6,3.2,1.2,4,2.2c0.9,0.1,2,0.7,2.9,1.1c5.9,2.4,8.5,5.6,8.5,5.6
	S222.3,364.3,214.2,361.1z"/>
<path class="st14" d="M221.1,358.5c-2.9-1.1-4.8-1.2-5.9-0.9c1.3,0.5,2.9,1.1,3.7,2c0.8,0.1,1.8,0.6,2.7,1c5.4,2.1,7.8,5.1,7.8,5.1
	S228.6,361.4,221.1,358.5z"/>
<path class="st14" d="M226.5,356.2c-2.6-1-4.2-0.9-5.2-0.5c0.9-0.4,4.5,1.6,5.5,2.1c1.7,0.8,7,3.2,7.5,5.3
	C234.4,363,233.3,358.7,226.5,356.2z"/>
<path class="st14" d="M440.1,362.2c-3-1.6-4.9-1.8-6.1-1.6c1.3,0.7,3,1.5,3.7,2.6c0.9,0.2,1.8,0.9,2.7,1.4c5.4,2.9,7.7,6.4,7.7,6.4
	S447.7,366.2,440.1,362.2z"/>
<path class="st14" d="M446,359.8c-2.8-1.3-4.6-1.3-5.7-1c1.3,0.6,2.8,1.2,3.6,2.2c0.8,0.1,1.7,0.7,2.6,1.1c5.2,2.4,7.6,5.6,7.6,5.6
	S453.3,363,446,359.8z"/>
<path class="st14" d="M451.7,357.1c-1.9-1-3.1-1.1-3.8-0.7c0.9,0.5,1.9,1,2.5,1.9c0.5,0.1,1.2,0.6,1.8,0.9c3.6,2,5.3,4.8,5.3,4.8
	S456.6,359.8,451.7,357.1z"/>
<path class="st8" d="M491.9,55.5c0,0-1.5-8.2,10.6-12.5c6.8-2.4,14.3,6.7,14.3,6.7s-7.3-4.2-14.2-2.5
	C495.7,48.9,491.9,55.5,491.9,55.5z"/>
<path class="st8" d="M528,37.4c0,0,1.1-7.8,13.8-5.7c8.8,1.5,12.4,11.6,12.4,11.6s-6.6-6.9-13.5-8.6C533.8,33.1,528,37.4,528,37.4z"
	/>
<path class="st7" d="M346.7,281.7c-5.3,2.7-16.1,2.3-20.1-2.7c0,0-1.7,9.1,6.9,10.2C342,290.2,346.7,281.7,346.7,281.7z"/>
<path class="st8" d="M542,163.8c0,0,17.7,1.7,28.7-0.5c11.3-2.3,14.7-8.4,14.7-8.4s-4.3,3.7-16.3,6C557.1,163.2,542,163.8,542,163.8
	z"/>
</svg>
