<?xml version="1.0" encoding="utf-8"?>
<!-- Generator: Adobe Illustrator 23.0.5, SVG Export Plug-In . SVG Version: 6.00 Build 0)  -->
<svg version="1.1" id="Слой_1" xmlns="http://www.w3.org/2000/svg" xmlns:xlink="http://www.w3.org/1999/xlink" x="0px" y="0px"
	 viewBox="0 0 524.2 406.7" style="enable-background:new 0 0 524.2 406.7;" xml:space="preserve">
<style type="text/css">
	.st0{fill:#BED15F;}
	.st1{fill:#FFFFFF;}
	.st2{fill:#5F5044;}
	.st3{fill:#DEE169;}
</style>
<g>
	<path class="st0" d="M459.4,161.7c-0.3,0-0.6,0-1.1,0c-4.1,0-15.5-0.5-21.1-6c-2.2-2.2-3.4-4.9-3.4-7.9c0-2.7,2.2-4.9,4.8-4.9h0
		c2.7,0,4.8,2.2,4.9,4.8c3,3.4,11.1,4.3,15.8,4.2h60c1.5,0,2.7,0.7,3.5,1.7C518.3,49,446.2,43.2,446.2,43.2S423.8,2.4,398.1,0.1
		c-21.2-1.9-32.1,26-37.8,57.3c-16.1-25.5-37.2-44.6-64.5-44.6c-83.8,0-259.9,29.9-290.4,178.7c0,0-57.1,202,202.1,214.6l13.9,0.6
		c36,0,65.2-29.2,65.2-65.2c0-36-29.2-65.2-65.2-65.2c-36,0-65.2,29.2-65.2,65.2c0,3.1,0.5,6,0.9,8.9
		c-39.3-18.9-88.9-57.8-44.5-139.8c14.8,1.9,29.6,3.5,44.3,4.6c8.8-27.3,25.6-60.1,25.6-60.1s1.5-7.8-25.2-13.2
		c-26.7-5.3-32.4-28.8-19.9-48.3c12.4-19.6,74.3,12.4,88.2,28.8c11.9,14-20.2,77.2-29.5,94.8c37.4,1.1,74.6-0.3,111.5-5.1
		c12.8-30.6,30.9-67.4,20.5-67.4c-55.8-0.2-90.5-53.4-32.2-53.8c0,0,37.6,6.6,58.8,20c8,5.1,13.8,11.1,14.2,18.1
		c0.5,7.9-2.5,20.4-6.7,33.8c-4.7,14.8-11,30.7-16.2,43.1c19.1-3.7,38.1-8.2,57.1-13.8c11.7,3,20.8,2.9,20.8,2.9
		s93.8,10.8,98.7-34.6c-0.9,0.8-2,1.3-3.2,1.3H459.4z M226.2,293.2c13-0.7,24.1,4.9,32.1,16.5c9.4,13.6,10.5,31.8,2.9,46.4
		c-3.5,6.6-11.8,18.3-28.9,23.1c-7.5,2.1-14.4,2.9-20.7,2.9c-2.3,0-4.5-0.2-6.6-0.4c-18.2-1.7-29.7-9.6-30.4-10.1
		c-2.2-1.6-2.7-4.6-1.1-6.8c1.5-2.2,4.6-2.7,6.8-1.2c0.5,0.3,7,4.6,17.5,7c8.4,1.9,19.2,2.6,32-0.9c13.6-3.8,20.2-13,22.9-18.2
		c6-11.4,5.1-25.7-2.3-36.3c-6.1-8.8-13.7-12.9-23.5-12.3c-18.9,1.1-27.7,8.8-28.6,24.8c-0.4,7.1,2.2,12.1,8,15.2
		c4.8,2.6,9.9,2.9,9.9,2.9c3.8,0.2,9-0.3,11.2-3.3c2.5-3.5,1.1-9.6,0.4-11.7c-0.9-2.5,0.4-5.3,2.9-6.2c2.5-1,5.3,0.3,6.2,2.9
		c0.5,1.3,4.4,12.5-1.6,20.7c-3.8,5.2-10.3,7.6-19.5,7.4c-0.6,0-13.2-0.7-21.1-9.5c-4.5-5-6.5-11.3-6.1-18.9
		C189.7,306,202.4,294.6,226.2,293.2 M294.7,53.6c-42.4-2.1-86.4,19.1-86.8,19.3c-1.3,0.6-2.8,1-4.2,1c-3.6,0-7.1-2.1-8.8-5.5
		c-2.3-4.8-0.3-10.6,4.6-12.9c2-0.9,48.9-22.7,95.9-21.2c5.4,0.2,9.5,4.7,9.3,10.1C304.6,49.6,300.3,53.6,294.7,53.6 M419.7,98.4
		c0-16.4,13.3-29.6,29.6-29.6c16.4,0,29.6,13.3,29.6,29.6c0,16.4-13.3,29.6-29.6,29.6C433,128,419.7,114.7,419.7,98.4"/>
	<path class="st1" d="M479,98.4c0-16.4-13.3-29.6-29.6-29.6c-16.4,0-29.6,13.3-29.6,29.6c0,16.4,13.3,29.6,29.6,29.6
		C465.7,128,479,114.7,479,98.4 M438.6,100.8c0-6,4.8-10.8,10.8-10.8c6,0,10.8,4.8,10.8,10.8c0,6-4.8,10.8-10.8,10.8
		C443.4,111.5,438.6,106.7,438.6,100.8"/>
	<path class="st2" d="M460.2,100.8c0-6-4.8-10.8-10.8-10.8c-6,0-10.8,4.8-10.8,10.8c0,6,4.8,10.8,10.8,10.8
		C455.3,111.5,460.2,106.7,460.2,100.8"/>
	<path class="st3" d="M225.6,122.5c-13.9-16.4-75.7-48.3-88.2-28.8c-12.4,19.6-6.8,43,19.9,48.4s25.2,13.2,25.2,13.2
		s-16.9,32.8-25.6,60.1c-5.3,16.4-7.7,30.9-1.7,34.9c0,0,64.7,5.7,76.8-3.2c12.1-8.9-38.4-24.9-38.4-24.9s1-1.8,2.5-4.7
		C205.4,199.7,237.5,136.5,225.6,122.5"/>
	<path class="st3" d="M522.9,153.7c-0.9-1-2.1-1.7-3.6-1.7h-60c-4.7,0-12.8-0.8-15.8-4.2c0-2.7-2.2-4.8-4.9-4.8h0
		c-2.7,0-4.9,2.2-4.8,4.9c0,3,1.2,5.7,3.4,7.9c5.7,5.5,17,6,21.1,6c0.5,0,0.8,0,1.1,0h59.9c1.3,0,2.4-0.6,3.2-1.3
		c1-0.9,1.6-2.1,1.6-3.5C524.2,155.6,523.7,154.6,522.9,153.7"/>
	<path class="st3" d="M215.7,355.5c9.2,0.3,15.7-2.1,19.5-7.4c6-8.2,2.1-19.4,1.6-20.7c-0.9-2.5-3.8-3.8-6.2-2.9
		c-2.5,0.9-3.8,3.7-2.9,6.2c0.8,2.1,2.2,8.2-0.4,11.7c-2.2,3-7.4,3.5-11.2,3.3c0,0-5.2-0.3-9.9-2.9c-5.8-3.1-8.4-8.1-8-15.2
		c0.9-16,9.7-23.7,28.6-24.8c9.8-0.6,17.4,3.4,23.5,12.3c7.4,10.7,8.3,25,2.3,36.3c-2.7,5.2-9.3,14.5-22.9,18.2
		c-12.8,3.6-23.6,2.8-32,0.9c-10.6-2.4-17.1-6.7-17.5-7c-2.2-1.5-5.2-1-6.8,1.2c-1.5,2.2-1,5.2,1.1,6.8c0.7,0.5,12.2,8.4,30.4,10.1
		c2.1,0.2,4.3,0.4,6.6,0.4c6.3,0,13.3-0.8,20.7-2.9c17.1-4.7,25.4-16.5,28.9-23.1c7.6-14.6,6.5-32.8-2.9-46.4
		c-8-11.6-19.1-17.2-32.1-16.5c-23.9,1.4-36.6,12.9-37.7,34c-0.4,7.6,1.6,13.9,6.1,18.9C202.5,354.8,215.1,355.5,215.7,355.5"/>
	<path class="st3" d="M368.9,129.1c-0.4-7-6.2-13.1-14.2-18.1c-21.2-13.4-58.8-20-58.8-20c-58.2,0.5-23.6,53.6,32.2,53.8
		c10.3,0-7.7,36.9-20.5,67.4c-4.9,11.6-9,22.4-10.6,29.8c-3.1,15.3,81,9.8,78.8,3.1c-4.2-16.2-39.5-17.3-39.5-17.3s4.2-9.1,9.6-21.9
		c5.2-12.4,11.5-28.3,16.2-43.1C366.4,149.4,369.4,137,368.9,129.1"/>
	<path class="st3" d="M295.5,34.2c-47-1.5-94,20.3-95.9,21.2c-4.8,2.3-6.9,8.1-4.6,12.9c1.7,3.5,5.1,5.5,8.8,5.5
		c1.4,0,2.8-0.3,4.2-0.9c0.4-0.2,44.5-21.4,86.8-19.3c5.6,0,9.9-4,10.1-9.3C305,38.9,300.9,34.4,295.5,34.2"/>
</g>
</svg>
