<?xml version="1.0" encoding="utf-8"?>
<!-- Generator: Adobe Illustrator 22.0.1, SVG Export Plug-In . SVG Version: 6.00 Build 0)  -->
<svg version="1.1" id="cat" xmlns="http://www.w3.org/2000/svg" xmlns:xlink="http://www.w3.org/1999/xlink" x="0px" y="0px"
	 viewBox="0 0 1432.2 1155.6" style="enable-background:new 0 0 1432.2 1155.6;" xml:space="preserve">
<style type="text/css">
	.st0{fill:#FBB03B;}
	.st1{fill:#42210B;}
	.st2{fill:#B45316;}
	.st3{fill:#754C24;}
	.st4{fill:#F15A24;}
	.st5{fill:#8C6239;}
	.st6{opacity:0.8;fill:#FAD9B4;}
</style>
<g>
	<g>
		<g>
			<g>
				<path class="st0" d="M399.3,127.6C341,132.4,186.4-23.8,98.1,7.8s-157.7,247.6-3.2,388c-6.3,67.8,80.4,157.7,141.9,162.4
					s184.5-408.5,184.5-408.5L399.3,127.6z"/>
				<path class="st0" d="M237.9,561.8c-0.4,0-0.9,0-1.3-0.1c-32.1-2.5-73.1-28-104.3-65.1c-28.2-33.5-43.1-69.6-41-99.5
					C-13.6,301-3.8,185,5.3,139.5C18.4,73.6,55.2,19.3,96.9,4.4C105.1,1.5,114.2,0,124,0c50.6,0,113.4,39.2,168.8,73.8
					c41.6,25.9,80.8,50.4,103.9,50.4c0.8,0.1,1.6,0,2.4-0.1c1-0.1,2.1,0.3,2.8,1l22.1,22.1c0.9,0.9,1.3,2.3,0.9,3.5
					c-0.3,1-30.9,103.4-68.6,204.5C334,414.6,313.7,462,295.8,496C272.6,540.3,253.7,561.8,237.9,561.8z M124,7.1
					c-8.9,0-17.3,1.3-24.7,4C59.9,25.2,24.9,77.3,12.2,140.9C3.3,185.4-6.2,299.1,97.3,393.1c0.8,0.7,1.2,1.8,1.1,3
					c-2.6,28.3,11.7,63.3,39.3,96c30.1,35.7,69.1,60.2,99.4,62.6c0.3,0,0.5,0,0.8,0c13.5,0,46-26.2,111.6-201.9
					c34.7-93,63.4-187.1,67.9-202l-19.5-19.5c-0.4,0-0.9,0-1.3,0c0,0,0,0,0,0c-25.1,0-63.3-23.9-107.6-51.5
					C234.4,45.7,172.5,7.1,124,7.1z"/>
			</g>
			<g>
				<path class="st1" d="M266,551.1c-61.5,1.6-157.7-59.9-157.7-157.7C-0.5,317.7-18.6,90.1,84.7,29.1
					c69.4-41,143.5,31.5,148.3,33.1c-36.3-4.7-50.5,48.9-50.5,53.6c39.4-31.5,78.9-9.5,78.9-9.5s-55.2,7.9-61.5,36.3
					c33.1-12.6,110.4-14.2,126.2,37.9C341.8,232.5,266,551.1,266,551.1z"/>
				<path class="st1" d="M263.7,554.7c-33,0-72.6-16.7-103.1-43.5c-35.5-31.2-55.3-72.3-55.8-115.9c-67.4-48-94.7-145.9-91.9-222.2
					c2.5-68.7,28.1-122.3,70-147.1c14.6-8.6,30.6-13,47.5-13c45.4,0,84.7,30.9,99.6,42.6c1.9,1.5,3.8,3,4.4,3.3
					c1.6,0.7,2.5,2.4,2.1,4.1c-0.4,1.8-2.1,3-3.9,2.7c-1.3-0.2-2.7-0.3-4-0.3c-22.8,0-35.5,27.4-40.3,41.9
					c12.6-8,26.3-12.1,40.7-12.1c19.7,0,33.6,7.6,34.2,8c1.3,0.7,2,2.3,1.8,3.7c-0.3,1.5-1.5,2.6-3,2.9c-0.5,0.1-43.8,6.5-55.9,27
					c11.6-3.3,25.5-5.2,39.4-5.2c20.9,0,71,4.7,84.1,47.7c15.9,52.4-56.8,359.4-59.9,372.5c-0.4,1.6-1.8,2.7-3.4,2.7
					C265.3,554.7,264.5,554.7,263.7,554.7z M130.3,20.1c-15.6,0-30.3,4.1-43.9,12c-39.8,23.5-64.1,75-66.5,141.2
					c-2.8,74.9,24.1,171,90.4,217.1c1,0.7,1.5,1.8,1.5,2.9c0,42.2,19,82.2,53.4,112.4c29.2,25.6,66.7,41.6,98,41.8
					c7.3-31.1,73.9-318,59.4-366.1c-11.7-38.5-57.9-42.7-77.3-42.7c-16,0-32.5,2.7-44.2,7.1c-1.2,0.5-2.6,0.2-3.6-0.6
					c-1-0.9-1.4-2.2-1.1-3.5c4.9-22,35.1-32.4,52.4-36.6c-5.2-1.5-12.1-2.9-19.9-2.9c-15.9,0-30.8,5.4-44.2,16.2
					c-1.1,0.9-2.5,1-3.8,0.4c-1.2-0.6-2-1.8-2-3.2c0-4.2,11.8-51.7,43.6-57C206.4,46.3,170.5,20.1,130.3,20.1z"/>
			</g>
		</g>
		<g>
			<g>
				<path class="st0" d="M1032.9,127.6c58.4,4.7,212.9-151.4,301.2-119.9c88.3,31.5,157.7,247.6,3.2,388
					c6.3,67.8-80.4,157.7-141.9,162.4s-184.5-408.5-184.5-408.5L1032.9,127.6z"/>
				<path class="st0" d="M1194.3,561.8c-15.7,0-34.7-21.5-57.9-65.7c-17.9-34-38.2-81.4-60.4-140.8
					c-37.7-101.1-68.3-203.5-68.6-204.5c-0.4-1.2,0-2.6,0.9-3.5l22.1-22.1c0.7-0.7,1.8-1.1,2.8-1c22.7,1.8,63.2-23.5,106.2-50.3
					C1194.8,39.2,1257.6,0,1308.2,0c9.8,0,18.9,1.5,27.1,4.4c41.6,14.9,78.5,69.1,91.6,135.1c9.1,45.5,18.8,161.5-86,257.7
					c2.1,29.9-12.8,66-41,99.5c-31.3,37.1-72.2,62.6-104.3,65.1C1195.1,561.8,1194.7,561.8,1194.3,561.8z M1014.8,150.7
					c4.5,14.9,33.1,109,67.9,202c65.6,175.7,98.1,201.9,111.6,201.9c0.3,0,0.5,0,0.8,0c30.3-2.3,69.3-26.9,99.4-62.6
					c27.6-32.7,41.9-67.7,39.3-96c-0.1-1.1,0.3-2.2,1.1-3c103.5-94,94-207.7,85.1-252.3c-12.7-63.5-47.7-115.7-87.1-129.8
					c-7.4-2.7-15.7-4-24.7-4c-48.6,0-110.5,38.6-165.1,72.7c-44.3,27.6-82.5,51.5-107.6,51.5c-0.4,0-0.9,0-1.3,0L1014.8,150.7z"/>
			</g>
			<g>
				<path class="st1" d="M1166.1,551.1c61.5,1.6,157.7-59.9,157.7-157.7c108.8-75.7,126.9-303.3,23.7-364.3
					c-69.4-41-143.5,31.5-148.3,33.1c36.3-4.7,50.5,48.9,50.5,53.6c-39.4-31.5-78.9-9.5-78.9-9.5s55.2,7.9,61.5,36.3
					c-33.1-12.6-110.4-14.2-126.2,37.9C1090.4,232.5,1166.1,551.1,1166.1,551.1z"/>
				<path class="st1" d="M1168.5,554.7C1168.5,554.7,1168.5,554.7,1168.5,554.7c-0.8,0-1.6,0-2.4,0c-1.6,0-3-1.2-3.4-2.7
					c-3.1-13-75.7-320.1-59.9-372.5c13.1-43.1,63.1-47.7,84.1-47.7c13.9,0,27.9,1.9,39.4,5.2c-12.1-20.5-55.5-26.9-55.9-27
					c-1.5-0.2-2.7-1.4-3-2.9c-0.3-1.5,0.4-3,1.8-3.7c0.6-0.3,14.5-8,34.2-8c14.5,0,28.1,4.1,40.7,12.1
					c-4.7-14.5-17.5-41.9-40.3-41.9c-1.3,0-2.7,0.1-4,0.3c-1.8,0.2-3.5-0.9-3.9-2.7c-0.4-1.7,0.5-3.4,2.1-4.1
					c0.6-0.4,2.5-1.9,4.4-3.3c14.8-11.7,54.2-42.6,99.6-42.6c16.9,0,32.8,4.4,47.5,13c41.9,24.8,67.5,78.4,70,147.1
					c2.8,76.2-24.5,174.1-91.9,222.2c-0.5,43.6-20.3,84.7-55.8,115.9C1241,538,1201.5,554.7,1168.5,554.7z M1186.9,138.8
					c-19.3,0-65.6,4.2-77.3,42.7c-14.6,48,52.1,335,59.4,366.1c31.3-0.2,68.8-16.1,98-41.8c34.4-30.3,53.4-70.2,53.4-112.4
					c0-1.2,0.6-2.3,1.5-2.9c66.3-46.1,93.2-142.3,90.4-217.1c-2.5-66.2-26.7-117.7-66.5-141.2c-13.5-8-28.3-12-43.9-12
					c-40.2,0-76.1,26.2-92.2,38.8c31.8,5.3,43.6,52.8,43.6,57c0,1.4-0.8,2.6-2,3.2c-1.2,0.6-2.7,0.4-3.8-0.4
					c-13.4-10.7-28.3-16.2-44.2-16.2c-7.8,0-14.6,1.3-19.9,2.9c17.3,4.2,47.5,14.6,52.4,36.6c0.3,1.3-0.2,2.6-1.1,3.5
					c-1,0.9-2.4,1.1-3.6,0.6C1219.4,141.5,1202.8,138.8,1186.9,138.8z"/>
			</g>
		</g>
	</g>
	<g>
		<path class="st0" d="M742.8,1152c75.2,0,109.6-59,161.9-63.8c57.8-5.3,104.6-100.5,119.4-127.6c24.6-45.4,68.4-29.3,134.7-115.4
			c66.2-86.1,95.6-215.3,84.6-276.3c-11-61,3.7-140,3.7-140s33.1,17.9,58.9,3.6c-18.4-7.2-33.1-14.4-47.8-50.2
			c22.1,10.8,47.8,7.2,58.9,0c-99-54.2-163.9-142.3-198.7-186.6c8.8,4.1,20.7,2.7,25.8-7.2C1030,134.6,930.6,44.8,720.9,44.8h-9.7
			c-209.7,0-309,89.7-423.1,143.6c5.1,9.9,16.9,11.3,25.8,7.2c-34.7,44.3-99.6,132.4-198.7,186.6c11,7.2,36.8,10.8,58.9,0
			c-14.7,35.9-29.4,43.1-47.8,50.2c25.8,14.4,58.9-3.6,58.9-3.6s14.7,79,3.7,140c-11,61,18.4,190.2,84.6,276.3s110,70,134.7,115.4
			c14.7,27.1,61.6,122.3,119.4,127.6c52.3,4.8,86.7,63.8,161.9,63.8H742.8z"/>
		<path class="st0" d="M742.8,1155.6h-53.4c-43.5,0-73.9-19.4-100.8-36.6c-20.3-13-39.5-25.2-61.4-27.2
			c-55.9-5.1-100-87.9-118.9-123.3c-1.2-2.3-2.3-4.4-3.3-6.2c-10.4-19.3-24.1-26.7-43.1-37c-24.1-13.1-54-29.5-91.3-77.9
			c-64.8-84.3-96.9-214.7-85.3-279.1c9.3-51.4,0-116.5-2.9-134.1c-6.4,2.8-19.2,7.5-33.2,7.5c-9.2,0-17.5-2-24.7-6
			c-1.2-0.7-1.9-2-1.8-3.3c0.1-1.4,1-2.6,2.3-3.1c17.2-6.7,29.8-13.4,42.4-40.4c-7.5,2.5-15.5,3.8-23.7,3.8
			c-11.9,0-23.3-2.8-30.3-7.4c-1-0.7-1.7-1.9-1.6-3.1c0-1.2,0.7-2.4,1.8-3c92.2-50.5,153.9-129.6,190.7-176.9
			c0.2-0.3,0.5-0.6,0.7-0.9c-0.2,0-0.5,0-0.7,0c-8.5,0-15.5-4.1-19.2-11.3c-0.4-0.9-0.5-1.9-0.2-2.8c0.3-0.9,1-1.7,1.8-2.1
			c25.6-12.1,50.2-25.8,76.2-40.4C449.6,96.3,547.9,41.3,711.3,41.3h9.7c163.3,0,261.7,55,348.4,103.5c26,14.5,50.5,28.3,76.2,40.4
			c0.9,0.4,1.5,1.2,1.8,2.1s0.2,1.9-0.2,2.8c-3.7,7.2-10.7,11.3-19.2,11.3c-0.2,0-0.5,0-0.7,0c0.2,0.3,0.5,0.6,0.7,0.9
			c36.8,47.3,98.5,126.4,190.7,176.9c1.1,0.6,1.8,1.7,1.8,3c0,1.2-0.6,2.4-1.6,3.1c-7.1,4.6-18.4,7.4-30.3,7.4
			c-8.2,0-16.2-1.3-23.7-3.8c12.6,27,25.2,33.7,42.4,40.4c1.3,0.5,2.2,1.7,2.3,3.1c0.1,1.4-0.6,2.7-1.8,3.3c-7.2,4-15.5,6-24.7,6
			c-14,0-26.8-4.7-33.2-7.5c-2.9,17.6-12.2,82.8-2.9,134.1c11.7,64.4-20.5,194.9-85.3,279.1c-37.3,48.5-67.2,64.8-91.3,77.9
			c-18.9,10.3-32.6,17.8-43.1,37c-1,1.8-2.1,3.8-3.3,6.2c-18.8,35.4-62.9,118.2-118.9,123.3c-21.9,2-41.1,14.3-61.4,27.2
			C816.7,1136.1,786.3,1155.6,742.8,1155.6z M185.2,425.3c0.5,0,1,0.1,1.5,0.3c1,0.5,1.8,1.4,2,2.6c0.1,0.8,14.7,80.3,3.7,141.2
			C181,632.4,212.6,760.2,276.3,843c36.3,47.3,65.6,63.2,89.1,76c19.2,10.5,34.4,18.8,45.9,39.9c1,1.8,2.1,3.9,3.3,6.2
			c16.7,31.4,61.1,114.8,113.2,119.6c23.7,2.2,43.5,14.9,64.6,28.3c27.3,17.4,55.5,35.5,97,35.5h53.4c41.4,0,69.6-18,97-35.5
			c21.1-13.5,40.9-26.2,64.6-28.3c52.1-4.8,96.5-88.2,113.2-119.6c1.2-2.3,2.4-4.4,3.3-6.2c11.4-21.1,26.6-29.4,45.9-39.9
			c23.5-12.8,52.7-28.8,89.1-76c63.6-82.8,95.3-210.6,83.9-273.5c-11-60.9,3.5-140.5,3.7-141.2c0.2-1.1,0.9-2.1,2-2.6
			c1-0.5,2.2-0.5,3.2,0.1c0.2,0.1,16.4,8.7,34.2,8.7c4.9,0,9.6-0.7,13.8-2c-16.1-7.2-29.2-17.7-42-48.9c-0.6-1.4-0.2-2.9,0.9-3.9
			c1.1-1,2.7-1.2,4-0.6c8.6,4.2,18.6,6.4,28.9,6.4c7.6,0,15-1.3,20.8-3.4c-90.2-51.2-150.6-128.8-187-175.5c-2.4-3.1-4.7-6-6.9-8.8
			c-1-1.3-1-3.1,0-4.4c1-1.3,2.8-1.7,4.3-1c2.6,1.2,5.4,1.8,8.2,1.8c4.4,0,8.2-1.6,10.8-4.4c-24.5-11.7-48-24.9-72.8-38.8
			c-86-48.1-183.5-102.6-345-102.6h-9.7c-161.5,0-258.9,54.5-345,102.6c-24.8,13.9-48.4,27-72.8,38.8c2.6,2.8,6.4,4.4,10.8,4.4
			c2.8,0,5.6-0.6,8.2-1.8c1.5-0.7,3.3-0.3,4.3,1c1,1.3,1,3.1,0,4.4c-2.2,2.8-4.5,5.7-6.9,8.8c-36.4,46.7-96.8,124.2-187,175.5
			c5.8,2.2,13.2,3.4,20.8,3.4c10.3,0,20.3-2.2,28.9-6.4c1.3-0.6,2.9-0.4,4,0.6c1.1,1,1.4,2.6,0.9,3.9c-12.8,31.3-25.9,41.7-42,48.9
			c4.2,1.3,8.9,2,13.8,2c17.9,0,34.1-8.6,34.2-8.7C184,425.4,184.6,425.3,185.2,425.3z"/>
	</g>
	<g>
		<path class="st1" d="M334.7,382.4c54.7,5.8,108.6-56,182.9-12.6c56.8,33.1,63.1,198.7,4.7,299.7c-52,89.9-146.7,272.8-37.9,397.4
			c-80.4-58.4-85.9-208.1,23.7-406.9c42.6-77.3,34.7-129.3,26.8-148.3c-28.4,30-91.5,20.5-124.6-9.5s-42.6-85.2-48.9-97.8
			C341,398.1,334.7,382.4,334.7,382.4z"/>
	</g>
	<g>
		<circle class="st2" cx="470.5" cy="441.1" r="71"/>
		<path class="st1" d="M470.5,515.6c-41.1,0-74.5-33.4-74.5-74.5s33.4-74.5,74.5-74.5s74.5,33.4,74.5,74.5S511.6,515.6,470.5,515.6z
			 M470.5,373.7c-37.2,0-67.4,30.2-67.4,67.4s30.2,67.4,67.4,67.4s67.4-30.2,67.4-67.4S507.7,373.7,470.5,373.7z"/>
	</g>
	<g>
		<path class="st3" d="M311,639.4c-15.8,0-41,41-20.5,47.3C311,693.1,311,639.4,311,639.4z"/>
		<path class="st3" d="M293.7,690.8C293.7,690.8,293.7,690.8,293.7,690.8c-1.4,0-2.8-0.2-4.3-0.7c-7.7-2.4-11.3-9-9.9-18.2
			c2.3-15.4,18.3-36.1,31.5-36.1c2,0,3.5,1.6,3.5,3.5c0,0.5,0,12.4-2.2,24.5C309.1,681.8,302.9,690.8,293.7,690.8z M307.3,643.8
			c-8.4,3.6-19.1,18-20.8,29.2c-1.3,8.4,3.3,9.8,5,10.3c0.8,0.2,1.5,0.4,2.2,0.4c5,0,9.2-7.7,11.6-21
			C306.7,655.5,307.2,648.3,307.3,643.8z"/>
	</g>
	<g>
		<path class="st3" d="M323.6,808.2c-15.8,12.6,0,41,15.8,37.9C355.2,842.9,323.6,808.2,323.6,808.2z"/>
		<path class="st3" d="M336.9,849.8C336.9,849.8,336.9,849.8,336.9,849.8c-9,0-18-7.6-21.8-18.4c-3.6-10.3-1.3-20,6.2-26
			c1.5-1.2,3.6-1,4.8,0.4c5.7,6.3,24.1,27.6,20.6,38.1c-0.6,1.7-2.2,4.7-6.8,5.6C339.1,849.7,338,849.8,336.9,849.8z M323.5,813.4
			c-4.4,5.6-2.6,12.7-1.6,15.7c2.7,7.8,9.2,13.7,15.1,13.7c0,0,0,0,0,0c0.6,0,1.2-0.1,1.8-0.2c1.3-0.3,1.4-0.7,1.5-0.8
			C341.5,837.7,333,824.4,323.5,813.4z"/>
	</g>
	<g>
		<path class="st3" d="M374.1,712c-20.5,6.3-11,31.5,1.6,28.4C388.3,737.2,374.1,712,374.1,712z"/>
		<path class="st3" d="M373.5,744.2L373.5,744.2c-7.1,0-13.4-6.4-14.7-14.8c-1.1-7.2,2-17,14.2-20.8c1.6-0.5,3.3,0.2,4.1,1.7
			c1.1,1.9,10.2,18.6,6.2,27.9c-1.3,2.9-3.6,4.9-6.9,5.7C375.5,744.1,374.5,744.2,373.5,744.2z M372.4,716.4c-7,3.4-7,9.3-6.6,11.9
			c0.7,4.8,4.2,8.8,7.7,8.8l0,0c0.4,0,0.9-0.1,1.3-0.2c1.4-0.3,1.8-1,2.1-1.6C378.5,731.5,375.6,722.8,372.4,716.4z"/>
	</g>
	<g>
		<path class="st3" d="M396.2,768.8c-15.8,11-4.7,28.4,7.9,23.7S396.2,768.8,396.2,768.8z"/>
		<path class="st3" d="M399.8,796.8L399.8,796.8c-6.5,0-12.2-4.3-14.2-10.6c-2.3-7.3,0.9-14.9,8.6-20.3c1.4-1,3.2-0.8,4.4,0.3
			c2.5,2.3,14.7,14.1,13,22.8c-0.4,2.2-1.9,5.1-6.2,6.8C403.5,796.4,401.6,796.8,399.8,796.8z M395.9,773.5c-3.4,3.2-4.7,7-3.6,10.5
			c1.1,3.4,4.1,5.6,7.5,5.6l0,0c1,0,2-0.2,3-0.6c1.6-0.6,1.7-1.2,1.8-1.5C405.2,784.6,400.4,778.2,395.9,773.5z"/>
	</g>
	<g>
		<path class="st3" d="M284.2,735.6c-17.3,3.2-9.5,48.9,11,44.2C315.7,775.1,284.2,735.6,284.2,735.6z"/>
		<path class="st3" d="M292.3,783.7C292.3,783.7,292.3,783.7,292.3,783.7c-12.2,0-19.8-13.8-21-27.4c-1.2-13.1,3.6-22.6,12.3-24.1
			c1.3-0.2,2.6,0.3,3.4,1.3c2.3,2.9,22.7,28.9,18,42.4c-0.9,2.7-3.2,6.1-8.9,7.5C294.8,783.5,293.5,783.7,292.3,783.7z M283,739.8
			c-3.9,2.3-5.2,9.3-4.6,15.8c0.9,10.3,6.4,21,14,21h0c0.7,0,1.4-0.1,2.1-0.3c2.7-0.6,3.5-1.9,3.8-2.9
			C300.7,766.6,290.7,750,283,739.8z"/>
	</g>
	<g>
		<path class="st3" d="M402.5,863.4c-15.8,9.5-7.9,48.9,6.3,42.6S402.5,863.4,402.5,863.4z"/>
		<path class="st3" d="M405.8,910.2C405.8,910.2,405.8,910.2,405.8,910.2c-6.2,0-11.4-5.6-14-15c-3.4-12.3-1.5-28.7,8.9-34.9
			c0.8-0.5,1.8-0.6,2.7-0.4c0.9,0.2,1.7,0.9,2.2,1.7c1.6,2.8,15.2,27.5,10.9,40.5c-1.1,3.3-3.3,5.7-6.3,7.1
			C408.8,909.9,407.3,910.2,405.8,910.2z M401.4,869c-4.5,5.6-5.1,16-2.8,24.4c1.6,5.8,4.5,9.8,7.1,9.8l0,0c0.5,0,1-0.1,1.6-0.4
			c1.2-0.5,1.9-1.4,2.4-2.8C412,893.3,406.4,878.8,401.4,869z"/>
	</g>
	<g>
		<path class="st3" d="M530.2,207.3c-28.4,22.1-49.5,87.1-17.3,97.8c14.2,4.7-1.6-22.1,14.2-34.7
			C542.9,257.8,530.2,207.3,530.2,207.3z"/>
		<path class="st3" d="M515.7,309.2L515.7,309.2c-1.2,0-2.5-0.2-4-0.7c-9.7-3.2-15.9-11.1-17.9-22.6c-4.3-24.8,12.4-64.4,34.2-81.3
			c0.9-0.7,2.2-0.9,3.3-0.6c1.1,0.4,2,1.3,2.3,2.5c1.3,5.4,12.7,53.1-4.4,66.7c-6.8,5.4-6.5,14.5-6.3,21.8c0.1,5.4,0.3,9.6-2.3,12.3
			C519.8,308.1,518.2,309.2,515.7,309.2z M528.1,213.9c-17.6,17-30.7,50.2-27.2,70.8c1.5,8.9,6,14.7,13.1,17.1
			c0.8,0.3,1.3,0.3,1.6,0.4c0.4-1.2,0.3-4.5,0.3-7c-0.2-7.9-0.5-19.9,9-27.5C535,259.5,531.4,230,528.1,213.9z"/>
	</g>
	<g>
		<path class="st3" d="M726.9,417.1c0,0,9.5-78.9,3.2-121.4s0-82,9.5-115.1l-23.1,22.7l-22.1-22.7c9.5,33.1,15.8,72.5,9.5,115.1
			c-6.3,42.6,3.2,121.4,3.2,121.4l8.7,40.1L726.9,417.1z"/>
		<path class="st3" d="M715.6,460.7c0,0-0.1,0-0.1,0c-1.6-0.1-3-1.2-3.4-2.8l-8.7-40.1c0-0.1,0-0.2-0.1-0.3
			c-0.4-3.2-9.4-79.8-3.1-122.4c5.3-35.8,2.2-73-9.4-113.6c-0.4-1.6,0.2-3.2,1.6-4c1.4-0.8,3.2-0.6,4.3,0.6l19.6,20.2L737,178
			c1.1-1.1,2.9-1.3,4.3-0.5c1.4,0.8,2,2.5,1.6,4c-11.6,40.6-14.7,77.8-9.4,113.6c6.3,42.6-2.8,119.1-3.1,122.4
			c0,0.2-0.1,0.4-0.1,0.5L719,458.1C718.6,459.6,717.2,460.7,715.6,460.7z M710.4,416.5l5.6,26l7.4-26.1c0.6-5.1,9.1-79.8,3.1-120.2
			c-4.9-33.1-2.9-67.2,6.2-104l-13.9,13.6c-0.7,0.7-1.5,1-2.5,1c-0.9,0-1.8-0.4-2.5-1.1l-12.6-13c9,36.5,10.9,70.5,6.1,103.4
			C701.2,336.9,709.9,412.4,710.4,416.5z"/>
	</g>
	<g>
		<path class="st3" d="M560.2,145.8c-28.4,1.6-59.9,20.5-36.3,20.5C547.6,166.3,560.2,145.8,560.2,145.8z"/>
		<path class="st3" d="M523.9,169.8c-7.7,0-11.7-2.1-11.9-6.3c-0.3-9.2,27.7-20.2,47.9-21.3c1.3-0.1,2.6,0.6,3.2,1.7
			c0.7,1.1,0.7,2.6,0,3.7C562.7,148.6,549.3,169.8,523.9,169.8z M520.2,162.5c0.8,0.1,2,0.2,3.7,0.2c13.1,0,22.6-7,28-12.4
			C537.3,152.8,524.1,159,520.2,162.5z"/>
	</g>
	<g>
		<path class="st3" d="M590.2,175.8c-17.3,3.2-34.7,25.2-18.9,26.8S590.2,175.8,590.2,175.8z"/>
		<path class="st3" d="M572.5,206.2C572.5,206.2,572.5,206.2,572.5,206.2c-0.5,0-1.1,0-1.6-0.1c-8.4-0.8-9.3-6.6-9.4-8.3
			c-0.4-9.7,14.3-23,28-25.5c1.1-0.2,2.2,0.1,3.1,0.9c0.8,0.8,1.2,1.9,1.1,3C593.6,177.4,590.2,206.2,572.5,206.2z M585.7,180.8
			c-9.7,3.9-17.2,12.9-17,16.7c0,0.3,0.1,1.2,3,1.5C580,199.9,584,188,585.7,180.8z"/>
	</g>
	<g>
		<path class="st3" d="M599.6,104.8c-17.3-1.6-30,23.7-14.2,23.7S599.6,104.8,599.6,104.8z"/>
		<path class="st3" d="M585.4,132c-6.5,0-10.7-3.8-10.7-9.6c0-4.5,2.6-9.8,6.8-14c5.2-5.1,11.8-7.7,18.4-7.1
			c1.7,0.2,3.1,1.6,3.2,3.3c0,0.6,0.9,14.9-6.3,22.6C593.9,130.4,590.1,132,585.4,132z M596.1,108.4c-4.5,0.6-7.9,3.3-9.6,5
			c-3.3,3.2-4.7,6.8-4.7,8.9c0,0.9,0,2.5,3.6,2.5c2.6,0,4.6-0.8,6.3-2.6C594.9,118.9,595.9,112.7,596.1,108.4z"/>
	</g>
	<g>
		<path class="st3" d="M634.3,166.3c-11,3.2-17.3,42.6-3.2,37.9S634.3,166.3,634.3,166.3z"/>
		<path class="st3" d="M629,208.1C629,208.1,629,208.1,629,208.1c-2.3,0-7.9-1-9.3-10.6c-1.6-11.7,3.8-31.8,13.6-34.7
			c1.8-0.5,3.7,0.5,4.3,2.3c0.1,0.4,2.9,8.7,3.9,17.9c1.9,17-4,22.7-9.3,24.5C631.2,207.9,630,208.1,629,208.1z M632.4,172.2
			c-3.6,5-6.8,16.2-5.6,24.3c0.1,0.7,0.7,4.4,2.2,4.4l0,0c0.3,0,0.7-0.1,1.1-0.2C637,198.4,635.1,182.8,632.4,172.2z"/>
	</g>
	<g>
		<path class="st3" d="M654.8,112.7c-15.8,0-15.8,26.8,0,26.8S654.8,112.7,654.8,112.7z"/>
		<path class="st3" d="M654.8,143c-10.1,0-15.4-8.5-15.4-17c0-4.3,1.3-8.4,3.7-11.4c2.8-3.6,6.9-5.5,11.7-5.5c1.3,0,2.4,0.7,3.1,1.7
			c1.9,3.1,10.8,19.3,6.1,27.5C662.8,140.5,660.2,143,654.8,143z M652.9,116.4c-1.7,0.4-3,1.3-4.1,2.6c-1.4,1.8-2.2,4.3-2.2,7
			c0,3.7,1.7,9.9,8.3,9.9c2.4,0,2.9-0.8,3-1.1C659.6,131.7,656.2,122.7,652.9,116.4z"/>
	</g>
	<g>
		<path class="st3" d="M501.8,114.2c-25.2,4.7-48.9,20.5-31.5,28.4C487.7,150.5,501.8,114.2,501.8,114.2z"/>
		<path class="st3" d="M475.3,147.3L475.3,147.3c-2.2,0-4.4-0.5-6.5-1.4c-7.7-3.5-8.3-8.4-8-11.1c1.3-10.6,21.5-20.5,40.3-24
			c1.3-0.2,2.6,0.2,3.4,1.2c0.8,1,1,2.4,0.6,3.6C503.9,118.8,492.2,147.3,475.3,147.3z M495.6,119.3c-15.2,4.1-27.2,11.7-27.7,16.3
			c-0.2,1.7,2.3,3.1,3.9,3.8c1.2,0.5,2.3,0.8,3.5,0.8C483.2,140.2,491.2,128.1,495.6,119.3z"/>
	</g>
	<g>
		<path class="st3" d="M563.4,89c-12.6,1.6-28.4,15.8-18.9,20.5S563.4,89,563.4,89z"/>
		<path class="st3" d="M546.9,113.7L546.9,113.7c-1.4,0-2.7-0.3-4-1c-3.6-1.8-5.4-5-4.7-8.8c1.3-7.8,13.8-17.1,24.8-18.4
			c1.2-0.2,2.5,0.3,3.2,1.3c0.8,1,1,2.3,0.5,3.4C565.2,94.2,557.4,113.7,546.9,113.7z M557.1,94.5c-6.2,2.8-11.4,7.7-11.9,10.6
			c-0.1,0.4-0.1,0.7,0.9,1.2c0.3,0.1,0.6,0.2,0.8,0.2C549.6,106.6,553.7,101.1,557.1,94.5z"/>
	</g>
	<g>
		<path class="st3" d="M656.4,71.7c-17.3,3.2-18.9,25.2-3.2,22.1C669,90.6,656.4,71.7,656.4,71.7z"/>
		<path class="st3" d="M650.3,97.6C650.3,97.6,650.3,97.6,650.3,97.6c-6.4,0-10.9-4-11.5-10.1c-0.7-7.8,5.4-17.2,16.9-19.3
			c1.4-0.3,2.8,0.3,3.6,1.5c0.8,1.2,7.8,12.1,4.4,20.3c-1.1,2.6-3.7,6-9.9,7.2C652.7,97.5,651.5,97.6,650.3,97.6z M654.7,75.7
			c-6.5,2.2-9.1,7.6-8.8,11.1c0.2,2.4,1.7,3.7,4.4,3.7h0c0.7,0,1.4-0.1,2.2-0.2c3.8-0.8,4.5-2.4,4.7-3
			C658.6,84.2,656.4,79,654.7,75.7z"/>
	</g>
	<g>
		<path class="st1" d="M1099.1,382.4c-54.7,5.8-108.6-56-182.9-12.6c-56.8,33.1-63.1,198.7-4.7,299.7
			c52,89.9,146.7,272.8,37.9,397.4c80.4-58.4,85.9-208.1-23.7-406.9c-42.6-77.3-34.7-129.3-26.8-148.3c28.4,30,91.5,20.5,124.6-9.5
			s42.6-85.2,48.9-97.8C1092.8,398.1,1099.1,382.4,1099.1,382.4z"/>
	</g>
	<g>
		<circle class="st2" cx="963.2" cy="441.1" r="71"/>
		<path class="st1" d="M963.2,515.6c-41.1,0-74.5-33.4-74.5-74.5s33.4-74.5,74.5-74.5c41.1,0,74.5,33.4,74.5,74.5
			S1004.3,515.6,963.2,515.6z M963.2,373.7c-37.2,0-67.4,30.2-67.4,67.4s30.2,67.4,67.4,67.4s67.4-30.2,67.4-67.4
			S1000.4,373.7,963.2,373.7z"/>
	</g>
	<g>
		<path class="st3" d="M1122.8,639.4c15.8,0,41,41,20.5,47.3S1122.8,639.4,1122.8,639.4z"/>
		<path class="st3" d="M1140,690.8c-9.1,0-15.4-9-18.6-26.8c-2.2-12.1-2.2-24-2.2-24.5c0-2,1.6-3.5,3.5-3.5
			c13.2,0,29.1,20.7,31.5,36.1c1.4,9.2-2.2,15.8-9.9,18.2C1142.8,690.6,1141.4,690.8,1140,690.8z M1126.4,643.8
			c0.6,15.3,4.2,39.9,13.6,39.9c0.7,0,1.4-0.1,2.2-0.4c1.7-0.5,6.2-1.9,5-10.3C1145.5,661.8,1134.8,647.4,1126.4,643.8z"/>
	</g>
	<g>
		<path class="st3" d="M1110.1,808.2c15.8,12.6,0,41-15.8,37.9C1078.6,842.9,1110.1,808.2,1110.1,808.2z"/>
		<path class="st3" d="M1096.8,849.8c-1.1,0-2.1-0.1-3.2-0.3c-4.6-0.9-6.3-3.9-6.8-5.6c-3.5-10.5,14.9-31.9,20.6-38.1
			c1.3-1.4,3.4-1.6,4.8-0.4c7.5,6,9.8,15.7,6.2,26C1114.8,842.3,1105.8,849.8,1096.8,849.8z M1110.3,813.4
			c-9.5,11-18,24.3-16.7,28.4c0.1,0.2,0.2,0.6,1.5,0.8c6.3,1.3,13.8-4.9,16.8-13.5C1112.9,826,1114.7,819,1110.3,813.4z"/>
	</g>
	<g>
		<path class="st3" d="M1059.7,712c20.5,6.3,11,31.5-1.6,28.4S1059.7,712,1059.7,712z"/>
		<path class="st3" d="M1060.3,744.2c-1,0-2-0.1-3-0.4c-3.2-0.8-5.6-2.8-6.9-5.7c-4-9.2,5.2-26,6.2-27.9c0.8-1.5,2.5-2.1,4.1-1.7
			c12.3,3.8,15.3,13.6,14.2,20.8C1073.7,737.8,1067.4,744.2,1060.3,744.2z M1061.3,716.4c-3.1,6.4-6.1,15.1-4.5,18.9
			c0.3,0.6,0.7,1.3,2.1,1.6c0.4,0.1,0.9,0.2,1.3,0.2c3.5,0,7-3.9,7.7-8.8C1068.3,725.7,1068.3,719.8,1061.3,716.4z"/>
	</g>
	<g>
		<path class="st3" d="M1037.6,768.8c15.8,11,4.7,28.4-7.9,23.7S1037.6,768.8,1037.6,768.8z"/>
		<path class="st3" d="M1034,796.8c-1.9,0-3.7-0.3-5.5-1c-4.4-1.6-5.8-4.6-6.2-6.8c-1.7-8.8,10.5-20.5,13-22.8
			c1.2-1.1,3.1-1.3,4.4-0.3c7.7,5.4,10.9,13,8.6,20.3C1046.2,792.5,1040.5,796.8,1034,796.8z M1037.8,773.5
			c-4.5,4.7-9.2,11.1-8.6,14.1c0.1,0.3,0.2,0.9,1.8,1.5c4.5,1.7,9.1-0.7,10.5-5.1C1042.6,780.5,1041.2,776.7,1037.8,773.5z"/>
	</g>
	<g>
		<path class="st3" d="M1149.6,735.6c17.3,3.2,9.5,48.9-11,44.2S1149.6,735.6,1149.6,735.6z"/>
		<path class="st3" d="M1141.5,783.7c-1.2,0-2.5-0.1-3.7-0.4c-5.7-1.3-8-4.8-8.9-7.5c-4.7-13.5,15.7-39.5,18-42.4
			c0.8-1,2.1-1.5,3.4-1.3c8.6,1.6,13.5,11,12.3,24.1C1161.3,769.9,1153.6,783.7,1141.5,783.7z M1150.8,739.8
			c-7.7,10.2-17.7,26.7-15.3,33.7c0.3,1,1.1,2.2,3.8,2.9c0.7,0.2,1.4,0.3,2.1,0.3c7.6,0,13-10.7,14-21
			C1156,749.1,1154.7,742.1,1150.8,739.8z"/>
	</g>
	<g>
		<path class="st3" d="M1031.3,863.4c15.8,9.5,7.9,48.9-6.3,42.6S1031.3,863.4,1031.3,863.4z"/>
		<path class="st3" d="M1028,910.2c-1.5,0-3-0.3-4.5-1c-3-1.3-5.2-3.8-6.3-7.1c-4.3-13,9.4-37.7,10.9-40.5c0.5-0.8,1.3-1.4,2.2-1.7
			c0.9-0.2,1.9-0.1,2.7,0.4c10.3,6.2,12.3,22.6,8.9,34.9C1039.4,904.6,1034.1,910.2,1028,910.2z M1032.3,869
			c-5,9.8-10.5,24.3-8.3,31c0.5,1.4,1.2,2.3,2.4,2.8c0.6,0.3,1.1,0.4,1.6,0.4c2.6,0,5.5-3.9,7.1-9.8
			C1037.4,885,1036.8,874.5,1032.3,869z"/>
	</g>
	<g>
		<path class="st3" d="M903.5,207.3c28.4,22.1,49.5,87.1,17.3,97.8c-14.2,4.7,1.6-22.1-14.2-34.7S903.5,207.3,903.5,207.3z"/>
		<path class="st3" d="M918,309.2c-2.5,0-4-1.1-4.9-1.9c-2.6-2.7-2.5-6.9-2.3-12.3c0.2-7.3,0.4-16.3-6.3-21.8
			c-17.1-13.6-5.7-61.3-4.4-66.7c0.3-1.2,1.2-2.1,2.3-2.5c1.1-0.4,2.4-0.2,3.3,0.6c21.8,17,38.4,56.5,34.2,81.3
			c-2,11.5-8.2,19.4-17.9,22.6C920.5,308.9,919.2,309.2,918,309.2z M905.7,213.9c-3.3,16.1-6.9,45.7,3.2,53.7
			c9.5,7.6,9.2,19.6,9,27.5c-0.1,2.5-0.2,5.8,0.3,7c0.3,0,0.8-0.1,1.6-0.4c7.2-2.4,11.6-8.1,13.1-17.1
			C936.4,264,923.3,230.9,905.7,213.9z"/>
	</g>
	<g>
		<path class="st3" d="M873.6,145.8c28.4,1.6,59.9,20.5,36.3,20.5S873.6,145.8,873.6,145.8z"/>
		<path class="st3" d="M909.8,169.8c-25.3,0-38.7-21.3-39.3-22.2c-0.7-1.1-0.7-2.5,0-3.7c0.7-1.1,1.9-1.8,3.2-1.7
			c20.3,1.1,48.2,12.1,47.9,21.3C921.6,167.7,917.6,169.8,909.8,169.8z M881.9,150.3c5.4,5.5,14.9,12.4,28,12.4
			c1.7,0,2.9-0.1,3.7-0.2C909.7,159,896.5,152.8,881.9,150.3z"/>
	</g>
	<g>
		<path class="st3" d="M843.6,175.8c17.3,3.2,34.7,25.2,18.9,26.8C846.8,204.1,843.6,175.8,843.6,175.8z"/>
		<path class="st3" d="M861.3,206.2c-17.7,0-21.1-28.8-21.2-30c-0.1-1.1,0.3-2.2,1.1-3c0.8-0.8,1.9-1.1,3.1-0.9
			c13.7,2.5,28.4,15.9,28,25.5c-0.1,1.7-1,7.5-9.4,8.3C862.3,206.1,861.8,206.2,861.3,206.2z M848.1,180.8c1.7,7.3,5.6,19.1,14,18.3
			c2.9-0.3,3-1.2,3-1.5C865.3,193.6,857.8,184.7,848.1,180.8z"/>
	</g>
	<g>
		<path class="st3" d="M834.1,104.8c17.3-1.6,30,23.7,14.2,23.7C832.6,128.4,834.1,104.8,834.1,104.8z"/>
		<path class="st3" d="M848.3,132c-4.6,0-8.5-1.6-11.5-4.8c-7.2-7.7-6.3-22-6.3-22.6c0.1-1.7,1.5-3.1,3.2-3.3
			c13.4-1.2,25.3,11.1,25.3,21.1c0,2.8-1,5.2-2.8,6.9C854.3,131.1,851.7,132,848.3,132z M837.7,108.4c0.2,4.3,1.2,10.5,4.4,13.9
			c1.6,1.7,3.7,2.6,6.3,2.6c3.6,0,3.6-1.6,3.6-2.5C852,117.9,846.1,109.6,837.7,108.4z"/>
	</g>
	<g>
		<path class="st3" d="M799.4,166.3c11,3.2,17.3,42.6,3.2,37.9S799.4,166.3,799.4,166.3z"/>
		<path class="st3" d="M804.8,208.1c-1.1,0-2.2-0.2-3.3-0.6c-5.3-1.8-11.2-7.4-9.3-24.5c1-9.1,3.8-17.5,3.9-17.9
			c0.6-1.8,2.5-2.8,4.3-2.3c9.8,2.8,15.3,23,13.6,34.7C812.7,207.1,807.1,208.1,804.8,208.1z M801.4,172.2
			c-2.7,10.6-4.7,26.2,2.3,28.5c0.4,0.1,0.8,0.2,1.1,0.2c1.5,0,2.1-3.7,2.2-4.4C808.2,188.4,805,177.2,801.4,172.2z"/>
	</g>
	<g>
		<path class="st3" d="M778.9,112.7c15.8,0,15.8,26.8,0,26.8S778.9,112.7,778.9,112.7z"/>
		<path class="st3" d="M778.9,143c-5.4,0-8-2.5-9.2-4.6c-4.7-8.3,4.3-24.4,6.1-27.5c0.6-1.1,1.8-1.7,3.1-1.7
			c10.1,0,15.4,8.5,15.4,17c0,4.3-1.3,8.4-3.7,11.4C787.8,141.1,783.7,143,778.9,143z M780.9,116.4c-3.3,6.3-6.8,15.3-5,18.4
			c0.2,0.3,0.6,1.1,3,1.1c2.6,0,4.6-1,6.1-2.8c1.4-1.8,2.2-4.3,2.2-7C787.2,122.8,785.8,117.5,780.9,116.4z"/>
	</g>
	<g>
		<path class="st3" d="M931.9,114.2c25.2,4.7,48.9,20.5,31.5,28.4C946.1,150.5,931.9,114.2,931.9,114.2z"/>
		<path class="st3" d="M958.5,147.3c-16.9,0-28.6-28.5-29.8-31.8c-0.5-1.2-0.3-2.6,0.6-3.6c0.8-1,2.1-1.5,3.4-1.2
			c18.8,3.5,39,13.5,40.3,24c0.3,2.6-0.3,7.6-8,11.1C962.8,146.8,960.7,147.3,958.5,147.3z M938.1,119.3
			c4.5,8.8,12.4,20.9,20.3,20.9c1.2,0,2.3-0.3,3.5-0.8c1.5-0.7,4.1-2.1,3.9-3.8C965.3,131,953.4,123.5,938.1,119.3z"/>
	</g>
	<g>
		<path class="st3" d="M870.4,89c12.6,1.6,28.4,15.8,18.9,20.5S870.4,89,870.4,89z"/>
		<path class="st3" d="M886.9,113.7c-10.5,0-18.4-19.5-19.8-23.4c-0.4-1.2-0.2-2.5,0.5-3.4c0.8-1,2-1.5,3.2-1.3
			c11,1.4,23.5,10.7,24.8,18.4c0.6,3.7-1.1,6.9-4.7,8.8C889.6,113.3,888.3,113.7,886.9,113.7z M876.7,94.5c3.3,6.6,7.5,12,10.2,12
			c0.3,0,0.5-0.1,0.8-0.2c1-0.5,1-0.8,0.9-1.2C888.1,102.2,882.9,97.3,876.7,94.5z"/>
	</g>
	<g>
		<path class="st3" d="M777.4,71.7c17.3,3.2,18.9,25.2,3.2,22.1C764.7,90.6,777.4,71.7,777.4,71.7z"/>
		<path class="st3" d="M783.4,97.6c-1.1,0-2.4-0.1-3.6-0.4c-6.2-1.2-8.8-4.6-9.9-7.2c-3.4-8.2,3.6-19.1,4.4-20.3
			c0.8-1.2,2.2-1.8,3.6-1.5c11.5,2.1,17.6,11.4,16.9,19.3C794.4,93.6,789.8,97.6,783.4,97.6z M779.1,75.7c-1.7,3.2-3.9,8.4-2.6,11.6
			c0.2,0.5,0.9,2.2,4.7,3c4,0.8,6.4-0.4,6.6-3.4C788.2,83.4,785.5,77.9,779.1,75.7z"/>
	</g>
	<g>
		<path d="M881.4,830.3c-20.5-55.2-117-8-158-8c-41,0-150.6-47.2-171.1,8c-9.8,26.4,24.4,46,55.2,75.7c33.6,32.5,82.8,68.7,97,74.1
			c14.2,5.4,24.7,0,24.7,0c10.7,0,63.4-41.6,97-74.1C857,876.2,891.2,856.6,881.4,830.3z"/>
	</g>
	<g>
		<path class="st4" d="M803.9,1069.9c-6.3,14.2-44.2,6.3-72.5,6.3h-18.9c-28.4,0-64.6,8.8-70.9-5.4l28.4-10.6c0,0,21.3-7.1,27.2-13
			l10.6-10.6l8.3-8.3c0,0,9.5,4.7,14.2,14.2s34.3,16.6,34.3,16.6"/>
	</g>
	<g>
		<g>
			<path class="st3" d="M317.5,430.3c-28.4,34.7-53.6,48.9-44.2,66.2c9.5,17.3,34.7,45.7,25.2,71c20.5-18.9,12.6-53.6,3.2-67.8
				c-9.5-14.2,3.2-26.8,11-41C320.6,444.5,317.5,430.3,317.5,430.3z"/>
			<path class="st3" d="M298.5,571.1c-0.7,0-1.4-0.2-2-0.6c-1.4-0.9-1.9-2.7-1.3-4.2c6.9-18.3-6.6-39-17.4-55.6
				c-2.9-4.5-5.6-8.7-7.7-12.4c-7.8-14.3,3.4-26,20.5-43.6c7.3-7.5,15.5-16,24.1-26.5c0.9-1.1,2.2-1.5,3.6-1.2
				c1.3,0.3,2.3,1.4,2.6,2.7c0.1,0.6,3.3,15.7-5.1,30.9c-1.6,2.9-3.4,5.8-5.2,8.5c-7.6,12-12,19.8-6,28.8
				c9.6,14.4,18.8,51.7-3.7,72.4C300.3,570.8,299.4,571.1,298.5,571.1z M314.5,439.4c-6.7,7.7-13,14.2-18.7,20.2
				c-16.7,17.3-24.4,26-19.3,35.3c1.9,3.5,4.6,7.6,7.4,11.9c8.5,13.1,19.4,29.9,20.3,46.9c7.8-17.6,1.9-41.1-5.4-52
				c-8.9-13.3-1.3-25.1,5.9-36.6c1.7-2.7,3.4-5.4,5-8.1C313.1,450.6,314.3,444.2,314.5,439.4z"/>
		</g>
		<g>
			<path class="st3" d="M418.4,160.6c-33.1,20.5-64.7,63.1-66.2,100.9c-1.6,37.9-89.9,71-93.1,107.2
				c26.8-37.9,100.9-48.9,113.6-85.2s8.1-51.1,14.2-69.4C394.7,190.6,418.4,160.6,418.4,160.6z"/>
			<path class="st3" d="M259.1,372.4c-0.4,0-0.8-0.1-1.2-0.2c-1.5-0.6-2.5-2-2.3-3.6c1.7-19.3,23.8-36.4,47.1-54.5
				c22.2-17.2,45.2-34.9,45.9-52.6c1.7-41.2,36.3-84.2,67.9-103.8c1.5-0.9,3.4-0.6,4.5,0.7c1.1,1.3,1.2,3.2,0.1,4.6
				c-0.2,0.3-23.4,29.8-31,52.5c-2.4,7.1-3.1,13.8-3.9,21.6c-1.2,11.6-2.7,26-10.3,47.9c-7.1,20.4-31.3,32.8-56.9,45.9
				C297,342,274.2,353.7,262,370.9C261.3,371.8,260.2,372.4,259.1,372.4z M402.2,177.3c-23.9,21.2-45.2,53.5-46.5,84.5
				c-0.9,21-25.2,39.7-48.7,57.9c-13.2,10.2-26.8,20.7-35.4,31.1c12.7-10.3,28.6-18.4,44.2-26.3c24.3-12.4,47.3-24.2,53.4-41.9
				c7.3-21.1,8.7-34.5,10-46.3c0.9-8.2,1.6-15.3,4.2-23.1C387.5,201.2,395.3,187.8,402.2,177.3z"/>
		</g>
		<g>
			<path class="st3" d="M1114.7,430.3c28.4,34.7,53.6,48.9,44.2,66.2c-9.5,17.3-34.7,45.7-25.2,71c-20.5-18.9-12.6-53.6-3.2-67.8
				c9.5-14.2-3.2-26.8-11-41C1111.6,444.5,1114.7,430.3,1114.7,430.3z"/>
			<path class="st3" d="M1133.7,571.1c-0.9,0-1.7-0.3-2.4-0.9c-22.5-20.7-13.3-58-3.7-72.4c6-9,1.6-16.8-6-28.8
				c-1.7-2.7-3.5-5.6-5.2-8.5c-8.4-15.2-5.2-30.2-5.1-30.9c0.3-1.3,1.3-2.4,2.6-2.7c1.3-0.3,2.7,0.2,3.6,1.2
				c8.6,10.5,16.8,19,24.1,26.5c17,17.7,28.3,29.3,20.5,43.6c-2,3.7-4.8,7.9-7.7,12.4c-10.8,16.6-24.2,37.3-17.4,55.6
				c0.6,1.5,0,3.3-1.3,4.2C1135,570.9,1134.4,571.1,1133.7,571.1z M1117.7,439.4c0.2,4.9,1.3,11.3,4.9,17.6c1.5,2.7,3.3,5.5,4.9,8.1
				c7.3,11.4,14.8,23.3,5.9,36.6c-7.3,10.9-13.2,34.4-5.4,52c0.9-16.9,11.8-33.8,20.3-46.9c2.8-4.3,5.5-8.4,7.4-11.9
				c5.1-9.3-2.7-18.1-19.3-35.3C1130.7,453.6,1124.4,447.1,1117.7,439.4z"/>
		</g>
		<g>
			<path class="st3" d="M1013.8,160.6c33.1,20.5,64.7,63.1,66.2,100.9c1.6,37.9,89.9,71,93.1,107.2
				c-26.8-37.9-100.9-48.9-113.6-85.2s-8.1-51.1-14.2-69.4C1037.5,190.6,1013.8,160.6,1013.8,160.6z"/>
			<path class="st3" d="M1173.1,372.4c-1.1,0-2.2-0.5-2.9-1.5c-12.2-17.2-35-28.9-57.1-40.2c-25.6-13.1-49.8-25.5-56.9-45.9
				c-7.6-21.9-9.1-36.3-10.3-47.9c-0.8-7.8-1.5-14.5-3.9-21.6c-7.6-22.8-30.7-52.3-31-52.5c-1.1-1.4-1-3.3,0.1-4.6
				c1.1-1.3,3.1-1.6,4.5-0.7c31.6,19.6,66.2,62.6,67.9,103.8c0.7,17.7,23.7,35.4,45.9,52.6c23.4,18.1,45.5,35.2,47.1,54.5
				c0.1,1.6-0.8,3.1-2.3,3.6C1173.9,372.3,1173.5,372.4,1173.1,372.4z M1030,177.3c6.9,10.5,14.7,23.9,18.7,35.9
				c2.6,7.8,3.3,14.9,4.2,23.1c1.2,11.8,2.6,25.2,10,46.3c6.2,17.7,29.1,29.5,53.4,41.9c15.5,7.9,31.5,16.1,44.2,26.3
				c-8.6-10.4-22.1-20.8-35.4-31.1c-23.5-18.2-47.8-37-48.7-57.9C1075.2,230.7,1053.9,198.5,1030,177.3z"/>
		</g>
	</g>
	<g>
		<path class="st3" d="M707.7,73.9c-12.6,7.9-15.8,26.8-3.2,31.5c12.6,4.7,27.2-4.7,26.8-11C729.8,69.2,707.7,73.9,707.7,73.9z"/>
		<path class="st3" d="M711.8,110.3C711.8,110.3,711.8,110.3,711.8,110.3c-3,0-5.8-0.5-8.5-1.5c-5.9-2.2-9.6-7.1-10.2-13.6
			c-0.9-9,4.3-19,12.8-24.3c0.3-0.2,0.7-0.4,1.1-0.5c0.2,0,2.1-0.4,4.8-0.4c6.5,0,21.8,2.4,23.1,24.2c0.2,2.6-1,5.4-3.5,8
			C726.8,107.1,719.1,110.3,711.8,110.3z M709,77.3c-6.5,4.4-9.4,11.9-8.9,17.2c0.3,2.6,1.5,6.1,5.7,7.6c1.9,0.7,3.9,1.1,6,1.1
			c6.2,0,11.8-3,14.5-5.9c1.3-1.4,1.6-2.4,1.6-2.7c-0.9-14.5-9.2-17.5-16.1-17.5C710.5,77.1,709.6,77.2,709,77.3z"/>
	</g>
	<g>
		<path class="st3" d="M728.2,140.1c-15.8-1.6-23.7,20.5-9.5,23.7S728.2,140.1,728.2,140.1z"/>
		<path class="st3" d="M720.9,167.6L720.9,167.6c-0.9,0-1.9-0.1-3-0.3c-6.9-1.5-10.9-7.1-10.1-14.1c1-8.7,9.1-17.7,20.7-16.6
			c1.6,0.2,2.9,1.3,3.1,2.9c0.3,1.8,2.9,17.5-3,24.5C726.7,166.4,724,167.6,720.9,167.6z M725.1,143.7c-5.7,0.7-9.7,5.7-10.2,10.3
			c-0.3,2.4,0.3,5.4,4.6,6.4c1.7,0.4,2.9,0.2,3.7-0.8C725.7,156.6,725.6,148.9,725.1,143.7z"/>
	</g>
	<g>
		<path class="st3" d="M717.1,491.8c-7.9,1.6-9.5,26.8-1.6,26.8S717.1,491.8,717.1,491.8z"/>
		<path class="st3" d="M715.6,522.2c-1.8,0-7.5-0.8-8.6-11.3c-0.8-8.1,1.6-20.9,9.5-22.5c1.9-0.4,3.7,0.8,4.1,2.7
			c1.2,5.2,4.9,22.7,0.1,28.7C719.4,521.3,717.6,522.2,715.6,522.2z M715.1,499.8c-0.3,0.9-0.6,2-0.8,3.3c-1,6.2,0.2,10.6,1.1,11.8
			C716.3,512.9,716.2,506.7,715.1,499.8z"/>
	</g>
	<g>
		<g>
			<g>
				<path class="st5" d="M522.1,905.1c0,0-0.4,0.1-1.3,0.3c-0.8,0.2-2,0.6-3.6,0.9c-1.6,0.3-3.5,0.7-5.7,1c-2.2,0.3-4.7,0.6-7.4,0.9
					c-5.4,0.6-11.7,1.2-18.4,2c-3.4,0.3-6.8,1-10.2,1.3c-3.5,0.6-7,1.1-10.4,1.9c-3.5,0.6-6.9,1.5-10.3,2.4
					c-3.4,0.9-6.6,1.9-9.8,2.8c-3.1,1.2-6.2,2.1-9,3.3c-1.4,0.6-2.8,1.2-4.1,1.7c-1.3,0.6-2.7,1-3.9,1.6c-2.4,1.2-4.6,2.3-6.6,3.2
					c-2,1-3.6,2-5,2.7c-2.8,1.5-4.5,2.3-4.5,2.3s1.3-1.3,3.7-3.5c1.2-1.1,2.6-2.5,4.4-3.8c1.8-1.3,3.8-2.9,6.1-4.5
					c2.3-1.6,4.9-3,7.7-4.6c2.8-1.6,5.9-2.9,9.1-4.3c1.6-0.7,3.3-1.2,5-1.9c1.7-0.6,3.4-1.3,5.2-1.7c3.5-1,7.1-2,10.8-2.7
					c3.6-0.8,7.3-1.2,10.9-1.7c3.6-0.4,7.2-0.7,10.7-0.8c3.5-0.2,6.8-0.1,9.9-0.1c3.1,0,6.1,0.2,8.8,0.3c5.4,0.3,10,0.6,13.1,0.8
					C520.3,905,522.1,905.1,522.1,905.1z"/>
			</g>
			<g>
				<path class="st5" d="M531.6,950.8c0,0-1.2,0.4-3.3,1.1c-2.1,0.6-5.1,1.6-8.6,2.5c-1.8,0.5-3.7,1.1-5.7,1.7
					c-2,0.6-4.1,1.2-6.3,1.9c-2.2,0.7-4.4,1.4-6.7,2.1c-2.3,0.7-4.6,1.4-6.8,2.2c-2.3,0.7-4.5,1.6-6.8,2.3c-2.2,0.8-4.4,1.6-6.5,2.4
					c-2.1,0.8-4.1,1.6-6,2.4c-1.9,0.8-3.7,1.5-5.3,2.3c-1.6,0.8-3.1,1.5-4.4,2.2c-1.3,0.7-2.4,1.4-3.3,1.9c-1.8,1.2-2.9,1.9-2.9,1.9
					s0.2-0.3,0.5-0.8c0.3-0.5,0.7-1.3,1.4-2.1c0.7-0.8,1.5-2,2.7-3c0.6-0.5,1.2-1.1,1.8-1.7c0.7-0.6,1.4-1.1,2.1-1.7
					c1.5-1.2,3.2-2.4,5-3.6c1.9-1.1,3.8-2.3,5.9-3.4c2.1-1.1,4.3-2.1,6.6-3.1c2.3-0.9,4.6-1.9,7-2.6c2.4-0.8,4.8-1.5,7.2-2.1
					c2.4-0.7,4.8-1.1,7.1-1.6c2.3-0.4,4.6-0.7,6.7-1c2.1-0.2,4.2-0.4,6-0.5c1.9-0.1,3.6-0.1,5.1-0.1c1.5,0,2.8,0.1,3.9,0.2
					C530.3,950.6,531.6,950.8,531.6,950.8z"/>
			</g>
			<g>
				<path class="st5" d="M588.4,977.6c0,0-1.4,0.8-3.9,2.1c-2.5,1.3-6.1,3-10.5,5c-4.3,2-9.4,4.2-14.9,6.6
					c-5.4,2.4-11.2,4.9-16.9,7.5c-2.8,1.3-5.7,2.6-8.4,4c-2.7,1.4-5.4,2.7-8,4.2c-5.1,2.8-9.7,5.7-13.4,8.5
					c-0.9,0.7-1.8,1.4-2.6,2.1c-0.8,0.7-1.6,1.3-2.3,2c-0.7,0.6-1.3,1.3-1.9,1.9c-0.6,0.6-1.1,1.1-1.5,1.7c-0.9,1-1.6,1.9-2,2.5
					c-0.5,0.6-0.7,0.9-0.7,0.9s0.1-0.4,0.3-1.1c0.2-0.7,0.5-1.8,1.2-3.1c0.3-0.7,0.6-1.4,1.1-2.1c0.4-0.8,0.9-1.6,1.5-2.4
					c1.1-1.7,2.5-3.5,4.2-5.3c1.7-1.8,3.6-3.7,5.8-5.5c2.2-1.8,4.5-3.6,7.1-5.3c2.5-1.7,5.2-3.4,8-4.9c2.8-1.6,5.7-3,8.6-4.4
					c5.9-2.7,11.9-5,17.6-6.9c2.8-1,5.6-1.8,8.3-2.5c2.6-0.8,5.2-1.4,7.5-2c4.7-1.2,8.6-2,11.3-2.5
					C586.8,977.9,588.4,977.6,588.4,977.6z"/>
			</g>
		</g>
		<g>
			<g>
				<path class="st5" d="M910.1,905.1c0,0,1.8-0.1,5-0.2c3.2-0.2,7.7-0.5,13.1-0.8c2.7-0.1,5.7-0.3,8.8-0.3c3.2,0,6.5-0.1,9.9,0.1
					c3.4,0.1,7,0.4,10.7,0.8c3.6,0.5,7.3,0.9,10.9,1.7c3.7,0.7,7.3,1.7,10.8,2.7c1.8,0.4,3.5,1.1,5.2,1.7c1.7,0.6,3.4,1.2,5,1.9
					c3.2,1.4,6.3,2.8,9.1,4.3c2.8,1.6,5.4,3,7.7,4.6c2.3,1.6,4.3,3.1,6.1,4.5c1.8,1.4,3.2,2.8,4.4,3.8c2.4,2.2,3.7,3.5,3.7,3.5
					s-1.7-0.8-4.5-2.3c-1.4-0.7-3.1-1.7-5-2.7c-2-0.9-4.2-2-6.6-3.2c-1.2-0.6-2.5-1.1-3.9-1.6c-1.3-0.6-2.7-1.1-4.1-1.7
					c-2.8-1.2-5.9-2.1-9-3.3c-3.2-1-6.5-2-9.8-2.8c-3.4-0.8-6.8-1.7-10.3-2.4c-3.4-0.8-7-1.3-10.4-1.9c-3.5-0.4-6.9-1.1-10.2-1.3
					c-6.7-0.7-13-1.4-18.4-2c-2.7-0.3-5.2-0.6-7.4-0.9c-2.2-0.3-4.2-0.7-5.7-1c-1.6-0.3-2.8-0.7-3.6-0.9
					C910.5,905.2,910.1,905.1,910.1,905.1z"/>
			</g>
			<g>
				<path class="st5" d="M900.6,950.8c0,0,1.3-0.2,3.4-0.3c1.1-0.1,2.4-0.2,3.9-0.2c1.5,0,3.3,0,5.1,0.1c1.9,0.1,3.9,0.3,6,0.5
					c2.1,0.3,4.4,0.6,6.7,1c2.3,0.5,4.7,0.9,7.1,1.6c2.4,0.6,4.8,1.3,7.2,2.1c2.4,0.8,4.7,1.7,7,2.6c2.3,1,4.5,2,6.6,3.1
					c2.1,1.1,4.1,2.3,5.9,3.4c1.8,1.2,3.5,2.4,5,3.6c0.7,0.6,1.5,1.2,2.1,1.7c0.6,0.6,1.2,1.2,1.8,1.7c1.1,1,1.9,2.2,2.7,3
					c0.7,0.9,1.1,1.7,1.4,2.1c0.3,0.5,0.5,0.8,0.5,0.8s-1.1-0.7-2.9-1.9c-1-0.5-2-1.2-3.3-1.9c-1.3-0.7-2.8-1.4-4.4-2.2
					c-1.6-0.8-3.5-1.5-5.3-2.3c-1.9-0.8-3.9-1.6-6-2.4c-2.1-0.8-4.3-1.6-6.5-2.4c-2.3-0.7-4.5-1.6-6.8-2.3c-2.3-0.8-4.6-1.5-6.8-2.2
					c-2.3-0.7-4.5-1.4-6.7-2.1c-2.2-0.7-4.3-1.3-6.3-1.9c-2-0.5-3.9-1.1-5.7-1.7c-3.5-0.9-6.5-1.9-8.6-2.5
					C901.8,951.2,900.6,950.8,900.6,950.8z"/>
			</g>
			<g>
				<path class="st5" d="M843.8,977.6c0,0,1.6,0.2,4.4,0.8c2.8,0.5,6.7,1.3,11.3,2.5c2.3,0.6,4.9,1.2,7.5,2c2.6,0.8,5.4,1.6,8.3,2.5
					c5.7,1.9,11.7,4.2,17.6,6.9c2.9,1.4,5.8,2.8,8.6,4.4c2.8,1.5,5.5,3.2,8,4.9c2.6,1.7,4.9,3.5,7.1,5.3c2.2,1.8,4.1,3.7,5.8,5.5
					c1.7,1.8,3.1,3.6,4.2,5.3c0.6,0.8,1.1,1.6,1.5,2.4c0.4,0.8,0.8,1.5,1.1,2.1c0.6,1.3,0.9,2.4,1.2,3.1c0.2,0.7,0.3,1.1,0.3,1.1
					s-0.2-0.3-0.7-0.9c-0.4-0.6-1.1-1.5-2-2.5c-0.4-0.5-0.9-1.1-1.5-1.7c-0.6-0.6-1.2-1.2-1.9-1.9c-0.7-0.7-1.4-1.3-2.3-2
					c-0.8-0.7-1.7-1.4-2.6-2.1c-3.7-2.8-8.3-5.7-13.4-8.5c-2.5-1.4-5.2-2.8-8-4.2c-2.7-1.4-5.6-2.7-8.4-4
					c-5.7-2.6-11.4-5.1-16.9-7.5c-5.4-2.4-10.5-4.6-14.9-6.6c-4.4-2-8-3.7-10.5-5C845.2,978.4,843.8,977.6,843.8,977.6z"/>
			</g>
		</g>
	</g>
	<g>
		<path class="st5" d="M572.8,852.3c0,0,0.1-0.6,0.3-1.7c0.3-1.1,0.7-2.8,2.1-4.6c1.4-1.8,4.1-3.3,7.2-3.6c3.2-0.3,6.7,0.2,10.2,1.3
			c3.6,1.1,7.3,2.7,11,4.7c3.7,2,7.5,4.3,11.2,6.9c3.7,2.6,7.5,5.4,11.1,8.5c3.6,3.1,7.2,6.3,10.6,9.7c3.4,3.4,6.7,7,9.8,10.5
			c3.2,3.6,6,7.3,8.7,11c2.7,3.7,5,7.4,7.1,11.1c2.1,3.7,3.7,7.3,4.9,10.9c1.2,3.5,1.9,7,1.5,10.2c-0.2,3.2-2.1,5.9-4,7.1
			c-1.9,1.2-3.7,1.3-4.8,1.5c-1.1,0.1-1.7,0.1-1.7,0.1s0.6-0.2,1.6-0.5c1-0.4,2.6-0.9,4-2.2c1.4-1.3,2.3-3.4,2.2-6
			c-0.1-2.6-1.2-5.6-2.6-8.6c-2.9-6.2-7.7-12.8-13.1-19.6c-2.7-3.4-5.8-6.8-8.8-10.2c-3.1-3.4-6.3-6.8-9.7-10
			c-3.3-3.3-6.7-6.5-10.1-9.6c-3.5-3-6.9-6-10.3-8.7c-3.5-2.7-6.8-5.2-10.2-7.4c-3.3-2.1-6.6-4-9.7-5.4c-3.1-1.4-6.1-2.3-8.7-2.4
			c-2.6-0.1-4.9,0.6-6.3,1.9c-1.5,1.3-2.2,2.7-2.7,3.7C573,851.8,572.8,852.3,572.8,852.3z"/>
	</g>
	<g>
		<path class="st5" d="M860.9,852.3c0,0-0.2-0.6-0.7-1.6c-0.5-1-1.3-2.4-2.7-3.7c-1.5-1.3-3.7-2-6.3-1.9c-2.6,0.2-5.6,1.1-8.7,2.4
			c-3.1,1.4-6.3,3.3-9.7,5.4c-3.3,2.2-6.7,4.7-10.2,7.4c-3.5,2.7-6.8,5.7-10.3,8.7c-3.4,3-6.8,6.3-10.1,9.6c-3.3,3.3-6.6,6.6-9.7,10
			c-3.1,3.4-6.1,6.8-8.8,10.2c-5.5,6.8-10.2,13.5-13.1,19.6c-1.4,3.1-2.5,6-2.6,8.6c-0.2,2.6,0.7,4.7,2.2,6c1.4,1.3,3,1.9,4,2.2
			c1.1,0.3,1.6,0.5,1.6,0.5s-0.6,0-1.7-0.1c-1.1-0.2-2.9-0.3-4.8-1.5c-1.9-1.1-3.8-3.8-4-7.1c-0.4-3.2,0.3-6.7,1.5-10.2
			c1.2-3.6,2.8-7.2,4.9-10.9c2-3.7,4.4-7.4,7.1-11.1c2.7-3.7,5.5-7.4,8.7-11c3.1-3.6,6.4-7.1,9.8-10.5c3.5-3.4,7-6.6,10.6-9.7
			c3.6-3.1,7.4-5.9,11.1-8.5c3.7-2.6,7.5-4.9,11.2-6.9c3.7-2,7.4-3.6,11-4.7c3.6-1.1,7.1-1.6,10.2-1.3c3.2,0.3,5.9,1.8,7.2,3.6
			c1.5,1.7,1.8,3.5,2.1,4.6C860.8,851.8,860.9,852.3,860.9,852.3z"/>
	</g>
	<g>
		<path class="st3" d="M909.8,1085.8c-4.2,1-8.5,1.7-12.9,2c-4.4,0.3-8.7,0.4-13.1,0.3c-4.4-0.1-8.7-0.3-13.1-0.7
			c-4.4-0.3-8.7-0.9-13-1.4c-17.3-2.4-34.4-6.1-51.2-10.5c-16.9-4.3-33.5-9.5-50.1-14.9l-6.2-2c-2-0.7-4-1.3-6.4-2.3
			c-4.4-1.9-8.3-4.5-11.8-7.5c-3.5-3-6.7-6.3-9.5-9.9c-2.8-3.6-5.3-7.2-7.5-11.5l3.2,2l-0.3,0l3-1.7c-2.5,4-5.2,7.4-8.2,10.8
			c-3,3.4-6.2,6.6-9.7,9.5c-3.5,2.9-7.3,5.5-11.6,7.5c-2,1-4.5,1.9-6.4,2.5l-6.1,2c-16.4,5.5-33,10.8-49.8,15.2
			c-16.8,4.5-33.8,8.3-51,10.7c-4.3,0.6-8.6,1.1-13,1.5c-4.3,0.4-8.7,0.6-13,0.7c-4.3,0.1-8.7,0-13-0.3c-4.3-0.3-8.6-1.1-12.9-2
			c4.3,0.6,8.6,1,12.9,1c4.3,0.1,8.6-0.1,12.9-0.5c4.3-0.4,8.6-0.9,12.8-1.5c4.3-0.6,8.5-1.4,12.7-2.2c8.5-1.6,16.8-3.5,25.2-5.7
			c8.3-2.2,16.6-4.4,24.9-6.9c16.5-5,32.9-10.4,49.1-16.2l6.1-2.2c2.1-0.7,3.8-1.3,5.6-2.2c3.6-1.7,7-4,10.1-6.7
			c3.1-2.6,6.1-5.6,8.8-8.7c2.7-3.1,5.3-6.6,7.4-9.9l1.1-1.7l2,0l0.3,0l2.1,0l1,2c1.8,3.5,4.2,7.1,6.7,10.3c2.5,3.3,5.4,6.3,8.4,8.9
			c3.1,2.6,6.5,4.9,10,6.5c1.7,0.8,3.8,1.4,5.9,2.1l6.1,2.1c16.3,5.7,32.8,11,49.4,15.9c8.3,2.4,16.6,4.7,25,6.8
			c8.4,2.1,16.8,4,25.3,5.6c4.2,0.8,8.5,1.6,12.8,2.2c4.3,0.7,8.6,1.1,12.9,1.5c2.2,0.2,4.3,0.3,6.5,0.4c2.2,0,4.3,0.1,6.5,0.1
			C901.2,1086.7,905.5,1086.4,909.8,1085.8z"/>
	</g>
	<g>
		<rect x="714.4" y="980.8" class="st3" width="7.1" height="45.1"/>
	</g>
</g>
<g>
	<g>
		<g>
			<ellipse cx="470.6" cy="441.5" rx="54" ry="57"/>
			<circle class="st6" cx="436.6" cy="406.5" r="22"/>
		</g>
	</g>
	<g>
		<g>
			<ellipse cx="961.6" cy="441.5" rx="54" ry="57"/>
			<circle class="st6" cx="995.6" cy="406.5" r="22"/>
		</g>
	</g>
</g>
</svg>
