<?xml version="1.0" encoding="utf-8"?>
<!-- Generator: Adobe Illustrator 23.0.5, SVG Export Plug-In . SVG Version: 6.00 Build 0)  -->
<svg version="1.1" id="Слой_1" xmlns="http://www.w3.org/2000/svg" xmlns:xlink="http://www.w3.org/1999/xlink" x="0px" y="0px"
	 viewBox="0 0 71.8 113.9" style="enable-background:new 0 0 71.8 113.9;" xml:space="preserve">
<style type="text/css">
	.st0{fill:#FFFFFF;stroke:#000000;stroke-width:4;stroke-linecap:round;stroke-miterlimit:10;}
	.st1{fill:none;stroke:#000000;stroke-width:4;stroke-linecap:round;stroke-miterlimit:10;}
	.st2{display:none;fill:none;stroke:#000000;stroke-width:4;stroke-linecap:round;stroke-miterlimit:10;}
</style>
<g id="圖層_1">
	<path class="st0" d="M64.1,40.5c-3.3,0-6,0.7-6,4v-2c0-3.3-2.7-6-6-6s-6,2.7-6,6v-2c0-3.3-2.7-6-6-6s-6,2.7-6,6v-13
		c0-3.3-2.7-6-6-6s-6,2.7-6,6v37.6l-9.5-14.8c-1.7-2.8-5-3.7-7.9-2c-2.8,1.7-3.5,5.4-1.8,8.2L15.6,81c0,0.1,0.3,0.9,0.8,2.3
		C19,91,23,95.8,27.9,102.7c0.5,1.3,0.9,9.2,0.9,9.2h34.6c0,0,0.9-8.5,1.1-9.2c1.3-3.8,3-7.6,4.6-16.1c1.6-8.7-0.1-19.3-0.1-19.7
		c0-11,0-20.5,0-20.5C69.1,43.2,67.4,40.5,64.1,40.5z"/>
	<line class="st1" x1="22.1" y1="65" x2="22.1" y2="74"/>
	<line class="st1" x1="34.1" y1="40" x2="34.1" y2="59"/>
	<line class="st1" x1="46.1" y1="40" x2="46.1" y2="59"/>
	<line class="st1" x1="58.1" y1="40" x2="58.1" y2="59"/>
	<g>
		<line class="st1" x1="28.1" y1="12" x2="28.1" y2="2"/>
		<line class="st1" x1="23.1" y1="14.1" x2="16.1" y2="7"/>
		<line class="st1" x1="21.1" y1="19" x2="11.1" y2="19"/>
		<line class="st2" x1="23.1" y1="23.9" x2="16.1" y2="31"/>
		<line class="st2" x1="28.1" y1="26" x2="28.1" y2="36"/>
		<line class="st2" x1="33" y1="23.9" x2="40.1" y2="31"/>
		<line class="st1" x1="35.1" y1="19" x2="45.1" y2="19"/>
		<line class="st1" x1="33" y1="14.1" x2="40.1" y2="7"/>
	</g>
</g>
</svg>
