<?xml version="1.0" encoding="utf-8"?>
<!-- Generator: Adobe Illustrator 23.0.5, SVG Export Plug-In . SVG Version: 6.00 Build 0)  -->
<svg version="1.1" xmlns="http://www.w3.org/2000/svg" xmlns:xlink="http://www.w3.org/1999/xlink" x="0px" y="0px"
	 viewBox="0 0 71.8 103.5" style="enable-background:new 0 0 71.8 103.5;" xml:space="preserve">
<style type="text/css">
	.st0{fill:#FFFFFF;stroke:#000000;stroke-width:4;stroke-linecap:round;stroke-miterlimit:10;}
	.st1{display:none;fill:none;stroke:#000000;stroke-width:4;stroke-linecap:round;stroke-miterlimit:10;}
</style>
<g id="圖層_1">
	<path class="st0" d="M64.1,30c-3.3,0-6,0.7-6,4v-2c0-3.3-2.7-6-6-6s-6,2.7-6,6v-2c0-3.3-2.7-6-6-6s-6,2.7-6,6V8c0-3.3-2.7-6-6-6
		s-6,2.7-6,6v46.6l-9.5-14.8c-1.7-2.8-5-3.7-7.9-2c-2.8,1.7-3.5,5.4-1.8,8.2l12.7,24.5c0,0.1,0.3,0.9,0.8,2.3
		c2.6,7.7,6.6,12.5,11.5,19.4c0.5,1.3,0.9,9.2,0.9,9.2h34.6c0,0,0.9-8.5,1.1-9.2c1.3-3.8,3-7.6,4.6-16.1c1.6-8.7-0.1-19.3-0.1-19.7
		c0-11,0-20.5,0-20.5C69.1,32.7,67.4,30,64.1,30z"/>
	<line class="st0" x1="22.1" y1="54.5" x2="22.1" y2="63.5"/>
	<line class="st0" x1="34.1" y1="29.5" x2="34.1" y2="48.5"/>
	<line class="st0" x1="46.1" y1="29.5" x2="46.1" y2="48.5"/>
	<line class="st0" x1="58.1" y1="29.5" x2="58.1" y2="48.5"/>
	<g>
		<line class="st1" x1="138.1" y1="13.4" x2="131.1" y2="20.5"/>
		<line class="st1" x1="143.1" y1="15.5" x2="143.1" y2="25.5"/>
		<line class="st1" x1="148" y1="13.4" x2="155.1" y2="20.5"/>
	</g>
</g>
<g id="圖層_2">
</g>
</svg>
