<?xml version="1.0" encoding="utf-8"?>
<!-- Generator: Adobe Illustrator 23.0.5, SVG Export Plug-In . SVG Version: 6.00 Build 0)  -->
<svg version="1.1" id="Слой_1" xmlns="http://www.w3.org/2000/svg" xmlns:xlink="http://www.w3.org/1999/xlink" x="0px" y="0px"
	 viewBox="0 0 399.6 519" style="enable-background:new 0 0 399.6 519;" xml:space="preserve">
<style type="text/css">
	.st0{fill:#D2BE9E;}
	.st1{fill:#C38D46;}
	.st2{fill:#E7B76B;}
	.st3{fill:#B1804B;}
	.st4{fill:#785B45;}
	.st5{fill:#5A5B5C;}
	.st6{fill:#3D3336;}
	.st7{fill:#E9DBBA;}
	.st8{fill:#C5E1F5;}
	.st9{fill:#E4F4FC;}
</style>
<g>
	<path class="st0" d="M293.1,95.2c1.2-1.3-0.1-3.4-1.8-2.7l-7.3,2.7c1.3,1.5,2.6,3.3,4,5.4L293.1,95.2z"/>
	<path class="st1" d="M140.1,461.1c-6.9-5.2-14.1-16.6-17.5-40.9c-7.4-53-17.8-87.3-69.1-96.3c-19.3-3-39.3,4.3-50.5,9.5
		c-3.8,1.8-4,7.2-0.2,9.1c15.3,8.1,45.5,26.6,50.4,48.1c5,22.4,6.4,32.7,19.3,51.7c12.9,19,28.4,27.9,41.3,33.1
		c8.1,3.3,24.6,4.2,35.7,4.4c-2.6-3.4-5.1-7.8-7.5-13.3C141.2,464.7,140.6,462.9,140.1,461.1"/>
	<path class="st2" d="M229.4,457c0,0-26.1,14.3-38.3-6.9c-13.4-23.2,23.6-47.9,23.6-47.9s26.6-18.8,55.9-9.3
		c2.9-6.2,6.2-12.2,9.8-17.9c34.3-54.4,67.3-78.9,85.2-98.9c-0.4-11.4-2.1-22.6-4.7-35.5c-1.2-5.8-2.7-12-4.4-17.9
		c-14.7-19.4-31-42.5-33.2-56.6c-1.3-8.3-1.7-16.7-1.2-25.2c-1.6,0.9-3.3,1.4-4.8,1.6c-8.1,0.9-9.4-3.8-21-27.5
		c-2.9-6-5.6-10.8-8.1-14.5c-1.4-2.1-2.8-3.9-4-5.4c-8-9.5-13.3-8.1-14.9-7.3c0.4,0.4,0.8,0.9,1.1,1.4c1.6,3.1-0.1,8-2.5,9.3
		c-1,0.5-2.1,0.4-3.2,0c-0.1,4.3,0.9,10.1,4.1,18.1c9.2,23,5.9,26.1,1.5,44.1c-2.9,12-2.8,27.5-1.6,41.7c2.7-0.7,5.4-0.7,8.1-0.1
		c2.7,0.6,5.3,1.7,7.6,3.5c0.1,0.1,0.2,0.2,0.3,0.2c3.4,2.8,5.5,6.5,6.3,10.5c1.2,5.9-0.6,12.3-5.3,16.8c-3.3,3.2-7.4,6.5-12.4,9.3
		c-1,11.8-7.5,25.2-7.5,25.2c-16.9,33.7-37.4,51.2-45.1,56.9c-4,3-7.8,6.1-11.5,9.3c-12.8,11.3-37.2,34.5-52.9,60
		c-15.6,26.7-20.6,50.5-16.1,67.2c0.5,1.9,1.1,3.7,1.8,5.4c2.4,5.5,4.9,9.9,7.5,13.3c7.8,10.3,16.8,12.8,29.7,16.5
		c9.1,2.6,19.7,2.5,30.8-0.5c1.1-3.4,2.7-7.4,5.2-12.2C224.5,465.4,229.4,457,229.4,457 M290.3,176.6c-2.9,0-5.2-2.3-5.2-5.2
		s2.3-5.2,5.2-5.2c2.9,0,5.2,2.3,5.2,5.2S293.2,176.6,290.3,176.6"/>
	<path class="st0" d="M338.6,100c-1.6-0.7-3.1,1.2-2,2.6l6.1,7.4c0.5-2.7,1-5.3,1.7-7.5L338.6,100z"/>
	<path class="st3" d="M290.7,216.4c-3.5,4.8-14.3,17.3-32,16c-2-0.1-3.3-2.1-2.6-4c2.4-6.9,9.1-22.2,20.5-26.2
		c-2.7-0.6-5.5-0.5-8.1,0.1c-2.4,0.6-4.7,1.7-6.8,3.3c-12.9,10-20.5,28.6-23.6,37.6c-0.9,2.7,0.9,5.6,3.8,5.8
		c12.7,1.1,23.1-2.1,31.2-6.6c5-2.8,9.1-6.1,12.4-9.3C290.2,228.7,291.9,222.3,290.7,216.4"/>
	<path class="st4" d="M256.1,228.4c-0.6,1.9,0.7,3.8,2.6,4c17.7,1.4,28.5-11.1,32-15.9c-0.8-4-2.9-7.7-6.3-10.5
		c-0.1-0.1-0.2-0.2-0.3-0.2c-2.3-1.8-4.9-3-7.6-3.5C265.2,206.2,258.5,221.5,256.1,228.4"/>
	<path class="st5" d="M267.7,98.4c2.3-1.2,4.1-6.1,2.5-9.3c-0.3-0.5-0.7-1-1.1-1.4c-2.2-2.1-6-2.8-8-1.8c-2.3,1.2-2.6,5.3-1,8.4
		c1,1.9,2.6,3.3,4.3,4C265.6,98.9,266.8,99,267.7,98.4"/>
	<path class="st6" d="M295.6,171.4c0-2.9-2.3-5.2-5.2-5.2s-5.2,2.3-5.2,5.2c0,2.9,2.3,5.2,5.2,5.2S295.6,174.3,295.6,171.4"/>
	<path class="st7" d="M323.2,340.2c4.1-6,11.9-8.9,19.3-7.2c0.2,0.1,0.4,0.1,0.7,0.2c4.3,1.2,7.5,4.5,9.5,8.7
		c4.9-10.3,8.7-20.4,10.2-29.1c2.4-13.6,3.2-25.2,2.8-36.7c-17.9,20-51,44.5-85.2,98.9c-3.6,5.7-6.8,11.7-9.8,17.9
		c0.3,0.1,0.5,0.2,0.8,0.3c21.1,7.2,24,24.9,19.2,40.7c12-13.8,21.4-26.5,27.3-34.5c0.9-1.2,1.8-2.4,2.7-3.8
		C313.6,363.9,317.8,348.1,323.2,340.2"/>
	<path class="st7" d="M323.3,166.1c2.2,14.1,18.5,37.2,33.2,56.6c-5.8-20.5-13.3-39.5-13.3-39.5s-4.1-9.6-3.7-19.6
		c0.4-10,4.9-18.9,8.3-27.1c2.1-5.1,4.4-12.4,5.9-17.3c1.4-4.5,1.9-9.2,1.4-13.9c-0.5-4.5-1.8-9-5.3-8.9c-2.9,0.1-4.3,2.5-5.4,6
		c-0.6,2.2-1.1,4.8-1.7,7.5c-0.7,3.6-1.5,7.4-3.1,10.6c-3.6,7.6-10.7,16.6-17.6,20.3C321.6,149.4,322,157.9,323.3,166.1"/>
	<path class="st1" d="M271.4,393.2c-0.3-0.1-0.5-0.2-0.8-0.3c-29.2-9.5-55.9,9.3-55.9,9.3s-37,24.8-23.6,47.9
		c12.2,21.2,38.3,6.9,38.3,6.9s-4.9,8.4-14.3,26.6c-2.5,4.8-4.1,8.8-5.2,12.2c-2.9,9.4-1.1,14,1.3,17.6c1.4,2,5.6,2.7,10,2.8
		c12,0.2,24,0.7,35.9,1.5c17.9,1.3,39.5,1.4,39.1-6.1c-0.7-12.7-30.8-8.3-40.7-8.2c-6.2,0.1-9.5-2.9-10.3-6.8
		c-0.6-3,2.3-8.2,4.3-10.5c10.4-11.4,28.6-30.6,30.5-32.8c4.5-5.3,8.3-12.1,10.6-19.4C295.4,418.1,292.4,400.4,271.4,393.2"/>
	<path class="st1" d="M399.2,511.7c0,0,1.1-6-16.1-5.7c-17.2,0.3-17.1-3.1-17.1-4.5c0-1.3-5-128.6-12-156c-0.3-1.3-0.8-2.5-1.3-3.7
		c-1.9-4.3-5.1-7.5-9.5-8.7c-0.2-0.1-0.4-0.1-0.7-0.2c-7.4-1.7-15.2,1.2-19.3,7.2c-5.4,7.8-9.6,23.7-2.6,55.3
		c0.3,1.2,0.5,2.4,0.8,3.7c0,0,7.3,24.8,6.4,40.2c-0.3,4.4,0.8,8.7,2.6,12.7c4.4,9.5,11.8,29.1,15.5,60.3c0,0-0.7,7.4,29.1,6.5
		C404.9,518.1,399.2,511.7,399.2,511.7"/>
	<path class="st8" d="M313.4,76.6c-4.2,3.4-5.2,9.4-2.2,13.9l8.4,13c0.4,0.6,1,0.9,1.6,0.9c0.4,0,0.7-0.1,1.1-0.3
		c0.9-0.6,1.2-1.8,0.6-2.7l-8.4-13c-1.9-2.9-1.2-6.6,1.4-8.8l13.1-10.5c1.5-1.2,2.4-3,2.4-5c0-1.9-0.8-3.8-2.3-5l-14.1-11.9
		c-0.6-0.5-1-1.3-0.9-2.2c0.1-0.8,0.5-1.6,1.2-2L338,29.4c1.9-1.1,3-3.1,3.1-5.2c0.1-2.2-0.9-4.2-2.6-5.5L313.9,0.4
		c-0.9-0.6-2.1-0.5-2.7,0.4c-0.6,0.9-0.5,2.1,0.4,2.7l24.6,18.3c0.7,0.5,1.1,1.3,1,2.2c0,0.9-0.5,1.6-1.3,2.1l-22.8,13.7
		c-1.8,1.1-3,2.9-3.1,5c-0.2,2.1,0.7,4.1,2.3,5.5l14.1,11.9c0.6,0.5,0.9,1.2,0.9,2c0,0.8-0.4,1.5-1,2L313.4,76.6z"/>
	<path class="st9" d="M341.1,70.6c0.3,0.2,0.6,0.2,0.9,0.2c0.7,0,1.3-0.4,1.7-1l20.4-36.5c0.5-0.9,0.2-2.1-0.7-2.6
		c-0.9-0.5-2.1-0.2-2.6,0.7L340.3,68C339.8,68.9,340.1,70.1,341.1,70.6"/>
	<path class="st9" d="M298.6,66.4c0.3,0.7,1,1.1,1.7,1.1c0.3,0,0.6-0.1,0.9-0.2c1-0.5,1.4-1.6,0.9-2.6l-18.5-37.5
		c-0.5-1-1.6-1.4-2.6-0.9c-1,0.5-1.4,1.6-0.9,2.6L298.6,66.4z"/>
</g>
</svg>
