<svg id="ѓЊѓCѓ_Ѓ_1" data-name="ѓЊѓCѓ„Ѓ[ 1" xmlns="http://www.w3.org/2000/svg" viewBox="0 0 34.19 26.26"><defs><style>.cls-1{fill:#97bf0d;}.cls-2{fill:#646567;}.cls-3{fill:#fff;}.cls-4{fill:#d4d700;}</style></defs><path class="cls-1" d="M.26,16.39c1,3.3,4,4.18,6.35,4.16l.46,1.59s-.8.23-.59,1.69,3,1.84,2.72-.35a1.47,1.47,0,0,0-.81-1.29l-.66-1.71L8,20.43,9.29,21.7s-.59.59.29,1.77,3.54.15,2.21-1.62c-.65-.87-1.32-.74-1.32-.74l-1.22-1a2,2,0,0,0,.3-.16c.11-.07.21-.13.3-.2l.93.31s-.26.79,1.06,1.44c1.05.53,2.48-.72,2-1.74L16.65,21l.69,2.38s-.8.23-.59,1.69,3,1.84,2.72-.35c-.15-1.08-.81-1.29-.81-1.29L18,21.58l.45.2,1.15,1.16s-.58.59.3,1.77,3.54.14,2.21-1.63a1.46,1.46,0,0,0-1.33-.73L18.78,20.7l0-.16,2.24.73s-.26.8,1.06,1.45,3.23-1.46,1.24-2.44a1.42,1.42,0,0,0-1.51-.06L19,19.55l-1.35-1.24a18.8,18.8,0,0,0,6.19-1.08l1.76.69.76,2.6s-.8.23-.6,1.69,3,1.84,2.72-.35c-.15-1.08-.8-1.29-.8-1.29l-.84-2.17.08,0,1.65,1.65s-.59.59.29,1.77,3.55.14,2.22-1.63a1.46,1.46,0,0,0-1.33-.73l-2-1.69-.06-.17,2.37.78s-.26.8,1.07,1.45,3.22-1.46,1.24-2.44a1.46,1.46,0,0,0-1.52-.06l-3.54-.84-.47-1.37A28.46,28.46,0,0,1,29.61,12s6.35-2.66,4-4.58-2.13-2.14-2.13-2.14S32.34.83,28.87,0A1.87,1.87,0,0,0,27.4.46s-3.24-1-5.6.15c0,0-9.3-1.92-14.31,2.65s-4.28,7.38-4.28,7.38S-1.08,12.1.26,16.39Z"/><path class="cls-2" d="M23.27,3.85s3.69.44,2.95,1.92-1.92,0-3.83-.44S16.66,6.26,15.31,8c-1.63,2.07-3.47,6.7-6.05,5.61-1.92-.81-.89-1.63,1.33-2.81s1.7-3.12,4.86-5.45C18.25,3.26,23.27,3.85,23.27,3.85Z"/><path class="cls-3" d="M18.55,4.29a2.81,2.81,0,1,0,2.8-2.8A2.81,2.81,0,0,0,18.55,4.29Z"/><path class="cls-4" d="M34.19,8.42S29.91,12.85,18.84,9.9c0,0-5.9,1.25-5.89,2.95,0,0,4,4.43,4.71,5.46,0,0,5.9,1.33,11.21-5.46C28.87,12.85,33.08,10.86,34.19,8.42Z"/><path class="cls-2" d="M19.14,4.74c0,.49.93.88,2.07.88s2.06-.39,2.06-.88-.93-.89-2.06-.89S19.14,4.25,19.14,4.74Z"/></svg>