<?xml version="1.0" encoding="utf-8"?>
<!-- Generator: Adobe Illustrator 23.0.5, SVG Export Plug-In . SVG Version: 6.00 Build 0)  -->
<svg version="1.1" id="Слой_1" xmlns="http://www.w3.org/2000/svg" xmlns:xlink="http://www.w3.org/1999/xlink" x="0px" y="0px"
	 viewBox="0 0 168 281.5" style="enable-background:new 0 0 168 281.5;" xml:space="preserve">
<style type="text/css">
	.st0{fill:#8DC63F;}
	.st1{fill:#F5873C;}
	.st2{fill:#F89E69;}
	.st3{fill:#FED883;}
	.st4{fill:#FFF79C;}
	.st5{fill:#F9AA5F;}
	.st6{clip-path:url(#SVGID_2_);}
	.st7{fill:#F6883B;}
	.st8{fill:#F4883B;}
	.st9{fill:#F5883B;}
	.st10{fill:#FFF79A;}
	.st11{fill:#8DC53E;}
	.st12{fill:none;stroke:#F8A95D;stroke-width:2;stroke-linecap:square;stroke-miterlimit:3;}
	.st13{fill:#F5873B;}
	.st14{fill:#0D3241;}
	.st15{clip-path:url(#SVGID_4_);}
</style>
<path class="st0" d="M17.5,260.1h138.6c6.6,0,11.9,4.8,11.9,10.7l0,0c0,5.9-5.4,10.7-11.9,10.7H17.5c-6.6,0-11.9-4.8-11.9-10.7l0,0
	C5.5,264.9,10.9,260.1,17.5,260.1z"/>
<path class="st1" d="M151.3,171.8h-2.5c-1,0-1.7,0.8-1.7,1.7v76.1c0,1,0.8,1.7,1.7,1.7h2.5c1,0,1.7-0.8,1.7-1.7v-76.1
	C153,172.5,152.2,171.8,151.3,171.8z"/>
<rect x="52" y="202.5" class="st2" width="18" height="70"/>
<path class="st2" d="M39.3,272.5c0.3-7.2,6.2-13,13.5-13c7.3,0,13.2,5.8,13.5,13H39.3z"/>
<rect x="108.2" y="202.5" class="st2" width="18" height="70"/>
<path class="st2" d="M94.7,272.5c0.3-7.2,6.2-13,13.5-13s13.2,5.8,13.5,13H94.7z"/>
<rect x="66.5" y="206.5" class="st3" width="18" height="66"/>
<path class="st4" d="M53,272.5c0.3-6.9,6.2-12.4,13.5-12.4c7.3,0,13.2,5.5,13.5,12.4H53z"/>
<rect x="120.5" y="206.5" class="st3" width="18" height="66"/>
<path class="st4" d="M107,272.5c0.3-6.9,6.2-12.4,13.5-12.4c7.3,0,13.2,5.5,13.5,12.4H107z"/>
<path class="st5" d="M41,80.5L41,80.5c4,0,7.3,3.6,7.3,8v86c0,4.4-3.3,8-7.3,8l0,0c-4,0-7.3-3.6-7.3-8v-86
	C33.6,84.1,36.9,80.5,41,80.5z"/>
<g>
	<defs>
		<path id="SVGID_1_" d="M41,80.5L41,80.5c4,0,7.3,3.6,7.3,8v86c0,4.4-3.3,8-7.3,8l0,0c-4,0-7.3-3.6-7.3-8v-86
			C33.6,84.1,36.9,80.5,41,80.5z"/>
	</defs>
	<clipPath id="SVGID_2_">
		<use xlink:href="#SVGID_1_"  style="overflow:visible;"/>
	</clipPath>
	<g class="st6">
		<path class="st7" d="M40.2,118.5c0-5,3.3-9,7.4-9c4.1,0,7.4,4,7.4,9s-3.3,9-7.4,9C43.5,127.5,40.2,123.5,40.2,118.5z"/>
		<path class="st7" d="M28.2,145c0-4.1,3.4-7.5,7.6-7.5c4.2,0,7.6,3.4,7.6,7.5s-3.4,7.5-7.6,7.5C31.6,152.5,28.2,149.2,28.2,145z"/>
	</g>
</g>
<rect x="42.8" y="5.4" class="st8" width="2.9" height="17.9"/>
<rect x="29.9" y="5.9" class="st9" width="2.8" height="17.9"/>
<path class="st5" d="M2.2,11.6L2.2,11.6C5.7,7.7,12.3,8,16.9,12.2l17,15.6c4.6,4.2,5.4,10.8,1.9,14.6l0,0
	c-3.5,3.9-10.1,3.6-14.7-0.6l-17-15.6C-0.5,22-1.4,15.5,2.2,11.6z"/>
<path class="st10" d="M6.5,15.6L6.5,15.6c1.9-2,5.7-1.6,8.6,1.1L29.6,30c2.9,2.6,3.7,6.4,1.8,8.4l0,0c-1.9,2-5.7,1.6-8.6-1.1
	L8.4,24.1C5.5,21.4,4.7,17.6,6.5,15.6z"/>
<path class="st5" d="M77.4,10.9L77.4,10.9c3.6,3.8,3,10.3-1.5,14.7l-16.6,16c-4.5,4.3-11.1,4.8-14.7,1l0,0c-3.6-3.8-3-10.3,1.5-14.7
	l16.6-16C67.2,7.6,73.8,7.2,77.4,10.9z"/>
<path class="st10" d="M73.2,15L73.2,15c1.9,2,1.2,5.8-1.6,8.5L57.4,37.2c-2.8,2.7-6.6,3.3-8.5,1.3l0,0c-1.9-2-1.2-5.8,1.6-8.5
	l14.2-13.7C67.4,13.6,71.3,13.1,73.2,15z"/>
<path class="st5" d="M37.5,19.3h1c10.2,0,18.5,8.3,18.5,18.5V62c0,10.2-8.3,18.5-18.5,18.5h-1C27.3,80.5,19,72.2,19,62V37.8
	C19,27.5,27.3,19.3,37.5,19.3z"/>
<path class="st8" d="M27,4.4C27,2,28.9,0,31.3,0c2.4,0,4.3,2,4.3,4.4s-1.9,4.4-4.3,4.4C28.9,8.9,27,6.9,27,4.4z"/>
<path class="st8" d="M40,4.4C40,2,41.9,0,44.3,0c2.4,0,4.3,2,4.3,4.4s-1.9,4.4-4.3,4.4C41.9,8.9,40,6.9,40,4.4z"/>
<path class="st3" d="M14,74c0-14.6,11.7-26.5,26-26.5c14.3,0,26,11.9,26,26.5s-11.7,26.5-26,26.5C25.7,100.5,14,88.6,14,74z"/>
<path class="st11" d="M48.8,84.9c0.1,0.1,0.2,0.2,0.3,0.3l5.5,6.6c0.6,0.8,0.5,1.9-0.2,2.5l0,0c-0.8,0.6-1.9,0.5-2.5-0.2l-4.8-5.7
	L48.8,84.9z"/>
<path class="st11" d="M47.6,88.6c0.1,0.1,0.1,0.2,0.2,0.3l2.7,5.5c0.3,0.6,0.1,1.4-0.5,1.8l0,0c-0.6,0.4-1.3,0.1-1.6-0.5L46,90.9
	L47.6,88.6z"/>
<path vector-effect="non-scaling-stroke" class="st12" d="M49.2,82.5c-0.1,5.5-4.6,10-10.1,10c-5.5,0-10-4.5-10.1-10"/>
<path class="st13" d="M25.8,62.5c0-2.8,1.6-5,3.5-5s3.5,2.2,3.5,5c0,2.8-1.6,5-3.5,5S25.8,65.3,25.8,62.5z"/>
<path class="st13" d="M46,62.5c0-2.8,1.6-5,3.5-5c1.9,0,3.5,2.2,3.5,5c0,2.8-1.6,5-3.5,5C47.6,67.5,46,65.3,46,62.5z"/>
<path class="st14" d="M29.3,31.8L29.3,31.8c1.5,0,2.7,1.2,2.7,2.7V37c0,1.5-1.2,2.7-2.7,2.7l0,0c-1.5,0-2.7-1.2-2.7-2.7v-2.5
	C26.7,33,27.9,31.8,29.3,31.8z"/>
<path class="st14" d="M45.6,31.8L45.6,31.8c1.5,0,2.7,1.2,2.7,2.8v2.4c0,1.5-1.2,2.8-2.7,2.8l0,0c-1.5,0-2.7-1.2-2.7-2.8v-2.4
	C42.8,33,44,31.8,45.6,31.8z"/>
<path class="st5" d="M65.2,145.5h59c17.9,0,32.5,14.6,32.5,32.5l0,0c0,17.9-14.6,32.5-32.5,32.5h-59c-17.9,0-32.5-14.6-32.5-32.5
	l0,0C32.7,160.1,47.3,145.5,65.2,145.5z"/>
<g>
	<defs>
		<path id="SVGID_3_" d="M65.2,145.5h59c17.9,0,32.5,14.6,32.5,32.5l0,0c0,17.9-14.6,32.5-32.5,32.5h-59
			c-17.9,0-32.5-14.6-32.5-32.5l0,0C32.7,160.1,47.3,145.5,65.2,145.5z"/>
	</defs>
	<clipPath id="SVGID_4_">
		<use xlink:href="#SVGID_3_"  style="overflow:visible;"/>
	</clipPath>
	<g class="st15">
		<path class="st7" d="M57,150c0-4.1,3.1-7.5,6.9-7.5c3.8,0,6.9,3.4,6.9,7.5s-3.1,7.5-6.9,7.5C60.1,157.5,57,154.2,57,150z"/>
		<path class="st7" d="M133,151.8c0-6.2,5.3-11.3,11.8-11.3c6.5,0,11.8,5,11.8,11.3s-5.3,11.3-11.8,11.3
			C138.3,163,133,158,133,151.8z"/>
	</g>
</g>
<path class="st7" d="M66,193.5c0-5,4.2-9,9.4-9s9.4,4,9.4,9s-4.2,9-9.4,9S66,198.5,66,193.5z"/>
<path class="st7" d="M89,165c0-7.2,6-13,13.5-13c7.4,0,13.5,5.8,13.5,13s-6.1,13-13.5,13C95.1,178,89,172.2,89,165z"/>
<path class="st7" d="M136,173c0-2.8,2.5-5,5.5-5c3,0,5.5,2.2,5.5,5s-2.5,5-5.5,5C138.5,178,136,175.8,136,173z"/>
<path class="st7" d="M53,171.8c0-5.9,5-10.8,11.2-10.8c6.2,0,11.2,4.8,11.2,10.8s-5,10.8-11.2,10.8C58,182.5,53,177.7,53,171.8z"/>
<path class="st0" d="M13.9,223.8L13.9,223.8c1.9,0,3.4,1.5,3.4,3.4v40.2c0,1.9-1.5,3.4-3.4,3.4l0,0c-1.9,0-3.4-1.5-3.4-3.4v-40.2
	C10.5,225.3,12.1,223.8,13.9,223.8z"/>
<path class="st0" d="M25.2,202.5L25.2,202.5c2.4,0,4.4,2,4.4,4.4v55.1c0,2.4-2,4.4-4.4,4.4l0,0c-2.4,0-4.4-2-4.4-4.4v-55.1
	C20.8,204.5,22.8,202.5,25.2,202.5z"/>
<path class="st0" d="M159.9,215.5L159.9,215.5c1.7,0,3.1,1.4,3.1,3.1v44.2c0,1.7-1.4,3.1-3.1,3.1l0,0c-1.7,0-3.1-1.4-3.1-3.1v-44.2
	C156.7,216.9,158.1,215.5,159.9,215.5z"/>
<path class="st0" d="M39.1,232.5L39.1,232.5c1,0,1.8,0.8,1.8,1.8v25c0,1-0.8,1.8-1.8,1.8l0,0c-1,0-1.8-0.8-1.8-1.8v-25
	C37.4,233.3,38.1,232.5,39.1,232.5z"/>
</svg>
