<svg id="レイヤー_1" data-name="レイヤー 1" xmlns="http://www.w3.org/2000/svg" xmlns:xlink="http://www.w3.org/1999/xlink" viewBox="0 0 513.99 459.58"><defs><style>.cls-1{fill:#ac8c6e;}.cls-2{fill:#916d4f;}.cls-3{clip-path:url(#clip-path);}.cls-4{fill:#f1e9e0;}.cls-5{fill:#64625f;}.cls-6{fill:#e3ccb1;}.cls-7{fill:#bf9d89;}.cls-8{fill:#705543;}.cls-9{fill:#8d705b;}.cls-10{fill:#e3c657;}.cls-11{fill:#6d4f27;}.cls-12{fill:#f8d579;}.cls-13{fill:#595855;}</style><clipPath id="clip-path"><circle class="cls-1" cx="256.66" cy="226.84" r="226.84" transform="translate(-85.22 247.92) rotate(-45)"/></clipPath></defs><circle class="cls-2" cx="262.58" cy="232.74" r="226.84"/><circle class="cls-1" cx="256.66" cy="226.84" r="226.84" transform="translate(-85.22 247.92) rotate(-45)"/><g class="cls-3"><path class="cls-4" d="M139.67,293.33s-57.5-58.75-45-93.75,51.25-81.25,51.25-81.25l76.25,8.75,36.25,78.75,82.5-102.5s73.75,35,78.75,88.75-58.75,115-58.75,115Z"/><path class="cls-5" d="M158.42,120.69s-43.75,15.48-53.75,70.37,42.5,98.52,42.5,98.52h-17.5s-52.6-51-41.25-109.78c12.5-64.74,68.75-80.22,68.75-80.22"/><path class="cls-5" d="M358.07,120.69s43.75,15.48,53.75,70.37-42.5,98.52-42.5,98.52h17.5s52.59-51,41.25-109.78c-12.5-64.74-68.75-80.22-68.75-80.22"/><path class="cls-6" d="M416.33,255.7s-10,37.45-37.5,31.69S335.08,260,335.08,260s-11.25,30.25-33.75,27.37c-19.24-2.46-36.62-27-41.25-34.07v-1.94l-.63,1-.62-1v1.94c-4.63,7.07-22,31.61-41.25,34.07-22.5,2.88-33.75-27.37-33.75-27.37s-16.25,21.61-43.75,27.37-37.5-31.69-37.5-31.69c-32.5,36-76.25-27.37-76.25-27.37C42.58,463.14,259.45,464.58,259.45,464.58s216.88-1.44,233.13-236.25C492.58,228.33,448.83,291.71,416.33,255.7Z"/></g><path class="cls-7" d="M40.47,235.11C40.47,109.83,142,8.27,267.3,8.27A225.76,225.76,0,0,1,401.4,52.18,225.92,225.92,0,0,0,256.66,0C131.39,0,29.82,101.56,29.82,226.84a226.46,226.46,0,0,0,92.76,182.92A226.33,226.33,0,0,1,40.47,235.11Z"/><path class="cls-8" d="M425.53,346S402.36,187.91,459,172.91s60.63,156.44,50.94,176.25c-9.76,20-18-2.5-18-2.5s0,33.59-22.13,34.38c-17.48.62-23.14-30-23.14-30S431.7,376.66,425.53,346Z"/><path class="cls-9" d="M421.37,335.2S398.2,177.08,454.8,162.08s60.63,156.43,50.94,176.25c-9.76,20-18-2.5-18-2.5s0,33.58-22.13,34.37c-17.48.63-23.14-30-23.14-30S427.54,365.83,421.37,335.2Z"/><path class="cls-8" d="M8.85,346S-14.3,187.91,42.3,172.91s60.63,156.44,50.94,176.25c-9.78,20-18-2.5-18-2.5s0,33.59-22.13,34.38c-17.5.62-23.16-30-23.16-30S15,376.66,8.85,346Z"/><path class="cls-9" d="M4.69,335.2S-18.46,177.08,38.12,162.08s60.65,156.43,51,176.25c-9.78,20-18-2.5-18-2.5s0,33.58-22.13,34.37c-17.5.63-23.16-30-23.16-30S10.86,365.83,4.69,335.2Z"/><ellipse class="cls-10" cx="169.67" cy="191.45" rx="38.75" ry="41.88"/><ellipse class="cls-10" cx="350.92" cy="191.45" rx="38.75" ry="41.88"/><path class="cls-11" d="M196.52,191.05c0,16.4-11.46,29.69-25.62,29.69s-25.63-13.29-25.63-29.69,11.49-29.69,25.63-29.69S196.52,174.65,196.52,191.05Z"/><path class="cls-11" d="M377.36,191.05c0,16.4-11.46,29.69-25.62,29.69s-25.63-13.29-25.63-29.69,11.49-29.69,25.63-29.69S377.36,174.65,377.36,191.05Z"/><path class="cls-12" d="M168.4,453.75s-28.89-17.49-20-24.17,62-6.88,68.92,6.49-10.86,21-10.86,21l-8.88-10-10.84,9.17L173.4,442.91Z"/><path class="cls-12" d="M360.57,453.75s28.88-17.49,20-24.17-62-6.88-68.93,6.49,10.86,21,10.86,21l8.89-10,10.84,9.17,13.34-13.34Z"/><path class="cls-9" d="M245.1,215.83s-1.33-23.22-16-28.37-69.47-25.38-63.89-38.7c0,0,5.71-10.63,25.67-4.18,0,0-62.78-15.53-63.75-31.25-.75-11.9,26.25-8.75,26.25-8.75S73.42,37.84,100,15.92s114.45,92.86,134.41,118.65,24,58,24,58"/><path class="cls-9" d="M271.72,215.83s1.33-23.22,16-28.37,69.48-25.38,63.89-38.7c0,0-5.7-10.63-25.66-4.18,0,0,62.77-15.53,63.75-31.25.74-11.9-26.25-8.75-26.25-8.75s80-66.74,53.36-88.66S302.32,108.78,282.36,134.57s-23.94,58-23.94,58"/><path class="cls-13" d="M258.42,193.33l-30,23.75s6.25,38.75,31.25,61.25c0,0,25-37.5,27.5-60Z"/><path class="cls-9" d="M132.17,352.08s13.75-46.25,26.25-35,13.75,38.75,13.75,38.75-13.75-18.75-18.75-17.5S132.17,352.08,132.17,352.08Z"/><path class="cls-9" d="M172.17,404.58s13.75-46.25,26.25-35,13.75,38.75,13.75,38.75-13.75-18.75-18.75-17.5S172.17,404.58,172.17,404.58Z"/><path class="cls-9" d="M329.67,404.58s13.75-46.25,26.25-35,13.75,38.75,13.75,38.75-13.75-18.75-18.75-17.5S329.67,404.58,329.67,404.58Z"/><path class="cls-9" d="M255.92,404.58s13.75-46.25,26.25-35,13.75,38.75,13.75,38.75-13.75-18.75-18.75-17.5S255.92,404.58,255.92,404.58Z"/><path class="cls-9" d="M213.42,352.08s13.75-46.25,26.25-35,13.75,38.75,13.75,38.75-13.75-18.75-18.75-17.5S213.42,352.08,213.42,352.08Z"/><path class="cls-9" d="M294.67,352.08s13.75-46.25,26.25-35,13.75,38.75,13.75,38.75-13.75-18.75-18.75-17.5S294.67,352.08,294.67,352.08Z"/><path class="cls-9" d="M364.67,352.08s13.75-46.25,26.25-35,13.75,38.75,13.75,38.75-13.75-18.75-18.75-17.5S364.67,352.08,364.67,352.08Z"/></svg>