<?xml version="1.0" encoding="utf-8"?>
<!-- Generator: Adobe Illustrator 22.0.1, SVG Export Plug-In . SVG Version: 6.00 Build 0)  -->
<svg version="1.1" id="Layer_2" xmlns="http://www.w3.org/2000/svg" xmlns:xlink="http://www.w3.org/1999/xlink" x="0px" y="0px"
	 viewBox="0 0 1375.2 1287" style="enable-background:new 0 0 1375.2 1287;" xml:space="preserve">
<style type="text/css">
	.st0{fill:#333333;}
	.st1{fill:#4D4D4D;}
	.st2{fill:#666666;}
	.st3{fill:#FCEE21;}
	.st4{opacity:0.7;fill:#FFFFFF;}
</style>
<g>
	<g>
		<g>
			<path d="M684.3,1283.6c-110,0-196.6-46.8-215.3-96c-18.7-49.1-63.2-96-98.3-156.8C335.6,970,204.5,909.1,131.9,773.4
				S80.4,490.2,96.8,434c-49.1-30.4-42.1-119.4-42.1-119.4c-2.3-49.1-14-77.2-39.8-121.7S5.6,45.5,73.4,15.1
				s248.1,100.6,276.2,105.3c23.1,3.8,152.1-91.3,304.3-81.9c0,0,16.4-11.7,4.7-28.1c21.1,4.7,32.8,28.1,32.8,28.1
				s9.4-28.1,39.8-35.1c-11.7,18.7-9.8,35.1-9.8,35.1c152.1-9.4,281.2,85.8,304.3,81.9c28.1-4.7,208.3-135.7,276.2-105.3
				c67.9,30.4,84.3,133.4,58.5,177.9c-25.7,44.5-37.4,72.6-39.8,121.7c0,0,7,88.9-42.1,119.4c16.4,56.2,37.4,203.6-35.1,339.4
				c-72.6,135.7-203.6,196.6-238.7,257.4c-35.1,60.9-79.6,107.7-98.3,156.8c-18.7,49.1-105.3,96-215.3,96H684.3z"/>
			<path d="M690.9,1287h-6.6c-51.7,0-102.6-10.6-143.3-29.9c-38.7-18.3-65.4-42.5-75.2-68.3c-10.8-28.4-30.9-56.7-52-86.6
				c-15.5-21.8-31.4-44.4-46-69.7c-13.5-23.4-42.3-47.5-75.7-75.4C239.1,913,173.3,858,128.9,775C47,621.6,85.3,462.8,92.9,435.5
				c-47.3-31.8-42-114.9-41.6-120.9c-2.3-48.6-14-76.3-39.3-120c-14.5-25-16-67.3-3.7-105.2C20.2,52.6,42.8,25.1,72,12
				C79.2,8.8,88,7.1,97.9,7.1c54.6,0,140.6,49.1,197.5,81.7c25.4,14.5,47.3,27,54.8,28.3c0.3,0,0.6,0.1,0.9,0.1
				c6.8,0,23.2-7.7,43.9-17.4C447,75.3,533.9,34.5,632.6,34.5c6.7,0,13.5,0.2,20.2,0.6c3-2.6,11.3-11.1,3-22.6
				c-0.8-1.1-0.8-2.7-0.1-3.9c0.8-1.2,2.2-1.7,3.6-1.4c15.8,3.5,26.5,16.4,31.6,24c4.8-9.2,16.4-25.7,39.5-31.1
				c1.3-0.3,2.7,0.2,3.5,1.3c0.8,1.1,0.8,2.6,0.1,3.8c-7.9,12.7-9.2,24.3-9.3,29.7c5.9-0.3,12-0.5,18-0.5
				c98.7,0,185.6,40.8,237.5,65.2c20.7,9.7,37.1,17.4,44,17.4c0.3,0,0.7,0,0.9-0.1c7.5-1.3,29.4-13.8,54.8-28.3
				c56.9-32.5,142.9-81.7,197.5-81.7c9.9,0,18.6,1.6,25.9,4.9c29.2,13.1,51.9,40.6,63.8,77.5c12.2,37.9,10.8,80.2-3.7,105.2
				c-25.3,43.7-37,71.4-39.3,120c0.4,6,5.7,89.1-41.6,120.9c7.6,27.3,45.9,186.1-36.1,339.5c-44.3,83-110.2,138-163,182.1
				c-33.4,27.9-62.2,52-75.7,75.4c-14.6,25.3-30.6,47.9-46,69.7c-21.2,29.9-41.2,58.2-52,86.6c-9.8,25.7-36.5,50-75.2,68.3
				C793.5,1276.4,742.6,1287,690.9,1287z M97.9,13.9c-9,0-16.7,1.4-23.1,4.3C47.4,30.5,26,56.6,14.7,91.6
				C3,127.8,4.3,167.8,17.9,191.3c25.9,44.7,37.9,73.1,40.2,123.2c0,0.1,0,0.3,0,0.4c-0.1,0.9-6.3,87.2,40.5,116.2
				c1.3,0.8,1.9,2.4,1.5,3.8c-5.2,18-48.8,180.2,34.8,336.8c43.7,81.8,109,136.3,161.4,180.1c33.9,28.3,63.2,52.8,77.3,77.2
				c14.4,25,30.3,47.5,45.7,69.1c21.5,30.3,41.7,58.9,52.8,88.2c17.6,46.1,101.7,93.8,212.2,93.8h6.6c110.4,0,194.6-47.7,212.2-93.8
				c11.1-29.2,31.4-57.9,52.8-88.2c15.4-21.7,31.2-44.1,45.7-69.1c14.1-24.4,43.4-48.9,77.3-77.2c52.4-43.8,117.7-98.3,161.4-180.1
				c83.7-156.6,40.1-318.8,34.8-336.8c-0.4-1.5,0.2-3,1.5-3.8c46.8-29,40.6-115.3,40.5-116.2c0-0.1,0-0.3,0-0.4
				c2.4-50.1,14.3-78.5,40.2-123.2c13.6-23.4,14.8-63.5,3.1-99.7c-11.3-35-32.6-61.1-60.1-73.4c-6.3-2.8-14.1-4.3-23.1-4.3
				c-52.8,0-137.8,48.6-194.1,80.8c-28.1,16-48.3,27.6-57,29.1c-0.6,0.1-1.3,0.2-2.1,0.2c-8.4,0-23.7-7.2-46.9-18.1
				c-51.4-24.2-137.4-64.6-234.6-64.6c-7,0-14.1,0.2-21.1,0.6c-1.8,0.1-3.4-1.2-3.6-3c-0.1-0.6-1.5-13.6,6.1-29.7
				c-22.1,8.9-29.5,30.2-29.6,30.4c-0.4,1.3-1.6,2.2-3,2.3c-1.4,0.1-2.7-0.6-3.3-1.9c-0.1-0.2-8.4-16.4-23-23.6
				c3.4,11.6-4,21-9.5,24.9c-0.6,0.5-1.4,0.7-2.2,0.6c-6.9-0.4-14-0.6-21.1-0.6c-97.2,0-183.3,40.4-234.7,64.6
				c-23.2,10.9-38.5,18.1-46.8,18.1c-0.7,0-1.4-0.1-2.1-0.2c-8.7-1.5-29-13-57.1-29.1C235.7,62.5,150.7,13.9,97.9,13.9z"/>
		</g>
		<g>
			<path d="M936.6,747.7c74.9,39.8,119.4,86.6,100.6,224.7c-18.7,138.1-112.3,166.2-159.1,163.8s-168.5-77.2-191.9-98.3h2.7
				c-23.4,21.1-145.1,96-191.9,98.3s-140.4-25.7-159.1-163.8s25.7-184.9,100.6-224.7"/>
			<path class="st0" d="M936.6,747.7c6.8,3.5,13.6,7.2,20.2,11.1c6.6,3.9,13.1,8.1,19.4,12.6c12.4,9,24.1,19.3,33.7,31.5
				c4.8,6.1,9.1,12.5,12.9,19.3c3.7,6.8,6.8,13.9,9.5,21.2c5.1,14.6,8.3,29.9,9.8,45.3c1.5,15.4,1.6,30.9,0.8,46.3
				c-0.8,15.4-2.4,30.8-4.8,46c-2.4,15.3-6,30.4-11,45.1c-5.1,14.7-11.5,28.9-19.9,42.1l-3.2,4.9c-1.1,1.6-2.3,3.2-3.4,4.8
				c-2.2,3.2-4.8,6.2-7.2,9.2c-5.1,5.9-10.6,11.5-16.5,16.6c-5.9,5.1-12.3,9.7-18.9,13.9c-6.7,4.1-13.7,7.7-20.9,10.7
				c-14.5,6-29.9,9.8-45.6,10.9c-7.9,0.5-15.7,0.5-23.7-1.2c-7.8-1.6-15.2-3.9-22.6-6.5c-14.6-5.3-28.7-11.7-42.6-18.5
				c-13.8-6.8-27.5-14.1-40.9-21.7c-13.4-7.6-26.6-15.5-39.7-23.8c-6.5-4.1-13-8.4-19.3-12.8c-6.4-4.4-12.6-8.9-18.7-14.1
				c-1.4-1.2-1.6-3.4-0.3-4.8c0.7-0.8,1.6-1.2,2.5-1.2l0.1,0l2.7,0l0,0c1.9,0,3.4,1.5,3.4,3.4c0,1-0.5,1.9-1.2,2.6
				c-6.1,5.3-12.3,9.7-18.7,14.2c-6.4,4.4-12.8,8.6-19.3,12.8c-13,8.3-26.2,16.2-39.7,23.8c-13.4,7.6-27,14.9-40.9,21.7
				c-13.9,6.8-28,13.2-42.6,18.5c-7.3,2.6-14.8,4.9-22.6,6.5c-2,0.3-3.9,0.7-5.9,1l-3,0.3l-1.6,0.1l-1.4,0l-2.9,0.1l-3,0
				c-2,0-4-0.1-5.9-0.2c-15.7-1-31.1-4.8-45.6-10.9c-7.2-3-14.2-6.6-20.9-10.7c-6.7-4.1-13-8.8-18.9-13.9
				c-5.9-5.1-11.4-10.8-16.5-16.6c-2.4-3.1-5-6-7.2-9.2c-1.1-1.6-2.3-3.1-3.4-4.8l-3.2-4.9c-8.5-13.1-14.9-27.4-19.9-42.1
				c-5-14.7-8.6-29.8-11-45.1c-1.2-7.7-2.1-15.3-2.9-22.9c-0.3-3.8-0.8-7.7-1.1-11.5l-0.8-11.6c-0.8-15.4-0.7-30.9,0.8-46.3
				c1.5-15.4,4.6-30.7,9.8-45.3c2.7-7.3,5.8-14.4,9.5-21.2c3.7-6.8,8.1-13.2,12.9-19.3c9.6-12.2,21.2-22.5,33.7-31.5
				c6.3-4.5,12.8-8.6,19.4-12.6c6.6-3.9,13.4-7.6,20.2-11.1c-6.7,3.7-13.4,7.5-19.9,11.6c-6.5,4.1-12.9,8.4-19,12.9
				c-12.2,9.2-23.7,19.6-32.9,31.8c-4.6,6.1-8.8,12.5-12.4,19.2c-3.5,6.8-6.5,13.8-9,21c-4.8,14.5-7.7,29.5-8.9,44.8
				c-1.3,15.2-1.3,30.5-0.3,45.8l0.9,11.4c0.3,3.8,0.8,7.6,1.2,11.4c0.9,7.6,1.9,15.2,3.2,22.7c2.5,15,6.2,29.9,11.2,44.2
				c5.1,14.3,11.5,28.2,19.9,40.8l3.1,4.7c1.1,1.6,2.2,3,3.4,4.6c2.2,3.1,4.7,5.9,7.1,8.8c5,5.6,10.3,11,16.1,15.9
				c5.8,4.8,11.8,9.3,18.3,13.3c6.4,3.9,13.2,7.3,20.1,10.2c13.9,5.7,28.7,9.3,43.7,10.3c1.9,0.1,3.8,0.2,5.6,0.2l2.8,0l2.9-0.1
				l1.4,0l1.3-0.1l2.7-0.3c1.8-0.3,3.6-0.6,5.5-0.9c7.3-1.5,14.5-3.8,21.7-6.4c14.3-5.2,28.2-11.6,41.9-18.3
				c13.7-6.8,27.2-14.1,40.5-21.7c13.3-7.6,26.4-15.5,39.3-23.8c6.4-4.1,12.8-8.4,19.1-12.7c6.2-4.4,12.5-8.8,18-13.7l2.3,5.9
				l-2.7,0l2.3-5.9c5.5,4.8,11.8,9.3,18,13.7c6.3,4.4,12.6,8.6,19.1,12.7c12.9,8.3,26,16.2,39.3,23.8c13.3,7.6,26.8,14.9,40.5,21.7
				c13.7,6.8,27.6,13.1,41.9,18.3c7.1,2.6,14.4,4.8,21.7,6.4c1.8,0.3,3.5,0.6,5.4,0.9l2.9,0.3l1.3,0.1l1.4,0
				c3.7,0.2,7.5,0.1,11.2-0.2c15-0.9,29.8-4.5,43.7-10.3c7-2.9,13.7-6.3,20.1-10.2c6.4-4,12.5-8.4,18.3-13.3
				c5.8-4.8,11.1-10.3,16.1-15.9c2.4-2.9,4.9-5.7,7.1-8.8c1.1-1.5,2.3-3,3.4-4.6l3.1-4.7c8.3-12.6,14.8-26.5,19.9-40.8
				c5.1-14.4,8.7-29.2,11.2-44.2c2.5-15.1,4.2-30.3,5.2-45.6c0.9-15.3,1-30.6-0.3-45.8c-1.2-15.2-4.1-30.3-8.9-44.8
				c-2.5-7.2-5.5-14.2-9-21c-3.6-6.7-7.7-13.1-12.4-19.2c-9.2-12.2-20.7-22.6-32.9-31.8c-6.1-4.6-12.5-8.9-19-12.9
				C950,755.2,943.4,751.4,936.6,747.7z"/>
		</g>
		<g>
			<path class="st1" d="M831.3,1119.8c0,0-0.2,0.2-0.7,0.5c-0.4,0.4-1.2,0.8-2.2,1.3c-2,1-5.3,2-9.5,2.1c-4.2,0.1-9.4-0.4-15.1-1.6
				c-5.7-1.3-12.1-3.2-18.8-5.8c-6.7-2.6-13.9-5.7-21.2-9.6c-1.8-0.9-3.7-1.9-5.5-3c-1.7-0.9-3.7-1.9-5.6-2.9
				c-1.9-1-3.8-1.9-5.8-2.9c-1.9-0.8-3.9-1.6-5.9-2.5c-8-3.2-16.6-5.7-25.6-6.7c-8.9-1.1-18.4-0.8-27.9-0.8c-4.7,0-9.5,0-14.2,0
				c-2.3,0.1-4.6,0.1-6.9,0.2c-2.3,0.2-4.6,0.3-6.8,0.6c-9,1-17.6,3.5-25.6,6.7c-2,0.8-4,1.7-6,2.5c-1.9,1-3.8,1.9-5.7,2.9
				c-3.8,1.8-7.4,3.9-11.1,5.8c-7.3,3.8-14.4,7-21.2,9.6c-6.7,2.6-13.1,4.5-18.8,5.8c-5.7,1.3-10.9,1.8-15.1,1.6
				c-4.2-0.1-7.5-1.1-9.5-2.1c-1-0.5-1.7-1-2.2-1.3c-0.5-0.4-0.7-0.5-0.7-0.5s0.3,0.2,0.7,0.5c0.5,0.3,1.2,0.7,2.3,1.1
				c2.1,0.8,5.3,1.3,9.4,1.1c8.2-0.4,19.6-3.9,32.4-9.6c6.4-2.9,13.2-6.4,20.2-10.4c3.5-2,7-4.2,10.9-6.3c1.9-1.1,3.8-2.2,5.8-3.2
				c2-0.9,4.1-1.9,6.2-2.8c8.4-3.6,17.5-6.6,27.1-7.7c2.4-0.3,4.8-0.5,7.2-0.7c2.4-0.1,4.8-0.2,7.3-0.3c4.7,0,9.5-0.1,14.3-0.1
				c9.4,0.1,19.1-0.2,28.7,1.1c9.6,1.1,18.7,4.2,27.2,7.8c2.1,0.9,4.2,1.9,6.2,2.8c2,1,3.8,2.1,5.7,3.1c1.9,1.1,3.7,2,5.6,3.2
				c1.8,1.1,3.5,2.1,5.3,3.1c7,4,13.8,7.5,20.2,10.4c12.8,5.8,24.2,9.2,32.4,9.6c4.1,0.2,7.3-0.3,9.4-1.1c1-0.4,1.8-0.8,2.3-1.1
				C831.1,1119.9,831.3,1119.8,831.3,1119.8z"/>
		</g>
		<g>
			<path class="st1" d="M754.1,1084.7c0,0-2.1-0.6-5.7-1.7c-1.8-0.6-4-1.2-6.5-1.9c-2.5-0.8-5.3-1.6-8.5-2.4
				c-3.1-0.9-6.5-1.7-10-2.6c-1.8-0.5-3.6-0.8-5.5-1.2c-1.9-0.3-3.8-0.9-5.7-1.2c-1.9-0.3-3.9-0.7-5.9-1c-2-0.2-4-0.4-6.1-0.7
				c-2-0.2-4.1-0.2-6.1-0.3c-2.1-0.1-4.3,0-6.4,0l-3.2,0l-1.6,0l-0.4,0l-0.2,0l-0.1,0l-0.1,0c0.1,0-0.2,0,0.1,0l-0.8,0
				c-2.1,0.1-4.3,0.1-6.4,0.3c-2,0.3-4,0.5-5.9,0.7c-2,0.3-4,0.7-5.9,1c-2,0.3-3.8,0.8-5.7,1.2c-1.9,0.4-3.7,0.7-5.5,1.2
				c-3.6,0.9-6.9,1.7-10,2.6c-3.1,0.8-5.9,1.6-8.5,2.4c-2.5,0.7-4.7,1.4-6.5,1.9c-3.6,1.1-5.7,1.7-5.7,1.7s1.9-1.1,5.2-2.9
				c1.7-0.9,3.7-2,6.1-3.1c1.2-0.6,2.5-1.2,3.8-1.8c1.4-0.6,2.8-1.2,4.3-1.8c1.5-0.6,3.1-1.3,4.7-1.9c1.7-0.6,3.4-1.2,5.2-1.8
				c1.8-0.7,3.6-1.2,5.5-1.8c1.9-0.6,3.8-1.2,5.9-1.6c2-0.5,4.1-0.9,6.2-1.4c2.2-0.4,4.4-0.7,6.6-1c2.2-0.3,4.3-0.3,6.4-0.4l0.8,0
				l1,0l1.6,0l3.2,0c2.2,0,4.3,0,6.5,0.1c2.2,0.2,4.5,0.2,6.7,0.5c2.2,0.3,4.3,0.6,6.4,1c2.1,0.5,4.1,0.9,6.2,1.4c2,0.4,4,1,5.9,1.6
				c1.9,0.6,3.8,1.1,5.5,1.8c1.8,0.6,3.5,1.2,5.2,1.8c1.7,0.6,3.2,1.3,4.7,1.9c1.5,0.6,3,1.2,4.3,1.8c1.3,0.6,2.6,1.3,3.8,1.8
				c2.4,1.1,4.5,2.2,6.1,3.1C752.2,1083.6,754.1,1084.7,754.1,1084.7z"/>
		</g>
		<g>
			<path class="st1" d="M337.9,164.9c-60.9-14-151-66.2-196.6-110C82.8-1.3-0.3,72.1,21.9,155.5c18.7,70.2,49.1,72.6,46.8,131.1
				s30.4,81.9,56.2,96c4.7-18.7,49.1-67.9,49.1-67.9s-21.1-11.7-49.1,7c30.4-42.1,77.2-51.5,77.2-51.5s-30.4-30.4-63.2-4.7
				C188.1,186,298.1,202.3,337.9,164.9z"/>
			<path class="st1" d="M337.1,165.1c-14-3-27.8-7.5-41.2-12.5c-13.7-5.1-27-11.1-40.1-17.6c-13.1-6.4-25.9-13.5-38.6-20.8
				c-12.6-7.4-24.8-15.5-36.8-23.8c-11.9-8.5-23.5-17.5-34.5-27.2l-4.1-3.7l-2-1.9l-2-1.7l-4.1-3.6l-4.2-3c-5.7-3.8-12-7-18.7-8.9
				c-13.3-3.9-27.9-2.2-40.5,3.7c-12.7,5.8-23.8,15.4-32,26.9c-8.4,11.5-13.9,25-16.7,39c-1.2,7-1.9,14.2-1.8,21.4
				c0.3,7.2,1,14.4,2.8,21.3c3.4,14.1,8.1,27.8,14.3,40.9c6,13.2,14.2,25.3,21.2,38.1c3.5,6.4,6.4,13.3,8.5,20.4l1.3,5.4
				c0.5,1.8,0.6,3.6,1,5.4c0.7,3.6,0.9,7.3,1.2,11c0.2,1.8,0.2,3.7,0.2,5.5l0,5.5l0.1,10.9c0.1,3.6,0.6,7.1,0.8,10.7l0.9,5.3
				c0.3,1.8,0.5,3.6,1,5.3c0.9,3.5,1.7,6.9,3,10.3c0.6,1.7,1.1,3.4,1.9,5l2.2,4.8c3.3,6.3,7.2,12.2,11.9,17.5
				c9.5,10.6,21.4,18.7,34.1,25.4l-4,1.8l0.9-2.8c0.3-0.9,0.6-1.8,1-2.6c0.8-1.6,1.5-3.4,2.4-4.9c0.9-1.6,1.7-3.2,2.7-4.7l2.9-4.5
				l3-4.4c1-1.5,2.1-2.9,3.1-4.3c2-2.9,4.2-5.7,6.3-8.5c8.7-11.2,17.7-22,27-32.6l0.8,5.1c-0.6-0.3-1.6-0.7-2.5-1
				c-0.9-0.3-1.9-0.6-2.8-0.9c-1.9-0.5-3.9-0.9-5.9-1c-1-0.1-2-0.2-3-0.2c-1,0-2-0.1-3,0c-1,0.1-2,0.1-3,0.2l-3,0.4l-3,0.7
				c-1,0.2-2,0.5-2.9,0.8c-1,0.3-2,0.6-2.9,0.9l-2.8,1.2c-1.9,0.7-3.7,1.8-5.5,2.7c-0.9,0.5-1.8,1.1-2.6,1.6l-2.6,1.6l-0.2,0.1
				c-1.6,1-3.8,0.5-4.8-1.1c-0.8-1.3-0.6-2.8,0.2-4l3.7-4.8c1.2-1.6,2.5-3.2,3.9-4.7l4.1-4.5c1.4-1.5,2.9-2.8,4.3-4.3
				c1.5-1.4,2.9-2.8,4.5-4.1l4.7-3.9c1.6-1.3,3.2-2.4,4.9-3.6c1.6-1.2,3.3-2.4,5-3.5c1.7-1.1,3.3-2.3,5.1-3.3l5.2-3l5.4-2.8
				c1.8-0.9,3.7-1.7,5.5-2.6c3.7-1.6,7.5-3.2,11.3-4.5c1.9-0.6,3.8-1.3,5.8-1.8c2-0.6,3.9-1.1,6-1.6l-1.8,6.1
				c-0.8-0.8-1.9-1.7-3-2.6c-1.1-0.8-2.2-1.7-3.3-2.4c-1.1-0.8-2.3-1.5-3.5-2.2c-1.1-0.8-2.4-1.3-3.6-2c-1.2-0.7-2.5-1.1-3.7-1.7
				c-1.2-0.6-2.5-0.9-3.8-1.3c-1.3-0.5-2.6-0.7-3.9-1l-2-0.4l-2-0.2c-1.3-0.1-2.6-0.4-4-0.3l-4,0.1l-3.9,0.7
				c-1.3,0.1-2.6,0.7-3.8,1.1l-1.9,0.6l-1,0.3l-0.9,0.4l-3.6,1.8c-1.3,0.5-2.3,1.4-3.5,2.1l-3.4,2.3l-0.3,0.2
				c-1.5,1-3.5,0.6-4.5-0.9c-0.8-1.1-0.7-2.6,0-3.6l4.1-6.1c1.3-2,3-3.9,4.4-5.8c1.5-2,3.1-3.8,4.7-5.6l2.4-2.7l2.6-2.6
				c3.4-3.5,7.2-6.6,10.9-9.7c2-1.5,3.8-3,5.8-4.4l6.1-4l6.2-3.7l6.4-3.4c4.3-2.2,8.7-4.2,13.2-6c4.4-1.8,9-3.5,13.5-5.1
				c2.3-0.8,4.6-1.5,6.8-2.2c2.3-0.7,4.6-1.4,6.9-2.1c18.4-5.3,37.1-9.1,55.6-13.6c4.6-1.1,9.2-2.3,13.7-3.7c4.6-1.3,9-2.8,13.5-4.5
				c2.2-0.8,4.4-1.8,6.5-2.7c2.1-1.1,4.3-2,6.3-3.2C330,170.6,333.7,167.9,337.1,165.1z M338.1,165.1c-3.5,3.2-7.3,6.3-11.4,8.7
				c-2,1.3-4.2,2.3-6.3,3.5c-2.2,1-4.3,2.1-6.5,3c-4.4,1.9-8.9,3.5-13.5,5c-4.5,1.5-9.1,2.9-13.7,4.2c-9.2,2.6-18.4,4.9-27.6,7.3
				c-4.6,1.2-9.2,2.4-13.8,3.7c-4.6,1.3-9.1,2.6-13.6,4.1c-2.3,0.7-4.5,1.4-6.7,2.2c-2.2,0.8-4.5,1.5-6.7,2.4
				c-4.4,1.6-8.8,3.4-13.1,5.3c-4.3,1.9-8.5,3.9-12.7,6.1l-6.1,3.4l-6,3.7l-5.8,4c-1.9,1.3-3.7,2.9-5.5,4.3c-3.6,3-7.1,6-10.3,9.4
				l-2.4,2.5l-2.3,2.6c-1.5,1.7-3.1,3.5-4.4,5.4c-1.4,1.9-2.9,3.6-4.1,5.6l-3.8,5.8l-4.8-4.3l3.8-2.6c1.3-0.8,2.5-1.8,3.9-2.5
				l4.1-2.1l1-0.5l1.1-0.4l2.2-0.8c1.5-0.5,2.9-1.1,4.5-1.3l4.6-0.8l4.7-0.2c1.6-0.1,3.1,0.2,4.7,0.3c0.8,0.1,1.6,0.1,2.3,0.2
				l2.3,0.5c1.5,0.3,3.1,0.6,4.5,1.1c1.5,0.5,3,0.9,4.4,1.5c1.4,0.6,2.9,1.1,4.2,1.9c1.3,0.7,2.8,1.3,4.1,2.2
				c1.3,0.8,2.6,1.6,3.9,2.4c1.3,0.8,2.5,1.8,3.7,2.7c1.2,1,2.3,1.9,3.6,3.1c1.4,1.4,1.5,3.6,0.1,5c-0.5,0.5-1.1,0.9-1.8,1l-0.2,0
				c-1.7,0.4-3.6,0.9-5.4,1.4c-1.8,0.5-3.6,1.2-5.5,1.8c-3.6,1.3-7.2,2.7-10.7,4.3c-1.7,0.8-3.5,1.6-5.2,2.5l-5.1,2.7l-5,2.9
				c-1.7,0.9-3.2,2.1-4.9,3.1c-1.6,1-3.2,2.1-4.7,3.3c-1.5,1.2-3.1,2.3-4.6,3.4l-4.4,3.7c-1.5,1.2-2.9,2.6-4.3,3.9
				c-1.4,1.3-2.8,2.6-4.1,4l-3.9,4.2c-1.3,1.4-2.5,2.9-3.7,4.4l-3.6,4.5l-4.8-5l2.9-1.8c1-0.6,1.9-1.2,2.9-1.7c2.1-1,4-2.1,6.2-2.9
				l3.2-1.3c1.1-0.4,2.2-0.7,3.3-1c1.1-0.3,2.2-0.7,3.3-0.9l3.4-0.7l3.4-0.4c1.1-0.2,2.3-0.2,3.5-0.2c1.2-0.1,2.3-0.1,3.5,0
				c1.2,0,2.3,0.1,3.5,0.2c2.3,0.2,4.6,0.7,6.9,1.2c1.1,0.3,2.3,0.6,3.4,1.1c1.1,0.4,2.2,0.8,3.5,1.5c1.6,0.8,2.2,2.7,1.4,4.3
				c-0.1,0.2-0.3,0.5-0.5,0.7l-0.1,0.1c-9.3,10.3-18.4,21-27,32c-2.1,2.8-4.3,5.5-6.3,8.3c-1,1.4-2.1,2.8-3.1,4.2l-3,4.3l-2.8,4.3
				c-1,1.4-1.7,2.9-2.6,4.4c-0.9,1.5-1.5,3-2.3,4.5c-0.4,0.7-0.7,1.5-0.9,2.2l-0.8,2.2l-0.1,0.3c-0.5,1.4-2.1,2.2-3.5,1.7
				c-0.1,0-0.3-0.1-0.4-0.2c-12.9-7.1-25.3-15.8-35-27.2c-4.8-5.7-8.8-12.1-12.1-18.8l-2.2-5.1c-0.8-1.7-1.2-3.5-1.9-5.3
				c-1.3-3.5-2-7.1-2.9-10.7c-0.5-1.8-0.6-3.6-0.9-5.5l-0.8-5.5c-0.2-3.7-0.6-7.4-0.6-11.1l0.2-11l0.1-5.4c0-1.8,0.1-3.6-0.1-5.4
				c-0.2-3.6-0.3-7.2-1-10.7c-0.3-1.8-0.4-3.6-0.9-5.3l-1.3-5.2c-2-6.9-4.7-13.6-8.1-20c-3.4-6.4-7.2-12.6-10.8-18.9
				c-3.6-6.4-7.1-12.8-10.2-19.4c-6.3-13.2-11.1-27.1-14.9-41.3l-1.3-5.4l-0.9-5.5c-0.3-1.8-0.5-3.6-0.7-5.5
				c-0.1-1.8-0.4-3.7-0.4-5.5c-0.4-7.4,0.1-14.8,1.2-22.1c2.5-14.6,7.9-28.8,16.4-41.1c8.3-12.3,19.7-22.9,33.4-29.4
				c6.8-3.2,14.2-5.5,21.8-6.3c7.6-0.8,15.4-0.2,22.7,1.9c7.4,2.1,14.3,5.4,20.6,9.8l4.6,3.4l4.1,3.6l2.1,1.9l2,1.8l4,3.7
				c10.7,9.7,22.1,18.6,33.8,27.2c11.8,8.4,23.9,16.4,36.2,24.1c12.4,7.6,24.9,15,37.8,21.6c12.9,6.7,25.9,13.1,39.3,18.7
				c13.4,5.6,27,10.6,41.1,14.3c0.2,0,0.3,0.2,0.2,0.4C338.2,165,338.2,165.1,338.1,165.1z"/>
		</g>
		<g>
			<path d="M529.8,831.9c-4.7,30.4,30.4,56.2,46.8,63.2s65.5,35.1,77.2,56.2c11.7,21.1,39.8-67.9,39.8-67.9l-81.9-39.8L529.8,831.9z
				"/>
			<path d="M658.1,956.8C658.1,956.8,658.1,956.8,658.1,956.8c-1.7,0-4.2-0.8-6.2-4.4c-11.4-20.5-59.7-48.1-76.1-55.2
				c-17.1-7.3-53-34-48.2-65.6c0.2-1.2,1.3-2.1,2.6-1.9l81.9,11.7c0.2,0,0.5,0.1,0.7,0.2l81.9,39.8c1,0.5,1.5,1.6,1.2,2.7
				C692,896.2,672.1,956.8,658.1,956.8z M531.8,834.5c-2.5,28,30,51.8,45.7,58.5c16.8,7.2,66.4,35.7,78.3,57.2
				c0.5,0.9,1.3,2.1,2.2,2.1c7,0,22.1-34.1,32.8-67.7l-79.8-38.8L531.8,834.5z"/>
		</g>
		<g>
			<path class="st1" d="M560.2,1049.6c0,0-1.6,0.6-4.4,1.5c-1.4,0.4-3.1,1.1-5,1.8c-1.9,0.6-4,1.6-6.4,2.5c-2.3,0.9-4.8,2.1-7.4,3.2
				c-2.6,1.3-5.3,2.5-8,3.9c-1.4,0.7-2.8,1.4-4.2,2.2c-1.4,0.8-2.8,1.6-4.2,2.3c-1.4,0.8-2.8,1.7-4.2,2.5c-1.4,0.8-2.8,1.7-4.2,2.6
				l-4.2,2.7c-1.4,0.9-2.7,1.9-4,2.8c-2.7,1.9-5.2,3.7-7.7,5.6c-2.4,2-4.8,3.7-6.9,5.6c-2.2,1.8-4.2,3.6-6.1,5.3
				c-1.9,1.7-3.5,3.3-5,4.7c-1.5,1.4-2.8,2.7-3.8,3.7c-2,2.1-3.3,3.3-3.3,3.3s0.8-1.5,2.2-4.1c0.4-0.7,0.8-1.4,1.2-2.2
				c0.5-0.8,1-1.6,1.6-2.4c1.2-1.7,2.5-3.7,4.1-5.7c0.8-1,1.6-2.1,2.5-3.1c0.9-1,1.9-2.1,2.9-3.2c2-2.2,4.2-4.3,6.6-6.5
				c1.2-1.1,2.5-2.1,3.7-3.2c1.3-1.1,2.5-2.2,3.9-3.1c1.4-1,2.7-2,4.1-3l4.3-2.8c1.4-0.9,2.9-1.8,4.4-2.6c1.5-0.8,3-1.7,4.5-2.5
				c3-1.6,6-3,9-4.2c2.9-1.3,5.9-2.2,8.7-3.2c2.8-0.9,5.5-1.6,8-2.2c2.5-0.5,4.8-1.1,6.9-1.3c2.1-0.3,3.9-0.6,5.4-0.6
				C558.5,1049.6,560.2,1049.6,560.2,1049.6z"/>
		</g>
		<g>
			<path class="st1" d="M513.4,1012.1c0,0-1.6,0.8-4.5,2c-1.4,0.6-3.1,1.6-5,2.5c-1.9,0.9-4,2.3-6.3,3.5c-2.3,1.3-4.7,2.9-7.3,4.4
				c-2.5,1.7-5.2,3.3-8,5.2c-1.4,0.9-2.8,1.8-4.2,2.8c-1.4,1-2.8,2-4.2,2.9c-2.9,1.9-5.7,4.1-8.5,6.1c-2.8,2.1-5.7,4.1-8.4,6.3
				c-1.4,1.1-2.7,2.1-4.1,3.1c-1.3,1.1-2.6,2.1-3.9,3.1c-2.6,2-5,4.1-7.4,6c-2.3,2-4.5,3.8-6.5,5.5c-1.9,1.8-3.8,3.3-5.4,4.8
				c-1.5,1.5-3,2.7-4.1,3.9c-2.2,2.2-3.5,3.5-3.5,3.5s0.8-1.6,2.4-4.3c0.8-1.4,1.9-2.9,3.2-4.7c1.2-1.8,2.8-3.7,4.5-5.8
				c1.7-2.1,3.7-4.3,5.8-6.5c2.2-2.2,4.4-4.6,7-6.8c2.5-2.3,5.1-4.6,7.8-6.9c2.7-2.3,5.6-4.4,8.5-6.6c3-2,5.9-4.2,8.9-6
				c2.9-2,6-3.7,8.9-5.4c2.9-1.7,5.9-3.1,8.7-4.5c2.8-1.3,5.5-2.5,8.1-3.4c2.6-0.9,4.9-1.8,7-2.4c2.1-0.6,4-1.1,5.5-1.4
				C511.6,1012.4,513.4,1012.1,513.4,1012.1z"/>
		</g>
		<g>
			<path class="st1" d="M480.7,965.3c0,0-1.5,0.7-4.1,1.7c-1.3,0.5-2.9,1.2-4.7,2c-1.8,0.7-3.8,1.6-6,2.6c-2.2,0.9-4.6,2.1-7.1,3.1
				c-2.5,1.1-5.1,2.4-7.8,3.6c-2.7,1.3-5.4,2.7-8.3,4c-2.8,1.4-5.6,2.8-8.4,4.3c-2.8,1.4-5.6,3-8.3,4.5c-2.7,1.6-5.4,3-7.9,4.6
				c-2.6,1.5-5,3-7.3,4.5c-2.3,1.5-4.4,2.9-6.4,4.3c-1.9,1.4-3.8,2.6-5.2,3.9c-1.5,1.2-2.9,2.2-3.9,3.2c-2.1,1.9-3.4,2.9-3.4,2.9
				s0.8-1.4,2.4-3.8c0.8-1.2,1.9-2.5,3.1-4.1c1.2-1.6,2.8-3.2,4.5-5c1.8-1.7,3.7-3.6,5.9-5.4c2.2-1.8,4.5-3.7,7-5.4
				c5-3.6,10.6-7,16.4-10.1c2.9-1.5,5.9-2.9,8.8-4.2c2.9-1.4,5.9-2.4,8.7-3.6c5.7-2.1,11.2-3.8,16-4.9c2.4-0.6,4.6-1.1,6.5-1.4
				c2-0.4,3.7-0.6,5.1-0.8C479,965.4,480.7,965.3,480.7,965.3z"/>
		</g>
		<g>
			<path class="st1" d="M480.7,911.5c0,0-0.4,0-1.2,0.1c-0.8,0-2,0.2-3.4,0.3c-1.5,0.2-3.2,0.4-5.3,0.7c-2,0.3-4.3,0.7-6.8,1.2
				c-4.9,0.9-10.7,2.2-16.8,3.6c-3.1,0.7-6.2,1.5-9.4,2.3c-3.2,0.8-6.4,1.7-9.6,2.6c-6.4,1.8-12.7,3.9-18.6,6
				c-2.9,1.1-5.7,2.2-8.3,3.3c-1.3,0.6-2.6,1.1-3.8,1.7c-1.2,0.5-2.4,1.1-3.5,1.7c-2.2,1.1-4.2,2.2-5.9,3.3
				c-0.9,0.5-1.6,1.1-2.4,1.6c-0.8,0.5-1.4,0.9-2,1.4c-1.2,0.9-2.1,1.6-2.7,2.1c-0.6,0.5-0.9,0.8-0.9,0.8s0.2-0.4,0.7-1
				c0.4-0.7,1.1-1.7,2-2.9c0.9-1.2,2.2-2.6,3.7-4c1.5-1.5,3.3-3.1,5.5-4.6c2.1-1.6,4.5-3.1,7.1-4.6c2.6-1.5,5.4-3,8.3-4.3
				c3-1.3,6-2.7,9.2-3.8c3.2-1.2,6.5-2.2,9.8-3.2c3.3-0.9,6.7-1.8,10-2.5c3.3-0.8,6.6-1.3,9.8-1.8c3.2-0.5,6.3-0.8,9.2-1.1
				c2.9-0.3,5.7-0.4,8.3-0.5c5.2-0.1,9.5,0.2,12.5,0.6c1.5,0.2,2.7,0.4,3.4,0.6C480.2,911.4,480.7,911.5,480.7,911.5z"/>
		</g>
		<g>
			<path class="st1" d="M480.7,696.2c0,0,1.1,1.7,2.8,4.8c0.9,1.5,2,3.4,3.1,5.5c1.2,2.2,2.5,4.6,3.9,7.3c1.2,2.8,2.6,5.8,3.9,9
				c0.7,1.6,1.4,3.3,2.1,5c0.8,1.7,1.4,3.4,2,5.3c1.2,3.6,2.4,7.3,3.6,11.2l0.9,2.9l0.7,2.9c0.5,2,0.9,3.9,1.4,5.9
				c0.4,2,0.8,4,1.3,6c0.4,2,0.6,4,0.9,6c0.3,2,0.5,3.9,0.8,5.9c0.2,1.9,0.5,3.9,0.6,5.8c0.2,3.8,0.3,7.5,0.5,11
				c0.2,3.5-0.2,6.8-0.2,9.8c-0.2,3-0.2,5.8-0.6,8.3c-0.3,2.4-0.6,4.6-0.9,6.3c-0.5,3.5-0.9,5.5-0.9,5.5s-0.2-2-0.5-5.5
				c-0.1-1.8-0.3-3.9-0.4-6.3c-0.1-2.4-0.5-5.2-0.7-8.1c-0.1-1.5-0.3-3-0.4-4.6c-0.1-0.8-0.1-1.6-0.2-2.4c-0.1-0.8-0.2-1.7-0.3-2.5
				c-0.5-3.4-1-6.9-1.3-10.6c-0.5-3.7-1.4-7.4-1.9-11.3c-0.3-1.9-0.5-3.9-1-5.8c-0.4-1.9-0.9-3.8-1.3-5.8c-0.4-1.9-0.8-3.9-1.2-5.8
				l-0.6-2.9l-0.8-2.8c-1.1-3.7-2-7.5-2.9-11.1c-0.2-0.9-0.5-1.8-0.7-2.7c-0.3-0.9-0.6-1.7-0.8-2.6c-0.5-1.7-1-3.4-1.6-5
				c-1-3.2-1.9-6.3-2.8-9.2c-2-5.7-3.6-10.4-4.7-13.8C481.2,698.1,480.7,696.2,480.7,696.2z"/>
		</g>
		<g>
			<path class="st1" d="M483,406c0,0-0.3-0.2-1-0.6c-0.6-0.4-1.5-1.1-2.8-1.6c-1.2-0.6-2.7-1.2-4.4-1.7c-1.8-0.4-3.8-0.8-6-0.8
				c-0.5,0-1.1,0-1.7,0c-0.6,0-1.2,0.1-1.8,0.1c-1.2,0-2.4,0.3-3.7,0.4c-2.5,0.5-5.1,1.1-7.7,2.1c-2.7,0.9-5.3,2-8,3.2
				c-2.7,1.3-5.4,2.6-8,4.1c-5.3,3-10.5,6.3-15.2,9.6c-2.3,1.7-4.6,3.3-6.7,4.9c-2.1,1.6-4.1,3.2-5.9,4.6c-3.6,3-6.5,5.6-8.4,7.5
				c-0.9,1-1.7,1.7-2.2,2.3c-0.5,0.6-0.8,0.9-0.8,0.9s0.1-0.4,0.4-1.1c0.3-0.7,0.8-1.7,1.4-2.9c1.4-2.5,3.6-5.8,6.8-9.5
				c3.1-3.7,7.1-7.7,11.7-11.6c2.3-1.9,4.8-3.9,7.4-5.6c2.6-1.8,5.3-3.5,8.2-5.1c5.7-3.1,11.7-5.8,17.7-7.2c3-0.8,6-1.1,8.9-1.3
				c2.9-0.1,5.6,0,8.1,0.6c2.5,0.5,4.7,1.4,6.5,2.3c1.8,1,3.2,2,4.3,3c1.1,0.9,1.7,1.8,2.2,2.4C482.8,405.6,483,406,483,406z"/>
		</g>
		<g>
			<path class="st1" d="M403.4,373.2c0,0-0.6-0.1-1.7-0.2c-0.5-0.1-1.2-0.1-2-0.2c-0.8,0-1.7-0.1-2.7-0.1c-2-0.1-4.4,0-7.2,0.1
				c-2.8,0.2-5.9,0.6-9.2,1c-3.4,0.6-7,1.3-10.8,2.2c-3.8,0.9-7.7,2.1-11.8,3.4c-4.1,1.3-8.2,2.9-12.3,4.4
				c-4.2,1.7-8.3,3.4-12.4,5.4c-4.1,1.9-8.2,3.9-12.1,6.1c-3.9,2.2-7.7,4.3-11.4,6.6c-3.6,2.3-7,4.5-10.2,6.8
				c-3.2,2.3-6.1,4.6-8.7,6.7c-2.6,2.2-5,4.3-7,6.2c-2,2-3.7,3.7-5.1,5.2c-1.4,1.5-2.4,2.7-3.1,3.5c-0.7,0.8-1.1,1.3-1.1,1.3
				s0.3-0.5,0.8-1.5c0.5-1,1.2-2.4,2.3-4.1c1-1.8,2.5-3.8,4.2-6.1c1.7-2.3,3.8-4.8,6.3-7.3c2.4-2.6,5.2-5.3,8.3-7.9
				c3.1-2.7,6.4-5.3,10-7.8c3.6-2.5,7.4-5.1,11.5-7.3c4-2.3,8.2-4.5,12.4-6.5c4.3-2,8.6-3.7,13-5.4c4.3-1.6,8.7-2.9,13-4
				c4.3-1.1,8.5-2,12.5-2.6c4-0.7,7.8-0.9,11.4-1.1c3.5-0.1,6.8,0,9.7,0.2c2.9,0.2,5.3,0.7,7.3,1.1c2,0.4,3.5,0.9,4.6,1.3
				C402.9,373,403.4,373.2,403.4,373.2z"/>
		</g>
		<g>
			<path class="st1" d="M382.4,408.3c0,0-1,0.6-2.8,1.5c-0.9,0.4-1.9,1.1-3.1,1.7c-1.2,0.6-2.4,1.5-3.8,2.4c-1.4,0.8-2.8,2-4.3,3
				c-1.5,1.1-3,2.3-4.6,3.6c-0.8,0.6-1.6,1.3-2.4,2c-0.8,0.7-1.6,1.4-2.4,2.1c-1.6,1.4-3.1,2.9-4.7,4.4c-1.5,1.5-3.1,3-4.6,4.6
				c-1.5,1.5-2.9,3.1-4.3,4.6c-1.4,1.5-2.7,3-4,4.4c-1.2,1.4-2.5,2.7-3.5,4c-1.1,1.3-2.1,2.4-2.9,3.5c-0.8,1.1-1.7,1.9-2.3,2.7
				c-1.2,1.5-2,2.4-2,2.4s0.3-1.1,0.8-3c0.3-1,0.7-2.1,1.2-3.4c0.5-1.3,1.1-2.7,1.9-4.3c1.5-3.1,3.6-6.6,6.1-10.1
				c1.3-1.7,2.6-3.5,4.1-5.2c1.4-1.8,3.1-3.4,4.7-5c1.7-1.5,3.4-3.2,5.2-4.5c1.8-1.5,3.6-2.7,5.4-3.9c1.8-1.2,3.7-2.2,5.5-3.1
				c1.8-0.8,3.5-1.7,5.2-2.2c1.6-0.6,3.2-1.1,4.6-1.3c1.4-0.3,2.6-0.6,3.6-0.6C381.2,408.3,382.4,408.3,382.4,408.3z"/>
		</g>
		<g>
			<path class="st1" d="M504.1,324c1.4-2,2.6-4.1,3.5-6.4c1-2.2,1.6-4.6,2.2-6.9c0.3-1.2,0.4-2.4,0.7-3.5c0.1-1.2,0.3-2.4,0.4-3.6
				c0.2-2.4,0.2-4.8,0.1-7.2c-0.2-4.8-0.9-9.6-2.1-14.2c-0.6-2.3-1.3-4.6-2.1-6.8c-0.8-2.2-1.8-4.4-2.8-6.5c-0.6-1-1.1-2.1-1.7-3.1
				l-1.8-3l-2-2.9l-2.2-2.8l-2.4-2.6l-2.5-2.4l-2.7-2.2c-0.9-0.7-1.9-1.3-2.8-2c-1.9-1.2-4-2.4-6.1-3.3c-2.1-0.9-4.3-1.8-6.5-2.3
				c-1.1-0.4-2.2-0.6-3.4-0.8c-1.1-0.2-2.3-0.5-3.4-0.5c-2.3-0.3-4.6-0.4-6.9-0.4l-0.2,0c-1.6,0-2.9-1.4-2.8-3
				c0-1.1,0.7-2.1,1.7-2.6l4.3-2c1.5-0.6,2.8-1.5,4.4-1.9l4.6-1.5c1.5-0.6,3.1-0.8,4.7-1.2c1.6-0.3,3.2-0.7,4.8-0.9l4.9-0.4
				c1.6-0.2,3.3,0.1,4.9,0.1l2.4,0.1c0.8,0.1,1.6,0.2,2.4,0.3c1.6,0.3,3.2,0.4,4.8,0.9c1.6,0.4,3.2,0.8,4.7,1.3l4.6,1.7l4.4,2
				l4.2,2.3c1.3,0.9,2.7,1.7,4.1,2.7c1.3,0.9,2.6,1.9,3.9,3c1.3,1.1,2.4,2.1,3.7,3.4l-5.9,2.5c-0.1-1.8-0.3-3.8-0.6-5.7
				c-0.2-1.9-0.5-3.8-0.8-5.7c-0.6-3.8-1.4-7.6-2.2-11.3c-1.8-7.5-4.2-14.8-7.3-21.7c-0.8-1.7-1.6-3.4-2.6-5
				c-0.9-1.7-1.9-3.2-2.9-4.8c-1.1-1.5-2.2-3-3.4-4.4c-0.6-0.7-1.2-1.4-1.9-2c-0.6-0.7-1.3-1.3-2-1.9c-1.3-1.2-2.8-2.2-4.3-3.2
				l-2.3-1.3c-0.8-0.4-1.6-0.7-2.5-1.1c-0.8-0.4-1.7-0.6-2.5-0.9c-0.8-0.3-1.7-0.5-2.6-0.6c-1.8-0.4-3.6-0.5-5.4-0.6l-0.3,0
				c-1.4-0.1-2.5-1.4-2.3-2.8c0.1-1.2,1-2.1,2.1-2.3l5.7-1.2l2.8-0.6l2.9-0.4c1.9-0.3,3.8-0.6,5.7-0.8l5.8-0.4c1.9-0.1,3.9,0,5.8,0
				c1.9,0,3.9,0.3,5.8,0.5c1.9,0.1,3.9,0.6,5.8,1.1c1.9,0.3,3.8,1.1,5.6,1.8c0.9,0.3,1.8,0.7,2.7,1.2l2.6,1.3c1.7,1,3.3,2.1,4.8,3.3
				c1.4,1.3,3,2.5,4.2,4l1.9,2.2c0.6,0.8,1.1,1.6,1.7,2.4c1.2,1.5,2.1,3.2,3,4.9c1,1.6,1.7,3.4,2.5,5.2c0.7,1.8,1.4,3.6,2,5.3
				l1.7,5.4l-2.2-5.2c-0.8-1.7-1.6-3.4-2.5-5.1c-1-1.6-1.7-3.3-2.8-4.9c-1-1.6-2-3.2-3.2-4.6c-0.6-0.7-1.1-1.5-1.8-2.2l-2-2
				c-1.2-1.4-2.8-2.4-4.2-3.5c-1.5-1-3.1-1.9-4.7-2.8l-2.5-1.1c-0.8-0.4-1.7-0.7-2.6-0.9c-1.8-0.5-3.5-1.1-5.3-1.3
				c-1.8-0.3-3.6-0.7-5.4-0.7c-1.8-0.1-3.6-0.3-5.5-0.2c-1.8,0.1-3.7,0-5.5,0.2l-5.5,0.6c-1.8,0.3-3.7,0.6-5.5,0.9l-2.7,0.5
				l-2.7,0.7l-5.4,1.3l-0.6-5.1c2.1,0.1,4.2,0.1,6.3,0.5c1.1,0.1,2.1,0.3,3.1,0.6c1,0.3,2.1,0.5,3.1,0.9c1,0.4,2,0.8,3,1.2l2.8,1.5
				c1.8,1.1,3.6,2.3,5.2,3.7c0.8,0.6,1.6,1.4,2.4,2.1c0.8,0.7,1.5,1.5,2.2,2.3c1.4,1.5,2.7,3.2,3.9,4.8c1.2,1.7,2.3,3.4,3.3,5.2
				c1.1,1.8,2,3.6,2.9,5.4c3.6,7.3,6,15.1,8,22.9c1,3.9,1.8,7.8,2.4,11.8c0.3,2,0.6,4,0.9,6c0.3,2,0.5,4,0.6,6.1
				c0.1,1.9-1.2,3.5-3.1,3.6c-1,0.1-2-0.3-2.6-1l-0.1-0.1c-0.9-0.9-2-1.9-3.1-2.8c-1.1-0.9-2.3-1.8-3.4-2.7
				c-1.2-0.9-2.4-1.6-3.6-2.4l-3.8-2.1l-3.9-1.8l-4.1-1.5c-1.4-0.4-2.8-0.8-4.2-1.1c-1.4-0.4-2.8-0.5-4.2-0.8
				c-0.7-0.1-1.4-0.2-2.1-0.3l-2.2-0.1c-1.4,0-2.9-0.3-4.3-0.1l-4.3,0.3c-1.4,0.1-2.8,0.5-4.3,0.7c-1.4,0.3-2.9,0.5-4.2,1l-4.2,1.3
				c-1.4,0.3-2.7,1.1-4.1,1.7l-4,1.8l-1.4-5.6c2.6,0.1,5.1,0.2,7.7,0.6c1.3,0.1,2.5,0.4,3.8,0.7c1.3,0.3,2.5,0.6,3.7,1
				c2.5,0.7,4.9,1.7,7.2,2.9c2.3,1.1,4.5,2.5,6.6,3.9c1,0.8,2.1,1.5,3.1,2.3c1,0.9,1.9,1.7,2.9,2.6l2.7,2.8l2.4,2.9l2.2,3.1l2,3.2
				l1.8,3.3c0.6,1.1,1.1,2.3,1.6,3.4c2,4.6,3.5,9.4,4.5,14.3c0.9,4.9,1.4,9.9,1.3,14.8c-0.1,2.5-0.3,5-0.6,7.4
				c-0.2,1.2-0.4,2.4-0.7,3.7c-0.3,1.2-0.6,2.4-0.9,3.6c-0.7,2.4-1.6,4.7-2.8,6.9C507.1,320.2,505.6,322.2,504.1,324z"/>
		</g>
		<g>
			<g>
				<g>
					<path class="st2" d="M340.4,478.2c-34.8,16.2-19.3,104.8,60.6,110.3c80.1,5.5,90.8-41.4,90.8-63.4
						C491.8,503,417.5,442.4,340.4,478.2z"/>
					<path class="st0" d="M413.5,592.4C413.5,592.4,413.5,592.4,413.5,592.4c-4.1,0-8.4-0.2-12.8-0.5c-50.6-3.5-74.7-38.2-80-66.9
						c-4.2-22.8,3.1-42.8,18.3-49.9c16.3-7.6,33.4-11.4,51-11.4c56.5,0,105.2,41.2,105.2,61.4c0,9.2-1.8,26.9-14.2,41.9
						C467.2,583.9,444.5,592.4,413.5,592.4z M390,470.5c-16.6,0-32.8,3.6-48.1,10.8c-12.3,5.7-18.1,22.8-14.5,42.5
						c4.9,26.3,27.1,58.1,73.8,61.4c4.2,0.3,8.4,0.4,12.4,0.4c0,0,0,0,0,0c28.8,0,49.8-7.7,62.2-22.9c11-13.4,12.6-29.3,12.6-37.6
						C488.4,509.7,444.7,470.5,390,470.5z"/>
				</g>
				<g>
					<path class="st0" d="M274.3,492c0,0,1.4-0.7,3.9-2.1c2.5-1.4,6.3-3.3,11.3-5.6c4.9-2.2,11-4.8,18.1-7.3
						c7.1-2.6,15.3-5.1,24.3-7.3c9.1-2.2,19-4.3,29.7-5.5c10.7-1.3,22-2,33.9-1.5c11.8,0.5,24.1,1.9,36.2,5.1
						c12.2,3.1,24.2,8.3,35.1,15.7c10.6,7.6,19.9,17.7,25.6,29.4c0.7,1.5,1.5,2.9,2.1,4.4l1.8,4.5c0.6,1.5,1,3,1.5,4.4
						c0.5,1.4,0.9,2.8,1.4,4.2c1.8,5.6,3.5,11.3,5.3,16.9c3.3,11.2,6,22.2,7.4,33.1c0.3,2.7,0.7,5.4,0.7,8.1c0,2.7,0.3,5.3-0.1,8
						c-0.3,2.6-0.3,5.2-1,7.7c-0.5,2.5-0.9,4.9-1.7,7.2c-2.8,9.3-7.2,16.9-11.4,23.2c-2,3.2-4.2,6-6.2,8.6c-1.9,2.6-3.9,4.9-5.6,7
						c-3.4,4.2-6.3,7.3-8.2,9.5c-1.9,2.2-2.9,3.3-2.9,3.3s0.9-1.3,2.5-3.7c1.6-2.4,4-5.9,6.9-10.4c1.4-2.3,3.1-4.7,4.7-7.5
						c1.6-2.8,3.5-5.7,5.2-9c3.6-6.5,7-14.1,8.9-22.6c1.9-8.6,1.8-18.1,0.1-28.1c-1.8-10-5-20.5-8.5-31.3
						c-1.9-5.4-3.7-10.9-5.7-16.5c-0.5-1.4-1-2.8-1.5-4.2c-0.5-1.4-1-2.8-1.5-4.1l-1.6-3.9c-0.5-1.3-1.2-2.5-1.9-3.8
						c-5-10-13-18.5-22.4-25.1c-9.5-6.5-20.2-11.4-31.5-14.4c-11.2-3.1-22.7-5-33.9-5.7c-11.2-0.7-22.2-0.7-32.5,0
						c-10.4,0.7-20.2,1.9-29.2,3.4c-9,1.6-17.2,3.2-24.4,5.1c-7.2,1.8-13.5,3.7-18.6,5.3c-5.1,1.7-9.1,3-11.8,4
						C275.8,491.5,274.3,492,274.3,492z"/>
				</g>
				<g>
					<path class="st0" d="M310.1,522.4c0,0,0.4,0.8,1.1,2.2c0.7,1.5,1.8,3.5,3.2,6.1c1.5,2.6,3.3,5.7,5.6,9.1
						c2.3,3.4,5.1,7.1,8.3,11.1c3.2,3.9,7,7.8,11.1,11.8c4.1,4,8.9,7.7,14,11.3c5.1,3.6,10.8,6.7,16.7,9.4
						c5.9,2.7,12.2,4.9,18.6,6.3c3.2,0.9,6.5,1.3,9.7,1.8c3.3,0.3,6.5,0.8,9.8,0.7c6.5,0.3,13-0.2,19.2-0.9c3.1-0.5,6.1-1,9.1-1.5
						c2.9-0.7,5.9-1.2,8.6-2c2.8-0.8,5.5-1.6,8.1-2.3c2.6-0.9,5.1-1.7,7.5-2.5c2.4-0.8,4.6-1.8,6.8-2.6c2.2-0.9,4.2-1.6,6.1-2.5
						c3.7-1.8,7.1-3.1,9.8-4.5c5.3-2.7,8.4-4.2,8.4-4.2s-2.8,2-7.8,5.3c-2.5,1.7-5.7,3.5-9.3,5.6c-1.8,1.1-3.8,2.1-5.9,3.2
						c-2.1,1-4.3,2.3-6.7,3.3c-2.4,1-4.9,2.1-7.4,3.2c-2.6,1-5.4,1.9-8.2,2.9c-2.8,0.9-5.8,1.7-8.8,2.6c-3.1,0.8-6.2,1.3-9.4,2
						c-6.5,0.9-13.3,1.8-20.2,1.5c-3.5,0-7-0.4-10.5-0.7c-3.5-0.6-7-0.9-10.4-1.8c-6.9-1.6-13.6-4-19.9-6.9
						c-6.3-2.9-12.1-6.5-17.4-10.5c-5.3-3.9-10-8.2-14.1-12.6c-4.1-4.4-7.7-8.8-10.6-13.1c-3-4.3-5.5-8.3-7.4-12.1
						c-2-3.7-3.5-7.1-4.6-9.9c-1.1-2.8-1.9-5.1-2.3-6.6C310.3,523.2,310.1,522.4,310.1,522.4z"/>
				</g>
			</g>
			<g>
				<g>
					<path class="st2" d="M1034.8,478.2c34.8,16.2,19.3,104.8-60.6,110.3c-80.1,5.5-90.8-41.4-90.8-63.4
						C883.4,503,957.7,442.4,1034.8,478.2z"/>
					<path class="st0" d="M961.6,592.4c-31,0-53.7-8.5-67.5-25.4c-12.3-15-14.2-32.7-14.2-41.9c0-20.2,48.7-61.4,105.2-61.4
						c17.6,0,34.7,3.8,51,11.4c15.2,7,22.5,27.1,18.3,49.9c-5.3,28.7-29.5,63.4-80,66.9C970.1,592.3,965.8,592.4,961.6,592.4z
						 M985.2,470.5c-54.8,0-98.4,39.2-98.4,54.6c0,18.2,7.3,60.5,74.9,60.5c4,0,8.1-0.1,12.4-0.4c46.7-3.2,68.9-35.1,73.8-61.4
						c3.7-19.7-2.2-36.8-14.5-42.5C1018,474.1,1001.8,470.5,985.2,470.5z"/>
				</g>
				<g>
					<path class="st0" d="M1100.9,492c0,0-1.4-0.5-4.2-1.5c-2.7-1-6.7-2.3-11.8-4c-5.1-1.6-11.4-3.4-18.6-5.3
						c-7.2-1.9-15.4-3.6-24.4-5.1c-9-1.5-18.8-2.7-29.2-3.4c-10.4-0.7-21.3-0.7-32.5,0c-11.2,0.8-22.7,2.7-33.9,5.7
						c-11.2,3-22,7.9-31.5,14.4c-9.4,6.6-17.3,15.1-22.4,25.1c-0.6,1.3-1.4,2.4-1.9,3.8l-1.6,3.9c-0.6,1.2-1,2.6-1.5,4.1
						c-0.5,1.4-1,2.8-1.5,4.2c-2,5.6-3.9,11.1-5.7,16.5c-3.5,10.8-6.7,21.3-8.5,31.3c-1.8,10-1.9,19.5,0.1,28.1
						c1.9,8.6,5.3,16.2,8.9,22.6c1.7,3.3,3.5,6.2,5.2,9c1.6,2.8,3.3,5.3,4.7,7.5c2.9,4.5,5.3,8,6.9,10.4c1.6,2.4,2.5,3.7,2.5,3.7
						s-1-1.2-2.9-3.3c-1.9-2.2-4.8-5.3-8.2-9.5c-1.7-2.1-3.7-4.4-5.6-7c-2-2.6-4.1-5.4-6.2-8.6c-4.3-6.3-8.7-13.9-11.4-23.2
						c-0.9-2.3-1.2-4.7-1.7-7.2c-0.6-2.5-0.7-5.1-1-7.7c-0.4-2.6-0.1-5.3-0.1-8c0-2.7,0.4-5.4,0.7-8.1c1.3-10.9,4.1-21.9,7.4-33.1
						c1.7-5.6,3.4-11.3,5.3-16.9c0.5-1.4,0.9-2.8,1.4-4.2c0.5-1.4,0.9-2.8,1.5-4.4l1.8-4.5c0.6-1.5,1.4-2.9,2.1-4.4
						c5.7-11.7,15-21.8,25.6-29.4c10.9-7.3,22.9-12.5,35.1-15.7c12.2-3.3,24.4-4.6,36.2-5.1c11.8-0.5,23.2,0.3,33.9,1.5
						c10.7,1.2,20.6,3.3,29.7,5.5c9.1,2.2,17.2,4.7,24.3,7.3c7.1,2.5,13.2,5.1,18.1,7.3c4.9,2.3,8.7,4.2,11.3,5.6
						C1099.5,491.3,1100.9,492,1100.9,492z"/>
				</g>
				<g>
					<path class="st0" d="M1065.1,522.4c0,0-0.2,0.8-0.7,2.4c-0.4,1.5-1.2,3.8-2.3,6.6c-1.1,2.8-2.6,6.2-4.6,9.9
						c-1.9,3.7-4.4,7.8-7.4,12.1c-2.9,4.3-6.5,8.7-10.6,13.1c-4.1,4.4-8.8,8.6-14.1,12.6c-5.3,4-11.1,7.6-17.4,10.5
						c-6.3,3-13,5.4-19.9,6.9c-3.4,0.9-6.9,1.3-10.4,1.8c-3.5,0.3-7,0.7-10.5,0.7c-6.9,0.3-13.7-0.6-20.2-1.5
						c-3.2-0.7-6.4-1.2-9.4-2c-3-0.9-6-1.6-8.8-2.6c-2.8-1-5.6-1.9-8.2-2.9c-2.6-1.1-5.1-2.2-7.4-3.2c-2.4-1-4.6-2.2-6.7-3.3
						c-2.1-1.1-4.1-2.1-5.9-3.2c-3.6-2.1-6.8-3.9-9.3-5.6c-5-3.4-7.8-5.3-7.8-5.3s3.1,1.5,8.4,4.2c2.6,1.4,6,2.7,9.8,4.5
						c1.9,0.9,3.9,1.7,6.1,2.5c2.2,0.8,4.4,1.9,6.8,2.6c2.4,0.8,4.9,1.7,7.5,2.5c2.6,0.8,5.3,1.5,8.1,2.3c2.8,0.7,5.7,1.3,8.6,2
						c3,0.5,6,1,9.1,1.5c6.2,0.7,12.6,1.2,19.2,0.9c3.3,0,6.5-0.5,9.8-0.7c3.2-0.6,6.5-1,9.7-1.8c6.5-1.4,12.7-3.6,18.6-6.3
						c5.9-2.7,11.6-5.8,16.7-9.4c5.1-3.6,9.9-7.3,14-11.3c4.1-4,7.9-7.9,11.1-11.8c3.2-3.9,6-7.6,8.3-11.1c2.3-3.4,4.2-6.5,5.6-9.1
						c1.4-2.6,2.5-4.7,3.2-6.1C1064.7,523.1,1065.1,522.4,1065.1,522.4z"/>
				</g>
			</g>
		</g>
		<g>
			<path class="st1" d="M1037.3,164.9c60.9-14,151-66.2,196.6-110c58.5-56.2,141.6,17.2,119.4,100.6
				c-18.7,70.2-49.1,72.6-46.8,131.1s-30.4,81.9-56.2,96c-4.7-18.7-49.1-67.9-49.1-67.9s21.1-11.7,49.1,7
				c-30.4-42.1-77.2-51.5-77.2-51.5s30.4-30.4,63.2-4.7C1187.1,186,1077.1,202.3,1037.3,164.9z"/>
			<path class="st1" d="M1037.2,164.6c14.1-3.7,27.7-8.7,41.1-14.3c13.4-5.6,26.4-12,39.3-18.7c12.9-6.7,25.4-14,37.8-21.6
				c12.3-7.7,24.4-15.7,36.2-24.1c11.7-8.5,23.1-17.5,33.8-27.2l4-3.7l2-1.8l2.1-1.9l4.1-3.6l4.6-3.4c6.3-4.3,13.2-7.7,20.6-9.8
				c7.4-2.1,15.1-2.7,22.7-1.9c7.6,0.8,15,3,21.8,6.3c13.7,6.5,25.1,17.1,33.4,29.4c8.5,12.3,13.9,26.5,16.4,41.1
				c1.1,7.3,1.6,14.7,1.2,22.1c0,1.8-0.3,3.7-0.4,5.5c-0.2,1.8-0.3,3.7-0.7,5.5l-0.9,5.5l-1.3,5.4c-3.8,14.1-8.6,28-14.9,41.3
				c-3.1,6.6-6.7,13-10.2,19.4c-3.7,6.3-7.4,12.6-10.8,18.9c-3.4,6.4-6.1,13.1-8.1,20l-1.3,5.2c-0.5,1.7-0.6,3.5-0.9,5.3
				c-0.6,3.5-0.7,7.1-1,10.7c-0.2,1.8-0.1,3.6-0.1,5.4l0.1,5.4l0.2,11c0,3.7-0.4,7.4-0.6,11.1l-0.8,5.5c-0.3,1.8-0.4,3.7-0.9,5.5
				c-0.9,3.6-1.6,7.3-2.9,10.7c-0.6,1.7-1.1,3.6-1.9,5.3l-2.2,5.1c-3.3,6.7-7.3,13.1-12.1,18.8c-9.7,11.4-22.2,20.1-35,27.2
				c-1.3,0.7-3,0.2-3.7-1.1c-0.1-0.1-0.1-0.3-0.2-0.4l-0.1-0.3l-0.8-2.2c-0.2-0.7-0.5-1.5-0.9-2.2c-0.8-1.5-1.4-3-2.3-4.5
				c-0.9-1.5-1.7-3-2.6-4.4l-2.8-4.3l-3-4.3c-1-1.4-2.1-2.8-3.1-4.2c-2-2.8-4.2-5.5-6.3-8.3c-8.6-10.9-17.7-21.6-27-32l-0.1-0.1
				c-1.2-1.3-1.1-3.3,0.2-4.5c0.2-0.2,0.4-0.3,0.7-0.5c1.3-0.7,2.3-1.1,3.5-1.5c1.1-0.4,2.2-0.7,3.4-1.1c2.3-0.6,4.6-1,6.9-1.2
				c1.2-0.1,2.3-0.2,3.5-0.2c1.2-0.1,2.3-0.1,3.5,0c1.2,0.1,2.3,0,3.5,0.2l3.4,0.4l3.4,0.7c1.1,0.2,2.2,0.6,3.3,0.9
				c1.1,0.4,2.2,0.6,3.3,1l3.2,1.3c2.1,0.8,4.1,2,6.2,2.9c1,0.5,1.9,1.2,2.9,1.7l2.9,1.8l-4.8,5l-3.6-4.5c-1.2-1.5-2.3-3-3.7-4.4
				l-3.9-4.2c-1.3-1.4-2.8-2.7-4.1-4c-1.4-1.3-2.7-2.7-4.3-3.9l-4.4-3.7c-1.5-1.2-3.1-2.3-4.6-3.4c-1.5-1.2-3.1-2.2-4.7-3.3
				c-1.6-1-3.2-2.2-4.9-3.1l-5-2.9l-5.1-2.7c-1.7-0.9-3.5-1.6-5.2-2.5c-3.5-1.6-7.1-3-10.7-4.3c-1.8-0.6-3.6-1.2-5.5-1.8
				c-1.8-0.6-3.7-1.1-5.4-1.4l-0.2,0c-1.9-0.4-3.1-2.3-2.7-4.3c0.2-0.7,0.5-1.3,1-1.8c1.3-1.2,2.4-2.1,3.6-3.1
				c1.2-0.9,2.4-1.9,3.7-2.7c1.2-0.9,2.6-1.7,3.9-2.4c1.3-0.8,2.7-1.4,4.1-2.2c1.4-0.7,2.8-1.2,4.2-1.9c1.4-0.7,2.9-1,4.4-1.5
				c1.5-0.5,3-0.8,4.5-1.1l2.3-0.5c0.8-0.1,1.6-0.2,2.3-0.2c1.6-0.1,3.1-0.4,4.7-0.3l4.7,0.2l4.6,0.8c1.6,0.2,3,0.8,4.5,1.3l2.2,0.8
				l1.1,0.4l1,0.5l4.1,2.1c1.4,0.6,2.6,1.6,3.9,2.5l3.8,2.6l-4.8,4.3l-3.8-5.8c-1.2-2-2.8-3.7-4.1-5.6c-1.3-1.9-2.9-3.6-4.4-5.4
				l-2.3-2.6l-2.4-2.5c-3.2-3.4-6.7-6.4-10.3-9.4c-1.8-1.4-3.6-2.9-5.5-4.3l-5.8-4l-6-3.7l-6.1-3.4c-4.2-2.2-8.4-4.2-12.7-6.1
				c-4.3-1.9-8.7-3.7-13.1-5.3c-2.2-0.8-4.4-1.6-6.7-2.4c-2.2-0.8-4.5-1.5-6.7-2.2c-4.5-1.5-9.1-2.8-13.6-4.1
				c-4.6-1.3-9.2-2.5-13.8-3.7c-9.2-2.4-18.5-4.7-27.6-7.3c-4.6-1.3-9.2-2.7-13.7-4.2c-4.5-1.5-9-3.2-13.5-5c-2.2-0.9-4.4-2-6.5-3
				c-2.1-1.2-4.3-2.2-6.3-3.5c-4.2-2.4-7.9-5.5-11.4-8.7c-0.1-0.1-0.1-0.3,0-0.5C1037.1,164.6,1037.1,164.6,1037.2,164.6z
				 M1038.1,165.1c3.5,2.9,7.1,5.6,11.1,7.7c2,1.2,4.2,2.1,6.3,3.2c2.2,0.9,4.3,1.9,6.5,2.7c4.4,1.7,8.9,3.2,13.5,4.5
				c4.5,1.4,9.1,2.5,13.7,3.7c18.4,4.5,37.1,8.3,55.6,13.6c2.3,0.6,4.6,1.3,6.9,2.1c2.3,0.7,4.6,1.4,6.8,2.2
				c4.6,1.5,9.1,3.2,13.5,5.1c4.5,1.8,8.8,3.9,13.2,6l6.4,3.4l6.2,3.7l6.1,4c2,1.4,3.9,2.9,5.8,4.4c3.8,3,7.5,6.2,10.9,9.7l2.6,2.6
				l2.4,2.7c1.6,1.8,3.3,3.6,4.7,5.6c1.5,1.9,3.1,3.8,4.4,5.8l4.1,6.1c1,1.5,0.6,3.5-0.9,4.5c-1.1,0.8-2.5,0.7-3.6,0l-0.3-0.2
				l-3.4-2.3c-1.1-0.7-2.2-1.6-3.5-2.1l-3.6-1.8l-0.9-0.4l-1-0.3l-1.9-0.6c-1.3-0.4-2.5-0.9-3.8-1.1l-3.9-0.7l-4-0.1
				c-1.3-0.1-2.7,0.2-4,0.3l-2,0.2l-2,0.4c-1.3,0.3-2.6,0.5-3.9,1c-1.3,0.5-2.6,0.7-3.8,1.3c-1.2,0.6-2.5,1-3.7,1.7
				c-1.2,0.7-2.4,1.2-3.6,2c-1.2,0.7-2.3,1.4-3.5,2.2c-1.1,0.8-2.2,1.6-3.3,2.4c-1,0.8-2.1,1.8-3,2.6l-1.8-6.1c2.2,0.5,4.1,1,6,1.6
				c2,0.6,3.9,1.2,5.8,1.8c3.8,1.3,7.6,2.8,11.3,4.5c1.8,0.9,3.7,1.7,5.5,2.6l5.4,2.8l5.2,3c1.8,1,3.4,2.2,5.1,3.3
				c1.7,1.1,3.4,2.2,5,3.5c1.6,1.2,3.3,2.4,4.9,3.6l4.7,3.9c1.6,1.3,3,2.7,4.5,4.1c1.4,1.4,3,2.8,4.3,4.3l4.1,4.5
				c1.4,1.5,2.6,3.1,3.9,4.7l3.7,4.8c1.2,1.5,0.9,3.7-0.6,4.9c-1.2,0.9-2.8,1-3.9,0.2l-0.2-0.1l-2.6-1.6c-0.9-0.5-1.7-1.1-2.6-1.6
				c-1.8-0.9-3.6-2-5.5-2.7l-2.8-1.2c-0.9-0.4-1.9-0.6-2.9-0.9c-1-0.3-1.9-0.6-2.9-0.8l-3-0.7l-3-0.4c-1-0.2-2-0.2-3-0.2
				c-1-0.1-2-0.1-3,0c-1,0-2,0.1-3,0.2c-2,0.1-4,0.5-5.9,1c-0.9,0.3-1.9,0.5-2.8,0.9c-0.9,0.3-1.9,0.7-2.5,1l0.8-5.1
				c9.4,10.6,18.4,21.4,27,32.6c2.1,2.8,4.3,5.6,6.3,8.5c1,1.4,2.1,2.9,3.1,4.3l3,4.4l2.9,4.5c1,1.5,1.8,3.1,2.7,4.7
				c0.9,1.5,1.6,3.3,2.4,4.9c0.4,0.8,0.8,1.7,1,2.6l0.9,2.8l-4-1.8c12.7-6.7,24.6-14.9,34.1-25.4c4.7-5.3,8.6-11.2,11.9-17.5
				l2.2-4.8c0.8-1.6,1.3-3.3,1.9-5c1.3-3.3,2.1-6.8,3-10.3c0.5-1.7,0.7-3.5,1-5.3l0.9-5.3c0.3-3.6,0.7-7.1,0.8-10.7l0.1-10.9l0-5.5
				c0-1.8,0-3.7,0.2-5.5c0.3-3.7,0.5-7.4,1.2-11c0.3-1.8,0.5-3.7,1-5.4l1.3-5.4c2.1-7.1,5-13.9,8.5-20.4c7-12.9,15.2-24.9,21.2-38.1
				c6.2-13.1,10.8-26.9,14.3-40.9c1.8-7,2.5-14.2,2.8-21.3c0.2-7.2-0.5-14.3-1.8-21.4c-2.7-14-8.3-27.5-16.7-39
				c-8.2-11.6-19.3-21.1-32-26.9c-12.7-5.8-27.2-7.5-40.5-3.7c-6.7,1.9-12.9,5-18.7,8.9l-4.2,3l-4.1,3.6l-2,1.7l-2,1.9l-4.1,3.7
				c-11,9.7-22.6,18.7-34.5,27.2c-12,8.4-24.2,16.5-36.8,23.8c-12.6,7.3-25.4,14.5-38.6,20.8c-13.1,6.5-26.4,12.5-40.1,17.6
				C1065.8,157.6,1052.1,162.1,1038.1,165.1z"/>
		</g>
		<g>
			<path d="M845.4,831.9c4.7,30.4-30.4,56.2-46.8,63.2c-16.4,7-65.5,35.1-77.2,56.2c-11.7,21.1-39.8-67.9-39.8-67.9l81.9-39.8
				L845.4,831.9z"/>
			<path d="M717.1,956.8c-14.1,0-33.9-60.5-37.7-72.7c-0.3-1.1,0.2-2.2,1.2-2.7l81.9-39.8c0.2-0.1,0.4-0.2,0.7-0.2l81.9-11.7
				c1.2-0.2,2.4,0.7,2.6,1.9c4.9,31.6-31,58.3-48.2,65.6c-16.4,7-64.8,34.7-76.1,55.2C721.3,956,718.8,956.8,717.1,956.8z
				 M684.3,884.6c10.8,33.6,25.8,67.7,32.8,67.7c0.9,0,1.7-1.1,2.2-2.1c11.9-21.4,61.5-49.9,78.3-57.2c15.7-6.7,48.2-30.5,45.7-58.5
				l-79.3,11.3L684.3,884.6z"/>
		</g>
		<g>
			<path class="st1" d="M702.6,824.9c37.4,0,63.2,7,95.9,0c50-10.7,46.8,7,46.8,7c-30.4,18.7-37.4,35.1-60.9,37.4
				c-23.4,2.3-53.8-4.7-60.9,30.4c-7,35.1,18.7,42.1,18.7,42.1s-46.8,53.8-37.4,103h-34.7c9.4-49.1-37.4-103-37.4-103
				s25.7-7,18.7-42.1c-7-35.1-37.4-28.1-60.9-30.4c-23.4-2.3-30.4-18.7-60.9-37.4c0,0-3.2-17.7,46.8-7c32.8,7,58.5,0,95.9,0H702.6z"
				/>
			<path d="M702.6,824.9l9.3,0.1c3.1,0,6.2,0.2,9.3,0.3c3.1,0.1,6.2,0.2,9.3,0.4c3.1,0.2,6.2,0.3,9.3,0.5l9.3,0.4
				c3.1,0.1,6.2,0.1,9.3,0.1c3.1,0,6.2,0,9.2-0.2c3.1-0.2,6.1-0.2,9.2-0.6l9.1-1.1c3-0.5,6-1.2,8.9-1.8l2.2-0.5l1.2-0.2l1.1-0.3
				l4.5-1c3-0.8,6.2-1.2,9.3-1.8c1.6-0.3,3.2-0.4,4.7-0.6c1.6-0.1,3.2-0.4,4.8-0.4c1.6-0.1,3.2-0.1,4.9-0.1c1.7,0.1,3.3,0.1,5,0.3
				c3.3,0.5,6.8,1.2,10.1,3.1c0.8,0.6,1.7,1.1,2.4,1.8c0.7,0.8,1.5,1.4,2.1,2.4c0.6,0.9,1.1,2,1.4,3.1c0.1,0.6,0.3,1.1,0.3,1.7
				c0,0.3,0.1,0.6,0,0.9c0,0.3,0,0.6-0.1,1.1c-0.1,0.9-0.7,1.7-1.4,2.2l-0.1,0.1l-5.1,3.3l-5,3.5c-3.3,2.4-6.6,4.8-9.7,7.4
				c-6.4,5.1-12.5,10.7-19.8,15.6c-3.6,2.4-7.6,4.5-11.9,5.9c-2.1,0.8-4.3,1.2-6.5,1.7l-3.3,0.5l-0.8,0.1c-0.4,0.1-0.6,0-0.9,0.1
				l-1.5,0.1c-2,0.2-4.2,0.3-6.3,0.4l-6.3,0.2c-4.1,0.1-8.2,0.3-12.2,0.6c-3.9,0.5-7.9,1-11.4,2.2l-1.4,0.4l-1.3,0.6
				c-0.8,0.4-1.7,0.7-2.5,1.2c-1.5,1-3.2,1.8-4.5,3.2c-1.5,1.1-2.5,2.6-3.7,4c-0.6,0.7-1,1.6-1.5,2.3c-0.4,0.8-1,1.6-1.4,2.4
				l-1.1,2.6c-0.3,0.9-0.8,1.7-0.9,2.7l-0.7,2.8l-0.4,1.4l-0.1,0.4l0,0.1l0,0c0,0,0-0.3,0-0.1l0,0.2l-0.1,0.8
				c-0.3,2-0.7,4.2-0.8,6.1l-0.1,2.8l-0.1,1.4l0.1,1.4l0.2,2.9c0.1,1,0.3,1.9,0.5,2.8c0.2,1.9,1,3.6,1.5,5.4c1.4,3.4,3.5,6.5,6.1,9
				c1.3,1.3,2.8,2.4,4.3,3.4c1.5,0.9,3.4,1.8,4.7,2.2l0.1,0c1.8,0.6,2.8,2.5,2.2,4.3c-0.1,0.4-0.4,0.8-0.7,1.2
				c-1.4,1.7-2.9,3.5-4.3,5.3c-1.4,1.8-2.8,3.7-4.1,5.6c-2.7,3.8-5.2,7.6-7.7,11.6c-4.8,7.9-9.2,16.1-12.7,24.6
				c-0.9,2.1-1.7,4.3-2.5,6.4c-0.8,2.2-1.5,4.3-2.2,6.5c-0.6,2.2-1.3,4.4-1.8,6.6c-0.6,2.2-1,4.4-1.4,6.7c-0.3,2.2-0.7,4.5-0.9,6.7
				c-0.3,2.3-0.3,4.5-0.4,6.8c0.1,2.2,0,4.5,0.3,6.7c0.1,2.2,0.6,4.4,0.9,6.6l0,0.1c0.3,1.9-1,3.6-2.9,3.9c-0.2,0-0.3,0-0.5,0h-34.7
				c-1.9,0-3.4-1.5-3.4-3.4c0-0.2,0-0.3,0-0.5l0-0.2c0.3-2.2,0.7-4.4,0.9-6.6c0.3-2.2,0.2-4.5,0.3-6.7c-0.1-2.3-0.1-4.5-0.4-6.8
				c-0.2-2.3-0.5-4.5-0.9-6.7c-0.4-2.2-0.8-4.5-1.4-6.7c-0.5-2.2-1.2-4.4-1.8-6.6c-0.7-2.2-1.4-4.4-2.2-6.5
				c-0.8-2.2-1.6-4.3-2.5-6.4c-3.6-8.5-7.9-16.7-12.7-24.6c-2.4-3.9-5-7.8-7.7-11.6c-1.3-1.9-2.7-3.7-4.1-5.6
				c-1.4-1.8-2.9-3.7-4.3-5.3c-1.2-1.4-1.1-3.6,0.4-4.8c0.4-0.3,0.8-0.5,1.2-0.7l0.1,0c1.4-0.4,3.2-1.3,4.7-2.2c1.5-1,3-2.1,4.3-3.4
				c2.6-2.5,4.7-5.6,6.1-9c0.5-1.8,1.3-3.5,1.5-5.4c0.1-0.9,0.4-1.8,0.5-2.8l0.2-2.9l0.1-1.4l-0.1-1.5l-0.1-2.9
				c-0.1-1.9-0.5-3.9-0.8-5.8l-0.1-0.7l0-0.2c0-0.2,0.1,0.2,0,0.2l0,0l0-0.1l-0.1-0.4l-0.4-1.5l-0.8-3c-0.2-1.1-0.6-1.8-1-2.7
				l-1-2.5c-0.3-0.8-0.9-1.6-1.4-2.4c-0.5-0.8-0.8-1.7-1.5-2.3c-1.2-1.4-2.2-2.9-3.7-4c-1.3-1.3-2.9-2.1-4.5-3.2
				c-0.8-0.4-1.7-0.8-2.5-1.2l-1.3-0.6l-1.4-0.4c-3.6-1.3-7.5-1.8-11.4-2.2c-8-0.8-16.2-0.5-24.8-1.2l-1.6-0.1l-0.4,0l-0.2,0l-0.3,0
				l-0.8-0.1l-3.1-0.4c-2.2-0.5-4.5-0.9-6.6-1.7c-4.2-1.4-8.3-3.5-11.9-5.9c-7.2-4.9-13.4-10.5-19.8-15.6c-3.2-2.6-6.4-5-9.7-7.4
				l-5-3.5l-5.1-3.3l-0.2-0.1c-0.8-0.5-1.3-1.3-1.4-2.2c-0.2-1.1-0.1-1.7,0-2.4c0.1-0.7,0.3-1.4,0.5-2c0.5-1.3,1.2-2.5,2-3.5
				c0.9-0.9,1.8-1.8,2.8-2.4c1-0.7,2-1.2,3-1.6c1-0.5,2-0.7,3.1-1.1c1-0.3,2-0.5,3-0.7c2-0.4,4-0.5,6-0.6c3.9-0.2,7.8,0,11.6,0.4
				c1.9,0.1,3.8,0.4,5.7,0.7c1.9,0.3,3.8,0.5,5.6,0.8l10.9,2.1l5.5,1.1l2.7,0.5c0.9,0.1,1.8,0.2,2.7,0.3l5.4,0.6
				c1.8,0.2,3.6,0.5,5.4,0.5c3.7,0.1,7.3,0.4,11,0.4c3.7,0,7.4,0,11.1-0.1l11.1-0.3l11.2-0.4l11.2-0.2c3.7,0,7.5,0,11.2,0
				c3.7,0,7.4,0.1,11.2,0.1C687.7,824.9,695.2,824.8,702.6,824.9z M702.6,824.9c-7.4,0.1-14.9,0-22.3,0.2c-3.7,0.1-7.4,0.1-11.2,0.3
				c-3.7,0.2-7.4,0.3-11.1,0.6c-7.4,0.6-14.8,1.3-22.2,2.2l-11.1,1.2c-3.7,0.4-7.5,0.6-11.2,0.9c-3.7,0.3-7.5,0.2-11.3,0.4
				c-3.8,0.1-7.6-0.3-11.5-0.4c-1-0.1-1.9-0.1-2.9-0.2l-2.8-0.4l-5.5-0.8l-2.8-0.4l-1.5-0.3l-1.4-0.2l-5.4-1.1
				c-1.8-0.4-3.6-0.6-5.4-0.9c-1.8-0.3-3.6-0.6-5.4-0.7c-3.6-0.4-7.2-0.5-10.7-0.4c-3.5,0.1-6.9,0.7-9.7,1.8c-0.7,0.3-1.4,0.6-1.9,1
				c-0.6,0.3-1,0.8-1.4,1.2c-0.3,0.4-0.6,0.9-0.8,1.3c-0.1,0.2-0.1,0.5-0.2,0.7c0,0.2,0,0.6,0,0.4l-1.6-2.3l5.3,3.4l5.2,3.6
				c3.4,2.5,6.8,5,10,7.6c6.6,5.2,12.7,10.8,19.3,15.2c3.3,2.2,6.7,3.9,10.3,5.1c1.8,0.7,3.6,1,5.4,1.4l3.1,0.4l0.8,0.1l0.6,0
				l1.5,0.1c8,0.6,16.4,0.4,24.9,1.2c4.3,0.5,8.6,1.1,12.9,2.5l1.6,0.5l1.6,0.7c1,0.5,2.1,0.9,3.1,1.4c2,1.2,4,2.4,5.7,4
				c1.9,1.4,3.3,3.3,4.7,5.1c0.8,0.9,1.2,1.9,1.8,2.9c0.6,1,1.2,1.9,1.7,3l1.3,3.2c0.4,1.1,0.9,2.2,1.1,3.2l0.8,3l0.4,1.5l0.1,0.4
				l0.1,0.4l0,0.2l0.1,0.8c0.3,2.2,0.7,4.3,0.9,6.5l0.2,3.3l0.1,1.7l-0.1,1.7l-0.2,3.3c-0.1,1.1-0.4,2.2-0.6,3.3
				c-0.3,2.2-1.2,4.4-1.9,6.6c-1.7,4.3-4.4,8.2-7.7,11.4c-1.7,1.6-3.5,3-5.5,4.2c-2,1.2-3.9,2.2-6.5,3l1.7-5.5
				c1.6,1.9,3.1,3.8,4.5,5.7c1.5,1.9,2.9,3.8,4.3,5.8c2.8,3.9,5.4,7.9,7.9,11.9c5,8.1,9.5,16.6,13.2,25.5c0.9,2.2,1.8,4.4,2.6,6.7
				c0.8,2.3,1.6,4.6,2.3,6.9c0.7,2.3,1.4,4.6,1.9,7c0.6,2.3,1,4.7,1.5,7.1c0.3,2.4,0.8,4.8,0.9,7.2c0.3,2.4,0.3,4.9,0.4,7.3
				c-0.1,2.5,0,4.9-0.3,7.4c-0.1,2.5-0.6,4.9-1,7.3l-3.3-4h34.7l-3.3,4c-0.4-2.4-0.8-4.9-1-7.3c-0.3-2.5-0.3-4.9-0.3-7.4
				c0.1-2.4,0.1-4.9,0.4-7.3c0.2-2.4,0.6-4.8,0.9-7.2c0.4-2.4,0.9-4.8,1.5-7.1c0.5-2.4,1.2-4.7,1.9-7c0.7-2.3,1.5-4.6,2.3-6.9
				c0.8-2.3,1.7-4.5,2.6-6.7c3.7-8.9,8.2-17.4,13.2-25.5c2.5-4.1,5.1-8.1,7.9-11.9c1.4-1.9,2.8-3.9,4.3-5.8c1.5-1.9,2.9-3.8,4.5-5.7
				l1.7,5.5c-2.6-0.8-4.5-1.8-6.5-3c-1.9-1.2-3.8-2.6-5.5-4.2c-3.3-3.2-6-7.1-7.7-11.4c-0.7-2.2-1.6-4.3-1.9-6.6
				c-0.2-1.1-0.5-2.2-0.6-3.3l-0.2-3.3l-0.1-1.7l0.1-1.7l0.2-3.4c0.2-2.2,0.6-4.1,0.9-6.2l0.1-0.8l0-0.2l0-0.2l0,0l0-0.1l0.1-0.4
				l0.4-1.6l0.8-3.2c0.2-1.1,0.7-2.1,1.1-3.2l1.3-3.1c0.4-1,1.1-2,1.7-3c0.6-1,1.1-2,1.8-2.9c1.5-1.8,2.9-3.7,4.7-5.1
				c1.7-1.6,3.7-2.8,5.7-4c1-0.5,2.1-1,3.1-1.4l1.6-0.7l1.6-0.5c4.3-1.5,8.6-2.1,12.9-2.5c4.3-0.4,8.5-0.6,12.7-0.7l6.2-0.2
				c2-0.1,4-0.1,6.1-0.3l1.5-0.1c0.2,0,0.6,0,0.7-0.1l0.7-0.1l2.9-0.4c1.9-0.4,3.8-0.8,5.5-1.5c3.6-1.2,7-2.9,10.3-5.1
				c6.5-4.4,12.7-10,19.3-15.2c3.3-2.6,6.6-5.2,10-7.6l5.2-3.6l5.3-3.4l-1.6,2.3c0,0.2,0,0,0,0c0,0,0-0.2,0-0.2
				c0-0.2-0.1-0.4-0.1-0.5c-0.1-0.4-0.2-0.8-0.5-1.1c-0.2-0.4-0.6-0.7-0.9-1.1c-0.4-0.3-0.9-0.6-1.3-0.9c-2.1-1.1-4.8-1.7-7.6-2.1
				c-1.4-0.2-2.9-0.2-4.3-0.3c-1.5-0.1-2.9,0-4.4,0c-1.5-0.1-3,0.1-4.5,0.2c-1.5,0.1-3,0.1-4.5,0.3c-3,0.4-5.9,0.6-9,1.2l-4.6,0.7
				l-1.1,0.2l-1.1,0.1l-2.3,0.3c-3.1,0.4-6.2,0.9-9.4,1.2l-9.4,0.4c-3.1,0.2-6.3-0.1-9.4-0.1c-3.1,0-6.2-0.3-9.3-0.5
				c-6.2-0.4-12.4-1.1-18.5-1.7c-6.2-0.7-12.3-1.1-18.5-1.6c-3.1-0.2-6.2-0.4-9.3-0.4L702.6,824.9z"/>
		</g>
		<g>
			<path class="st1" d="M814.9,1049.6c0,0,1.7,0,4.7,0.2c1.5,0,3.3,0.3,5.4,0.6c2.1,0.2,4.4,0.7,6.9,1.3c2.5,0.5,5.2,1.3,8,2.2
				c2.8,1,5.8,1.9,8.7,3.2c3,1.2,6,2.6,9,4.2c1.5,0.8,3,1.7,4.5,2.5c1.5,0.8,3,1.7,4.4,2.6l4.3,2.8c1.4,1,2.8,2,4.1,3
				c1.4,1,2.7,2.1,3.9,3.1c1.3,1.1,2.6,2.1,3.7,3.2c2.4,2.2,4.6,4.3,6.6,6.5c1,1.1,2,2.1,2.9,3.2c0.9,1.1,1.7,2.1,2.5,3.1
				c1.7,2,3,3.9,4.1,5.7c0.6,0.9,1.1,1.7,1.6,2.4c0.4,0.8,0.9,1.5,1.2,2.2c1.5,2.6,2.2,4.1,2.2,4.1s-1.2-1.2-3.3-3.3
				c-1-1.1-2.3-2.3-3.8-3.7c-1.5-1.4-3.1-3-5-4.7c-1.8-1.7-3.9-3.5-6.1-5.3c-2.1-1.9-4.6-3.6-6.9-5.6c-2.5-1.9-5.1-3.7-7.7-5.6
				c-1.3-0.9-2.7-1.8-4-2.8l-4.2-2.7c-1.4-0.9-2.8-1.8-4.2-2.6c-1.4-0.8-2.8-1.7-4.2-2.5c-1.4-0.8-2.8-1.5-4.2-2.3
				c-1.4-0.8-2.8-1.5-4.2-2.2c-2.7-1.4-5.5-2.7-8-3.9c-2.6-1.1-5.1-2.3-7.4-3.2c-2.3-0.9-4.4-1.8-6.4-2.5c-1.9-0.6-3.6-1.4-5-1.8
				C816.5,1050.2,814.9,1049.6,814.9,1049.6z"/>
		</g>
		<g>
			<path class="st1" d="M861.8,1012.1c0,0,1.8,0.2,4.9,0.8c1.5,0.3,3.4,0.8,5.5,1.4c2.2,0.6,4.5,1.5,7,2.4c2.5,1,5.2,2.1,8.1,3.4
				c2.8,1.4,5.8,2.7,8.7,4.5c2.9,1.7,6,3.4,8.9,5.4c3,1.9,5.9,4,8.9,6c2.9,2.2,5.8,4.3,8.5,6.6c2.8,2.2,5.4,4.6,7.8,6.9
				c2.6,2.2,4.8,4.6,7,6.8c2.1,2.2,4.1,4.4,5.8,6.5c1.7,2.1,3.3,4,4.5,5.8c1.3,1.8,2.4,3.4,3.2,4.7c1.6,2.7,2.4,4.3,2.4,4.3
				s-1.3-1.3-3.5-3.5c-1.1-1.1-2.5-2.3-4.1-3.9c-1.5-1.5-3.5-3-5.4-4.8c-2-1.7-4.2-3.6-6.5-5.5c-2.4-1.9-4.8-3.9-7.4-6
				c-1.3-1-2.6-2.1-3.9-3.1c-1.4-1-2.7-2-4.1-3.1c-2.7-2.1-5.6-4.2-8.4-6.3c-2.9-2-5.7-4.2-8.5-6.1c-1.4-1-2.8-1.9-4.2-2.9
				c-1.4-0.9-2.8-1.9-4.2-2.8c-2.7-1.8-5.4-3.5-8-5.2c-2.6-1.5-5-3.1-7.3-4.4c-2.3-1.2-4.4-2.6-6.3-3.5c-1.9-0.9-3.5-1.9-5-2.5
				C863.4,1012.9,861.8,1012.1,861.8,1012.1z"/>
		</g>
		<g>
			<path class="st1" d="M894.5,965.3c0,0,1.6,0.1,4.5,0.4c1.4,0.1,3.1,0.4,5.1,0.8c2,0.3,4.2,0.8,6.5,1.4c4.8,1.1,10.2,2.8,16,4.9
				c2.8,1.2,5.8,2.2,8.7,3.6c2.9,1.3,5.9,2.7,8.8,4.2c5.8,3,11.4,6.4,16.4,10.1c2.6,1.7,4.8,3.6,7,5.4c2.2,1.8,4.1,3.6,5.9,5.4
				c1.7,1.8,3.3,3.4,4.5,5c1.3,1.6,2.4,2.9,3.1,4.1c1.6,2.4,2.4,3.8,2.4,3.8s-1.3-1-3.4-2.9c-1-0.9-2.5-1.9-3.9-3.2
				c-1.5-1.2-3.4-2.4-5.2-3.9c-2-1.3-4.1-2.8-6.4-4.3c-2.3-1.4-4.7-3-7.3-4.5c-2.5-1.6-5.3-3-7.9-4.6c-2.8-1.5-5.5-3.1-8.3-4.5
				c-2.8-1.5-5.6-3-8.4-4.3c-2.8-1.4-5.6-2.7-8.3-4c-2.7-1.2-5.3-2.5-7.8-3.6c-2.5-1.1-4.9-2.2-7.1-3.1c-2.2-0.9-4.2-1.9-6-2.6
				c-1.8-0.7-3.4-1.5-4.7-2C896,966,894.5,965.3,894.5,965.3z"/>
		</g>
		<g>
			<path class="st1" d="M894.5,911.5c0,0,0.4-0.1,1.2-0.3c0.8-0.2,1.9-0.4,3.4-0.6c3-0.4,7.3-0.7,12.5-0.6c2.6,0.1,5.4,0.2,8.3,0.5
				c2.9,0.3,6,0.6,9.2,1.1c3.2,0.5,6.5,1,9.8,1.8c3.3,0.7,6.6,1.6,10,2.5c3.3,1,6.6,2,9.8,3.2c3.2,1.1,6.3,2.5,9.2,3.8
				c3,1.3,5.7,2.8,8.3,4.3c2.6,1.5,5,3,7.1,4.6c2.1,1.5,3.9,3.1,5.5,4.6c1.5,1.5,2.8,2.8,3.7,4c1,1.2,1.6,2.2,2,2.9
				c0.4,0.7,0.7,1,0.7,1s-0.3-0.3-0.9-0.8c-0.6-0.5-1.5-1.3-2.7-2.1c-0.6-0.5-1.2-0.9-2-1.4c-0.7-0.5-1.5-1-2.4-1.6
				c-1.7-1.1-3.7-2.2-5.9-3.3c-1.1-0.6-2.3-1.1-3.5-1.7c-1.2-0.6-2.5-1.1-3.8-1.7c-2.6-1.1-5.4-2.2-8.3-3.3
				c-5.9-2.1-12.2-4.2-18.6-6c-3.2-1-6.4-1.8-9.6-2.6c-3.2-0.8-6.3-1.6-9.4-2.3c-6.1-1.4-11.8-2.7-16.8-3.6
				c-2.5-0.4-4.8-0.9-6.8-1.2c-2-0.3-3.8-0.6-5.3-0.7c-1.5-0.1-2.6-0.3-3.4-0.3C894.9,911.5,894.5,911.5,894.5,911.5z"/>
		</g>
		<g>
			<path class="st1" d="M894.5,696.2c0,0-0.5,1.9-1.6,5.3c-1.1,3.4-2.7,8.1-4.7,13.8c-0.8,2.9-1.7,6-2.8,9.2c-0.5,1.6-1,3.3-1.6,5
				c-0.3,0.8-0.5,1.7-0.8,2.6c-0.2,0.9-0.5,1.8-0.7,2.7c-1,3.6-1.9,7.3-2.9,11.1l-0.8,2.8l-0.6,2.9c-0.4,1.9-0.8,3.9-1.2,5.8
				c-0.4,1.9-0.9,3.8-1.3,5.8c-0.5,1.9-0.7,3.9-1,5.8c-0.5,3.8-1.4,7.6-1.9,11.3c-0.4,3.7-0.9,7.2-1.3,10.6
				c-0.1,0.8-0.2,1.7-0.3,2.5c-0.1,0.8-0.1,1.6-0.2,2.4c-0.1,1.6-0.3,3.1-0.4,4.6c-0.2,3-0.6,5.7-0.7,8.1c-0.1,2.4-0.3,4.6-0.4,6.3
				c-0.3,3.5-0.5,5.5-0.5,5.5s-0.4-2-0.9-5.5c-0.3-1.7-0.6-3.9-0.9-6.3c-0.4-2.4-0.4-5.2-0.6-8.3c-0.1-3-0.5-6.3-0.2-9.8
				c0.1-3.5,0.2-7.2,0.5-11c0.1-1.9,0.4-3.8,0.6-5.8c0.2-1.9,0.5-3.9,0.8-5.9c0.3-2,0.5-4,0.9-6c0.4-2,0.8-4,1.3-6
				c0.5-2,0.9-4,1.4-5.9l0.7-2.9l0.9-2.9c1.1-3.8,2.4-7.5,3.6-11.2c0.6-1.8,1.2-3.6,2-5.3c0.7-1.7,1.4-3.3,2.1-5
				c1.3-3.2,2.7-6.2,3.9-9c1.3-2.7,2.7-5.1,3.9-7.3c1.2-2.2,2.2-4,3.1-5.5C893.5,697.9,894.5,696.2,894.5,696.2z"/>
		</g>
		<g>
			<path class="st1" d="M892.2,406c0,0,0.2-0.3,0.7-0.9c0.5-0.6,1.1-1.5,2.2-2.4c1.1-1,2.5-2,4.3-3c1.8-0.9,4-1.8,6.5-2.3
				c2.5-0.6,5.2-0.7,8.1-0.6c2.9,0.2,5.9,0.5,8.9,1.3c6,1.4,12.1,4.1,17.7,7.2c2.8,1.6,5.6,3.3,8.2,5.1c2.6,1.8,5.1,3.7,7.4,5.6
				c4.6,3.9,8.6,7.9,11.7,11.6c3.1,3.7,5.4,7,6.8,9.5c0.7,1.2,1.2,2.2,1.4,2.9c0.3,0.7,0.4,1.1,0.4,1.1s-0.3-0.3-0.8-0.9
				c-0.5-0.6-1.3-1.3-2.2-2.3c-1.9-1.9-4.8-4.5-8.4-7.5c-1.8-1.5-3.8-3-5.9-4.6c-2.1-1.6-4.4-3.2-6.7-4.9c-4.7-3.3-9.9-6.7-15.2-9.6
				c-2.6-1.5-5.4-2.9-8-4.1c-2.7-1.2-5.4-2.4-8-3.2c-2.6-0.9-5.2-1.6-7.7-2.1c-1.2-0.1-2.5-0.4-3.7-0.4c-0.6,0-1.2-0.1-1.8-0.1
				c-0.6,0-1.1,0-1.7,0c-2.2,0.1-4.2,0.4-6,0.8c-1.7,0.5-3.3,1.1-4.4,1.7c-1.2,0.5-2.1,1.2-2.8,1.6C892.5,405.7,892.2,406,892.2,406
				z"/>
		</g>
		<g>
			<path class="st1" d="M971.8,373.2c0,0,0.5-0.2,1.6-0.5c1-0.4,2.5-0.9,4.6-1.3c2-0.4,4.5-0.9,7.3-1.1c2.9-0.3,6.1-0.4,9.7-0.2
				c3.5,0.2,7.4,0.4,11.4,1.1c4,0.6,8.2,1.4,12.5,2.6c4.3,1.1,8.7,2.4,13,4c4.3,1.6,8.7,3.4,13,5.4c4.3,2,8.4,4.2,12.4,6.5
				c4.1,2.2,7.8,4.8,11.5,7.3c3.6,2.5,7,5.2,10,7.8c3.1,2.6,5.8,5.3,8.3,7.9c2.4,2.5,4.5,5.1,6.3,7.3c1.7,2.3,3.1,4.3,4.2,6.1
				c1.1,1.7,1.8,3.2,2.3,4.1c0.5,1,0.8,1.5,0.8,1.5s-0.4-0.4-1.1-1.3c-0.7-0.8-1.7-2.1-3.1-3.5c-1.3-1.5-3.1-3.2-5.1-5.2
				c-2-1.9-4.4-4-7-6.2c-2.6-2.2-5.6-4.4-8.7-6.7c-3.2-2.3-6.6-4.5-10.2-6.8c-3.6-2.3-7.4-4.4-11.4-6.6c-3.9-2.2-8-4.2-12.1-6.1
				c-4.1-2-8.3-3.7-12.4-5.4c-4.2-1.6-8.3-3.2-12.3-4.4c-4.1-1.2-8-2.5-11.8-3.4c-3.8-0.9-7.4-1.6-10.8-2.2c-3.4-0.5-6.5-0.9-9.2-1
				c-2.8-0.2-5.2-0.2-7.2-0.1c-1,0-1.9,0.1-2.7,0.1c-0.8,0.1-1.5,0.2-2,0.2C972.3,373.1,971.8,373.2,971.8,373.2z"/>
		</g>
		<g>
			<path class="st1" d="M992.8,408.3c0,0,1.2,0,3.1,0.2c1,0,2.2,0.3,3.6,0.6c1.4,0.3,3,0.7,4.6,1.3c1.7,0.5,3.4,1.3,5.2,2.2
				c1.8,0.9,3.6,1.9,5.5,3.1c1.8,1.2,3.7,2.5,5.4,3.9c1.8,1.4,3.5,3,5.2,4.5c1.6,1.7,3.3,3.3,4.7,5c1.5,1.7,2.8,3.5,4.1,5.2
				c2.5,3.5,4.6,6.9,6.1,10.1c0.8,1.5,1.4,3,1.9,4.3c0.5,1.3,1,2.4,1.2,3.4c0.6,1.9,0.8,3,0.8,3s-0.8-0.9-2-2.4
				c-0.6-0.8-1.4-1.7-2.3-2.7c-0.9-1-1.9-2.2-2.9-3.5c-1-1.3-2.3-2.6-3.5-4c-1.3-1.4-2.6-2.9-4-4.4c-1.4-1.5-2.8-3-4.3-4.6
				c-1.5-1.6-3-3-4.6-4.6c-1.6-1.5-3.1-3-4.7-4.4c-0.8-0.7-1.6-1.4-2.4-2.1c-0.8-0.7-1.6-1.3-2.4-2c-1.5-1.3-3.1-2.5-4.6-3.6
				c-1.5-1-2.9-2.2-4.3-3c-1.4-0.9-2.6-1.8-3.8-2.4c-1.2-0.6-2.1-1.3-3.1-1.7C993.8,408.9,992.8,408.3,992.8,408.3z"/>
		</g>
		<g>
			<path class="st1" d="M871.1,324c-1.5-1.9-3-3.9-4.1-6.1c-1.2-2.2-2-4.5-2.8-6.9c-0.4-1.2-0.6-2.4-0.9-3.6
				c-0.2-1.2-0.5-2.4-0.7-3.7c-0.3-2.5-0.6-4.9-0.6-7.4c-0.1-5,0.3-9.9,1.3-14.8c0.9-4.9,2.5-9.7,4.5-14.3c0.5-1.1,1-2.3,1.6-3.4
				l1.8-3.3l2-3.2l2.2-3.1l2.4-2.9l2.7-2.8c0.9-0.9,1.9-1.7,2.9-2.6c1-0.8,2-1.6,3.1-2.3c2.1-1.5,4.3-2.8,6.6-3.9
				c2.3-1.1,4.7-2.1,7.2-2.9c1.2-0.4,2.5-0.7,3.7-1c1.3-0.3,2.5-0.6,3.8-0.7c2.6-0.4,5.1-0.5,7.7-0.6l-1.4,5.6l-4-1.8
				c-1.4-0.5-2.6-1.3-4.1-1.7l-4.2-1.3c-1.4-0.5-2.8-0.7-4.2-1c-1.4-0.2-2.8-0.6-4.3-0.7l-4.3-0.3c-1.4-0.2-2.9,0.1-4.3,0.1
				l-2.2,0.1c-0.7,0.1-1.4,0.2-2.1,0.3c-1.4,0.3-2.9,0.3-4.2,0.8c-1.4,0.4-2.8,0.7-4.2,1.1l-4.1,1.5l-3.9,1.8l-3.8,2.1
				c-1.2,0.8-2.5,1.5-3.6,2.4c-1.2,0.8-2.3,1.7-3.4,2.7c-1.1,0.9-2.2,1.9-3.1,2.8l-0.1,0.1c-1.3,1.3-3.5,1.3-4.8,0
				c-0.7-0.7-1.1-1.7-1-2.7c0.2-2.1,0.4-4.1,0.6-6.1c0.3-2,0.6-4,0.9-6c0.7-4,1.5-7.9,2.4-11.8c1.9-7.8,4.4-15.5,8-22.9
				c0.9-1.8,1.8-3.7,2.9-5.4c1-1.8,2.2-3.5,3.3-5.2c1.3-1.7,2.5-3.3,3.9-4.8c0.7-0.8,1.4-1.5,2.2-2.3c0.7-0.7,1.5-1.5,2.4-2.1
				c1.6-1.4,3.4-2.6,5.2-3.7l2.8-1.5c1-0.4,2-0.8,3-1.2c1-0.4,2.1-0.6,3.1-0.9c1-0.3,2.1-0.5,3.1-0.6c2.1-0.4,4.2-0.4,6.3-0.5
				l-0.6,5.1l-5.4-1.3l-2.7-0.7l-2.7-0.5c-1.8-0.3-3.7-0.7-5.5-0.9l-5.5-0.6c-1.8-0.2-3.7-0.1-5.5-0.2c-1.8-0.1-3.7,0.1-5.5,0.2
				c-1.8,0-3.6,0.4-5.4,0.7c-1.8,0.2-3.5,0.9-5.3,1.3c-0.9,0.2-1.7,0.6-2.6,0.9l-2.5,1.1c-1.6,0.9-3.2,1.8-4.7,2.8
				c-1.4,1.2-3,2.2-4.2,3.5l-2,2c-0.6,0.7-1.2,1.4-1.8,2.2c-1.2,1.4-2.2,3-3.2,4.6c-1.1,1.5-1.8,3.3-2.8,4.9
				c-0.9,1.7-1.6,3.4-2.5,5.1L822,207l1.7-5.4c0.7-1.8,1.3-3.6,2-5.3c0.8-1.7,1.5-3.5,2.5-5.2c0.9-1.7,1.8-3.4,3-4.9
				c0.6-0.8,1.1-1.6,1.7-2.4l1.9-2.2c1.2-1.5,2.8-2.7,4.2-4c1.5-1.2,3.2-2.3,4.8-3.3l2.6-1.3c0.9-0.5,1.8-0.9,2.7-1.2
				c1.9-0.6,3.7-1.4,5.6-1.8c1.9-0.4,3.8-0.9,5.8-1.1c1.9-0.2,3.9-0.5,5.8-0.5c1.9,0,3.9-0.1,5.8,0l5.8,0.4c1.9,0.2,3.8,0.5,5.7,0.8
				l2.9,0.4l2.8,0.6l5.7,1.2c1.4,0.3,2.3,1.6,2,3c-0.2,1.1-1.2,2-2.3,2.1l-0.3,0c-1.8,0.2-3.6,0.2-5.4,0.6c-0.9,0.1-1.8,0.3-2.6,0.6
				c-0.8,0.3-1.7,0.4-2.5,0.9c-0.8,0.4-1.7,0.7-2.5,1.1l-2.3,1.3c-1.5,1-3,2-4.3,3.2c-0.7,0.6-1.4,1.2-2,1.9c-0.6,0.6-1.3,1.3-1.9,2
				c-1.2,1.4-2.3,2.9-3.4,4.4c-1,1.6-2,3.1-2.9,4.8c-0.9,1.6-1.8,3.3-2.6,5c-3.2,6.9-5.5,14.2-7.3,21.7c-0.9,3.7-1.6,7.5-2.2,11.3
				c-0.3,1.9-0.6,3.8-0.8,5.7c-0.2,1.9-0.4,3.9-0.6,5.7l-5.9-2.5c1.3-1.3,2.4-2.4,3.7-3.4c1.2-1,2.5-2,3.9-3c1.3-1,2.7-1.8,4.1-2.7
				l4.2-2.3l4.4-2l4.6-1.7c1.6-0.5,3.1-0.8,4.7-1.3c1.6-0.5,3.2-0.6,4.8-0.9c0.8-0.1,1.6-0.3,2.4-0.3l2.4-0.1c1.6,0,3.3-0.3,4.9-0.1
				l4.9,0.4c1.6,0.1,3.2,0.6,4.8,0.9c1.6,0.3,3.2,0.6,4.7,1.2l4.6,1.5c1.6,0.4,2.9,1.3,4.4,1.9l4.3,2c1.5,0.7,2.1,2.4,1.4,3.9
				c-0.5,1-1.5,1.6-2.6,1.7l-0.2,0c-2.3,0.1-4.6,0.1-6.9,0.4c-1.2,0.1-2.3,0.3-3.4,0.5c-1.1,0.2-2.3,0.4-3.4,0.8
				c-2.2,0.6-4.4,1.4-6.5,2.3c-2.1,0.9-4.1,2.1-6.1,3.3c-0.9,0.7-1.9,1.3-2.8,2l-2.7,2.2l-2.5,2.4l-2.4,2.6l-2.2,2.8l-2,2.9l-1.8,3
				c-0.6,1-1.1,2.1-1.7,3.1c-1,2.1-2,4.3-2.8,6.5c-0.8,2.2-1.5,4.5-2.1,6.8c-1.2,4.6-1.9,9.4-2.1,14.2c-0.1,2.4,0,4.8,0.1,7.2
				c0.1,1.2,0.3,2.4,0.4,3.6c0.2,1.2,0.4,2.4,0.7,3.5c0.6,2.3,1.2,4.7,2.2,6.9C868.5,319.9,869.7,322,871.1,324z"/>
		</g>
	</g>
</g>
<g>
	<path class="st3" d="M461,534.4c-6.1,29.2-28.7,48-58.5,48c-29.8,0-54-24.2-54-54c0-29.8,13.5-61.5,61.5-52.5
		C471.6,487.4,467,505.9,461,534.4z"/>
	<path d="M426.5,484.9c-36,1.5-61.5,48-28.5,88.5C414.5,553.9,414.5,499.9,426.5,484.9z"/>
	<circle class="st4" cx="383" cy="510.4" r="16.5"/>
</g>
<g>
	<path class="st3" d="M915.2,534.4c6.1,29.2,28.7,48,58.5,48c29.8,0,54-24.2,54-54c0-29.8-13.5-61.5-61.5-52.5
		C904.6,487.4,909.2,505.9,915.2,534.4z"/>
	<path d="M949.7,484.9c36,1.5,61.5,48,28.5,88.5C961.7,553.9,961.7,499.9,949.7,484.9z"/>
	<circle class="st4" cx="993.2" cy="510.4" r="16.5"/>
</g>
</svg>
