<svg id="レイヤー_1" data-name="レイヤー 1" xmlns="http://www.w3.org/2000/svg" xmlns:xlink="http://www.w3.org/1999/xlink" viewBox="0 0 2081.52 1267.67">
  <defs>
    <clipPath id="clip-path">
      <rect width="2081.52" height="1267.67" fill="none"/>
    </clipPath>
  </defs>
  <title>pig–Animal, Mammalian, Pig; (6)</title>
  <path d="M203.33,1072.67s-82.36,38.21-26.47,103c60.22,69.7,267.81,8.8,267.81,8.8" fill="#f9ccce"/>
  <g clip-path="url(#clip-path)">
    <g>
      <path d="M285.54,1227.5c-48.82,0-96.14-9.5-122.43-39.93-19.85-23-27.39-46.37-22.42-69.42,8.48-39.37,50.26-59.78,55-62a18.18,18.18,0,0,1,15.34,33c-8.38,4-30.89,18.28-34.81,36.77-2.39,11.29,2.46,24,14.42,37.9,20.23,23.42,70.22,32.06,140.73,24.34,57.17-6.27,107.68-21,108.19-21.12a18.18,18.18,0,0,1,10.23,34.9C436.32,1205.88,359.21,1227.5,285.54,1227.5Zm1552.84-98.35c-5.25,0-9.7-.13-13.12-.29-19.83-.88-119.19-8.18-126.31-65.74a18.17,18.17,0,0,1,9.47-18.26,37.67,37.67,0,0,1,13-4.18,18.17,18.17,0,0,1,18.28,26.8c13.25,13.87,51.87,23.49,87.18,25.06a274.92,274.92,0,0,0,51.06-2.42,97.39,97.39,0,0,1-24.87-63.41c-.66-33.64,16.44-62.63,45.77-77.55,30.44-15.54,60.71-10.46,80.93,13.61,25.51,30.37,27.44,82.11,4.19,113a97.32,97.32,0,0,1-9.83,11.17c26-.33,55.24-6.89,77.47-25.55A18.18,18.18,0,1,1,2075,1089.2c-45.49,38.23-111.76,39.35-152.62,27.65C1891.49,1127.16,1858.86,1129.15,1838.38,1129.15ZM1933,976.61c-5.3,0-11.15,1.65-17.6,4.94-23.09,11.75-26.15,32.89-25.93,44.44.45,22.48,13.33,43.37,32.06,52l.52.23c13.57-5.93,25.08-13.9,32.91-24.31,13.1-17.4,11.65-50.32-3-67.73C1946.58,979.79,1940.3,976.61,1933,976.61Z" fill="#5f361b"/>
      <path d="M293.33,641.2S219.91,537.79,186.57,541.1,29.78,564.44,29.78,574.51-.29,754.61,36.36,748,160,664.54,160,664.54l90,53.38" fill="#f9ccce"/>
      <path d="M34.28,766.33a27.4,27.4,0,0,1-19.18-7.81C-3.24,741-4.68,694.87,9.77,588.38c.84-6.14,1.7-12.49,1.83-14.26.29-17,19.26-22.29,33.14-26.13,11.67-3.23,27.65-6.79,47.53-10.58,35.74-6.82,75.1-12.68,92.51-14.41,14-1.38,35.91,3.59,81.29,54.86,22.9,25.87,41.31,51.73,42.08,52.82a18.18,18.18,0,0,1-29.64,21.05c-34.11-48-77.17-92.12-90.35-92.53-35.34,3.52-117.22,17.87-141.27,26-.29,2.18-.64,4.82-1.08,8.07-12.35,91-10.5,123.62-7,135.18,25-9.16,77.29-49.41,109.16-77.54a18.18,18.18,0,0,1,21.3-2l90,53.37a18.18,18.18,0,1,1-18.54,31.28L162,686.87c-26.53,22.63-88.41,72.81-122.38,79A30.44,30.44,0,0,1,34.28,766.33Z" fill="#5f361b"/>
      <path d="M1260.07,19.13S896.46-.87,599.49,142.76C414.05,232.31,159.23,410.63,138.65,840.35c-180.14,306.75,137.7,426.38,568,353,0,0,903.59,5.89,974.2-29.42,25.45-12.69,269.08-137.66,233.11-631C1880.58,72.5,1376.87,9.13,1260.07,19.13Z" fill="#f9ccce"/>
      <path d="M475.45,1232.48c-51.14,0-99-3.53-142.56-10.63-110.79-18-191-58.94-232-118.28C40.35,1015.9,77.57,909.89,120.71,835c10-192.35,68-354.67,172.46-482.54,74.45-91.13,172.07-165.09,298.42-226.11C883.51-14.8,1232.09-.49,1259.8.91c90.17-7.25,326.84,23.39,492.76,165C1860.8,258.3,1921.21,381.33,1932.1,531.6c15.35,210.61-17,381.12-96.28,506.77-57,90.33-121.68,129.28-146.86,141.83-11.82,5.91-47.85,23.93-521.46,29.86-221.94,2.78-438.65,1.6-459.37,1.48C625.94,1225.48,547.43,1232.48,475.45,1232.48Zm739.76-1196c-104.86,0-378.32,11.68-607.8,122.67C485.93,217.79,392.35,288.57,321.33,375.5,221.08,498.18,165.73,654.88,156.81,841.22a18.2,18.2,0,0,1-2.49,8.34C98,945.44,90.1,1024,130.81,1082.91c35.23,51,107.13,86.64,207.92,103.06,101.42,16.51,227.59,12.87,364.86-10.54a16.85,16.85,0,0,1,3.18-.26c347.65,2.25,917.35-3.2,966-27.5,43.17-21.52,256.73-152.22,223.11-613.43C1885.67,394,1829.52,279.41,1729,193.58,1572.52,60.06,1342.54,30.31,1261.63,37.24a19.76,19.76,0,0,1-2.55,0C1258.34,37.24,1242.47,36.45,1215.21,36.45Z" fill="#5f361b"/>
    </g>
  </g>
  <path d="M916.82,659.42S843.59,556,810.06,559.35s-156.79,23.34-156.79,33.34-30.07,180.18,6.66,173.52S783.37,682.8,783.37,682.8l90.11,53.38" fill="#f9ccce"/>
  <path d="M657.84,784.59a27.41,27.41,0,0,1-19.21-7.83c-18.37-17.57-19.82-63.73-5.35-170.32.83-6.09,1.68-12.39,1.82-14.15.29-17,19.25-22.25,33.12-26.08,11.65-3.21,27.62-6.76,47.47-10.54,35.7-6.8,75.1-12.67,92.57-14.41,20.91-2.1,46,14.82,81.37,54.82,22.89,25.88,41.26,51.74,42,52.83a18.18,18.18,0,0,1-29.67,21c-34.07-48.08-77.11-92.15-90.3-92.48-35.39,3.54-117.24,17.87-141.31,26-.29,2.15-.64,4.75-1.07,7.92-12.37,91.16-10.49,123.84-7,135.39,25-9.13,77.19-49.4,109-77.54a18.18,18.18,0,0,1,21.31-2l90.1,53.39a18.18,18.18,0,1,1-18.53,31.28l-78.81-46.7c-26.49,22.66-88.2,72.81-122.23,79A29.53,29.53,0,0,1,657.84,784.59Z" fill="#5f361b"/>
  <path d="M369.36,1179.13s-115.34,48.4-143.52,3.35c-50-80,43.64-262.79,170.5-255.55,93.09,5.34,196.54,195.48,149.81,258.89C494.23,1256.29,369.36,1179.13,369.36,1179.13Z" fill="#f39a9e"/>
  <g clip-path="url(#clip-path)">
    <path d="M482,1233.72c-14.09,0-30.2-2.18-48.61-7.3-28.52-7.93-53.32-20.44-65.55-27.18a377.36,377.36,0,0,1-56.13,16.29c-51.11,10.21-85.2,2.34-101.3-23.41-27.31-43.67-20.38-113.41,17.66-177.68,41.34-69.85,104.61-109.32,169.29-105.66,62.66,3.6,122.41,72.68,153.83,139.55,29,61.66,32.55,117.1,9.58,148.28C547.22,1215,523.28,1233.72,482,1233.72ZM378.9,1163.66c.3.18,30,18.33,64.9,27.91,41.7,11.44,71.2,5.87,87.71-16.53,14.49-19.66,9.31-63.33-13.21-111.25-31.24-66.48-83-116.41-123-118.71-59.8-3.44-109.45,43.16-135.92,87.88-30.23,51.08-37.69,108.6-18.12,139.88,6.92,11.06,29.84,13.66,62.88,7.12,30.24-6,57.92-17.48,58.2-17.6a18.18,18.18,0,0,1,16.56,1.3Zm-9.54,15.47h0Z" fill="#5f361b"/>
  </g>
  <path d="M341.8,1085.9c-8.69,32.95-27.35,56.62-41.56,52.84s-18.8-33.35-10.11-66.51,27.34-56.61,41.52-52.83,18.84,33.52,10.11,66.5Z" fill="#5f361b"/>
  <path d="M400.23,1089.21c8.66,32.94,27.35,56.62,41.6,52.87s18.73-33.52,10-66.54-27.31-56.58-41.53-52.83-18.76,33.56-10.07,66.5Z" fill="#5f361b"/>
  <path d="M736.1,1090.37s-106,41.17-76.54,105.93,138.36,55.88,206,47,144.21-58.87,144.21-58.87" fill="#f9ccce"/>
  <g clip-path="url(#clip-path)">
    <path d="M786.63,1267.75c-56.39,0-119.93-11.85-143.62-63.92-8.46-18.61-9-38.12-1.53-56.43,8.22-20.18,25.76-38.84,52.15-55.46a232.36,232.36,0,0,1,35.89-18.51,18.18,18.18,0,0,1,13.18,33.89c-15.13,5.92-56.73,27.13-67.57,53.84-3.72,9.18-3.41,17.95,1,27.61,26.19,57.57,147.32,41.75,187.12,36.55,62.66-8.18,135.89-55.58,136.63-56.06a18.18,18.18,0,0,1,19.89,30.44c-3.27,2.13-80.84,52.41-151.81,61.68C849.19,1263.82,819.1,1267.75,786.63,1267.75Z" fill="#5f361b"/>
  </g>
  <path d="M948,1143.35s20.58,61.82,132.43,47.06" fill="#f9ccce"/>
  <g clip-path="url(#clip-path)">
    <path d="M1047.58,1210.87c-95,0-115.88-59-116.81-61.78l34.5-11.48-.11-.32c.73,1.94,19,47.48,112.91,35.09a18.18,18.18,0,0,1,4.76,36A270.24,270.24,0,0,1,1047.58,1210.87Z" fill="#5f361b"/>
  </g>
  <path d="M1313,1090.37s-105.78,41.17-76.69,105.93,138.18,55.88,206.06,47,144.21-58.87,144.21-58.87" fill="#f9ccce"/>
  <g clip-path="url(#clip-path)">
    <path d="M1363.27,1267.75c-56.51,0-120.14-11.87-143.56-64-8.35-18.6-8.81-38.09-1.32-56.37,8.26-20.17,25.8-38.82,52.15-55.44a232,232,0,0,1,35.85-18.51,18.18,18.18,0,0,1,13.18,33.89c-15.11,5.93-56.64,27.15-67.55,53.89-3.76,9.19-3.48,18,.86,27.64,25.82,57.47,147.23,41.66,187.13,36.47,62.85-8.18,135.86-55.57,136.59-56a18.18,18.18,0,0,1,19.93,30.41c-3.26,2.14-80.63,52.43-151.83,61.7C1425.92,1263.82,1395.77,1267.75,1363.27,1267.75Z" fill="#5f361b"/>
  </g>
  <path d="M1495.44,1149.21c44.15,32.36,97.12,35.3,176.61,8.83" fill="#f9ccce"/>
  <g clip-path="url(#clip-path)">
    <path d="M1579.24,1194c-36.44,0-67.12-10-94.55-30.09a18.18,18.18,0,1,1,21.5-29.32c39.17,28.71,87.06,30.57,160.11,6.24a18.18,18.18,0,0,1,11.5,34.5C1640.51,1187.71,1608.07,1194,1579.24,1194Z" fill="#5f361b"/>
  </g>
  <path d="M159.23,919.66s-5.89,52.94,38.25,55.92,53-47.27,53-47.27" fill="#f9ccce"/>
  <g clip-path="url(#clip-path)">
    <path d="M201.34,993.89c-1.66,0-3.35,0-5.09-.17-16.53-1.12-30.39-7.83-40.07-19.41-18.29-21.89-15.41-53.17-15-56.66a18.18,18.18,0,0,1,36.15,3.94c-.5,5-.3,21,6.83,29.48,2.08,2.45,5.85,5.78,14.57,6.37,26.63,1.79,33.2-28.88,33.86-32.38a18.18,18.18,0,0,1,35.79,6.4C264.48,953.58,245.51,993.89,201.34,993.89Z" fill="#5f361b"/>
  </g>
  <path d="M586,955s-5.92,53,38.22,55.89,53-47.09,53-47.09" fill="#f9ccce"/>
  <path d="M628,1029.16c-1.63,0-3.29-.06-5-.17-16.53-1.09-30.39-7.78-40.08-19.35-18.3-21.88-15.4-53.2-15-56.7a18.18,18.18,0,0,1,36.14,4c-.5,5-.32,21,6.82,29.47,2.06,2.44,5.82,5.76,14.52,6.33,26.7,1.8,33.24-28.74,33.89-32.22a18.18,18.18,0,0,1,35.79,6.44C691.21,989,672.22,1029.16,628,1029.16Z" fill="#5f361b"/>
</svg>
