<?xml version="1.0" encoding="iso-8859-1"?>
<!-- Uploaded to: SVG Repo, www.svgrepo.com, Generator: SVG Repo Mixer Tools -->
<svg height="800px" width="800px" version="1.1" id="Layer_1" xmlns="http://www.w3.org/2000/svg" xmlns:xlink="http://www.w3.org/1999/xlink" 
	 viewBox="0 0 512.001 512.001" xml:space="preserve">
<path style="fill:#7C665D;" d="M460.406,342.354c22.252-28.801,35.095-62.665,35.095-98.912
	c0-104.748-139.015-189.664-239.257-189.664S16.987,138.694,16.987,243.442c0,36.247,12.843,70.111,35.094,98.912H460.406z"/>
<path style="fill:#64555A;" d="M338.746,169.283c-24.751-24.751-41.251-33.001-82.502-33.001s-57.752,8.25-82.502,33.001
	s-82.502,24.751-82.502,90.753h165.005h165.005C421.249,194.033,363.497,194.033,338.746,169.283z"/>
<g>
	<ellipse style="fill:#464655;" cx="111.863" cy="165.16" rx="12.375" ry="20.626"/>
	<ellipse style="fill:#464655;" cx="396.497" cy="165.16" rx="12.375" ry="20.626"/>
</g>
<g>
	<path style="fill:#AC8A67;" d="M66.489,169.283c7.658-11.488,10.389-26.101,10.128-41.747
		c-35.433,32.057-59.63,72.244-59.63,115.908c0,28.329,7.934,55.162,21.983,79.299l44.019-13.206
		C66.489,276.536,33.488,218.784,66.489,169.283z"/>
	<path style="fill:#AC8A67;" d="M445.999,169.283c-7.658-11.488-10.389-26.101-10.128-41.747
		c35.433,32.057,59.63,72.244,59.63,115.908c0,28.329-7.934,55.162-21.983,79.299l-44.019-13.206
		C445.999,276.536,479,218.784,445.999,169.283z"/>
</g>
<path style="fill:#64555A;" d="M478.757,383.97c-5.861,17.626-59.585,74.252-222.757,74.252S39.104,401.596,33.244,383.97H478.757z"
	/>
<path style="fill:#74666B;" d="M256,408.722c0,0,214.025-1.511,247.507-33.001c28.876-27.157-23.719-89.721-41.251-107.253
	c-17.532-17.532-68.065-49.501-206.256-49.501s-188.724,31.97-206.256,49.501s-70.127,80.096-41.251,107.253
	C41.977,407.21,256,408.722,256,408.722z"/>
<g>
	<path style="fill:#64555A;" d="M239.502,367.473h-8.25c-4.56,0-8.25-3.69-8.25-8.25s3.69-8.25,8.25-8.25h8.25
		c4.56,0,8.25,3.69,8.25,8.25S244.062,367.473,239.502,367.473z"/>
	<path style="fill:#64555A;" d="M280.753,367.473h-8.25c-4.56,0-8.25-3.69-8.25-8.25s3.69-8.25,8.25-8.25h8.25
		c4.56,0,8.25,3.69,8.25,8.25S285.313,367.473,280.753,367.473z"/>
</g>
</svg>