<?xml version="1.0" encoding="utf-8"?>
<!-- Generator: Adobe Illustrator 24.0.3, SVG Export Plug-In . SVG Version: 6.00 Build 0)  -->
<!DOCTYPE svg PUBLIC "-//W3C//DTD SVG 1.1//EN" "http://www.w3.org/Graphics/SVG/1.1/DTD/svg11.dtd" [
	<!ENTITY ns_extend "http://ns.adobe.com/Extensibility/1.0/">
	<!ENTITY ns_ai "http://ns.adobe.com/AdobeIllustrator/10.0/">
	<!ENTITY ns_graphs "http://ns.adobe.com/Graphs/1.0/">
	<!ENTITY ns_vars "http://ns.adobe.com/Variables/1.0/">
	<!ENTITY ns_imrep "http://ns.adobe.com/ImageReplacement/1.0/">
	<!ENTITY ns_sfw "http://ns.adobe.com/SaveForWeb/1.0/">
	<!ENTITY ns_custom "http://ns.adobe.com/GenericCustomNamespace/1.0/">
	<!ENTITY ns_adobe_xpath "http://ns.adobe.com/XPath/1.0/">
]>
<svg version="1.1" id="レイヤー_2" xmlns:x="&ns_extend;" xmlns:i="&ns_ai;" xmlns:graph="&ns_graphs;"
	 xmlns="http://www.w3.org/2000/svg" xmlns:xlink="http://www.w3.org/1999/xlink" x="0px" y="0px" viewBox="0 0 85.2 48"
	 style="enable-background:new 0 0 85.2 48;" xml:space="preserve">
<style type="text/css">
	.st0{fill:none;}
	.st1{fill:#82817D;}
	.st2{fill:#4F4C5D;}
	.st3{fill:url(#SVGID_1_);}
	.st4{fill:#A9ACAC;}
	.st5{fill:#62606B;}
	.st6{fill:#4B4A53;}
	.st7{fill:#7F8389;}
	.st8{fill:url(#SVGID_2_);}
	.st9{fill:url(#SVGID_3_);}
	.st10{fill:url(#SVGID_4_);}
	.st11{fill:url(#SVGID_5_);}
	.st12{fill:url(#SVGID_6_);}
</style>
<metadata>
	<sfw  xmlns="&ns_sfw;">
		<slices></slices>
		<sliceSourceBounds  bottomLeftOrigin="true" height="48" width="85.2" x="580.1" y="261.2"></sliceSourceBounds>
	</sfw>
</metadata>
<pattern  x="-580.1" y="309.2" width="21.1" height="21.1" patternUnits="userSpaceOnUse" id="新規パターンスウォッチ_68" viewBox="0 -21.1 21.1 21.1" style="overflow:visible;">
	<g>
		<rect x="0" y="-21.1" class="st0" width="21.1" height="21.1"/>
		<rect x="6.2" y="-21.1" class="st1" width="0.8" height="21.1"/>
		<rect x="9.9" y="-21.1" class="st1" width="0.8" height="21.1"/>
		<rect x="13.6" y="-21.1" class="st1" width="0.8" height="21.1"/>
		<rect x="8.1" y="-21.1" class="st1" width="0.8" height="21.1"/>
		<rect x="12.7" y="-21.1" class="st1" width="0.8" height="21.1"/>
		<rect x="11.8" y="-21.1" class="st1" width="0.8" height="21.1"/>
		<rect x="10.8" y="-21.1" class="st1" width="0.8" height="21.1"/>
		<rect x="7.1" y="-21.1" class="st1" width="0.8" height="21.1"/>
		<rect x="0.7" y="-21.1" class="st1" width="0.8" height="21.1"/>
		<rect x="0" y="-21.1" class="st1" width="0.5" height="21.1"/>
		<rect x="1.6" y="-21.1" class="st1" width="0.8" height="21.1"/>
		<rect x="3.5" y="-21.1" class="st1" width="0.8" height="21.1"/>
		<rect x="4.4" y="-21.1" class="st1" width="0.8" height="21.1"/>
		<rect x="2.5" y="-21.1" class="st1" width="0.8" height="21.1"/>
		<rect x="5.3" y="-21.1" class="st1" width="0.8" height="21.1"/>
		<rect x="9" y="-21.1" class="st1" width="0.8" height="21.1"/>
		<rect x="15.4" y="-21.1" class="st1" width="0.8" height="21.1"/>
		<rect x="19.1" y="-21.1" class="st1" width="0.8" height="21.1"/>
		<rect x="20" y="-21.1" class="st1" width="0.8" height="21.1"/>
		<rect x="18.2" y="-21.1" class="st1" width="0.8" height="21.1"/>
		<rect x="14.5" y="-21.1" class="st1" width="0.8" height="21.1"/>
		<rect x="21" y="-21.1" class="st1" width="0.1" height="21.1"/>
		<rect x="16.4" y="-21.1" class="st1" width="0.8" height="21.1"/>
		<rect x="17.3" y="-21.1" class="st1" width="0.8" height="21.1"/>
		<rect x="0.5" y="-21.1" class="st2" width="0.2" height="21.1"/>
		<rect x="1.4" y="-21.1" class="st2" width="0.2" height="21.1"/>
		<rect x="2.4" y="-21.1" class="st2" width="0.2" height="21.1"/>
		<rect x="3.3" y="-21.1" class="st2" width="0.2" height="21.1"/>
		<rect x="4.2" y="-21.1" class="st2" width="0.2" height="21.1"/>
		<rect x="5.1" y="-21.1" class="st2" width="0.2" height="21.1"/>
		<rect x="6.1" y="-21.1" class="st2" width="0.2" height="21.1"/>
		<rect x="7" y="-21.1" class="st2" width="0.2" height="21.1"/>
		<rect x="7.9" y="-21.1" class="st2" width="0.2" height="21.1"/>
		<rect x="8.8" y="-21.1" class="st2" width="0.2" height="21.1"/>
		<rect x="9.7" y="-21.1" class="st2" width="0.2" height="21.1"/>
		<rect x="10.7" y="-21.1" class="st2" width="0.2" height="21.1"/>
		<rect x="11.6" y="-21.1" class="st2" width="0.2" height="21.1"/>
		<rect x="12.5" y="-21.1" class="st2" width="0.2" height="21.1"/>
		<rect x="13.4" y="-21.1" class="st2" width="0.2" height="21.1"/>
		<rect x="14.3" y="-21.1" class="st2" width="0.2" height="21.1"/>
		<rect x="15.3" y="-21.1" class="st2" width="0.2" height="21.1"/>
		<rect x="16.2" y="-21.1" class="st2" width="0.2" height="21.1"/>
		<rect x="17.1" y="-21.1" class="st2" width="0.2" height="21.1"/>
		<rect x="18" y="-21.1" class="st2" width="0.2" height="21.1"/>
		<rect x="19" y="-21.1" class="st2" width="0.2" height="21.1"/>
		<rect x="19.9" y="-21.1" class="st2" width="0.2" height="21.1"/>
		<rect x="20.8" y="-21.1" class="st2" width="0.2" height="21.1"/>
	</g>
</pattern>
<g>
	
		<pattern  id="SVGID_1_" xlink:href="#Êñ∞Ë¶è„Éë„Çø„Éº„É≥„Çπ„Ç¶„Ç©„ÉÉ„ÉÅ_68" patternTransform="matrix(1.058 0 0 1.058 386.4397 509.4348)">
	</pattern>
	<path class="st3" d="M62.6,14.8c0,0,13.1,8.5,22.6,3.4c0,0-1.1,4.3-10.3,6.7c-7.2,1.9-11.1-0.5-11.1-0.5L62.6,14.8z"/>
	<path class="st4" d="M58.5,19c0,0,13.1,8.5,22.6,3.4c0,0-1.1,4.3-10.3,6.7c-7.2,1.9-11.1-0.5-11.1-0.5L58.5,19z"/>
	<g>
		<path class="st5" d="M15.6,32.9c0,0-1.9-2.8,1.5-6.2c3.8-3.8,8.2-2.5,8.7,1.5c0.9,8.4-5.9,16.4-10.8,15.8c-4.3-0.5-3.4-4-0.9-5.9
			C17.5,35.5,15.6,32.9,15.6,32.9z"/>
		<path class="st6" d="M2.6,32.9c0,0,0-9.3,2.5-8.4C10.9,26.7,2.6,32.9,2.6,32.9z"/>
		<path class="st7" d="M10.6,20.2c0,0-8.4,11.4-9.9,15.5c-1.5,4,1.5,9.6,7.1,8c5.6-1.5,5.9-5.6,14.8-6.5c9-0.9,31.5,7.7,42.1,1.5
			c10.5-6.2,8-31.2-9-34C34.1,1.2,23.3,5.4,10.6,20.2z"/>
		<path class="st6" d="M13.7,27.6c0,0,0-4.3,3.7-4c0,0,2.5,1.9,0.6,7.1C18,30.7,17.1,26.7,13.7,27.6z"/>
		<path class="st7" d="M25.1,36.3c0,0-1.9-2.8,1.5-6.2c3.8-3.8,8.2-2.5,8.7,1.5C36.3,40,29.5,48,24.5,47.4c-4.3-0.5-3.4-4-0.9-5.9
			C27.1,38.9,25.1,36.3,25.1,36.3z"/>
		<path class="st7" d="M56.2,36.9c0,0-1.9-2.8,1.5-6.2c3.8-3.8,9.2-3.2,11.1,0.4c2.1,3.9-8.4,17.6-13.3,17c-4.3-0.5-3.4-4-0.9-5.9
			C58.2,39.5,56.2,36.9,56.2,36.9z"/>
		<path class="st6" d="M14.4,33.7c0,1-0.6,1.7-1.3,1.7c-0.7,0-1.3-0.8-1.3-1.7c0-1,0.6-1.7,1.3-1.7C13.8,31.9,14.4,32.7,14.4,33.7z"
			/>
		<path class="st6" d="M0.7,40.8c0,0-2.2-3.5,1.1-3.5c3.2,0,5.2-0.6,3.9,2.8C4.4,43.2,2.1,44.1,0.7,40.8z"/>
		
			<pattern  id="SVGID_2_" xlink:href="#Êñ∞Ë¶è„Éë„Çø„Éº„É≥„Çπ„Ç¶„Ç©„ÉÉ„ÉÅ_68" patternTransform="matrix(1.058 0 0 1.058 386.4397 509.4348)">
		</pattern>
		<path class="st8" d="M35.5,4.1c0,0,17.5-5.5,31.8-1.2c0,0-14.9,1.2-22.6,5.6C44.7,8.5,39,4,35.5,4.1z"/>
		<path class="st4" d="M27.1,6.9c0,0,14.2-8.7,29-6.6c0,0-14.5,3.5-21.5,9C34.6,9.3,30.6,6.3,27.1,6.9z"/>
		
			<pattern  id="SVGID_3_" xlink:href="#Êñ∞Ë¶è„Éë„Çø„Éº„É≥„Çπ„Ç¶„Ç©„ÉÉ„ÉÅ_68" patternTransform="matrix(1.058 0 0 1.058 386.4397 509.4348)">
		</pattern>
		<path class="st9" d="M44,6.9c0,0,17.6-5.5,31.8-0.6c0,0-13.3,1.7-22.8,5.4C53.1,11.7,47.5,6.8,44,6.9z"/>
		<path class="st4" d="M31.8,8c0,0,16.8-7.2,31.5-4.4c0,0-14.7,2.7-22,7.8C41.4,11.4,35.3,7.5,31.8,8z"/>
		
			<pattern  id="SVGID_4_" xlink:href="#Êñ∞Ë¶è„Éë„Çø„Éº„É≥„Çπ„Ç¶„Ç©„ÉÉ„ÉÅ_68" patternTransform="matrix(1.058 0 0 1.058 386.4397 509.4348)">
		</pattern>
		<path class="st10" d="M50.2,10.5c0,0,14.4-4.6,30.7,0.7c0,0-8.3,1.1-23.7,4.3C57.3,15.5,53.7,10.7,50.2,10.5z"/>
		<path class="st4" d="M37.6,8.8c0,0,16.2-6.2,32.6-0.9c0,0-10.2,2.7-25.5,5.9C44.7,13.9,41.1,9,37.6,8.8z"/>
		
			<pattern  id="SVGID_5_" xlink:href="#Êñ∞Ë¶è„Éë„Çø„Éº„É≥„Çπ„Ç¶„Ç©„ÉÉ„ÉÅ_68" patternTransform="matrix(1.058 0 0 1.058 386.4397 509.4348)">
		</pattern>
		<path class="st11" d="M46.3,16.1c0,0,20-5.2,34.1-0.2c0,0-12.8,5.9-31.2,2.5C49.2,18.5,49.8,16.2,46.3,16.1z"/>
		<path class="st4" d="M39.9,14.1c0,0,21-5.3,35.1-0.3c0,0-13.8,6.1-32.1,2.7C42.8,16.4,43.4,14.1,39.9,14.1z"/>
		
			<pattern  id="SVGID_6_" xlink:href="#Êñ∞Ë¶è„Éë„Çø„Éº„É≥„Çπ„Ç¶„Ç©„ÉÉ„ÉÅ_68" patternTransform="matrix(1.058 0 0 1.058 386.4397 509.4348)">
		</pattern>
		<path class="st12" d="M49.4,14.1c8.4-2.2,13.8-3.9,13.8-3.9c-7.7-2.4-16.1-1.5-22.3-0.1c6.6-3,14.6-4.4,14.6-4.4
			c-6.6-0.8-14.4,0-20,1.6c5.5-3.9,11.2-6.8,11.2-6.8c-14.7-0.3-28,11.8-28,11.8c4.7-2.7,5.9-2.5,9-1.9c6.5,2.5,4.6,9.9,4.6,9.9
			c22.3,3.4,35.3-4,35.3-4C62,14.2,55.4,13.9,49.4,14.1z"/>
	</g>
</g>
</svg>
