<?xml version="1.0" encoding="utf-8"?>
<!-- Generator: Adobe Illustrator 24.0.3, SVG Export Plug-In . SVG Version: 6.00 Build 0)  -->
<!DOCTYPE svg PUBLIC "-//W3C//DTD SVG 1.1//EN" "http://www.w3.org/Graphics/SVG/1.1/DTD/svg11.dtd" [
	<!ENTITY ns_extend "http://ns.adobe.com/Extensibility/1.0/">
	<!ENTITY ns_ai "http://ns.adobe.com/AdobeIllustrator/10.0/">
	<!ENTITY ns_graphs "http://ns.adobe.com/Graphs/1.0/">
	<!ENTITY ns_vars "http://ns.adobe.com/Variables/1.0/">
	<!ENTITY ns_imrep "http://ns.adobe.com/ImageReplacement/1.0/">
	<!ENTITY ns_sfw "http://ns.adobe.com/SaveForWeb/1.0/">
	<!ENTITY ns_custom "http://ns.adobe.com/GenericCustomNamespace/1.0/">
	<!ENTITY ns_adobe_xpath "http://ns.adobe.com/XPath/1.0/">
]>
<svg version="1.1" id="Layer_1" xmlns:x="&ns_extend;" xmlns:i="&ns_ai;" xmlns:graph="&ns_graphs;"
	 xmlns="http://www.w3.org/2000/svg" xmlns:xlink="http://www.w3.org/1999/xlink" x="0px" y="0px" viewBox="0 0 37.5 37.5"
	 style="enable-background:new 0 0 37.5 37.5;" xml:space="preserve">
<style type="text/css">
	.st0{fill:#FFFFFF;}
</style>
<metadata>
	<sfw  xmlns="&ns_sfw;">
		<slices></slices>
		<sliceSourceBounds  bottomLeftOrigin="true" height="37.5" width="37.5" x="3.5" y="2"></sliceSourceBounds>
	</sfw>
</metadata>
<path class="st0" d="M19.4,2l3.9,11.8c0.1,0.2,0.2,0.4,0.4,0.4l11.8,3.9c0.6,0.2,0.6,1.1,0,1.3l-11.8,3.9c-0.2,0.1-0.4,0.2-0.4,0.4
	l-3.9,11.8c-0.2,0.6-1.1,0.6-1.3,0l-3.9-11.8c-0.1-0.2-0.2-0.4-0.4-0.4L2,19.4c-0.6-0.2-0.6-1.1,0-1.3l11.8-3.9
	c0.2-0.1,0.4-0.2,0.4-0.4L18.1,2C18.4,1.4,19.2,1.4,19.4,2z"/>
<path d="M18.8,37.5c-0.9,0-1.8-0.6-2.1-1.5L13,24.6L1.5,20.9C0.6,20.6,0,19.8,0,18.8c0-0.9,0.6-1.8,1.5-2.1L12.9,13l3.8-11.5
	C17,0.6,17.8,0,18.8,0s1.8,0.6,2.1,1.5l3.7,11.4L36,16.6c0.9,0.3,1.5,1.1,1.5,2.1c0,0.9-0.6,1.8-1.5,2.1l-11.4,3.7l-3.7,11.4
	C20.6,36.9,19.7,37.5,18.8,37.5z M4.9,18.8l9.4,3.1c0.7,0.2,1.2,0.7,1.4,1.4l3.1,9.4l3.1-9.4c0.2-0.7,0.7-1.2,1.4-1.4l9.4-3.1
	l-9.4-3.1c-0.7-0.2-1.2-0.7-1.4-1.4l-3.1-9.4l-3.1,9.4c-0.2,0.7-0.7,1.2-1.4,1.4C14.3,15.7,4.9,18.8,4.9,18.8z"/>
</svg>
