<svg id="GraphicMama" xmlns="http://www.w3.org/2000/svg" viewBox="0 0 545.41 326.89">
  <defs>
    <style>
      .cls-1 {
        fill: #8c8f9b;
      }

      .cls-2 {
        fill: #b0bcc1;
      }

      .cls-3 {
        opacity: 0.7;
      }

      .cls-4 {
        fill: #73767f;
      }

      .cls-5 {
        fill: #1d1d1b;
        opacity: 0.1;
      }

      .cls-6 {
        fill: #6e7577;
      }

      .cls-7 {
        fill: #343435;
      }

      .cls-8 {
        fill: #575756;
      }

      .cls-9 {
        fill: #3c3c3b;
      }

      .cls-10 {
        fill: #00041c;
      }

      .cls-11 {
        fill: #f6f6f6;
      }

      .cls-12 {
        fill: #696b72;
      }

      .cls-13 {
        fill: #484849;
      }
    </style>
  </defs>
  <title>Seal with ball copy</title>
  <g id="seal_1" data-name="seal 1">
    <path class="cls-1" d="M440.14,295.1c-19.63,10.13-43.27,16.25-70.14,18.81-32.5,2.66-75.93,6.37-109.23,5.46-29.31,10.5-63.83,10.32-100.87-2.52-2.43-1.19-3.32-2.8-3-4.82-59.1-7.14-80-66.47-102.59-139-22.81-36.7-78-31.24-43-143.27,21.47,41.85,33.11,28,52.75,41.09a10,10,0,0,0,11.07,0l45.67-30.15c-8.22,42.19,6.08,68-11.77,89.71a7,7,0,0,0,.75,9.59c36.93,33.19,122.88,34.22,139.49,9.94,34-52.26,11.14-122.83,141.14-129C484.35,14,490.13,68.17,501.27,148.2c4.49,35,1.79,63.77-7,87.07,5.24,21.93,21.42,43.85,42.92,47.86a10,10,0,0,1,8.12,8.13C548.74,313.58,472.53,315.62,440.14,295.1Z"/>
    <g>
      <path class="cls-2" d="M497.61,168.18c0-16-22-29-49.17-29-22.79,0-41.95,9.13-47.53,21.52-5.57-12.39-24.73-21.52-47.52-21.52-27.16,0-49.17,13-49.17,29a17.63,17.63,0,0,0,1,5.89C312.72,218,336,237,322.11,271.38l-45,40.74c21.9,8.17,92.88,1.79,137.59-8.81C473,290.13,515.76,208.17,497.61,168.18Z"/>
      <path class="cls-2" d="M212.77,255.71a3.64,3.64,0,0,0-1.38-.16c-24.09,1.22-48.2-5.26-70.87-12.8-21.09-7-41.67-16.86-57.56-32.73a92.39,92.39,0,0,1-10.88-13c-1.66-2.42-3.23-4.93-4.65-7.51-1.53-2.77-3.38-5.24-4.68-8.15-.09-.22-.64-.18-.57.1.38,1.45.67,3,1,4.45a.22.22,0,0,0-.16.15c-.66,3.63.72,7.5,1.57,11a74.62,74.62,0,0,0,3.19,9.9q4.18,10.59,9.26,20.79c3.3,6.64,6.82,13.19,10.62,19.56,2.71,4.53,5.56,9.49,9.3,13.4A119.18,119.18,0,0,0,122.1,288a75.55,75.55,0,0,0,11.08,9.41c6,4.09,12.72,8.26,19.8,10,6.64,1.63,13.61.25,17.92-5.32,2.33-3,4.45-6.22,6.52-9.4l1.16-1.78a86.91,86.91,0,0,1,12.48-10.19c7-4.76,14.39-9.22,20.29-15.33a19.34,19.34,0,0,0,4.67-4C218.69,258.07,216.73,254.25,212.77,255.71Z"/>
    </g>
    <g class="cls-3">
      <path class="cls-4" d="M149.89,169.05c.74-1.31,0-2.52-1.17-3.46a73.26,73.26,0,0,0-13.54-8.8c-3.8-1.82-11.23-5.39-14.5-.79a2.24,2.24,0,0,0,0,3.11c.59.65,1.22,1.26,1.86,1.85,1.32,3.62,7.52,7,10.08,8.1,4.57,2,12.15,5.13,16.39,1.06A2.89,2.89,0,0,0,149.89,169.05Z"/>
      <path class="cls-4" d="M158.72,183.28a13.93,13.93,0,0,0-12.06-1.69,3.64,3.64,0,0,0-2.66,2.84c0,.06,0,.11,0,.16-.52,3,4.38,5.41,6.61,6.31,3.22,1.29,8.09,2.3,11.17.2C165.59,188.49,161.09,184.86,158.72,183.28Z"/>
      <path class="cls-4" d="M197.77,175.49c-2.77-3.18-8-5.35-11.91-6.7-4.21-1.46-9-2.72-13.5-1.84a12.86,12.86,0,0,0-2.28.69c-1,0-1.55,0-.35.14l0,0c-3.14-.18-8.46.95-7.24,5,1.39,4.65,8,8,12.24,9.45A36.89,36.89,0,0,0,181.9,184c1,.18,2.07.33,3.11.41a20.17,20.17,0,0,0,8.67-.59C197.29,182.66,201,179.22,197.77,175.49Z"/>
      <path class="cls-4" d="M299.72,114.85c-2.07-4.33-8.4-4.92-12.49-4.09-6.29,1.28-11.09,7.18-13.13,13a24.07,24.07,0,0,0-1.5,6.7c-.66,2.95-.48,6,1.44,8.34,4.4,5.43,14.07,5.12,18.47-.08,3.77-4.44,5.73-10.44,7.24-16C300.45,120.21,300.91,117.35,299.72,114.85Z"/>
      <path class="cls-4" d="M287.05,155.16c-.88-2-3.47-3.08-5.48-3.41a11.41,11.41,0,0,0-7.71,1.23,5,5,0,0,0-2.46,3.7,3.9,3.9,0,0,0,.76,2.76l-.38-.56c.46.71.91,1.41,1.39,2.11a4.08,4.08,0,0,0,2.44,1.39,6.17,6.17,0,0,0,4.13,0,3.38,3.38,0,0,0,.52-.22l-.44.11c.54-.24,1.23-.28,1.78-.46a13.26,13.26,0,0,0,2.49-1.12C286.07,159.64,288.11,157.59,287.05,155.16Z"/>
      <path class="cls-4" d="M297,174.05a9.46,9.46,0,0,0-5.91-5.46,16.16,16.16,0,0,0-19.81,6.9,10,10,0,0,0-1.44,4.82,8.79,8.79,0,0,0,.93,6.75c3.12,5.64,11.2,6.45,16.69,4.36,4.68-1.79,7.6-5.88,8.91-10.59C296.94,178.66,297.72,176.28,297,174.05Z"/>
      <path class="cls-4" d="M254.66,173.89c-2.29-5.38-10.32-4.87-14.93-3.51-3.64,1.08-7.6,4-6.69,8.27.53,2.52,3.23,4,5.58,4.41a9.91,9.91,0,0,0,1.11.13,11.41,11.41,0,0,0,3.87.36,14.51,14.51,0,0,0,6.23-2c1.67-1,2.71-2.46,4-3.74A3.68,3.68,0,0,0,254.66,173.89Z"/>
      <path class="cls-4" d="M263.78,140.17c-1.49-.92-4.47-1.07-5.7.46-1.78,2.21-1.89,5.92-2.05,8.67a10.92,10.92,0,0,1-.84,3.95c-.24.56-.63,1-.9,1.53-.43.84-1.39.74.25.44-2.18.4-5.44,1.92-4.82,4.66s4.17,3.48,6.61,3.68a11.66,11.66,0,0,0,12.58-10C269.7,148.89,268.05,142.78,263.78,140.17Z"/>
      <path class="cls-4" d="M218.88,193.18a29.75,29.75,0,0,0-16.57,1.29c-3.75,1.37-11.87,4.72-11.72,9.59a5.15,5.15,0,0,0,.09.8,4.79,4.79,0,0,0-.27,1.1c-.6,4.78,4.62,7.74,8.62,8.56a24.84,24.84,0,0,0,16.23-2.64c3.56-1.84,8-4.74,10.4-7.95C230,198.26,224.11,194.38,218.88,193.18Z"/>
      <path class="cls-4" d="M100,156.36a3.59,3.59,0,0,0-.63-.66,14.77,14.77,0,0,0-4-4.82,3.46,3.46,0,0,0-.74-.95l0,0a4,4,0,0,0-1.42-.93,6,6,0,0,0-4.85.4,3.58,3.58,0,0,0-2.15,3.68,7.74,7.74,0,0,0,1.06,3.42c1.89,3.09,4.88,4.38,8.42,4.61C98.25,161.29,102.07,159.24,100,156.36Z"/>
      <path class="cls-4" d="M89.7,123.47c-.13-1.52-1.55-2.5-2.87-3a8.38,8.38,0,0,0-5.86,0c-1.51.61-2.94,1.47-3.31,3.18a2.65,2.65,0,0,0,.67,2.38,4.14,4.14,0,0,0,.16,1.35c.61,2.55,3.43,3.61,5.81,3.6,2.64,0,5.53-1.25,5.88-4.12A8.26,8.26,0,0,0,89.7,123.47Z"/>
      <path class="cls-4" d="M110.06,177.54a14.08,14.08,0,0,0-8-4c-2.32-.33-6.63.44-5.82,3.68a9.37,9.37,0,0,0,2.69,4.8,11.14,11.14,0,0,0,2,1.37,4.27,4.27,0,0,0,.89.92c2.68,2.08,7.68,3.16,10.19.26C113.82,182.39,111.71,179.21,110.06,177.54Z"/>
      <path class="cls-4" d="M132,197.78a10.57,10.57,0,0,0-.35-1,1,1,0,0,0-.15-1.2,8.14,8.14,0,0,0-3.34-2.67c-.18-.1-.36-.22-.55-.31-.7-.36-1.5-.49-2.19-.86-1.14-.6-3.89-.74-4.06,1.06s1.45,3.44,3,4.29a7.94,7.94,0,0,0,1.53.66,3.7,3.7,0,0,0,.5.35,7.4,7.4,0,0,0,4.2.9C131.28,198.9,132.26,198.65,132,197.78Z"/>
      <path class="cls-4" d="M169.91,206.26a39.74,39.74,0,0,0-5.44-2.77c-1.7-.61-3.5-.87-5.22-1.42s-7.63-.19-6.15,3a9.11,9.11,0,0,0,.81,1.42c-.83,2.53,2.65,4.85,5,5.44,3.54.87,10.19.66,12-3.15A2,2,0,0,0,169.91,206.26Z"/>
      <path class="cls-4" d="M267.66,206.11c-.14-2.58-2-4.2-4.34-5.1l-.25-.09-.05,0-.63-.2a13.93,13.93,0,0,0-9.25.31,19,19,0,0,0-3.78,1.46c-2.31,1.22-4.63,3.22-4.77,6a11.53,11.53,0,0,0-.62,1.7c-.91,3.44,2.15,5.69,5.16,6.39l.15.06c3.06,1.13,6.31.38,9.14-1C261.63,214.06,267.9,210.35,267.66,206.11Z"/>
      <path class="cls-4" d="M304.89,63.44c-.93-.7-5.58-3.45-6.82-2.07-.4.45-.81.87-1.19,1.29a10.34,10.34,0,0,0-2.54.38c-4.49,1.36-6.83,6.08-8.44,10.19s-2,8.26-2.66,12.49c-.4,2.41,3.32,3.86,5,4.17A14.37,14.37,0,0,0,302.1,85c2.84-3.2,5.07-6.79,5.76-11C308.45,70.23,308.07,65.87,304.89,63.44Z"/>
      <path class="cls-4" d="M311.1,91.67c-.18-.72-1.21-1-1.8-1.14a5.59,5.59,0,0,0-6.1,3.1c-1.51,1.05-2.17,3-2.48,4.91a4.08,4.08,0,0,0,4.07,4.89c3.07.17,5-2.07,6.11-4.69A10.48,10.48,0,0,0,311.1,91.67Z"/>
      <path class="cls-4" d="M101,100.54c0-.06,0-.17-.07-.35q-.2-.75.06,0c.21-1.23-1.21-2.22-2.12-2.66a8,8,0,0,0-4.69-.61c-1.7.23-4.08,1.14-4.8,2.87a2.93,2.93,0,0,0-.2,1.48,3.76,3.76,0,0,0,.69,4.1A5.92,5.92,0,0,0,92.63,107a.22.22,0,0,0,.05.08,1.54,1.54,0,0,0,1.58.26l.13-.06a6.44,6.44,0,0,0,5.17-2,6.74,6.74,0,0,0,1.32-2.46,5.65,5.65,0,0,0,.27-1.53C101.15,101.17,101.07,100.78,101,100.54Z"/>
      <path class="cls-4" d="M109.26,112.93c-1.3-3.13-5.41-4.17-8.44-3-3.21,1.22-3.89,4.5-4.4,7.56A21.1,21.1,0,0,0,97.63,128c1.05,3,7.47,3.11,9.19.76a10.82,10.82,0,0,0,2.32-8.72,3.6,3.6,0,0,0,.87-2.26A11.28,11.28,0,0,0,109.26,112.93Z"/>
      <path class="cls-4" d="M296.05,210.41c-3.07-2.14-7.21-2.56-10.79-1.95-2.75.46-6.86,2.09-7.66,5.12a8.13,8.13,0,0,0-3.2,4.28c-1.51,5,3.07,8.54,7.56,9.32s9.92-.13,13.29-3.56c2.46-2.5,3-6,3.35-9.34C298.74,212.66,297.21,211.21,296.05,210.41Z"/>
      <path class="cls-4" d="M72.21,138.07a5.57,5.57,0,0,0-4.93-2.49c-2-.05-5,.76-5.9,2.75-1.12,2.47.35,4.78,2.38,6.12a4.81,4.81,0,0,0,1.16.51,5.14,5.14,0,0,0,2.41,2.35c1.11.56,3.35.91,4.24-.34a7.07,7.07,0,0,0,1.34-4.64C72.89,140.81,73,139.45,72.21,138.07Z"/>
      <path class="cls-4" d="M61.5,99.69c-1.44-1.91-5.27-2-7.23-1.2s-4,2.12-4.67,4.29a4.53,4.53,0,0,0,.94,4.7c-.34,2.3,1.42,4.37,3.15,5.62s6.22,1.37,7.76-.64A10.17,10.17,0,0,0,61.5,99.69Z"/>
    </g>
    <path class="cls-5" d="M540.23,290.27a5,5,0,0,0-5-.83c-2.07.76-3.31,2.21-5.13,3.3a12.07,12.07,0,0,1-4.33,1.52,84.52,84.52,0,0,1-15.31,1.42c-8.93,0-18.18-2.63-23.72-10.12a23,23,0,0,1-3.53-7.23c-.09-.81-.16-1.62-.19-2.44s0-1.6,0-2.4a50.11,50.11,0,0,1,2.38-7.13c.39-1,.8-1.9,1.22-2.84,1-1.72,1.8-3.6,2.62-5.42,1.06-2.36,2-4.75,2.87-7.2a14,14,0,0,0,.39-8c-.14-.77-1.55-.92-2-.34l0,.05c.05-2.76,0-5.55.05-8.3.06-1.7.09-3.39.12-5.09,4.09-7.1,7.54-13.68,8.34-16.92,2.16-8.78,1.46-14.83-.21-27.09-30.28,42.25-97.82,96.55-183.61,88.29-10.71,17.11-33.11,32.86-38.42,36.13-4,2.49.76,5.93,3.77,5.75,20.69-1.24,41.37-1.25,62-3.23,7.69-.73,38-4.11,43.06-4.95a135,135,0,0,0,28.23-8,169.41,169.41,0,0,0,28-14.48c.15.2.29.4.45.59a29.6,29.6,0,0,0,8.75,7.17,119.13,119.13,0,0,0,24.27,10.35c8.41,2.59,16.91,3.21,25.65,3.32a116.15,116.15,0,0,0,12.51-.58c3.93-.37,7.81-.77,11.49-2.22a33.79,33.79,0,0,0,10.88-3.23C538.87,298.47,544,293.73,540.23,290.27ZM218.51,233.21a3.52,3.52,0,0,0-4.07-.33c-2.29,1.56-3.21,4-4.44,6.42-1.4,2.72-2.53,5.57-4,8.26a69.67,69.67,0,0,1-8,12,92.21,92.21,0,0,1-9.5,9.56,92.84,92.84,0,0,1-13.6-1.55c-10.52-2-20.64-5.61-30.44-9.84-17.58-7.6-35.25-15.67-50.68-27.17q-2.36-1.77-4.6-3.66a137.09,137.09,0,0,1-10.92-14l-.64-.93c-.36-.89-.71-1.78-1.05-2.68-1.12-2.91-2.18-5.87-3.06-8.86a101.28,101.28,0,0,1-2.18-11.6c-1.12-6.48-1.71-13.1-3.5-19.44A56.84,56.84,0,0,0,59.49,152a67.37,67.37,0,0,0-11.37-11.9C44.66,135,40.85,130.12,37.67,125c-.57-.93-1.12-1.87-1.67-2.82a114.2,114.2,0,0,1-4.4-12.44,175.4,175.4,0,0,1-4.4-21.9c-.51-3.22-.92-6.51-1.53-9.72.06-6.21.19-12.5-1.36-18.47-.47-1.81-1.2-3.42-1.58-5.27a20,20,0,0,0-1.67-5.28c-.37-.7-2.1-3.14-3.51-3.47-.09-.39-.18-.8-.26-1.24-.22-1.26-2.52-1.5-3.25-.56-1.1,1.43-2.6,2.62-3.52,4.15a35.5,35.5,0,0,0-2.08,5.24,65.11,65.11,0,0,0-3.68,11.7A82.86,82.86,0,0,0,3.59,87.75a71.75,71.75,0,0,0,15.33,38c7.59,9.42,17.83,16.17,26.33,24.68,4.5,4.51,8.74,9,11.31,14.91,2.81,6.44,4.35,13.44,6.1,20.22.32,1.23.66,2.45,1,3.67.82,4.59,1.46,9.28,2.61,13.77A144.18,144.18,0,0,0,71.8,220.2c.28.71.56,1.42.85,2.12a61.1,61.1,0,0,0,3,7.45c1.31,2.77,2.73,5.49,4.22,8.16.81,2,1.64,4,2.51,6a115.39,115.39,0,0,0,14.32,24.6c11.12,14.21,26,26.49,43.39,32.09,5.49,1.78,16,7.85,21.74,8.22,3.82.24,29.31-25.5,39.17-35.73a87.75,87.75,0,0,0,7.95-8.2c3.63-4.29,7.13-9.1,9.26-14.33C220.07,245.88,223.13,237.21,218.51,233.21Zm168.17-65.6a15.31,15.31,0,0,0,8.85,3.43c3.14.25,8.56.41,10.6-2.51a1.94,1.94,0,0,0-1.28-3.08c-4.38-1.18-9.44,1.41-13.21-1.93s-2.19-9.6-5.73-13.15a.55.55,0,0,0-.72,0c-2.61,2.27-2.61,6-2.34,9.22A11.34,11.34,0,0,0,386.68,167.61Zm-27.29.73a2.64,2.64,0,0,0,.72-.15,6.56,6.56,0,0,0,1.17-.42c.55,5.21,3.22,11.22,8.9,11.27,4.25,0-.16-2.88-1.32-4-2.53-2.54-3.25-6-4.3-9.32a5.37,5.37,0,0,0,.51-.41c1-.91.34-2.27-.58-2.87-2.15-1.41-5.3-.86-7.48.2a5.15,5.15,0,0,0-2.29,1.94c-.69,1.17-.24,2,.54,3C356.17,168.63,358.05,168.66,359.39,168.34ZM424.48,180c3.09-.83,6.57-3.82,8.43-6.37,1.08-1.49,2.76-4.38,2.46-6.55a6.36,6.36,0,0,0,1.29.61c2.38.82,6.42.5,7-2.52.34-1.87-2.21-3.18-3.63-3.76l-.37-.13c-.78-.91-2.49-1.24-3.53-1.35a7.51,7.51,0,0,0-4.75.82,2,2,0,0,0-.13,3.42c.74.58,1.84.82,2,1.9-1.5,1.64-2,4.55-3,6.43a24.92,24.92,0,0,1-2.54,4.21c-1,1.22-2.47,1.93-3.53,3.08C424,180,424.38,180.05,424.48,180Z"/>
    <g>
      <g>
        <path class="cls-6" d="M437.4,166.08a1.75,1.75,0,0,0-.66-1.32l-.09-.07c-.87-.67-2-.05-2.21,1.17-3.06,19.47-25.76,17.75-29.88,3,7.78-1.1,13.61-5.83,13.61-14.11,0-9.52-7.72-10.89-17.25-10.89s-17.24,1.37-17.24,10.89c0,8.52,6.18,13.28,14.3,14.19-5,14.66-32.08,16.32-35.74-3.11a1.74,1.74,0,0,0-2.64-1.17l-.11.07a1.72,1.72,0,0,0-.8,1.32c-1.3,20.29,28.66,26.73,42.88,8.78C413.46,192.81,438.5,186.37,437.4,166.08Z"/>
        <path class="cls-7" d="M398,169a22.7,22.7,0,0,0,6.58-.08c7.78-1.1,13.61-5.83,13.61-14.11,0-9.52-7.72-10.89-17.25-10.89s-17.24,1.37-17.24,10.89C383.68,163.3,389.86,168.06,398,169Z"/>
        <g>
          <path class="cls-8" d="M304.46,149.88a84.61,84.61,0,0,1,13.73-2.81,112,112,0,0,1,16.69-.11c8.76.5,17.86,1.15,26,4.14,0,0,0,0,0,0l.05-.23a1.88,1.88,0,0,0-1.58-2.15c-17.72-3.64-35.49-4.69-53.37-1a1.87,1.87,0,0,0-1.58,2.09Z"/>
          <path class="cls-8" d="M284.76,169.43c3.48-1.33,7-2.62,10.59-3.74a106.62,106.62,0,0,1,20.44-4.24,154.92,154.92,0,0,1,21.11-.62,55.93,55.93,0,0,1,13.48,1.69,1.76,1.76,0,0,0,.37-.75,1.91,1.91,0,0,0-1.9-2.18c-22.85-1.57-45.1-1.54-63.81,8a1.78,1.78,0,0,0-1,2.13Z"/>
          <path class="cls-8" d="M312.62,178.25a36.58,36.58,0,0,1,11.77-3.31,60.34,60.34,0,0,1,7-.5,54.47,54.47,0,0,1,10.3.09,2.26,2.26,0,0,0,0-.26l-.06-.47a2,2,0,0,0-2-1.66c-11.63-.49-23.26-.15-34.75,9.41a1.71,1.71,0,0,0-.3,2.38C307.19,182,309.63,179.77,312.62,178.25Z"/>
        </g>
        <g>
          <path class="cls-8" d="M491.44,149.84a85.67,85.67,0,0,0-13.73-2.8,112,112,0,0,0-16.69-.11c-8.76.5-17.86,1.15-26,4.14,0,0,0,0,0,0l-.05-.23a1.88,1.88,0,0,1,1.58-2.15c17.72-3.64,35.49-4.69,53.37-1a1.88,1.88,0,0,1,1.58,2.09Z"/>
          <path class="cls-8" d="M511.14,169.4c-3.48-1.33-7-2.62-10.59-3.74a106.62,106.62,0,0,0-20.44-4.24A154.92,154.92,0,0,0,459,160.8a55.44,55.44,0,0,0-13.48,1.69,1.76,1.76,0,0,1-.37-.75,1.92,1.92,0,0,1,1.9-2.19c22.85-1.57,45.1-1.53,63.8,8a1.79,1.79,0,0,1,1,2.14Z"/>
          <path class="cls-8" d="M483.28,178.22a36.58,36.58,0,0,0-11.77-3.31,60.36,60.36,0,0,0-7-.5,54.38,54.38,0,0,0-10.29.09,2.26,2.26,0,0,1,0-.26l.06-.47a2,2,0,0,1,2-1.66c11.63-.5,23.26-.15,34.75,9.41a1.69,1.69,0,0,1,.29,2.38C488.71,181.94,486.27,179.74,483.28,178.22Z"/>
        </g>
      </g>
      <g>
        <g>
          <path class="cls-9" d="M372.41,114.41c-1.2,14.2-7.63,21-36.34,18.56-14.21-1.2-16.3-8.71-15.09-22.92s18.11-24.37,32.32-23.17S373.62,100.2,372.41,114.41Z"/>
          <path class="cls-10" d="M374.15,116.72c-1.21,14.2-7.64,21-36.35,18.56-14.2-1.2-16.29-8.71-15.09-22.92S340.82,88,355,89.19,375.35,102.51,374.15,116.72Z"/>
          <path class="cls-11" d="M358.41,93.91a10.81,10.81,0,0,0-9.81,15.39,6.46,6.46,0,1,0,9,6.21c.26,0,.53,0,.81,0a10.82,10.82,0,0,0,0-21.64Z"/>
        </g>
        <g>
          <path class="cls-9" d="M476.22,114.41c-1.2,14.2-7.63,21-36.35,18.56-14.2-1.2-16.29-8.71-15.09-22.92S442.9,85.68,457.1,86.88,477.42,100.2,476.22,114.41Z"/>
          <path class="cls-10" d="M475.07,116.72c-1.21,14.2-7.64,21-36.35,18.56-14.2-1.2-16.29-8.71-15.09-22.92S441.74,88,456,89.19,476.27,102.51,475.07,116.72Z"/>
          <path class="cls-11" d="M459.33,93.91a10.81,10.81,0,0,0-9.81,15.39,6.46,6.46,0,1,0,9,6.21c.26,0,.53,0,.81,0a10.82,10.82,0,0,0,0-21.64Z"/>
        </g>
      </g>
    </g>
    <g>
      <path class="cls-12" d="M372.56,66.6c0-7.87-10.63-14.24-23.73-14.24s-23.74,6.37-23.74,14.24,10.63,14.24,23.74,14.24S372.56,74.46,372.56,66.6Z"/>
      <path class="cls-12" d="M468.26,65.63c0-7.33-9.3-13.27-20.78-13.27S426.7,58.3,426.7,65.63s9.3,13.28,20.78,13.28S468.26,73,468.26,65.63Z"/>
    </g>
    <path class="cls-13" d="M545.3,291.26a10,10,0,0,0-8.12-8.13c-21.5-4-37.68-25.93-42.92-47.86,8.8-23.3,11.5-52.12,7-87.07C490.13,68.17,484.35,14,390.43,20.91c-130,6.19-107.19,76.76-141.14,129C232.68,174.21,146.73,173.18,109.8,140a7,7,0,0,1-.75-9.59c17.85-21.71,3.55-47.52,11.77-89.71L75.15,70.84a10,10,0,0,1-11.07,0c-19.64-13.14-31.28.76-52.75-41.09-35,112,20.19,106.57,43,143.27,22.61,72.55,43.49,131.88,102.59,139-.34,2,.55,3.63,3,4.82,37,12.84,71.56,13,100.87,2.52,33.3.91,76.73-2.8,109.23-5.46,26.87-2.56,50.51-8.68,70.14-18.81C472.53,315.62,548.74,313.58,545.3,291.26ZM370,306.79c-22.15,2.53-62.83,5.71-92.88,5.33a127.64,127.64,0,0,0,45-40.74,2.81,2.81,0,0,0-.41-3.69,2.72,2.72,0,0,0-3.95.41c-32.9,42.81-80.94,67.36-147.53,41.81C158.7,305,219.38,277.2,239.8,227.58a3.53,3.53,0,0,0-3-5.33,3.57,3.57,0,0,0-3,1.73,108.84,108.84,0,0,1-11.09,19.28c-.63-3.18-1.23-8.08-4.5-12.06-2-1.75-3.39,1.13-2.34,5.56.59,4.14,3,9.91-1.07,16.7-18.71,22.19-42.56,39.39-52.82,50.63-53.08-8.57-78.09-59.26-104.13-140.31-20.65-42-68.35-27.68-44.26-119.61,23.72,34.71,30.93,20.09,50,36.1a10.09,10.09,0,0,0,12.44.47l38.23-27.93C101.24,101.16,123,89,98.46,135.24a7,7,0,0,0,3.13,9.57c74.69,36.09,127.49,41,155.49,10.61C283,93.89,288.32,31.84,391,27.84c92.8-6.49,92.52,60.31,101.61,125.56C511,249.62,436.7,299.67,370,306.79ZM452.26,288a107,107,0,0,0,37.57-42.51c2.89,20.69,19.94,38.58,40.13,42.13a7.73,7.73,0,0,1,5.94,4.84C542,309.15,474.37,305.73,452.26,288Z"/>
  </g>
</svg>
