<svg id="ѓЊѓCѓ_Ѓ__1" data-name="ѓЊѓCѓ„Ѓ[_1" xmlns="http://www.w3.org/2000/svg" viewBox="0 0 52.88 45.98"><defs><style>.cls-1{fill:#915f35;}.cls-2{fill:#673b15;}.cls-3{fill:#f2e0c4;}.cls-4{fill:#6b4620;}.cls-5{fill:#b3874b;}.cls-6{fill:none;stroke:#7c4d25;stroke-linecap:round;stroke-miterlimit:10;stroke-width:0.12px;}.cls-7{fill:#fffdee;}.cls-8{fill:#7c4d25;}.cls-9{fill:#41281b;}</style></defs><path class="cls-1" d="M20.18,32.57s7.68-.73,7-7.2S21.76,0,39.81,0s12.66,16.36,11,19.08c0,0-3.29-6.12-9.69-5,0,0,2.19.22,2.83,1.61a3.66,3.66,0,0,0-2.65.18c-1.19.67,7.47,25.72-15.37,21.89-8.6-1.45-9.14-2.38-9.14-2.38S15,33.45,20.18,32.57Z"/><path class="cls-2" d="M16.56,34.22s11.35,3.64,16.19,1c9.79-5.25,3.83-16.58,5-24.94s14.6-5.78,15.12,1.75A8.57,8.57,0,0,0,45.39,3c-3-.54-6.5-.32-8.62,2.18C34.45,7.89,35,12,35.31,15.29c.43,4.48,2,9.75,0,14-1.74,3.59-5.29,5.2-9.09,5.37A64.85,64.85,0,0,1,16.56,34.22Z"/><path class="cls-2" d="M17.63,33.83c2.29-.33,4.8-.07,7.16-.43,4.16-.64,7-3.08,7.75-7.32s-1.1-8.48-1.69-12.65A13.49,13.49,0,0,1,34.08,2.65,9.74,9.74,0,0,1,41.52.05s-8.65-.7-11.37,5.26a16.77,16.77,0,0,0-1,9.87c.53,3,1.62,6.07,1.26,9.15-.4,3.48-3,6-6,7.5A21.46,21.46,0,0,1,17.63,33.83Z"/><path class="cls-3" d="M44.21,10.42c-7.44-.62-5.32,5.82-4,15,1.19,8.32-6.65,12.06-8,12.66,14.93-1.48,8.1-21.61,9.17-22.2A3.66,3.66,0,0,1,44,15.65C43.32,14.26,41.13,14,41.13,14c6.4-1.08,9.69,5,9.69,5S51.65,11,44.21,10.42Z"/><path class="cls-1" d="M18.34,41.18s-.75,3.33.06,3.6.79-.89.79-.89,0,2,.68,2c1.05-.06.78-2.12.78-2.12s.78,2.54,1.73,2.18-.45-2.34-.45-2.34,1.19,2,2,1.47c.5-.32-.78-1.88-.78-1.88s1,1.17,1.65.59-.83-1.46-1.1-1.69A13.86,13.86,0,0,0,22,40.23C20.79,39.13,18.34,41.18,18.34,41.18Z"/><path class="cls-1" d="M11,41.18s.74,3.33-.07,3.6-.78-.89-.78-.89,0,2-.68,2c-1.05-.06-.78-2.12-.78-2.12S7.9,46.31,6.94,46s.46-2.34.46-2.34-1.19,2-2,1.47c-.5-.32.78-1.88.78-1.88s-1,1.17-1.65.59.82-1.46,1.1-1.69a14.12,14.12,0,0,1,1.73-1.87C8.54,39.13,11,41.18,11,41.18Z"/><path class="cls-3" d="M24.67,20.43C28,23,29.62,28.48,29.28,32.5s-3.46,7.51-7.1,9.22a10,10,0,0,1-6.58,1,2.33,2.33,0,0,1-.94-.41,2.22,2.22,0,0,1-.94.41,9.94,9.94,0,0,1-6.57-1C3.51,40,.39,36.65,0,32.5S1.36,23,4.66,20.43Z"/><path class="cls-3" d="M22.76,14H6.57c-1.32,1.21-8,5.05-2.42,11.79C5.12,27,7.53,24,14.66,24s9.55,3,10.52,1.82C30.8,19.09,24.07,15.25,22.76,14Z"/><path class="cls-4" d="M12.65,22.32c2.31,0,6.32.1,6.32,2.75,0,.31.52.25.52.55s-.52.26-.52.56c0,2.65-4,2.75-6.32,2.75Z"/><path class="cls-5" d="M10.19,22.09c-.86.46-1.38,1.58-1.38,3.53s.52,3.08,1.38,3.54a3,3,0,0,0,2.23,0c.5-.15,1.09-1.68,1.09-3.54s-.59-3.38-1.09-3.53A3,3,0,0,0,10.19,22.09Z"/><path class="cls-5" d="M9.25,25.67s-1.15.47-1.31,0S8.73,25.36,9.25,25.67Z"/><path class="cls-6" d="M12,22.43a5.89,5.89,0,0,1,.66,3.24,6.66,6.66,0,0,1-.58,3.15"/><path class="cls-6" d="M11.21,22.76a5.39,5.39,0,0,1,.59,2.91,5.88,5.88,0,0,1-.53,2.82"/><path class="cls-6" d="M10.45,23.34a4.31,4.31,0,0,1,.47,2.32,4.8,4.8,0,0,1-.42,2.25"/><path class="cls-1" d="M6.6,14s-4.34,3.81,4.58,6.18Z"/><path class="cls-1" d="M22.81,14s4.34,3.81-4.58,6.18Z"/><path class="cls-7" d="M14.66,24.76c-4.23,0-2.79-3.91-3.61-4.74s-4-3.14-4.42-5,1.31-4,2-4.62H20.73c.65.65,2.38,2.77,2,4.62s-3.58,4.15-4.41,5,.62,4.74-3.62,4.74"/><path class="cls-3" d="M18.69,12.77h-8s1.13,4.75.54,7.45c-.54,2.46.39,4.54,3.48,4.54s4-2.08,3.49-4.54C17.56,17.52,18.69,12.77,18.69,12.77Z"/><path class="cls-1" d="M18.54,5.32c-1-.07-.88.78-1.17,2.08A15.64,15.64,0,0,0,14.66,7,15.64,15.64,0,0,0,12,7.4c-.29-1.3-.15-2.15-1.17-2.08S6.63,7.64,8.6,10.42s1.9,1.9,2.63,4.21,1.75,7.64,2,8.77.73,1.36,1.38,1.36,1.1-.24,1.39-1.36,1.32-6.46,2.05-8.77.66-1.42,2.63-4.21S19.56,5.38,18.54,5.32Z"/><path class="cls-2" d="M14.66,7l-.58,0c.07.91.24,2.35.58,2.35s.52-1.44.59-2.35Z"/><path class="cls-2" d="M12.3,7.32c.16,1.39,1.24,2.52,1,1.54a7.42,7.42,0,0,1-.07-1.73Z"/><path class="cls-2" d="M17,7.32c-.15,1.39-1.23,2.52-1,1.54a7.42,7.42,0,0,0,.07-1.73Z"/><path class="cls-8" d="M9.79,6.21c.28-.09-.92,1.93-.71,2.55s-.7.66-.76,0A3.22,3.22,0,0,1,9.79,6.21Z"/><path class="cls-8" d="M19.54,6.21c-.28-.09.92,1.93.71,2.55s.7.66.76,0A3.22,3.22,0,0,0,19.54,6.21Z"/><path class="cls-9" d="M15.62,23.62c0,.27-.43.65-1,.65s-.95-.38-.95-.65.43-.33.95-.33S15.62,23.35,15.62,23.62Z"/><path class="cls-9" d="M18.69,17.24s.34-2.26,1.24-3,1.34,1.2,1,2.25S18.69,17.24,18.69,17.24Z"/><path class="cls-9" d="M10.64,17.24s-.34-2.26-1.24-3-1.34,1.2-1,2.25S10.64,17.24,10.64,17.24Z"/><path class="cls-1" d="M20.26,26.16a1.19,1.19,0,0,0-.3-1.42c-.46-.59-2.73-.92-1.36,0,0,0-1.15-.35-1.27,0s1,.61,1,.61-1,0-1,.4,1.16.19,1.16.19-1.05.23-.81.61,1.2-.16,1.2-.16S20,26.83,20.26,26.16Z"/><path class="cls-1" d="M26.94,23s-1.17,3.88-7.28,1.58V26.3a5.6,5.6,0,0,0,4.9,3.15C29,29.44,28.2,24.69,26.94,23Z"/><path class="cls-1" d="M9.05,26.16a1.19,1.19,0,0,1,.3-1.42c.46-.59,2.73-.92,1.36,0,0,0,1.15-.35,1.27,0s-1,.61-1,.61,1,0,1,.4-1.16.19-1.16.19,1.05.23.81.61-1.2-.16-1.2-.16S9.27,26.83,9.05,26.16Z"/><path class="cls-1" d="M2.37,23s1.17,3.88,7.28,1.58V26.3a5.6,5.6,0,0,1-4.9,3.15C.31,29.44,1.11,24.69,2.37,23Z"/></svg>