<svg xmlns="http://www.w3.org/2000/svg" xmlns:xlink="http://www.w3.org/1999/xlink" viewBox="0 0 534 283.5" xml:space="preserve"><defs><linearGradient x1="265.7" y1="72.3" x2="265.7" y2="212.4" id="a" gradientUnits="userSpaceOnUse" gradientTransform="matrix(0.9763,-0.2164,0.2164,0.9763,-26.4711,60.2204)"><stop id="stop3591" offset="0" style="stop-color:#d1000d;stop-opacity:1"/><stop id="stop3593" offset="1" style="stop-color:#3d0000;stop-opacity:1"/></linearGradient><linearGradient x1="265.7" y1="72.3" x2="265.7" y2="212.4" id="b" xlink:href="#a" gradientUnits="userSpaceOnUse" gradientTransform="matrix(0.9763,-0.2164,0.2164,0.9763,-26.4711,60.2204)"/></defs><path d="m476.8 73.3-83.6 18.5c-8.9 2-15.9 9.3-17.5 18.4-1.6 9.1 2.7 18.5 10.6 23.3 5 3 11 4 16.7 2.7l61.4-13.6 1.1 4.9-85.6 19c-1-1.5-1.7-3.2-2.2-4.9l-11-49.1 110.9-24.6c8.9-2 15.9-9.3 17.5-18.4 1.6-9.1-2.7-18.5-10.6-23.3-5-3-11-4-16.7-2.7L297.9 61.2c-4.9 1-9.5 3.7-12.7 7.6-2.9 3.4-4.2 7.2-5.3 11.5-1.8 7.5-21.3 77.4-25.4 88.1-9.2-7.9-66.9-67.9-67.6-68.7-0.3-0.4-1.4-1.1-1.5-1.6-5.5-6.1-13.8-8.8-21.8-7L49.3 116.4c-10.4 2.3-19.8 8.6-25.9 17.4-6.1 8.7-8.9 19.5-7.8 30.1 0.2 1.8 0.5 3.5 0.8 5.3l1.6 7c2.3 10.5 8.5 20 17.1 26.4 8.5 6.3 19.1 9.3 29.7 8.4 1.8-0.2 3.5-0.4 5.3-0.8l38.9-8.6 37-8.2 1.1 4.9-96.2 21.3c-8.9 2-15.9 9.3-17.5 18.4-1.6 9.1 2.7 18.5 10.6 23.3 5 3 11 4 16.7 2.7l98.1-21.8c10.4-2.3 19.8-8.6 25.9-17.4 6.1-8.7 8.9-19.5 7.8-30.1-0.2-1.8-0.5-3.5-0.8-5.3l-1.6-7c-2.3-10.5-8.5-20-17.1-26.4-8.5-6.3-19.1-9.3-29.7-8.4-1.8 0.2-3.5 0.4-5.3 0.8l-38.9 8.6-37 8.2-1.1-4.9 99.6-22.1c16.5 17.9 75.3 73.3 75.3 73.3 7 6.4 17 9.7 26.8 7.6l7-1.6c10.6-2.4 17.3-11.1 21.9-20.5 5.4-10.9 9.1-22.6 12.8-34.2 6.3-19.9 11.7-40 16.8-60.3l1-0.2 11.2 49.8 0.3 1.1c3 10.6 8.4 20.7 16.7 28.1 8.8 7.8 20.4 11.8 32.1 10.7 1.7-0.2 3.4-0.4 5.1-0.8l109.9-24.4c12.1-2.7 20-15 17.3-27.1L503.9 90.6C501.2 78.5 488.8 70.7 476.8 73.3" id="path3595" fill="url(#b)"/></svg>