<?xml version="1.0" encoding="utf-8"?>
<!-- Generator: Adobe Illustrator 22.0.1, SVG Export Plug-In . SVG Version: 6.00 Build 0)  -->
<svg version="1.1" id="Layer_2" xmlns="http://www.w3.org/2000/svg" xmlns:xlink="http://www.w3.org/1999/xlink" x="0px" y="0px"
	 viewBox="0 0 1441.7 1273" style="enable-background:new 0 0 1441.7 1273;" xml:space="preserve">
<style type="text/css">
	.st0{fill:#CCCCCC;}
	.st1{fill:#808080;}
	.st2{fill:#B3B3B3;}
	.st3{fill:#999999;}
	.st4{fill:#534741;}
	.st5{fill:#170000;}
	.st6{fill:#998675;}
	.st7{fill:#736357;}
	.st8{fill:#666666;}
	.st9{opacity:0.2;fill:#C69C6D;}
	.st10{opacity:0.6;fill:#FFFFFF;}
</style>
<g>
	<g>
		<path class="st0" d="M303.2,137c-41-28.9-96.4-120.5-185.5-115.7c24.1,28.9,45.8,48.2,45.8,48.2s-48.2-28.9-86.7-26.5
			c36.1,28.9,28.9,41,28.9,41s-7.2-12-33.7-2.4c0,31.3-2.4,233.7,94,308.4"/>
		<path class="st0" d="M163.7,392.9c-83.3-64.5-95.5-221.3-95.3-309l0-2.2c0-1.5,0.9-2.8,2.3-3.3c15.8-5.7,25.5-4.2,31.2-1.6
			c-2-5.6-8.3-15.6-27.4-30.9c-1.1-0.9-1.6-2.4-1.2-3.8c0.4-1.4,1.7-2.4,3.1-2.5c23.3-1.4,49.5,7.9,67.4,16
			c-8.1-8.3-18.3-19.2-28.9-31.9c-0.9-1-1.1-2.4-0.5-3.7c0.5-1.2,1.7-2,3-2.1c66.9-3.6,114,44.4,151.8,83
			c13.5,13.8,25.2,25.7,36,33.3l-4.1,5.8c-11.2-7.9-23.1-20.1-36.9-34.1C228.8,69.7,185,25.1,125.1,24.7
			c21.7,25.3,40.5,42,40.7,42.2c1.4,1.2,1.6,3.3,0.5,4.7c-1.1,1.5-3.1,1.9-4.7,0.9c-0.4-0.3-40.1-23.8-75.2-26
			c28.4,25,23.6,37,22.2,39.2c-0.6,1.1-1.8,1.7-3,1.7s-2.4-0.7-3-1.7c0,0-6.1-8.6-27.2-1.7c-0.1,86.5,11.8,240.5,92.6,303.1
			L163.7,392.9z"/>
	</g>
	<g>
		<path class="st1" d="M161,361.1C127.3,325,69.4,163.6,127.3,86.4c7.2,9.6,48.2,48.2,48.2,48.2s-24.1,4.8-38.6-4.8
			c19.3,26.5,45.8,28.9,45.8,28.9s-26.5,14.5-43.4,7.2c12,24.1-2.4,55.4,69.9,139.8"/>
		<path class="st1" d="M161,361.1c-4.2-4.4-7.8-9.3-11.2-14.4c-1.7-2.5-3.3-5.1-4.8-7.8c-1.6-2.6-3-5.3-4.5-8
			c-2.9-5.4-5.5-10.9-8.1-16.4l-3.7-8.4l-3.5-8.5l-3.3-8.5c-1.1-2.9-2-5.8-3-8.6c-1.9-5.8-3.8-11.6-5.4-17.5
			c-0.9-2.9-1.6-5.9-2.4-8.8c-0.8-2.9-1.5-5.9-2.2-8.9c-1.5-5.9-2.7-11.9-3.8-17.9l-1.6-9l-1.3-9.1c-0.7-6.1-1.4-12.2-1.8-18.3
			c-0.3-3.1-0.4-6.1-0.5-9.2l-0.2-4.6l0-4.6c0-3.1,0-6.2,0.2-9.2c0.2-3.1,0.2-6.2,0.6-9.2c0.3-3.1,0.5-6.2,1-9.2
			c0.5-3.1,0.9-6.1,1.5-9.2c0.7-3,1.3-6.1,2-9.1l2.6-9l3.2-8.8l3.9-8.5l4.6-8.2l5.3-7.8c1-1.5,3.1-1.9,4.6-0.9
			c0.2,0.2,0.5,0.4,0.6,0.6l0.3,0.3l2.6,3.1c0.8,1,1.8,2,2.8,3.1c2,2,3.9,4.1,5.8,6.1c4,4,8,8,12.1,12c8.1,7.9,16.3,15.8,24.5,23.6
			l0,0c1.4,1.3,1.4,3.5,0.1,4.9c-0.5,0.6-1.2,0.9-1.9,1c-1,0.2-1.8,0.3-2.6,0.4l-2.6,0.3c-1.7,0.2-3.4,0.3-5.2,0.4
			c-3.4,0.2-6.9,0.1-10.4-0.2c-1.7-0.2-3.5-0.3-5.2-0.7c-0.9-0.2-1.7-0.3-2.6-0.5l-2.6-0.7c-1.7-0.6-3.4-1.1-5.1-1.9
			c-0.8-0.4-1.7-0.7-2.5-1.2l-2.4-1.4l4.6-4.8l2.1,2.6c0.7,0.9,1.3,1.8,2.1,2.6l2.2,2.5c0.7,0.8,1.5,1.6,2.3,2.3
			c0.8,0.8,1.6,1.6,2.4,2.3l2.6,2.1c0.8,0.7,1.8,1.3,2.6,2c0.9,0.6,1.8,1.3,2.7,1.9l2.8,1.8l2.9,1.6c1,0.5,2,1,3,1.5
			c1,0.5,2,0.9,3,1.3c1,0.4,2.1,0.8,3.1,1.2c1,0.4,2.1,0.7,3.2,1c1.1,0.3,2.1,0.6,3.2,0.8c1,0.2,2.2,0.4,3.1,0.5l0.2,0
			c1.7,0.2,2.9,1.8,2.6,3.4c-0.1,1-0.8,1.9-1.6,2.3c-1.8,1-3.5,1.7-5.3,2.5c-1.8,0.8-3.6,1.5-5.4,2.2c-1.8,0.7-3.7,1.3-5.5,1.9
			c-1.9,0.5-3.8,1-5.7,1.4c-1,0.2-1.9,0.4-2.9,0.5c-1,0.1-1.9,0.4-2.9,0.4l-3,0.3l-3,0c-1,0.1-2-0.1-3-0.2c-1-0.1-2-0.2-3-0.4
			c-1-0.2-2-0.3-3-0.7l-3-1.1l3.4-3.6l2,4.8l1.5,4.9c0.8,3.3,1.5,6.6,2.1,9.9c0.6,3.3,1.1,6.5,1.8,9.7c0.6,3.2,1.3,6.4,2.1,9.6
			c0.8,3.2,1.7,6.3,2.6,9.4c1.1,3.1,2,6.2,3.2,9.2c1.3,3,2.4,6.1,3.8,9l4.2,8.9l4.6,8.7c1.5,2.9,3.3,5.7,5,8.5
			c1.7,2.8,3.3,5.7,5.2,8.4l5.5,8.2c1.8,2.8,3.9,5.3,5.8,8l5.8,8l12.2,15.6l-13-15L190,283c-2-2.6-4.2-5.1-6.1-7.8l-5.8-8
			c-2-2.6-3.8-5.5-5.6-8.2c-1.8-2.8-3.7-5.5-5.4-8.4l-5-8.6c-1.6-2.9-3-5.9-4.5-8.9c-1.5-3-2.7-6.1-4.1-9.1
			c-1.3-3.1-2.4-6.3-3.6-9.4c-1-3.2-2.1-6.4-2.9-9.6c-0.8-3.2-1.7-6.5-2.4-9.7c-0.8-3.3-1.4-6.5-2-9.7c-0.6-3.2-1.4-6.4-2.2-9.5
			l-1.5-4.5l-1.9-4.3c-0.6-1.4,0-3,1.4-3.6c0.6-0.3,1.3-0.3,1.9-0.1l0.1,0l2.4,0.8c0.8,0.3,1.7,0.3,2.5,0.5c0.8,0.2,1.7,0.3,2.6,0.3
			c0.9,0,1.7,0.2,2.6,0.1l2.6-0.1l2.6-0.3c0.9-0.1,1.8-0.3,2.6-0.4c0.9-0.2,1.8-0.3,2.6-0.6c1.8-0.4,3.5-0.9,5.2-1.5
			c1.7-0.6,3.5-1.1,5.2-1.8c1.7-0.6,3.4-1.4,5.1-2.1c1.6-0.7,3.4-1.6,4.9-2.4l1.2,5.8c-1.4-0.2-2.6-0.3-3.8-0.6
			c-1.2-0.2-2.4-0.5-3.6-0.8c-1.2-0.4-2.3-0.6-3.5-1.1c-1.1-0.4-2.3-0.8-3.4-1.2c-1.1-0.5-2.3-0.9-3.4-1.4c-1.1-0.5-2.2-1-3.3-1.5
			l-3.2-1.7l-3.1-1.9c-1.1-0.6-2-1.3-3-2c-1-0.7-2-1.4-2.9-2.2l-2.8-2.3c-0.9-0.8-1.8-1.6-2.7-2.4c-0.9-0.8-1.8-1.6-2.6-2.5
			l-2.5-2.7c-0.9-0.9-1.5-1.9-2.3-2.8l-2.2-2.8c-1.2-1.5-0.9-3.6,0.6-4.7c1.1-0.9,2.6-0.9,3.8-0.3l0.3,0.2l1.9,1.1
			c0.6,0.4,1.3,0.6,2,1c1.3,0.7,2.8,1.1,4.2,1.5l2.2,0.5c0.7,0.2,1.5,0.3,2.3,0.4c1.5,0.3,3.1,0.4,4.6,0.6c3.1,0.3,6.3,0.3,9.5,0.1
			c1.6-0.1,3.2-0.2,4.7-0.4l2.4-0.3c0.8-0.1,1.6-0.2,2.3-0.4l-1.7,5.9l-12.4-11.8c-4.1-4-8.2-7.9-12.3-11.9c-4.1-4-8.1-8-12.1-12.1
			c-2-2-4-4.2-5.9-6.2c-1-1-2-2.1-2.9-3.3l-2.9-3.4h5.5l-5,7.3l-4.3,7.7l-3.7,8l-3.1,8.3l-2.5,8.5c-0.7,2.9-1.3,5.8-2,8.7
			c-0.6,2.9-1,5.9-1.5,8.8c-0.5,2.9-0.7,5.9-1.1,8.9c-0.4,3-0.5,6-0.7,8.9c-0.3,3-0.3,6-0.3,9l-0.1,4.5l0.1,4.5c0.1,3,0.1,6,0.3,9
			c0.2,6,0.8,12,1.4,18l1.1,9l1.4,8.9c1,5.9,2.1,11.9,3.4,17.8c0.6,3,1.3,5.9,2,8.8c0.7,2.9,1.4,5.9,2.2,8.8
			c1.5,5.9,3.2,11.7,5,17.4l2.8,8.6l2.9,8.6l3.1,8.5l3.3,8.4c2.3,5.6,4.8,11.1,7.4,16.6c2.6,5.4,5.5,10.8,8.6,16
			C153.7,351.5,157,356.6,161,361.1z"/>
	</g>
	<g>
		<path class="st0" d="M1138.6,137c41-28.9,96.4-120.5,185.5-115.7c-24.1,28.9-45.8,48.2-45.8,48.2s48.2-28.9,86.7-26.5
			c-36.1,28.9-28.9,41-28.9,41s7.2-12,33.7-2.4c0,31.3,2.4,233.7-94,308.4"/>
		<path class="st0" d="M1278.1,392.9l-4.3-5.6c80.8-62.6,92.7-216.7,92.6-303.1c-21.1-6.9-27.2,1.7-27.2,1.8c-0.7,1-1.8,1.6-3,1.6
			c-1.2,0-2.3-0.6-3-1.7c-1.4-2.3-6.2-14.2,22.2-39.2c-35.1,2.2-74.8,25.7-75.2,26c-1.6,0.9-3.6,0.5-4.7-0.9
			c-1.1-1.5-0.9-3.5,0.5-4.7c0.2-0.2,19-16.9,40.7-42.2c-59.9,0.3-103.7,45-139.1,81.1c-13.8,14-25.7,26.2-36.9,34.1l-4.1-5.8
			c10.7-7.6,22.4-19.5,36-33.3c37.9-38.6,84.9-86.6,151.8-83c1.3,0.1,2.5,0.9,3,2.1c0.5,1.2,0.3,2.6-0.5,3.7
			c-10.6,12.7-20.8,23.7-28.9,31.9c17.9-8.1,44.1-17.5,67.4-16c1.5,0.1,2.7,1.1,3.1,2.5c0.4,1.4,0,2.9-1.2,3.8
			c-19.1,15.2-25.4,25.2-27.3,30.9c5.7-2.6,15.4-4.1,31.2,1.6c1.4,0.5,2.3,1.8,2.3,3.3l0,2.2
			C1373.5,171.6,1361.3,328.3,1278.1,392.9z"/>
	</g>
	<g>
		<path class="st1" d="M1280.7,361.1c33.7-36.1,91.6-197.6,33.7-274.7c-7.2,9.6-48.2,48.2-48.2,48.2s24.1,4.8,38.6-4.8
			c-19.3,26.5-45.8,28.9-45.8,28.9s26.5,14.5,43.4,7.2c-12,24.1,2.4,55.4-69.9,139.8"/>
		<path class="st1" d="M1280.7,361.1c4-4.6,7.3-9.7,10.4-14.9c3.1-5.2,5.9-10.6,8.6-16c2.7-5.4,5.1-11,7.4-16.6l3.3-8.4l3.1-8.5
			l2.9-8.6l2.8-8.6c1.8-5.8,3.5-11.6,5-17.4c0.8-2.9,1.5-5.9,2.2-8.8c0.7-2.9,1.4-5.9,2-8.8c1.3-5.9,2.4-11.8,3.4-17.8l1.4-8.9
			l1.1-9c0.6-6,1.1-12,1.4-18c0.2-3,0.2-6,0.3-9l0.1-4.5l-0.1-4.5c-0.1-3-0.1-6-0.3-9c-0.2-3-0.3-6-0.7-8.9c-0.4-3-0.6-6-1.1-8.9
			c-0.5-2.9-0.9-5.9-1.5-8.8c-0.7-2.9-1.3-5.8-2-8.7l-2.5-8.5l-3.1-8.3l-3.7-8l-4.3-7.7l-5-7.3h5.5l-2.9,3.4c-1,1.2-1.9,2.3-2.9,3.3
			c-2,2.1-3.9,4.2-5.9,6.2c-4,4.1-8,8.1-12.1,12.1c-4,4-8.2,7.9-12.3,11.9l-12.4,11.8l-1.7-5.9c0.7,0.1,1.5,0.3,2.3,0.4l2.4,0.3
			c1.6,0.2,3.2,0.3,4.7,0.4c3.2,0.2,6.3,0.1,9.5-0.1c1.5-0.2,3.1-0.3,4.6-0.6c0.8-0.1,1.5-0.2,2.3-0.4l2.2-0.5
			c1.4-0.5,2.9-0.9,4.2-1.5c0.7-0.3,1.4-0.6,2-1l1.9-1.1l0.3-0.2c1.6-0.9,3.7-0.4,4.6,1.2c0.7,1.2,0.6,2.7-0.3,3.8l-2.2,2.8
			c-0.8,0.9-1.5,1.9-2.3,2.8l-2.5,2.7c-0.8,0.9-1.7,1.7-2.6,2.5c-0.9,0.8-1.8,1.7-2.7,2.4l-2.8,2.3c-0.9,0.8-1.9,1.4-2.9,2.2
			c-1,0.7-2,1.4-3,2l-3.1,1.9l-3.2,1.7c-1.1,0.6-2.2,1-3.3,1.5c-1.1,0.5-2.2,0.9-3.4,1.4c-1.1,0.5-2.3,0.8-3.4,1.2
			c-1.1,0.4-2.3,0.7-3.5,1.1c-1.2,0.3-2.4,0.6-3.6,0.8c-1.2,0.3-2.4,0.4-3.8,0.6l1.2-5.8c1.5,0.8,3.2,1.6,4.9,2.4
			c1.7,0.7,3.4,1.5,5.1,2.1c1.7,0.7,3.4,1.2,5.2,1.8c1.7,0.5,3.5,1,5.2,1.5c0.9,0.2,1.8,0.4,2.6,0.6c0.9,0.2,1.8,0.4,2.6,0.4
			l2.6,0.3l2.6,0.1c0.9,0.1,1.7-0.1,2.6-0.1c0.9,0,1.7-0.1,2.6-0.3c0.8-0.2,1.7-0.2,2.5-0.5l2.4-0.8l0.1,0c1.4-0.5,2.9,0.3,3.4,1.7
			c0.2,0.7,0.2,1.3-0.1,1.9l-1.9,4.3l-1.5,4.5c-0.8,3.1-1.6,6.2-2.2,9.5c-0.7,3.2-1.3,6.5-2,9.7c-0.7,3.3-1.5,6.5-2.4,9.7
			c-0.9,3.2-1.9,6.4-2.9,9.6c-1.2,3.1-2.2,6.3-3.6,9.4c-1.4,3-2.6,6.2-4.1,9.1c-1.5,3-3,6-4.5,8.9l-5,8.6c-1.6,2.9-3.6,5.6-5.4,8.4
			c-1.8,2.8-3.6,5.6-5.6,8.2l-5.8,8c-1.9,2.7-4.1,5.2-6.1,7.8l-6.2,7.8l-13,15l12.2-15.6l5.8-8c1.9-2.7,4-5.3,5.8-8l5.5-8.2
			c1.9-2.7,3.5-5.6,5.2-8.4c1.7-2.8,3.5-5.6,5-8.5l4.6-8.7l4.2-8.9c1.4-3,2.5-6,3.8-9c1.2-3,2.2-6.2,3.2-9.2
			c0.9-3.1,1.8-6.3,2.6-9.4c0.7-3.2,1.5-6.3,2.1-9.6c0.7-3.2,1.2-6.5,1.8-9.7c0.6-3.3,1.3-6.6,2.1-9.9l1.5-4.9l2-4.8l3.4,3.6l-3,1.1
			c-1,0.4-2,0.5-3,0.7c-1,0.2-2,0.4-3,0.4c-1,0.1-2,0.2-3,0.2l-3,0l-3-0.3c-1-0.1-2-0.3-2.9-0.4c-1-0.2-2-0.3-2.9-0.5
			c-1.9-0.4-3.8-0.9-5.7-1.4c-1.9-0.6-3.7-1.2-5.5-1.9c-1.8-0.7-3.6-1.4-5.4-2.2c-1.8-0.8-3.5-1.6-5.3-2.5c-1.5-0.8-2.1-2.6-1.3-4.1
			c0.5-0.9,1.3-1.5,2.3-1.6l0.2,0c0.9-0.1,2-0.3,3.1-0.5c1.1-0.2,2.1-0.5,3.2-0.8c1-0.3,2.1-0.6,3.2-1c1-0.4,2.1-0.7,3.1-1.2
			c1-0.4,2.1-0.8,3-1.3c1-0.5,2-0.9,3-1.5l2.9-1.6l2.8-1.8c1-0.6,1.8-1.3,2.7-1.9c0.9-0.7,1.8-1.3,2.6-2l2.6-2.1
			c0.8-0.7,1.6-1.5,2.4-2.3c0.8-0.8,1.6-1.5,2.3-2.3l2.2-2.5c0.8-0.8,1.4-1.7,2.1-2.6l2.1-2.6l4.6,4.8l-2.4,1.4
			c-0.8,0.5-1.6,0.8-2.5,1.2c-1.7,0.8-3.4,1.3-5.1,1.9l-2.6,0.7c-0.9,0.2-1.7,0.4-2.6,0.5c-1.7,0.4-3.5,0.5-5.2,0.7
			c-3.5,0.3-6.9,0.3-10.4,0.2c-1.7-0.1-3.4-0.2-5.2-0.4l-2.6-0.3c-0.9-0.1-1.7-0.2-2.6-0.4c-1.9-0.4-3.1-2.2-2.8-4
			c0.1-0.7,0.5-1.4,1-1.9l0,0c8.2-7.8,16.4-15.7,24.5-23.6c4.1-3.9,8.1-7.9,12.1-12c2-2,3.9-4.1,5.8-6.1c1-1,1.9-2,2.8-3.1l2.6-3.1
			l0.3-0.3c1.2-1.4,3.3-1.5,4.7-0.3c0.2,0.2,0.4,0.4,0.6,0.7l5.3,7.8l4.6,8.2l3.9,8.5l3.2,8.8l2.6,9c0.7,3,1.3,6.1,2,9.1
			c0.6,3,1,6.1,1.5,9.2c0.5,3.1,0.7,6.1,1,9.2c0.4,3.1,0.4,6.2,0.6,9.2c0.2,3.1,0.2,6.2,0.2,9.2l0,4.6l-0.2,4.6
			c-0.1,3.1-0.2,6.1-0.5,9.2c-0.4,6.1-1.1,12.2-1.8,18.3l-1.3,9.1l-1.6,9c-1.2,6-2.4,12-3.8,17.9c-0.7,3-1.4,5.9-2.2,8.9
			c-0.8,3-1.5,5.9-2.4,8.8c-1.7,5.9-3.5,11.7-5.4,17.5c-1,2.9-2,5.8-3,8.6l-3.3,8.5l-3.5,8.5l-3.7,8.4c-2.6,5.5-5.2,11-8.1,16.4
			c-1.5,2.7-2.9,5.4-4.5,8c-1.5,2.6-3.1,5.2-4.8,7.8C1288.5,351.8,1285,356.8,1280.7,361.1z"/>
	</g>
	<g>
		<path class="st2" d="M762.6,1231c45.8,7.2,175.9,53,318.1,33.7c142.2-19.3,204.8-113.3,204.8-113.3s-2.4,14.5-14.5,38.6
			c134.9-106,125.3-231.3,125.3-231.3s9.6,0,9.6,28.9c96.4-241-50.6-588-106-641c-55.4-53-67.5-147-67.5-147s-9.6-7.2-19.3,26.5
			c-48.2-43.4-16.9-132.5-9.6-147c-9.6-2.4-41,7.2-84.3-26.5C1032.2-15.1,830.1,6.9,724.1,6.9l-6.4,0c-106,0-308.1-22-395.2,45.8
			c-43.4,33.7-74.7,24.1-84.3,26.5c7.2,14.5,38.6,103.6-9.6,147c-9.6-33.7-19.3-26.5-19.3-26.5s-12,94-67.5,147s-202.4,400-106,641
			c0-28.9,9.6-28.9,9.6-28.9s-9.6,125.3,125.3,231.3c-12-24.1-14.5-38.6-14.5-38.6s62.7,94,204.8,113.3
			c142.2,19.3,272.3-26.5,318.1-33.7"/>
		<path class="st2" d="M432.9,1273c-23.5,0-47.8-1.4-72.4-4.7c-108.3-14.7-171.6-73.1-195.8-100.5c2.1,5.7,5,12.7,9.1,20.7
			c0.7,1.5,0.4,3.3-0.9,4.3c-1.3,1-3.1,1.1-4.4,0c-70.4-55.3-101.1-116-114.4-157.1c-10-30.7-12-55-12.3-67.7
			c-1.3,3.7-2.4,9.8-2.4,19.6c0,1.7-1.2,3.1-2.9,3.5c-1.6,0.3-3.3-0.6-3.9-2.2c-98-245,52.2-592.6,106.9-644.8
			c53.9-51.5,66.3-144,66.4-144.9c0.1-0.9,0.6-1.8,1.4-2.4c1.4-1.1,4.2-1.9,7.4-0.9c6,2,11.1,9.8,15.7,23.6
			c39.9-42.5,12.2-124,4.8-138.8c-0.5-1-0.5-2.1-0.1-3.1c0.4-1,1.3-1.7,2.4-2c2.5-0.6,5.8-0.6,9.9-0.5c14,0.1,39.9,0.4,73.1-25.3
			c72.4-56.3,222.5-51.5,332.1-48c23.8,0.8,46.2,1.5,65.3,1.5h6.4c19,0,41.5-0.7,65.3-1.5c109.6-3.5,259.6-8.3,332.1,48
			c33.1,25.8,59.1,25.5,73.1,25.3c4.2,0,7.4-0.1,9.9,0.5c1,0.3,1.9,1,2.4,2c0.4,1,0.4,2.1,0,3.1c-7.4,14.8-35.1,96.3,4.8,138.8
			c4.6-13.9,9.7-21.6,15.7-23.6c3.2-1.1,6-0.2,7.4,0.9c0.8,0.6,1.3,1.4,1.4,2.4c0.1,0.9,12.6,93.4,66.4,144.9
			c54.6,52.2,204.9,399.8,106.9,644.8c-0.6,1.6-2.3,2.5-3.9,2.2c-1.7-0.3-2.9-1.8-2.9-3.5c0-9.8-1.1-15.9-2.5-19.6
			c-0.3,12.7-2.4,37-12.3,67.7c-13.3,41.1-44,101.8-114.4,157.1c-1.3,1-3.1,1-4.4,0c-1.3-1-1.7-2.8-0.9-4.3c4-8.1,7-15,9.1-20.7
			c-24.2,27.4-87.5,85.8-195.8,100.5c-112.8,15.3-217.4-10-279.8-25.1c-16.6-4-29.8-7.2-39.3-8.7l1.1-7c9.8,1.5,23.1,4.8,39.8,8.8
			c62,15,165.7,40,277.2,24.9c139-18.8,201.7-110.8,202.4-111.7c0.9-1.4,2.7-1.9,4.2-1.3c1.5,0.6,2.5,2.2,2.2,3.9
			c-0.1,0.5-1.7,9.7-8.3,25.6c119.5-101.4,112.3-217.5,112.2-218.7c-0.1-1,0.3-2,0.9-2.7c0.7-0.7,1.6-1.1,2.6-1.1
			c1.7,0,8.9,1,11.9,16.5c45-126.9,24.3-272.6-1.7-374.1c-30.2-117.9-80.1-220.7-109-248.3c-51.2-49-65.8-130.6-68.2-146.5
			c-0.1,0-0.1,0-0.2,0.1c-1.9,0.8-7,4.9-12.6,24.4c-0.3,1.2-1.2,2.1-2.4,2.4c-1.2,0.3-2.4,0-3.3-0.8c-45.6-41-23.6-120.5-12.6-146.5
			c-1.1,0-2.4,0-3.7,0c-14.8,0.2-42.4,0.5-77.5-26.8c-70.4-54.8-219-50-327.5-46.5c-23.8,0.8-46.3,1.5-65.5,1.5h-6.4
			c-19.1,0-41.7-0.7-65.5-1.5C543.7,5.5,395.1,0.7,324.6,55.5c-35.1,27.3-62.7,27-77.5,26.8c-1.3,0-2.6,0-3.7,0
			c11,26.1,33,105.5-12.6,146.5c-0.9,0.8-2.2,1.1-3.3,0.8c-1.2-0.3-2.1-1.3-2.4-2.4c-5.6-19.4-10.6-23.5-12.6-24.4
			c-0.1,0-0.1,0-0.2-0.1c-2.4,15.9-17,97.5-68.2,146.5c-28.9,27.6-78.8,130.4-109,248.3c-26,101.6-46.7,247.2-1.7,374.1
			c3-15.5,10.1-16.5,11.9-16.5c1,0,1.9,0.4,2.6,1.1c0.7,0.7,1,1.7,0.9,2.7c-0.1,1.2-7.3,117.3,112.2,218.7
			c-6.7-15.8-8.3-25.1-8.3-25.6c-0.3-1.6,0.6-3.3,2.2-3.9c1.5-0.6,3.3-0.1,4.2,1.3c0.6,0.9,63.5,92.9,202.4,111.7
			c111.5,15.1,215.2-9.9,277.2-24.9c16.8-4.1,30-7.3,39.8-8.8l1.1,7c-9.5,1.5-22.7,4.7-39.3,8.7C591.6,1255,517,1273,432.9,1273z"/>
	</g>
	<g>
		<path class="st3" d="M851,1161.1c-24.1,36.1-77.1,91.6-125.3,91.6h-9.6c-48.2,0-101.2-55.4-125.3-91.6"/>
		<path class="st3" d="M725.7,1256.2h-9.6c-52.3,0-106.8-60.9-128.2-93.1l5.9-3.9c24.1,36.2,76.6,90,122.4,90h9.6
			c45.8,0,98.2-53.8,122.4-90l5.9,3.9C832.4,1195.3,778,1256.2,725.7,1256.2z"/>
	</g>
	<g>
		<g>
			<g>
				<path class="st4" d="M534.5,705c-20.2-60.6-103.9-147.2-167.3-54.8c-20.2,72.1-2.9,132.7,57.7,129.8S534.5,705,534.5,705z"/>
				<path class="st4" d="M534.1,704.9c-1.8-4.3-3.7-8.6-5.8-12.7c-2.1-4.2-4.5-8.3-6.9-12.3c-1.2-2-2.4-4-3.8-5.9
					c-1.3-2-2.6-3.9-4-5.8c-1.4-1.9-2.7-3.8-4.2-5.6c-1.4-1.8-2.9-3.7-4.4-5.5c-1.5-1.8-3-3.6-4.6-5.3c-1.6-1.7-3.1-3.5-4.8-5.1
					c-3.2-3.4-6.6-6.5-10.1-9.5c-1.8-1.5-3.5-3-5.4-4.4c-1.8-1.4-3.6-2.9-5.6-4.1c-1.9-1.3-3.8-2.6-5.8-3.7l-2.9-1.8
					c-1-0.6-2-1.1-3-1.6l-3-1.6l-3.1-1.4c-1.1-0.4-2.1-1-3.1-1.4l-3.2-1.1c-4.3-1.5-8.7-2.5-13.2-3.3c-2.2-0.4-4.5-0.4-6.8-0.6
					c-2.3,0-4.5,0.1-6.8,0.2c-2.2,0.4-4.5,0.5-6.8,1.1l-3.3,0.8c-1.1,0.3-2.2,0.5-3.3,1c-4.3,1.5-8.5,3.5-12.5,5.8
					c-1.9,1.3-3.9,2.5-5.8,3.9l-5.5,4.4c-3.4,3.3-6.8,6.5-9.7,10.1c-1.5,1.8-3.1,3.6-4.4,5.5l-4.2,5.7l0.2-0.3
					c-1.6,6.2-3.1,12.3-4.1,18.6c-1,6.3-1.9,12.5-2.3,18.9c-0.9,12.6-0.4,25.3,2,37.5c2.4,12.1,7,24,14.8,33.1
					c3.9,4.6,8.5,8.4,13.8,11.2c5.2,2.8,11,4.6,16.9,5.6c5.9,1,12.1,1.1,18.2,0.6c1.6-0.1,3.2-0.2,4.6-0.5c1.5-0.2,2.9-0.3,4.4-0.7
					l4.5-1l4.4-1.2c5.9-1.8,11.6-4.1,17.2-6.8c5.6-2.7,11-5.9,16.2-9.3c10.5-6.9,20.3-14.9,29.5-23.6c4.6-4.4,9-8.9,13.4-13.6
					C526.1,714.7,530.2,709.9,534.1,704.9z M534.8,705.2c-3.4,5.5-7.2,10.6-11.1,15.7c-3.9,5.1-8.1,10-12.5,14.7
					c-8.8,9.4-18.3,18.3-28.9,25.9c-5.3,3.8-10.8,7.3-16.6,10.3c-5.8,3.1-11.9,5.7-18.2,7.7l-4.8,1.4c-1.6,0.4-3.2,0.8-4.9,1.1
					c-1.6,0.4-3.3,0.6-5,0.9c-1.7,0.3-3.3,0.5-4.9,0.6c-6.6,0.6-13.4,0.4-20-0.7c-6.7-1.1-13.2-3.3-19.2-6.7
					c-6-3.4-11.2-7.9-15.5-13.2c-4.3-5.3-7.6-11.2-10.1-17.4c-2.5-6.2-4.1-12.6-5.1-19.1c-1-6.5-1.5-13-1.4-19.5
					c0.1-6.5,0.6-13,1.3-19.4c0.7-6.4,1.9-12.8,3.3-19c1.4-6.3,3-12.5,4.7-18.7l0-0.1c0-0.1,0.1-0.2,0.1-0.3
					c2.9-3.8,5.5-7.8,8.8-11.3c3-3.7,6.4-7.1,9.8-10.4l5.4-4.7c1.9-1.5,3.9-2.8,5.8-4.3c4-2.7,8.3-5.1,12.8-6.9
					c1.1-0.5,2.3-0.9,3.4-1.3l3.5-1.1c2.3-0.7,4.8-1,7.2-1.6c2.4-0.3,4.9-0.5,7.4-0.7c2.5,0.1,4.9,0,7.4,0.2
					c4.9,0.4,9.8,1.4,14.5,2.9l3.5,1.1c1.2,0.4,2.3,0.9,3.4,1.4l3.4,1.4l3.3,1.7c1.1,0.6,2.2,1.1,3.2,1.7l3.1,1.9
					c2.1,1.2,4.1,2.7,6.1,4.1c2,1.4,3.9,2.9,5.8,4.4c1.9,1.5,3.7,3.1,5.5,4.7c1.9,1.6,3.5,3.3,5.2,5c1.7,1.7,3.4,3.5,5,5.2
					c1.7,1.7,3.2,3.6,4.7,5.4c1.6,1.8,3,3.7,4.5,5.6c1.5,1.9,2.9,3.9,4.2,5.8c1.4,1.9,2.7,4,4,6c1.3,2,2.5,4.1,3.7,6.2
					c1.2,2.1,2.3,4.2,3.4,6.3c2.2,4.2,4.2,8.6,5.9,13c1,2.2,1.7,4.5,2.5,6.7c0.8,2.3,1.4,4.5,2.1,6.8
					C534.9,705,534.9,705.1,534.8,705.2z"/>
			</g>
			<g>
				<path class="st5" d="M515.8,716.5c0-57.7-114-109.6-145.8-54.8c-20.1,34.7,2.9,77.9,46.2,92.3
					C466.7,770.9,515.8,716.5,515.8,716.5z"/>
			</g>
		</g>
		<g>
			<g>
				<path class="st4" d="M907.2,705c20.2-60.6,103.9-147.2,167.3-54.8c20.2,72.1,2.9,132.7-57.7,129.8S907.2,705,907.2,705z"/>
				<path class="st4" d="M906.9,704.9c0.7-2.3,1.3-4.6,2.1-6.8c0.8-2.2,1.6-4.5,2.5-6.7c1.8-4.4,3.7-8.8,5.9-13
					c1.1-2.1,2.2-4.2,3.4-6.3c1.2-2.1,2.4-4.2,3.7-6.2c1.3-2,2.6-4,4-6c1.4-2,2.7-3.9,4.2-5.8c1.4-1.9,2.9-3.8,4.5-5.6
					c1.6-1.8,3.1-3.7,4.7-5.4c1.6-1.8,3.2-3.6,5-5.2c1.7-1.7,3.4-3.4,5.2-5c1.8-1.6,3.6-3.2,5.5-4.7c1.9-1.5,3.8-3,5.8-4.4
					c2-1.4,4-2.8,6.1-4.1l3.1-1.9c1.1-0.6,2.2-1.1,3.2-1.7l3.3-1.7l3.4-1.4c1.1-0.5,2.2-1,3.4-1.4l3.5-1.1c4.7-1.5,9.6-2.4,14.5-2.9
					c2.5-0.3,4.9-0.1,7.4-0.2c2.5,0.2,4.9,0.4,7.4,0.7c2.4,0.5,4.8,0.9,7.2,1.6l3.5,1.1c1.2,0.4,2.3,0.7,3.4,1.3
					c4.5,1.9,8.8,4.2,12.8,6.9c1.9,1.4,4,2.7,5.8,4.3l5.4,4.7c3.4,3.4,6.8,6.7,9.8,10.4c3.2,3.5,5.9,7.5,8.8,11.3
					c0.1,0.1,0.1,0.2,0.1,0.3l0,0.1c1.8,6.2,3.4,12.4,4.7,18.7c1.3,6.3,2.5,12.6,3.3,19c0.8,6.4,1.3,12.9,1.3,19.4
					c0.1,6.5-0.4,13-1.4,19.5c-1,6.5-2.6,12.9-5.1,19.1c-2.5,6.2-5.8,12.1-10.1,17.4c-4.3,5.3-9.6,9.8-15.5,13.2
					c-5.9,3.4-12.5,5.6-19.2,6.7c-6.7,1.1-13.4,1.3-20,0.7c-1.6-0.1-3.2-0.3-4.9-0.6c-1.7-0.3-3.4-0.5-5-0.9
					c-1.6-0.4-3.2-0.7-4.9-1.1l-4.8-1.4c-6.3-2-12.4-4.7-18.2-7.7c-5.8-3.1-11.4-6.5-16.6-10.3c-10.6-7.6-20.1-16.4-28.9-25.9
					c-4.4-4.7-8.6-9.6-12.5-14.7c-3.9-5.1-7.7-10.3-11.1-15.7C906.9,705.1,906.8,705,906.9,704.9z M907.6,704.9
					c3.9,4.9,8,9.7,12.3,14.4c4.3,4.6,8.8,9.2,13.4,13.6c9.2,8.7,19.1,16.7,29.5,23.6c5.2,3.4,10.6,6.6,16.2,9.3
					c5.6,2.7,11.4,5,17.2,6.8l4.4,1.2l4.5,1c1.5,0.4,3,0.5,4.4,0.7c1.4,0.3,3,0.4,4.6,0.5c6.1,0.5,12.2,0.4,18.2-0.6
					c5.9-1,11.7-2.8,16.9-5.6c5.2-2.8,9.9-6.6,13.8-11.2c7.8-9.2,12.3-21,14.8-33.1c2.4-12.2,2.8-24.9,2-37.5
					c-0.4-6.3-1.3-12.6-2.3-18.9c-1-6.3-2.5-12.5-4.1-18.6l0.2,0.3l-4.2-5.7c-1.3-1.9-2.8-3.7-4.4-5.5c-3-3.6-6.4-6.9-9.7-10.1
					l-5.5-4.4c-1.9-1.4-3.9-2.6-5.8-3.9c-4-2.4-8.2-4.3-12.5-5.8c-1.1-0.5-2.2-0.7-3.3-1l-3.3-0.8c-2.2-0.5-4.5-0.7-6.8-1.1
					c-2.3-0.1-4.5-0.2-6.8-0.2c-2.3,0.2-4.5,0.2-6.8,0.6c-4.5,0.7-8.9,1.7-13.2,3.3l-3.2,1.1c-1.1,0.4-2.1,0.9-3.1,1.4l-3.1,1.4
					l-3,1.6c-1,0.5-2,1-3,1.6l-2.9,1.8c-2,1.1-3.9,2.4-5.8,3.7c-1.9,1.3-3.7,2.7-5.6,4.1c-1.9,1.4-3.6,2.9-5.4,4.4
					c-3.5,3-6.9,6.2-10.1,9.5c-1.7,1.6-3.2,3.4-4.8,5.1c-1.6,1.7-3.1,3.5-4.6,5.3c-1.5,1.8-3,3.6-4.4,5.5c-1.5,1.8-2.8,3.7-4.2,5.6
					c-1.4,1.9-2.7,3.8-4,5.8c-1.3,1.9-2.6,3.9-3.8,5.9c-2.5,4-4.8,8.1-6.9,12.3C911.3,696.4,909.4,700.6,907.6,704.9z"/>
			</g>
			<g>
				<path class="st5" d="M925.9,716.5c0-57.7,114-109.6,145.8-54.8c20.1,34.7-2.9,77.9-46.2,92.3C975,770.9,925.9,716.5,925.9,716.5
					z"/>
			</g>
		</g>
	</g>
	<g>
		<path class="st6" d="M841.3,1144.2c-22.3,33.3-71.4,84.4-116,84.4h-8.9c-44.6,0-93.7-51.1-116-84.4"/>
		<path class="st6" d="M725.3,1232.2h-8.9c-48.6,0-99-56.2-119-86l5.9-3.9c22.3,33.3,70.8,82.8,113.1,82.8h8.9
			c42.3,0,90.8-49.5,113.1-82.8l5.9,3.9C824.4,1175.9,773.9,1232.2,725.3,1232.2z"/>
	</g>
	<g>
		<path class="st2" d="M996.4,1122.6c-45.8,14.5-47.8,69.9-127.5,91.6c-66.2,18-147.4-36.1-147.4-36.1h-1.3
			c0,0-81.2,54.2-147.4,36.1c-79.7-21.7-81.7-77.1-127.5-91.6"/>
		<path class="st1" d="M996.4,1122.6c-6.2,2.2-12,5.3-17.3,9.2c-5.3,3.8-10,8.4-14.4,13.2c-8.8,9.7-16.6,20.3-25.6,30
			c-9,9.7-19.3,18.4-30.8,25.3c-5.7,3.4-11.7,6.5-17.8,9.1c-6.2,2.6-12.4,4.9-18.8,6.7c-0.8,0.2-1.5,0.5-2.5,0.7l-2.4,0.6
			c-1.6,0.4-3.1,0.9-4.9,1.1l-5.1,0.9l-5,0.6c-6.7,0.7-13.5,0.8-20.2,0.5c-13.4-0.7-26.6-3.3-39.5-6.8c-12.8-3.7-25.3-8.4-37.4-13.9
			c-6-2.8-12-5.7-17.9-8.8c-5.9-3.2-11.6-6.4-17.3-10.1l2,0.6l-1.3,0l2-0.6c-5.7,3.7-11.4,6.9-17.3,10.1c-5.9,3.1-11.8,6.1-17.9,8.8
			c-12.1,5.5-24.6,10.2-37.4,13.9c-12.9,3.6-26.1,6.1-39.5,6.8c-6.7,0.4-13.5,0.2-20.2-0.4c-6.7-0.6-13.4-2.1-19.8-4
			c-6.2-1.8-12.7-4.2-18.8-6.7c-6.1-2.7-12.1-5.7-17.8-9.1c-11.5-6.9-21.8-15.6-30.8-25.3c-9.1-9.7-16.8-20.4-25.6-30
			c-4.4-4.8-9.1-9.4-14.4-13.2c-5.3-3.9-11.1-7-17.3-9.2c6.3,1.8,12.4,4.7,17.9,8.3c5.5,3.6,10.5,8.1,15.1,12.8
			c9.3,9.4,17.5,19.8,26.7,28.9c9.2,9.3,19.3,17.5,30.6,23.9c5.6,3.2,11.5,6,17.5,8.4c6.1,2.3,12,4.4,18.5,6.1
			c6.2,1.6,12.5,2.9,18.9,3.3c6.4,0.5,12.8,0.6,19.2,0.2c12.8-0.9,25.6-3.5,38-7.1c12.4-3.7,24.6-8.3,36.4-13.8
			c5.9-2.7,11.7-5.6,17.4-8.7c5.7-3.1,11.4-6.4,16.7-9.8l0,0c0.6-0.4,1.3-0.6,1.9-0.6l1.3,0c0.7,0,1.4,0.2,1.9,0.6l0,0
			c5.3,3.5,11,6.7,16.7,9.8c5.7,3.1,11.5,6,17.4,8.7c11.8,5.5,24,10,36.4,13.8c12.4,3.6,25.2,6.2,38,7.1c6.4,0.5,12.8,0.3,19.2-0.2
			l4.8-0.5l4.7-0.7c1.5-0.2,3.2-0.6,4.8-1l2.4-0.5c0.6-0.1,1.5-0.4,2.3-0.6c6.3-1.6,12.4-3.8,18.4-6.1c6-2.4,11.8-5.2,17.5-8.4
			c11.3-6.4,21.4-14.6,30.6-23.9c9.3-9.2,17.5-19.5,26.7-28.9c4.6-4.7,9.6-9.2,15.1-12.8C984,1127.3,990.1,1124.4,996.4,1122.6z"/>
	</g>
	<g>
		<path d="M721.1,1117.8c0,0,1.7,3.6,3,9.3c0.3,1.4,0.7,2.9,1,4.6c0.3,1.6,0.5,3.4,0.7,5.2c0.2,1.8,0.3,3.7,0.4,5.6
			c0.1,1.9,0.2,3.8,0.1,5.8c-0.1,1.9-0.2,3.9-0.4,5.8c-0.2,1.9-0.3,3.8-0.7,5.6c-0.3,1.8-0.7,3.5-1.1,5.1c-0.4,1.6-0.7,3.2-1.3,4.5
			c-1,2.8-2,5-2.8,6.5c-0.7,1.5-1.2,2.4-1.2,2.4s-0.1-1-0.1-2.7c0-1.7,0-4.1,0.1-6.9c0.1-1.4-0.1-3,0-4.5c0-1.6,0-3.3,0.1-5
			c0.1-1.7,0-3.5,0.1-5.4c0-1.8,0.1-3.7,0.2-5.5c0.1-1.9,0-3.7,0.1-5.5c0.1-1.8,0.1-3.6,0.2-5.4c0.1-3.5,0.4-6.8,0.5-9.6
			c0.1-1.4,0.2-2.7,0.3-3.9c0.1-1.2,0.2-2.2,0.3-3C721,1118.8,721.1,1117.8,721.1,1117.8z"/>
	</g>
	<g>
		<g>
			<path d="M655.8,1071c-21.7-26.5-98.8-97.9-125.3-79.4c-21.7-13.2-26.5-31.8-43.4-37.1c0,0,7,37.8,33.7,47.6
				C535.4,1007.5,655.8,1071,655.8,1071z"/>
			<path d="M669.6,1082.3l-15.5-8.1c-1.2-0.6-120.4-63.5-134.5-68.6c-28.3-10.4-35.7-48.7-36-50.3l-1.1-5.8l5.6,1.8
				c9.8,3.1,15.9,10.1,22.3,17.6c5.3,6.1,11.2,12.9,20,18.7c3.1-1.6,6.6-2.4,10.7-2.4c34.2,0,97.8,59.9,117.3,83.7L669.6,1082.3z
				 M492.5,961c3.4,10.9,11.9,31.4,29.6,37.9c11.3,4.1,83.4,41.8,117.6,59.7c-26.6-27.2-73.6-66.5-98.5-66.5c-3.5,0-6.4,0.8-8.7,2.4
				l-1.9,1.3l-2-1.2c-10.8-6.6-17.6-14.4-23.5-21.3C500.8,968.3,497,964,492.5,961z"/>
		</g>
		<g>
			<path d="M785.9,1071c21.7-26.5,98.8-97.9,125.3-79.4c21.7-13.2,26.5-31.8,43.4-37.1c0,0-7,37.8-33.7,47.6
				C906.4,1007.5,785.9,1071,785.9,1071z"/>
			<path d="M772.1,1082.3l11.1-13.5c19.5-23.8,83.1-83.7,117.3-83.7c4,0,7.6,0.8,10.7,2.4c8.9-5.8,14.8-12.6,20-18.7
				c6.5-7.5,12.5-14.5,22.3-17.6l5.6-1.8l-1.1,5.8c-0.3,1.6-7.7,40-36,50.3c-14.1,5.2-133.3,68-134.5,68.6L772.1,1082.3z
				 M900.5,992.1c-24.9,0-71.9,39.3-98.5,66.5c34.2-17.9,106.4-55.6,117.6-59.7c17.8-6.5,26.3-27,29.6-37.9
				c-4.6,3-8.3,7.3-12.7,12.4c-5.9,6.9-12.7,14.7-23.5,21.3l-2,1.2l-1.9-1.3C906.9,992.9,904,992.1,900.5,992.1z"/>
		</g>
		<g>
			<path class="st4" d="M749.8,809c89.2,0,185.5,37.1,197.6,140.3c5.8,49.8-103.6,84.7-137.4,108.5c-33.7,23.8-79.5,74.1-86.7,74.1
				h-4.8c-7.2,0-53-50.3-86.7-74.1C598,1034,488.6,999.1,494.4,949.3C506.4,846.1,602.8,809,692,809H749.8z"/>
			<path class="st4" d="M749.8,809c0,0,1.2,0,3.4,0c2.3,0,5.6,0,10,0.2c8.7,0.4,21.5,1.2,37.6,3.8c16,2.8,35.5,7.3,56.3,16.4
				c10.4,4.6,21.1,10.3,31.5,17.7c10.4,7.3,20.5,16.4,29.4,27.3c9,10.8,16.3,23.7,21.8,37.9c2.6,7.1,4.9,14.5,6.5,22.2
				c0.4,1.9,0.9,3.8,1.2,5.8c0.3,2,0.6,3.9,0.9,5.9l0.5,3.1l0.2,3l0.1,1.5c0,0.5-0.1,1.1-0.1,1.6l-0.3,3.2
				c-1.3,8.3-5.5,15.9-10.7,22.5c-5.3,6.5-11.6,12.2-18.3,17.5c-13.5,10.4-28.5,19.1-43.9,27.4c-15.4,8.3-31.5,15.9-47.2,24.4
				c-3.9,2.1-7.8,4.3-11.6,6.6c-1.9,1.1-3.7,2.4-5.5,3.6c-1.8,1.3-3.7,2.7-5.4,4c-7.1,5.5-14,11.4-20.8,17.4
				c-13.6,12.1-26.8,25-40.5,37.6c-3.4,3.2-6.9,6.3-10.5,9.4c-1.8,1.5-3.7,3-5.9,4.5c-0.5,0.4-1.2,0.7-1.8,1.1l-1.2,0.5
				c-0.2,0.1-0.4,0.2-0.8,0.2c-0.3,0.1-0.7,0.1-1,0.2c-0.4,0-0.4,0-0.6,0l-0.4,0l-0.9,0l-1.7,0l-0.9,0l-0.4,0
				c-1.2-0.1-0.6-0.1-1-0.1l-0.4-0.1c-0.2-0.1-0.5-0.2-0.8-0.2c-0.5-0.2-1.2-0.5-1.5-0.6c-1.3-0.7-2.4-1.4-3.4-2.2
				c-2-1.5-3.9-3-5.7-4.5c-3.6-3.1-7.1-6.2-10.5-9.4c-13.7-12.7-27-25.6-40.9-37.8c-6.9-6.1-14-12-21.3-17.4
				c-3.6-2.7-7.4-5.2-11.2-7.5c-3.9-2.3-7.9-4.5-11.9-6.6c-16.1-8.5-32.6-16.3-48.5-24.9c-15.8-8.7-31.3-17.8-44.9-29.3
				c-6.8-5.7-13.1-12.1-17.8-19.7c-2.5-3.7-4.2-7.9-5.5-12.2c-1.2-4.3-1.5-8.9-1.1-13.3c0.2-2.3,0.6-4.2,0.9-6.3
				c0.3-2.1,0.6-4.1,1.1-6.2c0.4-2.1,0.9-4.1,1.3-6.2c0.5-2,1.1-4,1.6-6c1-4,2.5-7.9,3.8-11.8c1.6-3.8,3-7.6,4.8-11.2
				c6.9-14.7,16.3-27.5,27-38.3c5.4-5.4,11.1-10.2,16.9-14.6c5.9-4.3,11.9-8.2,18.1-11.6c12.2-6.9,24.8-11.9,36.9-15.8
				c12.1-3.9,24-6.6,35.2-8.5c22.4-3.8,42.3-4.4,58.6-4.2C731.1,809,749.8,809,749.8,809z M749.8,809c0,0-18.6,0-51.2,0.1
				c-16.3-0.1-36.1,0.5-58.5,4.6c-11.2,2-22.9,4.8-35,8.9c-12,4-24.4,9.2-36.4,16.3c-6.1,3.4-11.9,7.5-17.7,11.8
				c-5.7,4.4-11.2,9.3-16.4,14.6c-10.3,10.8-19.3,23.5-25.8,38c-1.8,3.5-3,7.3-4.5,11c-1.2,3.8-2.6,7.6-3.5,11.6
				c-0.5,2-1,3.9-1.5,5.9c-0.4,2-0.8,4-1.2,6c-0.4,2-0.7,4.1-1,6.1c-0.3,2-0.6,4.2-0.8,6.1c-0.3,3.9,0.1,7.9,1.2,11.8
				c1.2,3.8,2.8,7.5,5.2,10.9c4.4,6.9,10.6,12.9,17.2,18.3c13.3,10.8,28.7,19.6,44.5,27.9c15.8,8.3,32.3,15.9,48.7,24.3
				c4.1,2.1,8.2,4.3,12.3,6.6c4.1,2.4,8.1,5,11.8,7.8c7.5,5.6,14.7,11.6,21.7,17.7c14.1,12.3,27.5,25.2,41.2,37.8
				c3.4,3.1,6.8,6.3,10.3,9.2c1.7,1.5,3.5,2.9,5.2,4.2c0.9,0.6,1.7,1.2,2.5,1.6c0.2,0.1,0.1,0,0.1,0.1c0,0-0.1,0,0,0.1l0.4,0.1
				c-0.1,0,0.8,0.1-0.1,0l0.4,0l0.9,0l1.7,0l0.9,0l0.4,0c0.1,0,0.4,0,0.2,0c-0.1,0-0.1,0-0.2,0c-0.1,0-0.1,0,0,0
				c0.1-0.1,0.3-0.1,0.4-0.2c0.4-0.2,0.8-0.4,1.2-0.7c1.7-1.1,3.5-2.5,5.2-3.9c3.5-2.9,6.9-6,10.3-9.1
				c13.6-12.5,26.9-25.4,40.8-37.4c7-6.1,14-12,21.4-17.5c1.9-1.4,3.7-2.7,5.6-4c2-1.3,3.9-2.6,5.9-3.8c3.9-2.4,8-4.6,12-6.7
				c16.1-8.3,32.2-15.6,47.7-23.6c15.5-7.9,30.4-16.2,43.8-26.2c6.6-5,12.8-10.4,18-16.5c5.1-6.2,9-13.2,10.4-20.7l0.3-2.8
				c0-0.5,0.1-0.9,0.1-1.4l-0.1-1.5l-0.1-3l-0.4-2.8c-0.3-1.9-0.5-3.9-0.8-5.8c-0.3-1.9-0.7-3.8-1.1-5.7c-1.4-7.6-3.6-14.9-6-21.9
				c-5.2-14-12.2-26.8-20.8-37.7c-1.1-1.4-2.2-2.7-3.2-4c-1.1-1.3-2.3-2.6-3.4-3.8c-2.2-2.6-4.7-4.8-7-7.2c-4.9-4.5-9.9-8.7-15-12.4
				c-10.3-7.4-20.9-13.3-31.2-17.9c-20.7-9.3-40.1-13.9-56.1-16.8c-16.1-2.7-28.9-3.6-37.6-4c-4.4-0.2-7.7-0.3-10-0.3
				C750.9,809,749.8,809,749.8,809z"/>
		</g>
	</g>
	<g>
		<g>
			<path class="st7" d="M622.1,180.4c-4.7-1.4-9.2-3.1-13.7-5c-4.5-1.9-8.9-3.9-13.3-6.1c-4.4-2.2-8.7-4.5-13-6.8
				c-4.3-2.4-8.5-4.8-12.7-7.3c-4.2-2.5-8.3-5.1-12.4-7.8c-4.1-2.7-8.2-5.4-12.2-8.2c-4-2.8-8-5.6-11.9-8.6c-3.9-3-7.8-5.9-11.6-9
				c-3.8-3-7.6-6.2-11.3-9.4c-3.7-3.2-7.3-6.5-10.9-9.8c-3.6-3.4-7.1-6.8-10.5-10.3c-3.4-3.5-6.8-7.1-10-10.8
				c-1.6-1.8-3.3-3.7-4.8-5.6c-1.6-1.9-3.2-3.8-4.6-5.7c-3.1-3.9-6-7.9-8.8-11.9c-1.4-2.1-2.8-4.1-4.1-6.2l-3.8-6.4L449,39l-3.2-6.7
				l5.7-0.5l-1,4.7c-0.2,1.6-0.5,3.2-0.8,4.8c-0.4,3.2-0.7,6.4-0.8,9.6c-0.1,3.2-0.1,6.5-0.1,9.7l0.2,4.9l0.4,4.8
				c0.3,3.2,0.7,6.5,1.3,9.7c0.5,3.2,1.1,6.4,1.8,9.6c0.7,3.2,1.5,6.3,2.3,9.5c0.8,3.1,1.8,6.3,2.8,9.3c1,3.1,2.2,6.1,3.3,9.2
				c1.2,3,2.5,6,3.8,8.9l2.1,4.4l2.3,4.3c1.6,2.8,3.2,5.6,4.9,8.3l2.7,4l2.9,3.9l3,3.7c1.1,1.2,2.1,2.4,3.2,3.5
				c2.2,2.3,4.5,4.5,7,6.4c2.4,2,5.1,3.6,7.7,5.2l0.1,0.1c1.7,1,2.3,3.1,1.3,4.8c-0.7,1.2-2.1,1.9-3.4,1.7c-5.7-0.5-11.3-1.1-17-1.8
				c-2.8-0.3-5.7-0.7-8.5-1.1c-2.8-0.3-5.7-0.9-8.5-1.3c-2.8-0.4-5.7-1-8.5-1.6c-2.8-0.5-5.6-1.3-8.4-2c-2.8-0.6-5.6-1.6-8.4-2.4
				c-2.8-0.8-5.5-1.9-8.2-2.9c-2.7-1-5.4-2.3-8-3.5c-2.6-1.3-5.2-2.7-7.8-4.1c-2.5-1.6-4.9-3.1-7.3-4.8c-2.3-1.8-4.7-3.5-6.9-5.4
				c-2.1-2-4.4-3.8-6.4-6c-2-2.1-4.1-4.2-5.9-6.4c-1.8-2.3-3.7-4.5-5.4-6.8l-5-7.1l5.7-1.5c0,2-0.1,4,0.1,5.9c0,1,0.2,2,0.3,3
				c0.1,1,0.3,2,0.5,3c0.4,2,1,3.9,1.6,5.9c0.7,1.9,1.4,3.8,2.2,5.7c3.2,7.5,7.8,14.6,12.8,21.3c5.1,6.6,10.8,12.9,16.9,18.7
				c3,2.9,6.1,5.8,9.3,8.5c3.2,2.7,6.5,5.4,9.8,7.9l0.1,0.1c1,0.7,1.2,2.1,0.5,3.1c-0.4,0.6-1.1,0.9-1.8,0.9
				c-3.5-0.1-6.9-0.3-10.3-0.6c-3.4-0.3-6.8-0.7-10.2-1.1c-1.7-0.2-3.4-0.5-5.1-0.8c-1.7-0.3-3.4-0.5-5.1-0.9
				c-3.4-0.6-6.7-1.4-10-2.2c-1.7-0.4-3.3-0.9-5-1.4c-1.7-0.4-3.3-1-4.9-1.6c-1.6-0.6-3.3-1.1-4.8-1.8l-4.8-2
				c-1.6-0.7-3.1-1.5-4.6-2.3c-1.6-0.7-3-1.6-4.5-2.5c-1.5-0.9-3-1.7-4.3-2.8l-4.1-3.1l1.9-1.1l0.9,3.7c0.3,1.2,0.6,2.5,1.1,3.7
				l1.4,3.6c0.5,1.2,1.1,2.3,1.7,3.4c0.6,1.2,1.1,2.3,1.9,3.3c0.7,1.1,1.4,2.2,2.1,3.2l2.4,3c0.8,1,1.7,1.9,2.6,2.9
				c0.9,1,1.8,1.9,2.7,2.7c1,0.8,1.9,1.8,2.9,2.6c1,0.8,2,1.6,3,2.4l3.2,2.2c2.2,1.4,4.4,2.7,6.7,3.9c2.3,1.2,4.7,2.2,7.2,3
				c-2.5-0.7-4.9-1.7-7.3-2.7c-2.4-1.1-4.7-2.3-7-3.6l-3.3-2.1c-1.1-0.7-2.1-1.5-3.2-2.3c-1.1-0.7-2-1.7-3-2.5c-1-0.8-2-1.7-2.9-2.7
				c-0.9-1-1.9-1.8-2.7-2.9l-2.5-3c-0.8-1.1-1.5-2.2-2.3-3.2c-0.8-1.1-1.4-2.2-2.1-3.4c-0.6-1.2-1.3-2.3-1.9-3.5l-1.5-3.7
				c-0.6-1.2-0.9-2.5-1.3-3.8l-1.1-3.8c-0.2-0.6,0.2-1.2,0.8-1.4c0.3-0.1,0.7,0,1,0.2l0.1,0.1l4.1,2.9c1.3,1,2.9,1.7,4.3,2.6
				c1.4,0.8,2.9,1.6,4.4,2.3c1.5,0.7,3,1.4,4.6,2.1l4.7,1.8c1.6,0.6,3.2,1,4.8,1.5c1.6,0.5,3.2,1,4.8,1.4c1.6,0.4,3.2,0.9,4.9,1.2
				c3.3,0.7,6.6,1.4,9.9,2c1.6,0.3,3.3,0.5,5,0.8c1.7,0.3,3.3,0.5,5,0.6c3.3,0.4,6.7,0.7,10,0.9c3.3,0.2,6.7,0.4,10,0.4l-1.3,4
				c-3.6-2.5-6.9-5.2-10.3-7.9c-3.3-2.7-6.6-5.6-9.7-8.5c-6.3-5.9-12.3-12.2-17.7-19c-1.4-1.7-2.7-3.4-4-5.2
				c-1.3-1.8-2.5-3.6-3.7-5.4c-1.2-1.8-2.3-3.7-3.4-5.7c-1-2-2.1-3.9-3-5.9c-0.9-2-1.7-4.1-2.5-6.2c-0.7-2.1-1.3-4.3-1.8-6.5
				c-0.3-1.1-0.5-2.2-0.6-3.3c-0.2-1.1-0.4-2.2-0.4-3.4c-0.3-2.3-0.2-4.6-0.2-6.8c0-1.7,1.4-3,3.1-3c1,0,1.9,0.5,2.4,1.3l0.2,0.2
				l4.9,6.7c1.7,2.2,3.5,4.3,5.2,6.4c1.8,2.1,3.8,4,5.7,6c1.9,2,4.1,3.7,6.1,5.5c2.1,1.8,4.3,3.3,6.5,5c2.3,1.5,4.6,3,6.9,4.4
				c2.4,1.3,4.8,2.6,7.3,3.8c2.5,1.1,5,2.3,7.6,3.3c2.6,0.9,5.1,2,7.8,2.7c2.7,0.8,5.3,1.7,8,2.3c2.7,0.7,5.4,1.4,8.1,1.9
				c2.7,0.5,5.5,1.1,8.2,1.5c2.8,0.4,5.5,0.9,8.3,1.3c2.8,0.3,5.6,0.8,8.4,1.1c5.6,0.6,11.2,1.2,16.8,1.7l-2,6.6
				c-3.1-1.7-6.1-3.6-8.8-5.9c-2.8-2.2-5.3-4.6-7.7-7c-1.2-1.2-2.3-2.6-3.5-3.8l-3.2-4l-3-4.1l-2.8-4.3c-1.8-2.9-3.5-5.8-5.2-8.8
				l-2.4-4.5l-2.2-4.6c-1.4-3.1-2.7-6.2-4-9.3c-1.2-3.2-2.4-6.3-3.4-9.5c-1.1-3.2-2-6.4-2.9-9.7c-0.9-3.2-1.7-6.5-2.4-9.8
				c-0.7-3.3-1.3-6.6-1.8-10c-0.5-3.3-0.9-6.7-1.2-10.1l-0.4-5.1l-0.2-5.1c-0.1-3.4,0-6.8,0.2-10.2c0.2-3.4,0.5-6.8,1-10.2
				c0.2-1.7,0.6-3.4,0.9-5.1l1.1-5c0.4-1.6,2-2.7,3.6-2.3c1,0.2,1.7,0.9,2.1,1.7l0.1,0.1l3,6.5l3.3,6.4l3.6,6.2
				c1.2,2.1,2.6,4.1,3.8,6.1c2.6,4,5.4,8,8.3,11.8c1.4,2,2.9,3.8,4.4,5.7c1.5,1.9,3,3.8,4.6,5.6c3.1,3.7,6.4,7.3,9.6,10.8
				c3.3,3.5,6.7,7,10.1,10.4c3.5,3.4,7,6.7,10.6,9.9c3.6,3.2,7.2,6.5,11,9.5c3.7,3.1,7.5,6.2,11.3,9.2c3.8,3,7.7,6,11.5,8.9
				c3.9,2.9,7.8,5.7,11.8,8.5c4,2.8,8,5.5,12.1,8.1c4.1,2.6,8.2,5.2,12.4,7.7c4.2,2.5,8.4,4.9,12.7,7.2
				C604.1,172.8,612.9,177.2,622.1,180.4z"/>
		</g>
		<g>
			<path class="st7" d="M819.7,180.4c9.2-3.2,17.9-7.6,26.5-12.2c4.3-2.3,8.5-4.7,12.7-7.2c4.2-2.5,8.3-5.1,12.4-7.7
				c4.1-2.6,8.1-5.3,12.1-8.1c4-2.8,7.9-5.6,11.8-8.5c3.9-2.9,7.7-5.9,11.5-8.9c3.8-3,7.6-6,11.3-9.2c3.7-3.1,7.4-6.3,11-9.5
				c3.6-3.2,7.1-6.6,10.6-9.9c3.4-3.4,6.8-6.8,10.1-10.4c3.3-3.5,6.5-7.1,9.6-10.8c1.6-1.8,3.1-3.7,4.6-5.6c1.5-1.9,3-3.8,4.4-5.7
				c2.9-3.8,5.7-7.8,8.3-11.8c1.3-2,2.6-4,3.8-6.1l3.6-6.2l3.3-6.4l3-6.5l0.1-0.1c0.7-1.5,2.5-2.2,4-1.5c0.9,0.4,1.5,1.2,1.7,2.1
				l1.1,5c0.3,1.7,0.6,3.4,0.9,5.1c0.5,3.4,0.8,6.8,1,10.2c0.2,3.4,0.2,6.8,0.2,10.2l-0.2,5.1l-0.4,5.1c-0.3,3.4-0.7,6.7-1.2,10.1
				c-0.5,3.3-1.1,6.7-1.8,10c-0.7,3.3-1.5,6.6-2.4,9.8c-0.9,3.3-1.9,6.5-2.9,9.7c-1,3.2-2.2,6.4-3.4,9.5c-1.2,3.1-2.6,6.3-4,9.3
				l-2.2,4.6l-2.4,4.5c-1.6,3-3.4,5.9-5.2,8.8l-2.8,4.3l-3,4.1l-3.2,4c-1.2,1.3-2.3,2.6-3.5,3.8c-2.4,2.5-4.9,4.9-7.7,7
				c-2.7,2.2-5.7,4.1-8.8,5.9l-2-6.6c5.6-0.5,11.2-1.1,16.8-1.7c2.8-0.3,5.6-0.7,8.4-1.1c2.8-0.3,5.5-0.8,8.3-1.3
				c2.8-0.4,5.5-1,8.2-1.5c2.8-0.5,5.4-1.2,8.1-1.9c2.7-0.6,5.3-1.5,8-2.3c2.7-0.7,5.2-1.8,7.8-2.7c2.6-0.9,5-2.2,7.6-3.3
				c2.5-1.2,4.8-2.6,7.3-3.8c2.3-1.5,4.6-2.9,6.9-4.4c2.2-1.7,4.4-3.2,6.5-5c2-1.9,4.2-3.6,6.1-5.5c1.9-2,3.9-3.9,5.7-6
				c1.7-2.1,3.6-4.2,5.2-6.4l4.9-6.7l0.1-0.2c1-1.4,2.9-1.7,4.3-0.7c0.8,0.6,1.3,1.5,1.3,2.4c0,2.3,0.1,4.6-0.2,6.8
				c-0.1,1.1-0.2,2.3-0.4,3.4c-0.2,1.1-0.3,2.2-0.6,3.3c-0.5,2.2-1.1,4.4-1.8,6.5c-0.8,2.1-1.5,4.2-2.5,6.2c-0.9,2-1.9,4-3,5.9
				c-1.1,1.9-2.2,3.8-3.4,5.7c-1.2,1.9-2.4,3.7-3.7,5.4c-1.3,1.8-2.6,3.5-4,5.2c-5.4,6.8-11.4,13.1-17.7,19
				c-3.2,2.9-6.4,5.8-9.7,8.5c-3.3,2.8-6.7,5.4-10.3,7.9l-1.3-4c3.3,0,6.7-0.1,10-0.4c3.3-0.2,6.7-0.5,10-0.9c1.7-0.2,3.3-0.4,5-0.6
				c1.7-0.2,3.3-0.5,5-0.8c3.3-0.5,6.6-1.2,9.9-2c1.6-0.4,3.2-0.8,4.9-1.2c1.6-0.4,3.2-0.9,4.8-1.4c1.6-0.5,3.2-0.9,4.8-1.5l4.7-1.8
				c1.5-0.6,3-1.4,4.6-2.1c1.5-0.6,3-1.5,4.4-2.3c1.4-0.9,3-1.5,4.3-2.6l4.1-2.9l0.1-0.1c0.5-0.4,1.2-0.2,1.6,0.3
				c0.2,0.3,0.3,0.7,0.2,1l-1.1,3.8c-0.4,1.3-0.7,2.6-1.3,3.8l-1.5,3.7c-0.5,1.2-1.2,2.3-1.9,3.5c-0.6,1.2-1.3,2.3-2.1,3.4
				c-0.8,1.1-1.5,2.2-2.3,3.2l-2.5,3c-0.8,1-1.8,1.9-2.7,2.9c-0.9,0.9-1.9,1.9-2.9,2.7c-1,0.8-2,1.8-3,2.5c-1.1,0.8-2.1,1.6-3.2,2.3
				l-3.3,2.1c-2.3,1.3-4.6,2.5-7,3.6c-2.4,1.1-4.8,2-7.3,2.7c2.5-0.8,4.9-1.9,7.2-3c2.3-1.2,4.6-2.5,6.7-3.9l3.2-2.2
				c1-0.8,2-1.6,3-2.4c1-0.8,1.9-1.7,2.9-2.6c1-0.8,1.9-1.8,2.7-2.7c0.9-1,1.8-1.8,2.6-2.9l2.4-3c0.7-1.1,1.4-2.2,2.1-3.2
				c0.7-1.1,1.3-2.2,1.9-3.3c0.6-1.2,1.2-2.3,1.7-3.4l1.4-3.6c0.5-1.2,0.8-2.4,1.1-3.7l0.9-3.7l1.9,1.1l-4.1,3.1
				c-1.3,1.1-2.9,1.9-4.3,2.8c-1.5,0.9-2.9,1.8-4.5,2.5c-1.5,0.8-3.1,1.6-4.6,2.3l-4.8,2c-1.6,0.7-3.2,1.2-4.8,1.8
				c-1.6,0.6-3.3,1.1-4.9,1.6c-1.7,0.5-3.3,1-5,1.4c-3.3,0.8-6.7,1.6-10,2.2c-1.7,0.4-3.4,0.6-5.1,0.9c-1.7,0.3-3.4,0.5-5.1,0.8
				c-3.4,0.5-6.8,0.8-10.2,1.1c-3.4,0.3-6.8,0.5-10.3,0.6c-1.2,0-2.2-0.9-2.2-2.2c0-0.7,0.3-1.4,0.9-1.8l0.1-0.1
				c3.3-2.5,6.6-5.2,9.8-7.9c3.2-2.8,6.3-5.6,9.3-8.5c6.1-5.9,11.8-12.1,16.9-18.7c5.1-6.7,9.6-13.7,12.8-21.3
				c0.9-1.9,1.5-3.8,2.2-5.7c0.6-1.9,1.2-3.9,1.6-5.9c0.3-1,0.4-2,0.5-3c0.2-1,0.3-2,0.3-3c0.2-2,0.1-4,0.1-5.9l5.7,1.5l-5,7.1
				c-1.7,2.3-3.6,4.5-5.4,6.8c-1.8,2.3-4,4.3-5.9,6.4c-2,2.1-4.3,4-6.4,6c-2.2,1.9-4.6,3.6-6.9,5.4c-2.4,1.7-4.9,3.2-7.3,4.8
				c-2.6,1.4-5.1,2.8-7.8,4.1c-2.7,1.2-5.3,2.5-8,3.5c-2.7,1-5.4,2.1-8.2,2.9c-2.8,0.8-5.5,1.8-8.4,2.4c-2.8,0.7-5.6,1.4-8.4,2
				c-2.8,0.6-5.6,1.2-8.5,1.6c-2.8,0.5-5.7,1-8.5,1.3c-2.8,0.4-5.7,0.8-8.5,1.1c-5.7,0.7-11.3,1.2-17,1.8c-1.9,0.2-3.7-1.2-3.8-3.2
				c-0.1-1.4,0.6-2.7,1.7-3.4l0.1-0.1c2.7-1.5,5.3-3.2,7.7-5.2c2.5-1.9,4.8-4.1,7-6.4c1.1-1.1,2.1-2.4,3.2-3.5l3-3.7l2.9-3.9l2.7-4
				c1.7-2.7,3.4-5.5,4.9-8.3l2.3-4.3l2.1-4.4c1.3-3,2.6-5.9,3.8-8.9c1.2-3,2.3-6.1,3.3-9.2c1-3.1,2-6.2,2.8-9.3
				c0.9-3.1,1.7-6.3,2.3-9.5c0.7-3.2,1.3-6.4,1.8-9.6c0.5-3.2,0.9-6.4,1.3-9.7l0.4-4.8l0.2-4.9c0.1-3.2,0.1-6.5-0.1-9.7
				c-0.2-3.2-0.4-6.4-0.8-9.6c-0.2-1.6-0.5-3.2-0.8-4.8l-1-4.7l5.7,0.5l-3.2,6.7l-3.5,6.6l-3.8,6.4c-1.3,2.1-2.7,4.1-4.1,6.2
				c-2.8,4.1-5.7,8.1-8.8,11.9c-1.5,2-3.1,3.8-4.6,5.7c-1.6,1.9-3.2,3.8-4.8,5.6c-3.2,3.7-6.6,7.3-10,10.8
				c-3.4,3.5-6.9,6.9-10.5,10.3c-3.6,3.3-7.2,6.6-10.9,9.8c-3.7,3.2-7.4,6.4-11.3,9.4c-3.8,3.1-7.7,6.1-11.6,9
				c-3.9,2.9-7.9,5.8-11.9,8.6c-4,2.8-8.1,5.5-12.2,8.2c-4.1,2.6-8.2,5.2-12.4,7.8c-4.2,2.5-8.4,4.9-12.7,7.3
				c-4.3,2.4-8.6,4.6-13,6.8c-4.4,2.2-8.8,4.2-13.3,6.1C828.9,177.3,824.4,179.1,819.7,180.4z"/>
		</g>
	</g>
	<g>
		<g>
			<path class="st8" d="M523.5,814.8c0,0-0.1,0.6-0.2,1.6c-0.1,1.1-0.4,2.6-0.7,4.6c-0.4,2-0.9,4.4-1.7,7.1c-0.7,2.7-1.6,5.7-2.6,9
				c-2,6.6-4.6,14.1-7.5,22.2c-2.9,8-6,16.6-9.1,25.2c-3.1,8.5-6,17.1-8.6,25.3c-1.2,4.1-2.4,8-3.4,11.8c-1,3.8-1.8,7.3-2.4,10.7
				c-0.6,3.3-1,6.4-1.3,9.1c-0.1,1.4-0.1,2.7-0.2,3.8c0,1.2,0,2.3,0.1,3.3c0.2,2,0.3,3.5,0.6,4.6c0.2,1,0.3,1.6,0.3,1.6
				s-0.2-0.5-0.6-1.5c-0.4-1-0.8-2.5-1.3-4.5c-0.1-1-0.3-2.1-0.5-3.3c-0.1-1.2-0.2-2.5-0.2-4c0-2.8,0-6,0.4-9.5
				c0.3-3.5,0.9-7.2,1.7-11.1c0.8-3.9,1.7-8,2.8-12.1c1.2-4.2,2.3-8.5,3.8-12.7c1.4-4.3,2.9-8.6,4.4-13c1.6-4.3,3.2-8.6,4.8-12.8
				c1.6-4.2,3.3-8.3,4.9-12.3c3.2-7.9,6.3-15.3,8.9-21.6c2.6-6.3,4.6-11.6,5.9-15.4c0.6-1.9,1.1-3.4,1.4-4.4
				C523.3,815.4,523.5,814.8,523.5,814.8z"/>
		</g>
		<g>
			<path class="st8" d="M918.3,814.8c0,0,0.2,0.6,0.4,1.6c0.3,1,0.8,2.5,1.4,4.4c1.3,3.8,3.3,9.1,5.9,15.4
				c2.6,6.3,5.6,13.7,8.9,21.6c1.6,4,3.3,8.1,4.9,12.3c1.6,4.2,3.2,8.5,4.8,12.8c1.5,4.3,3,8.7,4.4,13c1.4,4.3,2.6,8.6,3.8,12.7
				c1.1,4.2,2.1,8.2,2.8,12.1c0.8,3.9,1.3,7.6,1.7,11.1c0.4,3.4,0.5,6.6,0.4,9.5c-0.1,1.4-0.1,2.7-0.2,4c-0.2,1.2-0.3,2.3-0.5,3.3
				c-0.5,2-0.9,3.5-1.3,4.5c-0.4,1-0.6,1.5-0.6,1.5s0.1-0.6,0.3-1.6c0.3-1,0.4-2.6,0.6-4.6c0-1,0-2.1,0.1-3.3
				c-0.1-1.2-0.1-2.5-0.2-3.8c-0.3-2.7-0.7-5.8-1.3-9.1c-0.6-3.3-1.5-6.9-2.4-10.7c-1-3.8-2.2-7.7-3.4-11.8
				c-2.6-8.1-5.5-16.7-8.6-25.3c-3.1-8.6-6.2-17.1-9.1-25.2c-2.9-8.1-5.5-15.6-7.5-22.2c-1-3.3-1.9-6.3-2.6-9
				c-0.7-2.7-1.3-5.1-1.7-7.1c-0.4-2-0.6-3.5-0.7-4.6C918.4,815.4,918.3,814.8,918.3,814.8z"/>
		</g>
	</g>
	<g>
		<g>
			<path d="M552.2,1012c0,0-0.1-0.1-0.2-0.3c-0.2-0.2-0.4-0.5-0.7-0.9c-0.3-0.4-0.6-0.9-0.9-1.7c-0.1-0.4-0.2-0.8-0.2-1.4
				c0-0.6,0.4-1.2,0.9-1.7c1-0.9,2.3-1.2,3.6-1.4c1.2-0.2,2.5-0.1,3.9,0c2.7,0.2,5.5,0.8,8.6,1.7c12.2,3.4,27,10.7,40.6,19.8
				c3.4,2.3,6.8,4.6,10,7.1c3.2,2.4,6.3,4.9,9.2,7.4c5.8,5,10.9,10.1,15,14.7c2,2.3,3.9,4.5,5.4,6.4c1.6,2,2.8,3.8,3.9,5.2
				c2.1,3,3.1,4.8,3.1,4.8s-0.4-0.3-1.3-0.8c-0.8-0.5-2-1.3-3.5-2.3c-2.9-2-7.1-4.8-12.1-8.2c-10-6.8-23-15.7-36.2-24.5
				c-3.3-2.2-6.6-4.4-9.8-6.5c-3.3-2.1-6.5-4.2-9.6-6.2c-6.2-4-12.1-7.7-17.2-10.5c-2.6-1.4-4.9-2.7-7-3.6c-2.1-0.9-4.1-1.4-5-1.2
				c-0.4,0-0.6,0.5-0.7,1.1c-0.1,0.6,0,1.2,0.1,1.6C552.1,1011.5,552.2,1012,552.2,1012z"/>
		</g>
		<g>
			<path d="M889.5,1012c0,0,0.1-0.5,0.3-1.4c0.1-0.4,0.2-1,0.1-1.6c-0.1-0.6-0.3-1.1-0.7-1.1c-0.8-0.3-2.9,0.3-5,1.2
				c-2.1,0.9-4.5,2.2-7,3.6c-5.1,2.9-11,6.5-17.2,10.5c-3.1,2-6.3,4.1-9.6,6.2c-3.2,2.2-6.5,4.3-9.8,6.5
				c-13.2,8.8-26.3,17.7-36.2,24.5c-5,3.4-9.2,6.2-12.1,8.2c-1.5,1-2.7,1.8-3.5,2.3c-0.8,0.5-1.3,0.8-1.3,0.8s1-1.8,3.1-4.8
				c1-1.5,2.3-3.3,3.9-5.2c1.5-2,3.4-4.1,5.4-6.4c4.1-4.6,9.2-9.6,15-14.7c2.9-2.5,6-5,9.2-7.4c3.2-2.5,6.6-4.8,10-7.1
				c13.6-9.1,28.5-16.4,40.6-19.8c3-0.8,5.9-1.4,8.6-1.7c1.3-0.1,2.6-0.2,3.9,0c1.2,0.2,2.5,0.4,3.6,1.4c0.5,0.5,0.8,1.1,0.9,1.7
				c0.1,0.6,0,1-0.2,1.4c-0.2,0.8-0.6,1.3-0.9,1.7c-0.3,0.4-0.5,0.7-0.7,0.9C889.6,1011.9,889.5,1012,889.5,1012z"/>
		</g>
	</g>
	<g>
		<g>
			<path class="st7" d="M415.8,558c-3.4,3.3-6.9,6.4-10.5,9.4c-1.8,1.5-3.7,2.9-5.5,4.4c-1.8,1.5-3.8,2.8-5.6,4.2
				c-1.9,1.4-3.8,2.7-5.8,4c-1.9,1.4-3.9,2.6-5.9,3.9c-2,1.3-4,2.5-6,3.7c-2,1.2-4,2.4-6.1,3.5l-6.3,3.3l-6.4,2.9
				c-2.1,1-4.3,1.8-6.5,2.7c-2.2,0.8-4.4,1.8-6.6,2.4l-6.8,2.1c-2.3,0.7-4.6,1.1-6.9,1.6l-3.5,0.8c-1.2,0.2-2.3,0.3-3.5,0.5l-7,0.9
				l0.5-1.1c0.9,0.9,1.8,1.8,2.8,2.7c1.1,0.7,2.1,1.5,3.2,2.3l3.4,1.9c1.2,0.6,2.4,1.1,3.5,1.7c1.2,0.6,2.4,1,3.6,1.5
				c1.2,0.5,2.4,1,3.7,1.4c2.5,0.9,5,1.7,7.5,2.5c10.1,3,20.4,5.2,30.8,6.9l0,0c0.5,0.1,0.8,0.5,0.7,1c0,0.1-0.1,0.3-0.1,0.4
				c-4.3,6.2-9,12.1-13.8,17.9c-2.4,2.9-4.9,5.7-7.3,8.6l-7.6,8.3l-7.9,8.1c-2.6,2.7-5.4,5.2-8.1,7.9c-2.7,2.7-5.6,5.1-8.4,7.6
				l-4.2,3.7c-1.4,1.2-2.9,2.4-4.4,3.6c-2.9,2.3-5.8,4.8-8.8,7.1l-9.1,6.7c-3,2.3-6.3,4.2-9.4,6.3c-3.2,2.1-6.3,4.2-9.6,6l-9.8,5.6
				c-3.4,1.7-6.8,3.3-10.2,5l-5.1,2.5l-5.2,2.1l-10.5,4.2l0.1-1.9l7.4,3.6c1.3,0.6,2.5,1.3,3.8,1.7l3.9,1.5l3.9,1.5
				c1.3,0.5,2.6,0.9,3.9,1.3l7.9,2.5c2.7,0.7,5.4,1.4,8,2.1c2.7,0.7,5.4,1.2,8.1,1.9c2.7,0.6,5.4,1.1,8.1,1.6
				c2.7,0.5,5.5,0.9,8.2,1.3l0,0c0.5,0.1,0.8,0.5,0.7,0.9l0,0.1c-0.8,2.6-1.9,5-3.1,7.4c-0.6,1.2-1.2,2.3-1.9,3.5l-2.1,3.4l-2.3,3.3
				l-2.5,3.1c-0.8,1-1.8,2-2.7,2.9c-0.9,1-1.9,1.9-2.9,2.8c-1,0.9-1.9,1.8-3,2.6c-1.1,0.8-2.1,1.6-3.2,2.4l-3.4,2.1
				c-1.1,0.8-2.3,1.3-3.5,1.9c-1.2,0.6-2.3,1.3-3.6,1.7l-3.7,1.4c-1.2,0.5-2.5,0.8-3.8,1.1l-3.9,1l0.2-1.3l6,3.5
				c2,1.2,4.1,2.1,6.2,3.2c2.1,1.1,4.2,1.9,6.4,2.8c2.1,0.9,4.3,1.7,6.5,2.4l3.3,1.1l3.4,0.9c2.2,0.6,4.5,1.3,6.8,1.7
				c2.3,0.5,4.5,1.1,6.8,1.4c2.3,0.4,4.6,0.8,6.9,1c2.3,0.2,4.6,0.6,7,0.7c2.3,0.1,4.7,0.4,7,0.3c2.3,0,4.7,0.1,7,0
				c2.3-0.1,4.7-0.1,7-0.3c2.3-0.2,4.7-0.3,7-0.6c2.3-0.2,4.6-0.5,7-0.9c2.3-0.3,4.6-0.8,6.9-1.2c2.3-0.4,4.6-1,6.9-1.5
				c-2.3,0.5-4.5,1.1-6.8,1.6c-2.3,0.5-4.6,1-6.9,1.3c-2.3,0.4-4.6,0.8-6.9,1c-2.3,0.3-4.7,0.5-7,0.7c-2.3,0.2-4.7,0.3-7,0.4
				c-2.3,0.2-4.7,0.1-7,0.1c-2.3,0.1-4.7-0.2-7-0.2c-2.3-0.1-4.7-0.4-7-0.6c-2.3-0.2-4.7-0.6-7-0.9c-2.3-0.3-4.6-0.8-6.9-1.3
				c-2.3-0.4-4.6-1-6.8-1.7L284,812l-3.3-1.1c-2.2-0.7-4.5-1.5-6.6-2.4c-2.2-0.9-4.4-1.7-6.5-2.8c-2.1-1.1-4.3-2-6.3-3.2l-6.1-3.5
				c-0.3-0.2-0.4-0.6-0.2-0.9c0.1-0.2,0.2-0.3,0.4-0.3l0.1,0l3.8-1c1.3-0.3,2.5-0.6,3.7-1.1l3.6-1.4c1.2-0.4,2.3-1.1,3.5-1.7
				c1.1-0.6,2.3-1.1,3.4-1.8l3.3-2.1c1.1-0.7,2.1-1.6,3.1-2.3c1.1-0.8,2-1.6,2.9-2.5c0.9-0.9,1.9-1.7,2.8-2.7c0.9-1,1.8-1.9,2.6-2.9
				l2.4-3l2.2-3.2l2-3.3c0.6-1.1,1.2-2.3,1.8-3.4c1.1-2.3,2.1-4.7,2.9-7.1l0.7,1.1c-2.8-0.4-5.5-0.8-8.3-1.3c-2.7-0.5-5.5-1-8.2-1.6
				c-2.7-0.6-5.5-1.1-8.2-1.8c-2.7-0.7-5.4-1.3-8.1-2.1l-8-2.4c-1.3-0.4-2.7-0.8-4-1.3l-3.9-1.5l-3.9-1.5c-1.3-0.4-2.6-1.1-3.8-1.7
				l-7.6-3.6c-0.5-0.2-0.7-0.8-0.5-1.3c0.1-0.2,0.3-0.4,0.5-0.5l0.1,0l10.4-4.2l5.2-2.1l5-2.5c3.3-1.7,6.7-3.3,10-5l9.7-5.6
				c3.3-1.8,6.4-3.9,9.5-6c3.1-2.1,6.3-4,9.3-6.2l9.1-6.6c3-2.2,5.9-4.7,8.8-7c1.5-1.2,2.9-2.3,4.4-3.5l4.2-3.7
				c2.8-2.5,5.7-4.9,8.4-7.5c2.7-2.6,5.5-5.1,8.1-7.8l7.9-8l7.6-8.3c2.4-2.8,5-5.6,7.3-8.5c4.8-5.7,9.5-11.6,13.8-17.7l0.6,1.3
				c-10.5-1.7-20.8-4-31-7.1c-2.5-0.8-5.1-1.6-7.6-2.5c-1.3-0.4-2.5-0.9-3.7-1.4c-1.2-0.5-2.5-1-3.7-1.6c-1.2-0.6-2.4-1.1-3.6-1.8
				l-3.5-2c-1.1-0.8-2.2-1.6-3.3-2.4c-1-0.9-2-1.9-2.9-2.8c-0.3-0.2-0.3-0.7,0-0.9c0.1-0.1,0.2-0.2,0.4-0.2l0.1,0l6.9-0.9
				c1.2-0.2,2.3-0.3,3.5-0.5l3.4-0.7c2.3-0.5,4.6-0.9,6.8-1.6l6.7-2c2.3-0.6,4.4-1.6,6.6-2.3c2.2-0.8,4.4-1.6,6.5-2.6l6.4-2.8
				l6.3-3.1c2.1-1,4.1-2.2,6.2-3.4c2.1-1.1,4.1-2.3,6.1-3.6c2-1.2,4-2.4,5.9-3.8c1.9-1.3,3.9-2.6,5.8-3.9c1.9-1.4,3.8-2.7,5.7-4.1
				c1.8-1.4,3.7-2.8,5.5-4.3C408.8,564.3,412.4,561.3,415.8,558z"/>
		</g>
		<g>
			<path class="st7" d="M1026,558c3.4,3.2,7,6.3,10.6,9.2c1.8,1.5,3.7,2.9,5.5,4.3c1.9,1.4,3.8,2.8,5.7,4.1c1.9,1.4,3.9,2.6,5.8,3.9
				c1.9,1.3,4,2.5,5.9,3.8c2,1.3,4,2.4,6.1,3.6c2.1,1.1,4.1,2.3,6.2,3.4l6.3,3.1l6.4,2.8c2.1,1,4.3,1.7,6.5,2.6
				c2.2,0.8,4.3,1.7,6.6,2.3l6.7,2c2.2,0.6,4.6,1,6.8,1.6l3.4,0.7c1.1,0.2,2.3,0.3,3.5,0.5l6.9,0.9l0.1,0c0.4,0,0.6,0.4,0.6,0.7
				c0,0.2-0.1,0.3-0.2,0.4c-1,0.9-1.9,2-2.9,2.8c-1.1,0.8-2.2,1.6-3.3,2.4l-3.5,2c-1.2,0.6-2.4,1.2-3.6,1.8
				c-1.2,0.6-2.4,1.1-3.7,1.6c-1.2,0.5-2.5,1-3.7,1.4c-2.5,0.9-5,1.7-7.6,2.5c-10.2,3.1-20.5,5.4-31,7.1l0.6-1.3
				c4.3,6.1,8.9,12,13.8,17.7c2.4,2.9,4.9,5.7,7.3,8.5l7.6,8.3l7.9,8c2.6,2.7,5.4,5.2,8.1,7.8c2.7,2.6,5.6,5,8.4,7.5l4.2,3.7
				c1.4,1.2,2.9,2.4,4.4,3.5c2.9,2.3,5.8,4.7,8.8,7l9.1,6.6c3,2.3,6.2,4.1,9.3,6.2c3.1,2.1,6.2,4.2,9.5,6l9.7,5.6
				c3.3,1.7,6.7,3.3,10,5l5,2.5l5.2,2.1l10.4,4.2l0.1,0c0.5,0.2,0.8,0.8,0.5,1.3c-0.1,0.2-0.3,0.4-0.5,0.5l-7.6,3.6
				c-1.3,0.6-2.5,1.3-3.8,1.7l-3.9,1.5l-3.9,1.5c-1.3,0.5-2.6,0.9-4,1.3l-8,2.4c-2.7,0.7-5.4,1.4-8.1,2.1c-2.7,0.7-5.4,1.2-8.2,1.8
				c-2.7,0.6-5.5,1.1-8.2,1.6c-2.7,0.5-5.5,0.9-8.3,1.3l0.7-1.1c0.8,2.4,1.8,4.8,2.9,7.1c0.6,1.2,1.2,2.3,1.8,3.4l2,3.3l2.2,3.2
				l2.4,3c0.8,1,1.7,1.9,2.6,2.9c0.8,1,1.8,1.8,2.8,2.7c0.9,0.9,1.9,1.8,2.9,2.5c1,0.8,2,1.6,3.1,2.3l3.3,2.1
				c1.1,0.7,2.3,1.2,3.4,1.8c1.2,0.5,2.3,1.2,3.5,1.7l3.6,1.4c1.2,0.5,2.5,0.8,3.7,1.1l3.8,1l0.1,0c0.4,0.1,0.6,0.5,0.5,0.8
				c0,0.2-0.2,0.3-0.3,0.4l-6.1,3.5c-2,1.2-4.2,2.1-6.3,3.2c-2.1,1.1-4.3,1.9-6.5,2.8c-2.2,0.9-4.4,1.7-6.6,2.4l-3.3,1.1l-3.4,0.9
				c-2.3,0.6-4.5,1.2-6.8,1.7c-2.3,0.5-4.6,1-6.9,1.3c-2.3,0.3-4.6,0.8-7,0.9c-2.3,0.2-4.7,0.5-7,0.6c-2.3,0.1-4.7,0.3-7,0.2
				c-2.3,0-4.7,0.1-7-0.1c-2.3-0.1-4.7-0.2-7-0.4c-2.3-0.2-4.7-0.4-7-0.7c-2.3-0.3-4.6-0.6-6.9-1c-2.3-0.3-4.6-0.8-6.9-1.3
				c-2.3-0.4-4.6-1.1-6.8-1.6c2.3,0.5,4.6,1.1,6.9,1.5c2.3,0.4,4.6,0.9,6.9,1.2c2.3,0.4,4.6,0.7,7,0.9c2.3,0.3,4.7,0.5,7,0.6
				c2.3,0.2,4.7,0.2,7,0.3c2.3,0.1,4.7,0,7,0c2.3,0,4.7-0.2,7-0.3c2.3-0.1,4.6-0.5,7-0.7c2.3-0.2,4.6-0.7,6.9-1
				c2.3-0.3,4.6-0.9,6.8-1.4c2.3-0.4,4.5-1.1,6.8-1.7l3.4-0.9l3.3-1.1c2.2-0.7,4.4-1.5,6.5-2.4c2.1-0.9,4.3-1.7,6.4-2.8
				c2.1-1.1,4.2-2,6.2-3.2l6-3.5l0.2,1.3l-3.9-1c-1.3-0.3-2.6-0.6-3.8-1.1l-3.7-1.4c-1.3-0.4-2.4-1.1-3.6-1.7
				c-1.2-0.6-2.4-1.1-3.5-1.9l-3.4-2.1c-1.1-0.8-2.1-1.6-3.2-2.4c-1.1-0.8-2.1-1.7-3-2.6c-1-0.9-2-1.8-2.9-2.8
				c-0.9-1-1.8-1.9-2.7-2.9l-2.5-3.1l-2.3-3.3l-2.1-3.4c-0.6-1.2-1.3-2.3-1.9-3.5c-1.2-2.4-2.2-4.8-3.1-7.4c-0.1-0.4,0.1-0.9,0.5-1
				l0.1,0l0,0c2.7-0.4,5.5-0.8,8.2-1.3c2.7-0.5,5.4-1,8.1-1.6c2.7-0.6,5.4-1.1,8.1-1.9c2.7-0.7,5.4-1.4,8-2.1l7.9-2.5
				c1.3-0.4,2.6-0.8,3.9-1.3l3.9-1.5l3.9-1.5c1.3-0.4,2.5-1.1,3.8-1.7l7.4-3.6l0.1,1.9l-10.5-4.2l-5.2-2.1l-5.1-2.5
				c-3.4-1.7-6.8-3.3-10.2-5l-9.8-5.6c-3.3-1.8-6.5-3.9-9.6-6c-3.1-2.1-6.4-4-9.4-6.3l-9.1-6.7c-3-2.3-5.9-4.7-8.8-7.1
				c-1.5-1.2-2.9-2.4-4.4-3.6l-4.2-3.7c-2.8-2.5-5.7-4.9-8.4-7.6c-2.7-2.6-5.5-5.2-8.1-7.9l-7.9-8.1l-7.6-8.3
				c-2.4-2.9-5-5.7-7.3-8.6c-4.8-5.8-9.4-11.7-13.8-17.9c-0.3-0.4-0.2-0.9,0.2-1.2c0.1-0.1,0.2-0.1,0.3-0.1l0,0
				c10.4-1.6,20.7-3.9,30.8-6.9c2.5-0.8,5-1.6,7.5-2.5c1.2-0.4,2.5-0.9,3.7-1.4c1.2-0.5,2.5-0.9,3.6-1.5c1.2-0.6,2.4-1.1,3.5-1.7
				l3.4-1.9c1.1-0.7,2.1-1.5,3.2-2.3c1-0.8,1.8-1.8,2.8-2.7l0.5,1.1l-7-0.9c-1.2-0.2-2.3-0.3-3.5-0.5l-3.5-0.8
				c-2.3-0.5-4.6-1-6.9-1.6l-6.8-2.1c-2.3-0.6-4.4-1.6-6.6-2.4c-2.2-0.8-4.4-1.6-6.5-2.7l-6.4-2.9l-6.3-3.3c-2.1-1-4.1-2.3-6.1-3.5
				c-2-1.2-4.1-2.4-6-3.7c-2-1.3-4-2.5-5.9-3.9c-1.9-1.4-3.9-2.6-5.8-4c-1.9-1.4-3.8-2.8-5.6-4.2c-1.8-1.5-3.7-2.9-5.5-4.4
				C1032.8,564.4,1029.3,561.3,1026,558z"/>
		</g>
	</g>
</g>
<g>
	<ellipse transform="matrix(0.99 -0.1412 0.1412 0.99 -92.996 65.0621)" class="st9" cx="411.9" cy="687.7" rx="27.7" ry="33"/>
	<circle class="st10" cx="420.1" cy="669.7" r="12.2"/>
</g>
<g>
	<ellipse transform="matrix(0.1412 -0.99 0.99 0.1412 204.4462 1611.134)" class="st9" cx="1030.9" cy="687.7" rx="33" ry="27.7"/>
	<circle class="st10" cx="1022.6" cy="669.7" r="12.2"/>
</g>
</svg>
